<?xml version="1.0" encoding="utf-8"?>
<!-- Generator: Adobe Illustrator 19.0.0, SVG Export Plug-In . SVG Version: 6.00 Build 0)  -->
<svg version="1.1" id="Capa_1" xmlns="http://www.w3.org/2000/svg" xmlns:xlink="http://www.w3.org/1999/xlink" x="0px" y="0px"
	 viewBox="0 0 2033.9 736" style="enable-background:new 0 0 2033.9 736;" xml:space="preserve">
<style type="text/css">
	.st0{fill:#ECE09E;}
	.st1{opacity:0.25;fill:#ECE09E;}
	.st2{opacity:0.58;fill:#ECE09E;}
	.st3{opacity:0.17;fill:#786A30;}
	.st4{opacity:0.13;fill:#ECE09E;}
	.st5{opacity:6.000000e-002;fill:#A38C2B;}
	.st6{opacity:0.15;fill:#CDAE2F;}
	.st7{opacity:8.000000e-002;fill:#CDAE2F;}
	.st8{opacity:6.000000e-002;fill:#CDAE2F;}
	.st9{opacity:7.000000e-002;fill:#B7A868;}
	.st10{fill:#706E6A;}
	.st11{fill:#DDC241;}
</style>
<rect id="XMLID_3220_" x="406.5" y="285.9" transform="matrix(0.9977 6.782605e-002 -6.782605e-002 0.9977 28.7194 -41.441)" class="st0" width="436.3" height="232.7"/>
<rect id="XMLID_3219_" x="1411.7" y="294.3" transform="matrix(0.9607 -0.2777 0.2777 0.9607 -41.3707 445.1803)" class="st1" width="278.7" height="148.7"/>
<rect id="XMLID_48_" x="1938.4" y="86.8" transform="matrix(0.9986 5.293800e-002 -5.293800e-002 0.9986 11.4422 -109.7676)" class="st1" width="278.7" height="148.7"/>
<rect id="XMLID_28_" x="1021.8" y="665.7" transform="matrix(0.9374 0.3482 -0.3482 0.9374 321.4834 -346.7365)" class="st2" width="206.9" height="110.4"/>
<rect id="XMLID_29_" x="1484.7" y="46.1" transform="matrix(0.9697 -0.2441 0.2441 0.9697 28.0349 380.9731)" class="st1" width="132.7" height="62.6"/>
<rect id="XMLID_30_" x="1419.8" y="132.9" transform="matrix(0.9376 0.3476 -0.3476 0.9376 144.0549 -495.8743)" class="st3" width="68.3" height="41.2"/>
<rect id="XMLID_51_" x="1913.3" y="449.4" transform="matrix(0.9376 0.3476 -0.3476 0.9376 284.8594 -647.6885)" class="st3" width="68.3" height="41.2"/>
<rect id="XMLID_47_" x="79.5" y="433.4" transform="matrix(-0.9697 -0.2441 0.2441 -0.9697 173.8403 950.9224)" class="st4" width="132.7" height="62.6"/>
<rect id="XMLID_46_" x="169.7" y="634.2" transform="matrix(-0.9376 0.3476 -0.3476 -0.9376 622.5748 1197.9346)" class="st5" width="68.3" height="41.2"/>
<rect id="XMLID_3215_" x="938.8" y="145.9" transform="matrix(0.9863 0.1649 -0.1649 0.9863 44.2407 -162.4709)" class="st1" width="124.1" height="78.7"/>
<rect id="XMLID_3214_" x="329.4" y="163.8" transform="matrix(0.9992 3.996392e-002 -3.996392e-002 0.9992 7.9361 -14.7334)" class="st6" width="86.2" height="54.7"/>
<rect id="XMLID_49_" x="-8.3" y="108.8" transform="matrix(0.9256 0.3784 -0.3784 0.9256 57.7516 -6.8854)" class="st7" width="109.3" height="69.4"/>
<rect id="XMLID_50_" x="1650.6" y="570.7" transform="matrix(0.9256 0.3784 -0.3784 0.9256 357.975 -610.9227)" class="st7" width="165.7" height="69.4"/>
<rect id="XMLID_3212_" x="333.3" y="542.9" transform="matrix(0.9562 -0.2926 0.2926 0.9562 -148.2257 130.2435)" class="st8" width="56" height="35.5"/>
<rect id="XMLID_3211_" x="408.4" y="579.5" transform="matrix(0.996 -8.925811e-002 8.925811e-002 0.996 -52.2426 42.5031)" class="st8" width="81.4" height="51.7"/>
<rect id="XMLID_3210_" x="876.9" y="169.9" transform="matrix(0.7864 -0.6177 0.6177 0.7864 77.036 593.3368)" class="st9" width="39.1" height="30.7"/>
<rect id="XMLID_44_" x="1116.5" y="438.5" transform="matrix(0.7864 -0.6177 0.6177 0.7864 -37.7137 798.6904)" class="st9" width="39.1" height="30.7"/>
<rect id="XMLID_45_" x="1157.4" y="391.1" transform="matrix(0.953 -0.3031 0.3031 0.953 -70.7476 380.44)" class="st9" width="65.9" height="54"/>
<g id="XMLID_3204_">
	<rect id="XMLID_3206_" x="508.8" y="104.1" class="st10" width="36.9" height="26.3"/>
	<rect id="XMLID_3205_" x="490.4" y="117.2" class="st11" width="36.9" height="26.3"/>
</g>
</svg>
