<?xml version="1.0" encoding="utf-8"?>
<!-- Generator: Adobe Illustrator 19.0.0, SVG Export Plug-In . SVG Version: 6.00 Build 0)  -->
<svg version="1.1" xmlns="http://www.w3.org/2000/svg" xmlns:xlink="http://www.w3.org/1999/xlink" x="0px" y="0px"
	 viewBox="0 0 1440 736" style="enable-background:new 0 0 1440 736;" xml:space="preserve">
<style type="text/css">
	.st0{fill:#E9EBED;}
	.st1{fill:#242829;}
	.st2{fill:#C7DFE3;}
	.st3{fill:#D3E3E8;}
	.st4{fill:none;stroke:#9EB89C;stroke-width:2;stroke-miterlimit:10;}
	.st5{fill:none;stroke:#515151;stroke-width:2;stroke-miterlimit:10;}
	.st6{fill:#E2DBBD;}
	.st7{fill:#CDA7A3;}
	.st8{opacity:0.17;}
	.st9{opacity:4.000000e-002;}
	.st10{opacity:5.000000e-002;}
	.st11{fill:#AC7D7D;}
	.st12{fill:#8DA488;}
	.st13{fill:#181819;}
	.st14{fill:none;stroke:#E9EBED;stroke-width:2;stroke-miterlimit:10;}
	.st15{fill:none;stroke:#242829;stroke-width:2;stroke-miterlimit:10;}
	.st16{fill:#ECE09E;}
	.st17{opacity:0.13;fill:#ECE09E;}
	.st18{opacity:6.000000e-002;fill:#ECE09E;}
	.st19{fill:none;stroke:#FFFFFF;stroke-width:0.5201;stroke-miterlimit:10;}
	.st20{fill:none;stroke:#FFFFFF;stroke-width:0.5917;stroke-miterlimit:10;}
	.st21{fill:none;stroke:#242829;stroke-miterlimit:10;}
	.st22{fill:#706E6A;}
	.st23{fill:#DDC241;}
	.st24{fill:#86ACB9;}
	.st25{fill:#C5E0EC;}
	.st26{fill:#AFD4E3;}
	.st27{fill:#9EB89C;}
	.st28{fill:#ECE3B5;}
	.st29{fill:#030104;}
	.st30{fill:#B5D1B0;}
	.st31{fill:#99989D;}
	.st32{fill:none;stroke:#FFFFFF;stroke-width:0.5059;stroke-miterlimit:10;}
	.st33{fill:#FFFFFF;}
	.st34{fill:none;stroke:#000000;stroke-width:2;stroke-miterlimit:10;}
	.st35{fill:none;stroke:#000000;stroke-width:2;stroke-miterlimit:10;stroke-dasharray:12.0382,12.0382;}
	.st36{fill:#FFFFFF;stroke:#000000;stroke-width:0.5194;stroke-miterlimit:10;}
	.st37{fill:none;stroke:#5FAAAC;stroke-width:0.75;stroke-miterlimit:10;}
	.st38{opacity:2.000000e-002;}
	.st39{fill:#C7A29E;}
	.st40{opacity:9.000000e-002;}
	.st41{opacity:3.000000e-002;}
</style>
<g id="Capa_1">
	<rect id="XMLID_1595_" x="-177.5" y="1899" class="st0" width="742.5" height="448.6"/>
	<rect id="XMLID_7476_" x="-177.9" y="2347.7" class="st1" width="742.9" height="516.5"/>
	<g id="XMLID_7469_">
		<g id="XMLID_7474_">
			<rect id="XMLID_14_" x="-169.9" y="2698.7" class="st2" width="734.8" height="123.9"/>
		</g>
		<g id="XMLID_7473_">
		</g>
	</g>
	<g id="XMLID_7462_">
		<g id="XMLID_7467_">
			<rect id="XMLID_13_" x="365.7" y="2387.5" class="st3" width="199.2" height="123.6"/>
		</g>
		<g id="XMLID_7466_">
		</g>
	</g>
	<line id="XMLID_7461_" class="st4" x1="254.5" y1="3395.6" x2="254.5" y2="3145.6"/>
	<line id="XMLID_7460_" class="st5" x1="292.5" y1="3395.6" x2="292.5" y2="3291.6"/>
	<rect id="XMLID_7459_" x="-177.5" y="1352.6" class="st1" width="742.9" height="546.4"/>
	<g id="XMLID_7452_">
		<g id="XMLID_7457_">
			<rect id="XMLID_12_" x="-177.9" y="2207.2" class="st6" width="742.9" height="123.9"/>
		</g>
		<g id="XMLID_7456_">
		</g>
	</g>
	<g id="XMLID_7445_">
		<g id="XMLID_7450_">
			<rect id="XMLID_11_" x="346" y="1364.9" class="st7" width="155.4" height="553.3"/>
		</g>
		<g id="XMLID_7449_">
		</g>
	</g>
	<g id="XMLID_229_" class="st8">
		<g id="XMLID_234_">
			<rect id="XMLID_235_" x="116.2" y="1621.6" class="st7" width="83.3" height="296.5"/>
		</g>
		<g id="XMLID_233_">
		</g>
	</g>
	<g id="XMLID_250_" class="st9">
		<g id="XMLID_255_">
			<rect id="XMLID_228_" x="32.9" y="1775.7" class="st7" width="34.6" height="123.3"/>
		</g>
		<g id="XMLID_254_">
		</g>
	</g>
	<g id="XMLID_236_" class="st10">
		<g id="XMLID_241_">
			<rect id="XMLID_242_" x="291.7" y="1676.7" class="st7" width="67.8" height="241.5"/>
		</g>
		<g id="XMLID_240_">
		</g>
	</g>
	<g id="XMLID_243_" class="st10">
		<g id="XMLID_248_">
			<rect id="XMLID_249_" x="-177.5" y="1534.3" class="st7" width="107.8" height="383.9"/>
		</g>
		<g id="XMLID_247_">
		</g>
	</g>
	<g id="XMLID_7438_">
		<g id="XMLID_7443_">
			<rect id="XMLID_10_" x="-128" y="1787.6" class="st11" width="125.3" height="125.6"/>
		</g>
		<g id="XMLID_7442_">
		</g>
	</g>
	<g id="XMLID_7363_">
		<g id="XMLID_7368_">
			<rect id="XMLID_8_" x="-178.1" y="2864.2" class="st12" width="203.7" height="166.1"/>
		</g>
		<g id="XMLID_7367_">
		</g>
	</g>
	<rect id="XMLID_7362_" x="-177.9" y="3651.2" class="st13" width="742.9" height="696.4"/>
	<rect id="XMLID_200_" x="55" y="2625.6" style="fill:none;" width="126.1" height="27.9"/>
	<text id="XMLID_7007_" transform="matrix(1 0 0 1 61.9001 2630.3127)"><tspan x="0" y="0" class="st1" style="font-family:'Roboto-Thin'; font-size:6.2407px;">Desplegar items de un JSON con mismas </tspan><tspan x="-0.9" y="10.1" class="st1" style="font-family:'Roboto-Thin'; font-size:6.2407px;">caracteristicas, evitar refrescar la pagina al </tspan><tspan x="-4.8" y="20.2" class="st1" style="font-family:'Roboto-Thin'; font-size:6.2407px;">cambiar, sino solo  cambiando la informacion</tspan></text>
	<line id="XMLID_7001_" class="st14" x1="-49.5" y1="2347.6" x2="-49.5" y2="2393.6"/>
	<line id="XMLID_7000_" class="st15" x1="-49.5" y1="2253.6" x2="-49.5" y2="2347.6"/>
	<rect id="XMLID_6996_" x="-177.5" y="1352.6" class="st0" width="743.3" height="81.7"/>
	<rect id="XMLID_6899_" x="-128" y="1899" class="st16" width="125.3" height="14.2"/>
	<rect id="XMLID_6898_" x="346" y="1899" class="st16" width="155.4" height="19.1"/>
	<rect id="XMLID_257_" x="116.2" y="1899" class="st17" width="83.3" height="227.9"/>
	<rect id="XMLID_258_" x="-179.2" y="2043.6" class="st17" width="227.9" height="83.3"/>
	<rect id="XMLID_259_" x="481.5" y="2018" class="st18" width="83.9" height="108.9"/>
	<line id="XMLID_6897_" class="st14" x1="85.5" y1="2360.6" x2="227.5" y2="2360.6"/>
	<line id="XMLID_6896_" class="st14" x1="85.5" y1="2377.6" x2="156.5" y2="2377.6"/>
	<rect id="XMLID_6382_" x="-153" y="3939.1" class="st19" width="718" height="408.5"/>
	<rect id="XMLID_1774_" x="-1273.8" y="3651.2" class="st13" width="961.8" height="696.4"/>
	<rect id="XMLID_1770_" x="-1241.6" y="3939.1" class="st20" width="929.6" height="408.5"/>
	<polyline id="XMLID_6315_" class="st21" points="-106,2574.6 -106,2628.3 -105.6,2628.1 -46.9,2628.1 -47,2627.8 -47,2692.6 	"/>
	<rect id="XMLID_1830_" x="-1273.1" y="1899" class="st0" width="961" height="448.6"/>
	<rect id="XMLID_1829_" x="-1273.1" y="2864.2" class="st0" width="961" height="514.8"/>
	<rect id="XMLID_1828_" x="-1273.6" y="2347.7" class="st1" width="961.5" height="516.5"/>
	<g id="XMLID_1821_">
		<g id="XMLID_1826_">
			<rect id="XMLID_7_" x="-1263.1" y="2698.7" class="st2" width="951.1" height="123.9"/>
		</g>
		<g id="XMLID_1825_">
		</g>
	</g>
	<g id="XMLID_1814_">
		<g id="XMLID_1819_">
			<rect id="XMLID_6_" x="-569.9" y="2387.5" class="st3" width="257.9" height="123.6"/>
		</g>
		<g id="XMLID_1818_">
		</g>
	</g>
	<line id="XMLID_1813_" class="st4" x1="-713.5" y1="3395.6" x2="-713.5" y2="3145.6"/>
	<line id="XMLID_1812_" class="st5" x1="-665.5" y1="3395.6" x2="-665.5" y2="3291.6"/>
	<rect id="XMLID_1811_" x="-1273.1" y="1352.6" class="st1" width="961.5" height="546.4"/>
	<g id="XMLID_1804_">
		<g id="XMLID_1809_">
			<rect id="XMLID_5_" x="-1273.6" y="2207.2" class="st6" width="961.5" height="123.9"/>
		</g>
		<g id="XMLID_1808_">
		</g>
	</g>
	<g id="XMLID_1797_">
		<g id="XMLID_1802_">
			<rect id="XMLID_4_" x="-595.4" y="1364.9" class="st7" width="206.8" height="553.3"/>
		</g>
		<g id="XMLID_1801_">
		</g>
	</g>
	<g id="XMLID_1783_">
		<g id="XMLID_1788_">
			<rect id="XMLID_9_" x="-1273.6" y="3376.4" class="st12" width="961.5" height="274.8"/>
		</g>
		<g id="XMLID_1787_">
		</g>
	</g>
	<g id="XMLID_1776_">
		<g id="XMLID_1781_">
			<rect id="XMLID_15_" x="-1273.8" y="2864.2" class="st12" width="263.7" height="166.1"/>
		</g>
		<g id="XMLID_1780_">
		</g>
	</g>
	<rect id="XMLID_132_" x="-972.1" y="2625.6" style="fill:none;" width="163.2" height="27.9"/>
	<text id="XMLID_1772_" transform="matrix(1.2943 0 0 1 -963.1779 2630.313)"><tspan x="0" y="0" class="st1" style="font-family:'Roboto-Thin'; font-size:6.2407px;">Desplegar items de un JSON con mismas </tspan><tspan x="-0.9" y="10.1" class="st1" style="font-family:'Roboto-Thin'; font-size:6.2407px;">caracteristicas, evitar refrescar la pagina al </tspan><tspan x="-4.8" y="20.2" class="st1" style="font-family:'Roboto-Thin'; font-size:6.2407px;">cambiar, sino solo  cambiando la informacion</tspan></text>
	<line id="XMLID_1767_" class="st14" x1="-1107.5" y1="2347.6" x2="-1107.5" y2="2393.6"/>
	<line id="XMLID_1766_" class="st15" x1="-1107.5" y1="2253.6" x2="-1107.5" y2="2347.6"/>
	<rect id="XMLID_1761_" x="-1273.1" y="1352.6" class="st0" width="962" height="81.7"/>
	<g id="XMLID_3_">
		<g id="XMLID_1790_">
			<g id="XMLID_1795_">
				<rect id="XMLID_225_" x="-1196" y="1787.6" class="st11" width="137.9" height="125.6"/>
			</g>
			<g id="XMLID_1794_">
			</g>
		</g>
		<rect id="XMLID_1758_" x="-1196" y="1899" class="st16" width="137.9" height="14.2"/>
	</g>
	<rect id="XMLID_1756_" x="-595.4" y="1899" class="st16" width="206.8" height="19.1"/>
	<line id="XMLID_1755_" class="st14" x1="-932.5" y1="2360.6" x2="-748.5" y2="2360.6"/>
	<line id="XMLID_1754_" class="st14" x1="-932.5" y1="2377.6" x2="-841.5" y2="2377.6"/>
	<polyline id="XMLID_1753_" class="st21" points="-1180,2574.6 -1180,2628.3 -1180,2628.1 -1104,2628.1 -1104,2627.8 -1104,2692.6 	
		"/>
	<g id="XMLID_2732_">
		<rect id="XMLID_2744_" x="-74.8" y="1918.1" class="st22" width="19.2" height="13.7"/>
		<rect id="XMLID_2733_" x="-84.4" y="1925" class="st23" width="19.2" height="13.7"/>
	</g>
	<g id="XMLID_2727_">
		<rect id="XMLID_2731_" x="524.9" y="2294.4" class="st22" width="19.2" height="13.7"/>
		<rect id="XMLID_2728_" x="515.4" y="2301.2" class="st0" width="19.2" height="13.7"/>
	</g>
	<g id="XMLID_2689_">
		
			<rect id="XMLID_2705_" x="246" y="2422.3" transform="matrix(-0.7499 -0.6616 0.6616 -0.7499 -1159.901 4419.77)" class="st22" width="19.2" height="13.7"/>
		
			<rect id="XMLID_2691_" x="234.3" y="2421.1" transform="matrix(-0.7499 -0.6616 0.6616 -0.7499 -1179.5823 4409.8774)" class="st24" width="19.2" height="13.7"/>
	</g>
	<rect id="XMLID_2684_" x="-173.4" y="2316.2" class="st1" width="19.2" height="13.7"/>
	
		<rect id="XMLID_2682_" x="-160.9" y="2336.4" transform="matrix(0.9214 0.3886 -0.3886 0.9214 898.6781 242.9517)" class="st25" width="19.2" height="13.7"/>
	<g id="XMLID_2662_">
		<rect id="XMLID_2680_" x="538.3" y="2849.7" class="st26" width="19.2" height="13.7"/>
		<rect id="XMLID_2665_" x="518.7" y="2864.9" class="st27" width="19.2" height="13.7"/>
	</g>
	<g id="XMLID_2661_">
		<g id="XMLID_44_">
			<path id="XMLID_48_" class="st28" d="M-24.4,2051.1c1,0,1-1.6,0-1.6C-25.4,2049.5-25.4,2051.1-24.4,2051.1L-24.4,2051.1z"/>
		</g>
	</g>
	<g id="XMLID_2640_">
		<g id="XMLID_38_">
			<path id="XMLID_42_" class="st28" d="M-7.7,2018.8c1,0,1-1.6,0-1.6C-8.7,2017.3-8.7,2018.8-7.7,2018.8L-7.7,2018.8z"/>
		</g>
	</g>
	<g id="XMLID_1480_">
		<circle id="XMLID_1586_" class="st7" cx="542.6" cy="1608.3" r="6.2"/>
		<circle id="XMLID_1585_" class="st29" cx="542.6" cy="1625.5" r="6.2"/>
		<circle id="XMLID_1584_" class="st29" cx="542.6" cy="1642.1" r="6.2"/>
		<circle id="XMLID_1512_" class="st29" cx="542.6" cy="1659.8" r="6.2"/>
		<path id="XMLID_1484_" class="st29" d="M549.3,1675.6h-0.8v6.8c0,0.6,0,1.2-0.6,1.2h-4.4v-3h-2v3h-4.1c-0.6,0-1.9-0.6-1.9-1.2
			v-6.8h0.5c-0.5,0-0.8-0.3-0.6-0.5l6.7-5.2c0.3-0.2,0.9-0.2,1.2,0l6.7,5.2C550.2,1675.3,549.9,1675.6,549.3,1675.6z"/>
	</g>
	<g id="XMLID_1748_">
		<rect id="XMLID_1750_" x="-1140.1" y="1918.1" class="st22" width="24.8" height="13.7"/>
		<rect id="XMLID_1749_" x="-1152.5" y="1925" class="st23" width="24.8" height="13.7"/>
	</g>
	<g id="XMLID_1745_">
		<rect id="XMLID_1747_" x="-363.9" y="2294.4" class="st22" width="24.8" height="13.7"/>
		<rect id="XMLID_1746_" x="-376.3" y="2301.2" class="st0" width="24.8" height="13.7"/>
	</g>
	<g id="XMLID_1742_">
		<polygon id="XMLID_1744_" class="st22" points="-727.7,2427.9 -709,2440.6 -697.3,2430.4 -716,2417.7 		"/>
		<polygon id="XMLID_1743_" class="st24" points="-742.8,2426.7 -724.2,2439.4 -712.5,2429.2 -731.1,2416.5 		"/>
	</g>
	<rect id="XMLID_1741_" x="-1267.8" y="2317.5" class="st1" width="24.8" height="13.7"/>
	<polygon id="XMLID_1740_" class="st25" points="-1231.1,2370.6 -1254,2363.1 -1247.1,2350.6 -1224.2,2358 	"/>
	<g id="XMLID_1735_">
		<rect id="XMLID_1739_" x="-346.6" y="2849.7" class="st26" width="24.8" height="13.7"/>
		<rect id="XMLID_1736_" x="-371.9" y="2864.9" class="st27" width="24.8" height="13.7"/>
	</g>
	<g id="XMLID_1476_">
		<g id="XMLID_32_">
			<path id="XMLID_36_" class="st28" d="M-1074.8,2051.2c1.1,0,1.1-1.8,0-1.8C-1076,2049.4-1076,2051.2-1074.8,2051.2
				L-1074.8,2051.2z"/>
		</g>
	</g>
	<g id="XMLID_1106_">
		<g id="XMLID_29_">
			<path id="XMLID_52_" class="st28" d="M-1053.3,2018.9c1.1,0,1.1-1.8,0-1.8C-1054.4,2017.2-1054.5,2018.9-1053.3,2018.9
				L-1053.3,2018.9z"/>
		</g>
	</g>
	<g id="XMLID_5338_">
		<rect id="XMLID_5345_" x="395.2" y="4281" class="st16" width="15" height="66.6"/>
		<rect id="XMLID_5344_" x="412.9" y="4281" class="st25" width="15" height="66.6"/>
		<rect id="XMLID_5343_" x="377.4" y="4281" class="st7" width="15" height="66.6"/>
		<rect id="XMLID_5342_" x="430.7" y="4281" class="st30" width="15" height="66.6"/>
		<rect id="XMLID_5341_" x="448.4" y="4281" class="st0" width="15" height="66.6"/>
		<rect id="XMLID_5340_" x="466.2" y="4281" class="st31" width="15" height="66.6"/>
		<rect id="XMLID_5339_" x="484" y="4281" class="st1" width="15" height="66.6"/>
	</g>
	<rect id="XMLID_168_" x="1814.5" y="1899" class="st0" width="742.5" height="448.6"/>
	<rect id="XMLID_167_" x="1814.5" y="2864.2" class="st0" width="742.5" height="514.8"/>
	<rect id="XMLID_166_" x="1814.1" y="2347.7" class="st1" width="742.9" height="516.5"/>
	<rect id="XMLID_149_" x="1814.5" y="1352.6" class="st1" width="742.9" height="546.4"/>
	<g id="XMLID_142_">
		<g id="XMLID_147_">
			<rect id="XMLID_75_" x="1814.1" y="2207.2" class="st6" width="742.9" height="123.9"/>
		</g>
		<g id="XMLID_146_">
		</g>
	</g>
	<rect id="XMLID_112_" x="1814.1" y="3651.2" class="st13" width="742.9" height="696.4"/>
	<rect id="XMLID_111_" x="2047" y="2625.6" style="fill:none;" width="126.1" height="27.9"/>
	<text id="XMLID_110_" transform="matrix(1 0 0 1 2053.9001 2630.3127)"><tspan x="0" y="0" class="st1" style="font-family:'Roboto-Thin'; font-size:6.2407px;">Desplegar items de un JSON con mismas </tspan><tspan x="-0.9" y="10.1" class="st1" style="font-family:'Roboto-Thin'; font-size:6.2407px;">caracteristicas, evitar refrescar la pagina al </tspan><tspan x="-4.8" y="20.2" class="st1" style="font-family:'Roboto-Thin'; font-size:6.2407px;">cambiar, sino solo  cambiando la informacion</tspan></text>
	<rect id="XMLID_107_" x="1814.5" y="1352.6" class="st0" width="743.3" height="81.7"/>
	<rect id="XMLID_102_" x="1873.9" y="3939.1" class="st32" width="683.1" height="408.5"/>
	<polyline id="XMLID_101_" class="st21" points="1886,2574.6 1886,2628.3 1886.4,2628.1 1945.1,2628.1 1945,2627.8 1945,2692.6 	"/>
	<g id="XMLID_113_">
		<g id="XMLID_76_">
			<rect id="XMLID_141_" x="1814.9" y="2864.2" class="st12" width="203.7" height="166.1"/>
		</g>
		<g id="XMLID_134_">
		</g>
	</g>
	<g id="XMLID_119_">
		<g id="XMLID_170_">
			<rect id="XMLID_16_" x="1814.1" y="2864.2" class="st12" width="203.7" height="166.1"/>
		</g>
		<g id="XMLID_169_">
		</g>
	</g>
	<g id="XMLID_120_">
		<g id="XMLID_125_">
			<rect id="XMLID_65_" x="1814.3" y="3376.4" class="st12" width="742.9" height="274.8"/>
		</g>
		<g id="XMLID_124_">
		</g>
	</g>
	<g id="XMLID_78_">
		<g id="XMLID_186_">
			<path id="XMLID_190_" class="st28" d="M1967.6,2051.1c1,0,1-1.6,0-1.6C1966.6,2049.5,1966.6,2051.1,1967.6,2051.1L1967.6,2051.1z
				"/>
		</g>
	</g>
	<g id="XMLID_71_">
		<g id="XMLID_180_">
			<path id="XMLID_184_" class="st28" d="M1984.3,2018.8c1,0,1-1.6,0-1.6C1983.3,2017.3,1983.3,2018.8,1984.3,2018.8L1984.3,2018.8z
				"/>
		</g>
	</g>
	<g id="XMLID_159_">
		<g id="XMLID_164_">
			<rect id="XMLID_68_" x="1874" y="2698.7" class="st2" width="683" height="123.9"/>
		</g>
		<g id="XMLID_163_">
		</g>
	</g>
	<g id="XMLID_81_">
		<g id="XMLID_2_">
			<rect id="XMLID_17_" x="2352.8" y="2387.5" class="st3" width="204.1" height="123.6"/>
		</g>
		<g id="XMLID_18_">
		</g>
	</g>
	<g id="XMLID_1724_">
		<rect id="XMLID_1769_" x="-531.9" y="4281" class="st16" width="19.4" height="66.6"/>
		<rect id="XMLID_1760_" x="-508.9" y="4281" class="st25" width="19.4" height="66.6"/>
		<rect id="XMLID_1759_" x="-554.9" y="4281" class="st7" width="19.4" height="66.6"/>
		<rect id="XMLID_1738_" x="-485.9" y="4281" class="st30" width="19.4" height="66.6"/>
		<rect id="XMLID_1737_" x="-462.9" y="4281" class="st0" width="19.4" height="66.6"/>
		<rect id="XMLID_1727_" x="-439.9" y="4281" class="st31" width="19.4" height="66.6"/>
		<rect id="XMLID_1725_" x="-416.9" y="4281" class="st1" width="19.4" height="66.6"/>
	</g>
</g>
<g id="vectors">
	<line id="XMLID_109_" class="st14" x1="1946.5" y1="2347.6" x2="1946.5" y2="2393.6"/>
	<line id="XMLID_108_" class="st15" x1="1946.5" y1="2253.6" x2="1946.5" y2="2347.6"/>
	<line id="XMLID_104_" class="st14" x1="2071.5" y1="2360.6" x2="2220.5" y2="2360.6"/>
	<line id="XMLID_103_" class="st14" x1="2071.5" y1="2377.6" x2="2145.5" y2="2377.6"/>
	<g id="XMLID_98_">
		<rect id="XMLID_100_" x="1921.5" y="1928.4" class="st22" width="19.2" height="13.7"/>
		<rect id="XMLID_99_" x="1911.9" y="1935.2" class="st23" width="19.2" height="13.7"/>
	</g>
	<rect id="XMLID_227_" x="1877.9" y="1486.7" class="st22" width="19.2" height="13.7"/>
	<rect id="XMLID_226_" x="1874" y="1479.9" class="st11" width="19.2" height="13.7"/>
	<rect id="XMLID_91_" x="1840.4" y="2316.2" class="st1" width="19.2" height="13.7"/>
	
		<rect id="XMLID_90_" x="1852.9" y="2353.8" transform="matrix(0.9214 0.3886 -0.3886 0.9214 1063.6841 -538.2344)" class="st25" width="19.2" height="13.7"/>
	<g id="XMLID_95_">
		<rect id="XMLID_97_" x="2507.1" y="2294.4" class="st22" width="19.2" height="13.7"/>
		<rect id="XMLID_96_" x="2497.5" y="2301.2" class="st0" width="19.2" height="13.7"/>
	</g>
	<g id="XMLID_92_">
		
			<rect id="XMLID_94_" x="2244.6" y="2422.3" transform="matrix(-0.7499 -0.6616 0.6616 -0.7499 2337.4041 5742.0674)" class="st22" width="19.2" height="13.7"/>
		
			<rect id="XMLID_93_" x="2232.9" y="2421.1" transform="matrix(-0.7499 -0.6616 0.6616 -0.7499 2317.7229 5732.1753)" class="st24" width="19.2" height="13.7"/>
	</g>
	<g id="XMLID_151_">
		<g id="XMLID_70_">
			<g id="XMLID_56_">
				<rect id="XMLID_88_" x="1873.9" y="1787.4" class="st11" width="106.6" height="125.6"/>
			</g>
			<g id="XMLID_87_">
			</g>
		</g>
		<rect id="XMLID_69_" x="1873.9" y="1898.8" class="st16" width="106.6" height="14.2"/>
	</g>
	<g id="XMLID_1_">
		<g id="XMLID_118_">
			<g id="XMLID_154_">
				<rect id="XMLID_117_" x="2337.3" y="1364.9" class="st7" width="160.2" height="553.3"/>
			</g>
			<g id="XMLID_153_">
			</g>
		</g>
		<rect id="XMLID_67_" x="2337.3" y="1899" class="st16" width="160.2" height="19.1"/>
	</g>
	<g id="XMLID_66_">
		<g id="XMLID_85_">
			<rect id="XMLID_89_" x="2530.3" y="2849.7" class="st26" width="19.2" height="13.7"/>
			<rect id="XMLID_86_" x="2510.7" y="2864.9" class="st27" width="19.2" height="13.7"/>
		</g>
		<line id="XMLID_173_" class="st4" x1="2246.5" y1="3395.6" x2="2246.5" y2="3145.6"/>
		<line id="XMLID_172_" class="st5" x1="2284.5" y1="3395.6" x2="2284.5" y2="3291.6"/>
	</g>
	<g id="XMLID_57_">
		<rect id="XMLID_64_" x="2393.7" y="4281" class="st16" width="15" height="66.6"/>
		<rect id="XMLID_63_" x="2411.5" y="4281" class="st25" width="15" height="66.6"/>
		<rect id="XMLID_62_" x="2376" y="4281" class="st7" width="15" height="66.6"/>
		<rect id="XMLID_61_" x="2429.3" y="4281" class="st30" width="15" height="66.6"/>
		<rect id="XMLID_60_" x="2447" y="4281" class="st0" width="15" height="66.6"/>
		<rect id="XMLID_59_" x="2464.8" y="4281" class="st31" width="15" height="66.6"/>
		<rect id="XMLID_58_" x="2482.5" y="4281" class="st1" width="15" height="66.6"/>
	</g>
	<g id="XMLID_150_">
		<line id="XMLID_194_" class="st33" x1="2497.5" y1="1220.9" x2="2497.5" y2="4591.6"/>
		<g id="XMLID_185_">
			<line id="XMLID_193_" class="st34" x1="2497.5" y1="1220.9" x2="2497.5" y2="1226.9"/>
			<line id="XMLID_192_" class="st35" x1="2497.5" y1="1239" x2="2497.5" y2="4579.6"/>
			<line id="XMLID_191_" class="st34" x1="2497.5" y1="4585.6" x2="2497.5" y2="4591.6"/>
		</g>
	</g>
	<g id="XMLID_155_">
		<line id="XMLID_209_" class="st33" x1="1873.9" y1="4415" x2="1873.9" y2="1044.3"/>
		<g id="XMLID_205_">
			<line id="XMLID_208_" class="st34" x1="1873.9" y1="4415" x2="1873.9" y2="4409"/>
			<line id="XMLID_207_" class="st35" x1="1873.9" y1="4396.9" x2="1873.9" y2="1056.3"/>
			<line id="XMLID_206_" class="st34" x1="1873.9" y1="1050.3" x2="1873.9" y2="1044.3"/>
		</g>
	</g>
</g>
<g id="Capa_3">
	<g id="XMLID_216_">
		<rect id="XMLID_137_" x="1814.5" y="1352.6" class="st36" width="742.3" height="81.6"/>
		<line id="XMLID_215_" class="st37" x1="2497.2" y1="1353.1" x2="2497.2" y2="3775.6"/>
		<line id="XMLID_214_" class="st37" x1="1874" y1="1353.1" x2="1874" y2="3775.6"/>
		<line id="XMLID_213_" class="st37" x1="2459.3" y1="1353.1" x2="2459.3" y2="3775.6"/>
		<line id="XMLID_212_" class="st37" x1="2443.7" y1="1353.1" x2="2443.7" y2="3775.6"/>
		<line id="XMLID_211_" class="st37" x1="2406.3" y1="1353.1" x2="2406.3" y2="3775.6"/>
		<line id="XMLID_210_" class="st37" x1="2390.8" y1="1353.1" x2="2390.8" y2="3775.6"/>
		<line id="XMLID_203_" class="st37" x1="1980.5" y1="1353.1" x2="1980.5" y2="3775.6"/>
		<line id="XMLID_202_" class="st37" x1="1964.9" y1="1353.1" x2="1964.9" y2="3775.6"/>
		<line id="XMLID_201_" class="st37" x1="1927.5" y1="1353.1" x2="1927.5" y2="3775.6"/>
		<line id="XMLID_199_" class="st37" x1="1911.9" y1="1353.1" x2="1911.9" y2="3775.6"/>
		<line id="XMLID_198_" class="st37" x1="2352.8" y1="1353.1" x2="2352.8" y2="3775.6"/>
		<line id="XMLID_197_" class="st37" x1="2337.3" y1="1353.1" x2="2337.3" y2="3775.6"/>
		<line id="XMLID_196_" class="st37" x1="2299.9" y1="1353.1" x2="2299.9" y2="3775.6"/>
		<line id="XMLID_195_" class="st37" x1="2284.3" y1="1353.1" x2="2284.3" y2="3775.6"/>
		<line id="XMLID_178_" class="st37" x1="2246.4" y1="1353.1" x2="2246.4" y2="3775.6"/>
		<line id="XMLID_177_" class="st37" x1="2230.8" y1="1353.1" x2="2230.8" y2="3775.6"/>
		<line id="XMLID_174_" class="st37" x1="2193.4" y1="1353.1" x2="2193.4" y2="3775.6"/>
		<line id="XMLID_171_" class="st37" x1="2177.8" y1="1353.1" x2="2177.8" y2="3775.6"/>
		<line id="XMLID_165_" class="st37" x1="2140.4" y1="1353.1" x2="2140.4" y2="3775.6"/>
		<line id="XMLID_158_" class="st37" x1="2124.8" y1="1353.1" x2="2124.8" y2="3775.6"/>
		<line id="XMLID_156_" class="st37" x1="2086.9" y1="1353.1" x2="2086.9" y2="3775.6"/>
		<line id="XMLID_140_" class="st37" x1="2071.3" y1="1353.1" x2="2071.3" y2="3775.6"/>
		<line id="XMLID_139_" class="st37" x1="2034" y1="1353.1" x2="2034" y2="3775.6"/>
		<line id="XMLID_138_" class="st37" x1="2018.4" y1="1353.1" x2="2018.4" y2="3775.6"/>
	</g>
	<g id="XMLID_20_">
		<rect id="XMLID_224_" x="-1273.1" y="1352.6" class="st36" width="961.5" height="81.6"/>
		<line id="XMLID_223_" class="st37" x1="-388.7" y1="1353.1" x2="-388.7" y2="3775.6"/>
		<line id="XMLID_222_" class="st37" x1="-1196" y1="1353.1" x2="-1196" y2="3775.6"/>
		<line id="XMLID_221_" class="st37" x1="-437.8" y1="1353.1" x2="-437.8" y2="3775.6"/>
		<line id="XMLID_220_" class="st37" x1="-458" y1="1353.1" x2="-458" y2="3775.6"/>
		<line id="XMLID_219_" class="st37" x1="-506.4" y1="1353.1" x2="-506.4" y2="3775.6"/>
		<line id="XMLID_218_" class="st37" x1="-526.6" y1="1353.1" x2="-526.6" y2="3775.6"/>
		<line id="XMLID_217_" class="st37" x1="-1058" y1="1353.1" x2="-1058" y2="3775.6"/>
		<line id="XMLID_136_" class="st37" x1="-1078.2" y1="1353.1" x2="-1078.2" y2="3775.6"/>
		<line id="XMLID_135_" class="st37" x1="-1126.7" y1="1353.1" x2="-1126.7" y2="3775.6"/>
		<line id="XMLID_130_" class="st37" x1="-1146.8" y1="1353.1" x2="-1146.8" y2="3775.6"/>
		<line id="XMLID_129_" class="st37" x1="-575.7" y1="1353.1" x2="-575.7" y2="3775.6"/>
		<line id="XMLID_128_" class="st37" x1="-595.9" y1="1353.1" x2="-595.9" y2="3775.6"/>
		<line id="XMLID_127_" class="st37" x1="-644.3" y1="1353.1" x2="-644.3" y2="3775.6"/>
		<line id="XMLID_106_" class="st37" x1="-664.5" y1="1353.1" x2="-664.5" y2="3775.6"/>
		<line id="XMLID_105_" class="st37" x1="-713.6" y1="1353.1" x2="-713.6" y2="3775.6"/>
		<line id="XMLID_74_" class="st37" x1="-733.8" y1="1353.1" x2="-733.8" y2="3775.6"/>
		<line id="XMLID_73_" class="st37" x1="-782.2" y1="1353.1" x2="-782.2" y2="3775.6"/>
		<line id="XMLID_72_" class="st37" x1="-802.4" y1="1353.1" x2="-802.4" y2="3775.6"/>
		<line id="XMLID_55_" class="st37" x1="-850.8" y1="1353.1" x2="-850.8" y2="3775.6"/>
		<line id="XMLID_54_" class="st37" x1="-871" y1="1353.1" x2="-871" y2="3775.6"/>
		<line id="XMLID_53_" class="st37" x1="-920.1" y1="1353.1" x2="-920.1" y2="3775.6"/>
		<line id="XMLID_28_" class="st37" x1="-940.3" y1="1353.1" x2="-940.3" y2="3775.6"/>
		<line id="XMLID_27_" class="st37" x1="-988.8" y1="1353.1" x2="-988.8" y2="3775.6"/>
		<line id="XMLID_25_" class="st37" x1="-1008.9" y1="1353.1" x2="-1008.9" y2="3775.6"/>
	</g>
	<g id="XMLID_3478_" class="st38">
		<g id="XMLID_319_">
			<rect id="XMLID_261_" x="203.7" y="579.1" class="st39" width="83.1" height="156.9"/>
		</g>
		<g id="XMLID_320_">
		</g>
	</g>
	<g id="XMLID_3499_" class="st10">
		<g id="XMLID_316_">
			<rect id="XMLID_318_" class="st7" width="203.7" height="736"/>
		</g>
		<g id="XMLID_317_">
		</g>
	</g>
	<g id="XMLID_3215_" class="st8">
		<g id="XMLID_313_">
			<rect id="XMLID_315_" x="563.2" y="167.5" class="st39" width="159.7" height="568.5"/>
		</g>
		<g id="XMLID_314_">
		</g>
	</g>
	<g id="XMLID_3483_" class="st8">
		<g id="XMLID_310_">
			<rect id="XMLID_312_" x="1360.1" y="422.3" class="st39" width="79.8" height="313.7"/>
		</g>
		<g id="XMLID_311_">
		</g>
	</g>
	<g id="XMLID_3490_" class="st8">
		<g id="XMLID_307_">
			<rect id="XMLID_309_" x="1154.7" y="511.6" class="st39" width="89.8" height="224.4"/>
		</g>
		<g id="XMLID_308_">
		</g>
	</g>
	<g id="XMLID_3241_" class="st40">
		<g id="XMLID_265_">
			<rect id="XMLID_321_" x="1244.5" y="552.8" class="st39" width="63" height="183.3"/>
		</g>
		<g id="XMLID_266_">
		</g>
	</g>
	<g id="XMLID_3201_" class="st10">
		<g id="XMLID_262_">
			<rect id="XMLID_264_" x="899.6" y="273.1" class="st39" width="130" height="463"/>
		</g>
		<g id="XMLID_263_">
		</g>
	</g>
	<g id="XMLID_3197_" class="st41">
		<g id="XMLID_256_">
			<rect id="XMLID_323_" x="491.5" y="480.8" class="st39" width="71.7" height="255.3"/>
		</g>
		<g id="XMLID_260_">
		</g>
	</g>
</g>
</svg>
