<?xml version="1.0" encoding="utf-8"?>
<!-- Generator: Adobe Illustrator 19.0.0, SVG Export Plug-In . SVG Version: 6.00 Build 0)  -->
<svg version="1.1" xmlns="http://www.w3.org/2000/svg" xmlns:xlink="http://www.w3.org/1999/xlink" x="0px" y="0px"
	 viewBox="0 0 106.6 161.5" style="enable-background:new 0 0 106.6 161.5;" xml:space="preserve">
<style type="text/css">
	.st0{fill:#E8EAEC;}
	.st1{fill:#232728;}
	.st2{fill:#C5DEE2;}
	.st3{fill:#D2E2E7;}
	.st4{fill:none;stroke:#9DB79B;stroke-width:2;stroke-miterlimit:10;}
	.st5{fill:none;stroke:#515151;stroke-width:2;stroke-miterlimit:10;}
	.st6{fill:#E1DABB;}
	.st7{fill:#CCA5A1;}
	.st8{fill:#AA7D7D;}
	.st9{fill:#8CA387;}
	.st10{fill:#171818;}
	.st11{fill:none;stroke:#E8EAEC;stroke-width:2;stroke-miterlimit:10;}
	.st12{fill:none;stroke:#232728;stroke-width:2;stroke-miterlimit:10;}
	.st13{fill:#EBDF9D;}
	.st14{fill:none;stroke:#FFFFFF;stroke-width:0.5201;stroke-miterlimit:10;}
	.st15{fill:none;stroke:#FFFFFF;stroke-width:0.5917;stroke-miterlimit:10;}
	.st16{fill:none;stroke:#232728;stroke-miterlimit:10;}
	.st17{fill:#6F6E69;}
	.st18{fill:#DCC140;}
	.st19{fill:#85AAB8;}
	.st20{fill:#C3DEEB;}
	.st21{fill:#AED2E2;}
	.st22{fill:#9DB79B;}
	.st23{fill:#EBE2B4;}
	.st24{fill:#010002;}
	.st25{fill:#B4D0AE;}
	.st26{fill:#97969C;}
	.st27{fill:none;stroke:#FFFFFF;stroke-width:0.5059;stroke-miterlimit:10;}
	.st28{fill:#FFFFFF;}
	.st29{fill:none;stroke:#211915;stroke-width:2;stroke-miterlimit:10;}
	.st30{fill:none;stroke:#211915;stroke-width:2;stroke-miterlimit:10;stroke-dasharray:12.0382,12.0382;}
	.st31{fill:none;}
	.st32{opacity:0.57;fill:#938080;stroke:#211915;stroke-miterlimit:10;}
	.st33{opacity:0.52;fill:url(#XMLID_633_);}
	.st34{fill:none;stroke:#5EA9AB;stroke-width:0.75;stroke-miterlimit:10;}
	.st35{fill:#FFFFFF;stroke:#211915;stroke-width:0.5194;stroke-miterlimit:10;}
</style>
<g id="Capa_1">
	<rect id="XMLID_1595_" x="-3172.9" y="1507.9" class="st0" width="742.5" height="448.6"/>
	<rect id="XMLID_7476_" x="-3173.3" y="1956.6" class="st1" width="742.9" height="516.5"/>
	<g id="XMLID_7469_">
		<g id="XMLID_7474_">
			<rect id="XMLID_14_" x="-3165.3" y="2307.6" class="st2" width="734.8" height="123.9"/>
		</g>
		<g id="XMLID_7473_">
		</g>
	</g>
	<g id="XMLID_7462_">
		<g id="XMLID_7467_">
			<rect id="XMLID_13_" x="-2629.7" y="1996.4" class="st3" width="199.2" height="123.6"/>
		</g>
		<g id="XMLID_7466_">
		</g>
	</g>
	<line id="XMLID_7461_" class="st4" x1="-2740.9" y1="3004.5" x2="-2740.9" y2="2754.5"/>
	<line id="XMLID_7460_" class="st5" x1="-2702.9" y1="3004.5" x2="-2702.9" y2="2900.5"/>
	<rect id="XMLID_7459_" x="-3172.9" y="961.5" class="st1" width="742.9" height="546.4"/>
	<g id="XMLID_7452_">
		<g id="XMLID_7457_">
			<rect id="XMLID_12_" x="-3173.3" y="1816.1" class="st6" width="742.9" height="123.9"/>
		</g>
		<g id="XMLID_7456_">
		</g>
	</g>
	<g id="XMLID_7445_">
		<g id="XMLID_7450_">
			<rect id="XMLID_11_" x="-2649.4" y="973.8" class="st7" width="155.4" height="553.3"/>
		</g>
		<g id="XMLID_7449_">
		</g>
	</g>
	<g id="XMLID_7438_">
		<g id="XMLID_7443_">
			<rect id="XMLID_10_" x="-3123.4" y="1396.5" class="st8" width="125.3" height="125.6"/>
		</g>
		<g id="XMLID_7442_">
		</g>
	</g>
	<g id="XMLID_7363_">
		<g id="XMLID_7368_">
			<rect id="XMLID_8_" x="-3173.5" y="2473" class="st9" width="203.7" height="166.1"/>
		</g>
		<g id="XMLID_7367_">
		</g>
	</g>
	<rect id="XMLID_7362_" x="-3173.3" y="3260.1" class="st10" width="742.9" height="696.4"/>
	<rect id="XMLID_200_" x="-2940.4" y="2234.5" class="st31" width="126.1" height="27.9"/>
	<text id="XMLID_7007_" transform="matrix(1 0 0 1 -2933.5061 2239.2124)"><tspan x="0" y="0" class="st1" style="font-family:'Roboto-Thin'; font-size:6.2407px;">Desplegar items de un JSON con mismas </tspan><tspan x="-0.9" y="10.1" class="st1" style="font-family:'Roboto-Thin'; font-size:6.2407px;">caracteristicas, evitar refrescar la pagina al </tspan><tspan x="-4.8" y="20.2" class="st1" style="font-family:'Roboto-Thin'; font-size:6.2407px;">cambiar, sino solo  cambiando la informacion</tspan></text>
	<line id="XMLID_7001_" class="st11" x1="-3044.9" y1="1956.5" x2="-3044.9" y2="2002.5"/>
	<line id="XMLID_7000_" class="st12" x1="-3044.9" y1="1862.5" x2="-3044.9" y2="1956.5"/>
	<rect id="XMLID_6996_" x="-3172.9" y="961.5" class="st0" width="743.3" height="81.7"/>
	<rect id="XMLID_6899_" x="-3123.4" y="1507.9" class="st13" width="125.3" height="14.2"/>
	<rect id="XMLID_6898_" x="-2649.4" y="1507.9" class="st13" width="155.4" height="19.1"/>
	<line id="XMLID_6897_" class="st11" x1="-2909.9" y1="1969.5" x2="-2767.9" y2="1969.5"/>
	<line id="XMLID_6896_" class="st11" x1="-2909.9" y1="1986.5" x2="-2838.9" y2="1986.5"/>
	<rect id="XMLID_6382_" x="-3148.5" y="3548" class="st14" width="718" height="408.5"/>
	<rect id="XMLID_1774_" x="-4269.2" y="3260.1" class="st10" width="961.8" height="696.4"/>
	<rect id="XMLID_1770_" x="-4237" y="3548" class="st15" width="929.6" height="408.5"/>
	<polyline id="XMLID_6315_" class="st16" points="-3101.4,2183.5 -3101.4,2237.2 -3101,2237 -3042.3,2237 -3042.4,2236.7 
		-3042.4,2301.5 	"/>
	<rect id="XMLID_1830_" x="-4268.5" y="1507.9" class="st0" width="961" height="448.6"/>
	<rect id="XMLID_1829_" x="-4268.5" y="2473.1" class="st0" width="961" height="514.8"/>
	<rect id="XMLID_1828_" x="-4269" y="1956.6" class="st1" width="961.5" height="516.5"/>
	<g id="XMLID_1821_">
		<g id="XMLID_1826_">
			<rect id="XMLID_7_" x="-4258.5" y="2307.6" class="st2" width="951.1" height="123.9"/>
		</g>
		<g id="XMLID_1825_">
		</g>
	</g>
	<g id="XMLID_1814_">
		<g id="XMLID_1819_">
			<rect id="XMLID_6_" x="-3565.3" y="1996.4" class="st3" width="257.9" height="123.6"/>
		</g>
		<g id="XMLID_1818_">
		</g>
	</g>
	<line id="XMLID_1813_" class="st4" x1="-3708.9" y1="3004.5" x2="-3708.9" y2="2754.5"/>
	<line id="XMLID_1812_" class="st5" x1="-3660.9" y1="3004.5" x2="-3660.9" y2="2900.5"/>
	<rect id="XMLID_1811_" x="-4268.5" y="961.5" class="st1" width="961.5" height="546.4"/>
	<g id="XMLID_1804_">
		<g id="XMLID_1809_">
			<rect id="XMLID_5_" x="-4269" y="1816.1" class="st6" width="961.5" height="123.9"/>
		</g>
		<g id="XMLID_1808_">
		</g>
	</g>
	<g id="XMLID_1797_">
		<g id="XMLID_1802_">
			<rect id="XMLID_4_" x="-3590.8" y="973.8" class="st7" width="206.8" height="553.3"/>
		</g>
		<g id="XMLID_1801_">
		</g>
	</g>
	<g id="XMLID_1783_">
		<g id="XMLID_1788_">
			<rect id="XMLID_9_" x="-4269" y="2985.3" class="st9" width="961.5" height="274.8"/>
		</g>
		<g id="XMLID_1787_">
		</g>
	</g>
	<g id="XMLID_1776_">
		<g id="XMLID_1781_">
			<rect id="XMLID_15_" x="-4269.2" y="2473" class="st9" width="263.7" height="166.1"/>
		</g>
		<g id="XMLID_1780_">
		</g>
	</g>
	<rect id="XMLID_132_" x="-3967.5" y="2234.5" class="st31" width="163.2" height="27.9"/>
	<text id="XMLID_1772_" transform="matrix(1.2943 0 0 1 -3958.5842 2239.2124)"><tspan x="0" y="0" class="st1" style="font-family:'Roboto-Thin'; font-size:6.2407px;">Desplegar items de un JSON con mismas </tspan><tspan x="-0.9" y="10.1" class="st1" style="font-family:'Roboto-Thin'; font-size:6.2407px;">caracteristicas, evitar refrescar la pagina al </tspan><tspan x="-4.8" y="20.2" class="st1" style="font-family:'Roboto-Thin'; font-size:6.2407px;">cambiar, sino solo  cambiando la informacion</tspan></text>
	<line id="XMLID_1767_" class="st11" x1="-4102.9" y1="1956.5" x2="-4102.9" y2="2002.5"/>
	<line id="XMLID_1766_" class="st12" x1="-4102.9" y1="1862.5" x2="-4102.9" y2="1956.5"/>
	<rect id="XMLID_1761_" x="-4268.5" y="961.5" class="st0" width="962" height="81.7"/>
	<g id="XMLID_3_">
		<g id="XMLID_1790_">
			<g id="XMLID_1795_">
				<rect id="XMLID_225_" x="-4191.4" y="1396.5" class="st8" width="137.9" height="125.6"/>
			</g>
			<g id="XMLID_1794_">
			</g>
		</g>
		<rect id="XMLID_1758_" x="-4191.4" y="1507.9" class="st13" width="137.9" height="14.2"/>
	</g>
	<rect id="XMLID_1756_" x="-3590.8" y="1507.9" class="st13" width="206.8" height="19.1"/>
	<line id="XMLID_1755_" class="st11" x1="-3927.9" y1="1969.5" x2="-3743.9" y2="1969.5"/>
	<line id="XMLID_1754_" class="st11" x1="-3927.9" y1="1986.5" x2="-3836.9" y2="1986.5"/>
	<polyline id="XMLID_1753_" class="st16" points="-4175.4,2183.5 -4175.4,2237.2 -4175.4,2237 -4099.4,2237 -4099.4,2236.7 
		-4099.4,2301.5 	"/>
	<g id="XMLID_2732_">
		<rect id="XMLID_2744_" x="-3070.2" y="1527" class="st17" width="19.2" height="13.7"/>
		<rect id="XMLID_2733_" x="-3079.8" y="1533.9" class="st18" width="19.2" height="13.7"/>
	</g>
	<g id="XMLID_2727_">
		<rect id="XMLID_2731_" x="-2470.5" y="1903.3" class="st17" width="19.2" height="13.7"/>
		<rect id="XMLID_2728_" x="-2480.1" y="1910.1" class="st0" width="19.2" height="13.7"/>
	</g>
	<g id="XMLID_2689_">
		
			<rect id="XMLID_2705_" x="-2749.4" y="2031.2" transform="matrix(-0.7499 -0.6616 0.6616 -0.7499 -6142.6719 1753.6307)" class="st17" width="19.2" height="13.7"/>
		
			<rect id="XMLID_2691_" x="-2761.1" y="2030" transform="matrix(-0.7499 -0.6616 0.6616 -0.7499 -6162.353 1743.7385)" class="st19" width="19.2" height="13.7"/>
	</g>
	<rect id="XMLID_2684_" x="-3168.8" y="1925.1" class="st1" width="19.2" height="13.7"/>
	
		<rect id="XMLID_2682_" x="-3156.3" y="1945.3" transform="matrix(0.9214 0.3886 -0.3886 0.9214 511.2894 1376.2076)" class="st20" width="19.2" height="13.7"/>
	<g id="XMLID_2662_">
		<rect id="XMLID_2680_" x="-2457.1" y="2458.6" class="st21" width="19.2" height="13.7"/>
		<rect id="XMLID_2665_" x="-2476.7" y="2473.8" class="st22" width="19.2" height="13.7"/>
	</g>
	<g id="XMLID_2661_">
		<g id="XMLID_44_">
			<path id="XMLID_48_" class="st23" d="M-3019.8,1660c1,0,1-1.6,0-1.6C-3020.8,1658.4-3020.8,1660-3019.8,1660L-3019.8,1660z"/>
		</g>
	</g>
	<g id="XMLID_2640_">
		<g id="XMLID_38_">
			<path id="XMLID_42_" class="st23" d="M-3003.1,1627.7c1,0,1-1.6,0-1.6C-3004.1,1626.2-3004.1,1627.7-3003.1,1627.7
				L-3003.1,1627.7z"/>
		</g>
	</g>
	<g id="XMLID_1480_">
		<circle id="XMLID_1586_" class="st7" cx="-2452.8" cy="1217.2" r="6.2"/>
		<circle id="XMLID_1585_" class="st24" cx="-2452.8" cy="1234.4" r="6.2"/>
		<circle id="XMLID_1584_" class="st24" cx="-2452.8" cy="1251" r="6.2"/>
		<circle id="XMLID_1512_" class="st24" cx="-2452.8" cy="1268.7" r="6.2"/>
		<path id="XMLID_1484_" class="st24" d="M-2446.1,1284.5h-0.8v6.8c0,0.6,0,1.2-0.6,1.2h-4.4v-3h-2v3h-4.1c-0.6,0-1.9-0.6-1.9-1.2
			v-6.8h0.5c-0.5,0-0.8-0.3-0.6-0.5l6.7-5.2c0.3-0.2,0.9-0.2,1.2,0l6.7,5.2C-2445.2,1284.2-2445.5,1284.5-2446.1,1284.5z"/>
	</g>
	<g id="XMLID_1748_">
		<rect id="XMLID_1750_" x="-4135.5" y="1527" class="st17" width="24.8" height="13.7"/>
		<rect id="XMLID_1749_" x="-4147.9" y="1533.9" class="st18" width="24.8" height="13.7"/>
	</g>
	<g id="XMLID_1745_">
		<rect id="XMLID_1747_" x="-3359.3" y="1903.3" class="st17" width="24.8" height="13.7"/>
		<rect id="XMLID_1746_" x="-3371.7" y="1910.1" class="st0" width="24.8" height="13.7"/>
	</g>
	<g id="XMLID_1742_">
		<polygon id="XMLID_1744_" class="st17" points="-3723.1,2036.8 -3704.4,2049.5 -3692.7,2039.3 -3711.4,2026.6 		"/>
		<polygon id="XMLID_1743_" class="st19" points="-3738.2,2035.6 -3719.6,2048.3 -3707.9,2038.1 -3726.5,2025.4 		"/>
	</g>
	<rect id="XMLID_1741_" x="-4263.2" y="1926.4" class="st1" width="24.8" height="13.7"/>
	<polygon id="XMLID_1740_" class="st20" points="-4226.5,1979.5 -4249.4,1972 -4242.5,1959.5 -4219.6,1966.9 	"/>
	<g id="XMLID_1735_">
		<rect id="XMLID_1739_" x="-3342" y="2458.6" class="st21" width="24.8" height="13.7"/>
		<rect id="XMLID_1736_" x="-3367.3" y="2473.8" class="st22" width="24.8" height="13.7"/>
	</g>
	<g id="XMLID_1476_">
		<g id="XMLID_32_">
			<path id="XMLID_36_" class="st23" d="M-4070.3,1660.1c1.1,0,1.1-1.8,0-1.8C-4071.4,1658.3-4071.4,1660.1-4070.3,1660.1
				L-4070.3,1660.1z"/>
		</g>
	</g>
	<g id="XMLID_1106_">
		<g id="XMLID_29_">
			<path id="XMLID_52_" class="st23" d="M-4048.7,1627.8c1.1,0,1.1-1.8,0-1.8C-4049.9,1626.1-4049.9,1627.8-4048.7,1627.8
				L-4048.7,1627.8z"/>
		</g>
	</g>
	<g id="XMLID_5338_">
		<rect id="XMLID_5345_" x="-2600.2" y="3889.9" class="st13" width="15" height="66.6"/>
		<rect id="XMLID_5344_" x="-2582.5" y="3889.9" class="st20" width="15" height="66.6"/>
		<rect id="XMLID_5343_" x="-2618" y="3889.9" class="st7" width="15" height="66.6"/>
		<rect id="XMLID_5342_" x="-2564.7" y="3889.9" class="st25" width="15" height="66.6"/>
		<rect id="XMLID_5341_" x="-2547" y="3889.9" class="st0" width="15" height="66.6"/>
		<rect id="XMLID_5340_" x="-2529.2" y="3889.9" class="st26" width="15" height="66.6"/>
		<rect id="XMLID_5339_" x="-2511.4" y="3889.9" class="st1" width="15" height="66.6"/>
	</g>
	<rect id="XMLID_168_" x="-1180.9" y="1507.9" class="st0" width="742.5" height="448.6"/>
	<rect id="XMLID_167_" x="-1180.9" y="2473.1" class="st0" width="742.5" height="514.8"/>
	<rect id="XMLID_166_" x="-1181.3" y="1956.6" class="st1" width="742.9" height="516.5"/>
	<rect id="XMLID_149_" x="-1180.9" y="961.5" class="st1" width="742.9" height="546.4"/>
	<rect id="XMLID_247_" x="-318.5" y="380" class="st1" width="742.9" height="546.4"/>
	<g id="XMLID_142_">
		<g id="XMLID_147_">
			<rect id="XMLID_75_" x="-1181.3" y="1816.1" class="st6" width="742.9" height="123.9"/>
		</g>
		<g id="XMLID_146_">
		</g>
	</g>
	<rect id="XMLID_112_" x="-1181.3" y="3260.1" class="st10" width="742.9" height="696.4"/>
	<rect id="XMLID_111_" x="-948.4" y="2234.5" class="st31" width="126.1" height="27.9"/>
	<text id="XMLID_110_" transform="matrix(1 0 0 1 -941.5061 2239.2124)"><tspan x="0" y="0" class="st1" style="font-family:'Roboto-Thin'; font-size:6.2407px;">Desplegar items de un JSON con mismas </tspan><tspan x="-0.9" y="10.1" class="st1" style="font-family:'Roboto-Thin'; font-size:6.2407px;">caracteristicas, evitar refrescar la pagina al </tspan><tspan x="-4.8" y="20.2" class="st1" style="font-family:'Roboto-Thin'; font-size:6.2407px;">cambiar, sino solo  cambiando la informacion</tspan></text>
	<rect id="XMLID_102_" x="-1121.6" y="3548" class="st27" width="683.1" height="408.5"/>
	<polyline id="XMLID_101_" class="st16" points="-1109.4,2183.5 -1109.4,2237.2 -1109,2237 -1050.3,2237 -1050.4,2236.7 
		-1050.4,2301.5 	"/>
	<g id="XMLID_113_">
		<g id="XMLID_76_">
			<rect id="XMLID_141_" x="-1180.5" y="2473" class="st9" width="203.7" height="166.1"/>
		</g>
		<g id="XMLID_134_">
		</g>
	</g>
	<g id="XMLID_119_">
		<g id="XMLID_170_">
			<rect id="XMLID_16_" x="-1181.3" y="2473" class="st9" width="203.7" height="166.1"/>
		</g>
		<g id="XMLID_169_">
		</g>
	</g>
	<g id="XMLID_689_">
		<g id="XMLID_694_">
			<rect id="XMLID_688_" x="-1932.9" y="2473" class="st9" width="203.7" height="166.1"/>
		</g>
		<g id="XMLID_693_">
		</g>
	</g>
	<g id="XMLID_120_">
		<g id="XMLID_125_">
			<rect id="XMLID_65_" x="-1181.1" y="2985.3" class="st9" width="742.9" height="274.8"/>
		</g>
		<g id="XMLID_124_">
		</g>
	</g>
	<g id="XMLID_78_">
		<g id="XMLID_186_">
			<path id="XMLID_190_" class="st23" d="M-1027.8,1660c1,0,1-1.6,0-1.6C-1028.8,1658.4-1028.8,1660-1027.8,1660L-1027.8,1660z"/>
		</g>
	</g>
	<g id="XMLID_71_">
		<g id="XMLID_180_">
			<path id="XMLID_184_" class="st23" d="M-1011.1,1627.7c1,0,1-1.6,0-1.6C-1012.1,1626.2-1012.1,1627.7-1011.1,1627.7
				L-1011.1,1627.7z"/>
		</g>
	</g>
	<rect id="XMLID_293_" x="-308.3" y="1187.6" class="st0" width="742.5" height="546.4"/>
	<g id="XMLID_286_">
		<g id="XMLID_228_">
			<rect id="XMLID_249_" x="-308.3" y="1506.1" class="st6" width="742.9" height="123.9"/>
		</g>
		<g id="XMLID_229_">
		</g>
	</g>
	<g id="XMLID_279_">
		<g id="XMLID_642_">
			<path id="XMLID_646_" class="st23" d="M-154.8,1350c1,0,1-1.6,0-1.6C-155.8,1348.4-155.8,1350-154.8,1350L-154.8,1350z"/>
		</g>
	</g>
	<g id="XMLID_272_">
		<g id="XMLID_634_">
			<path id="XMLID_640_" class="st23" d="M-138.1,1317.7c1,0,1-1.6,0-1.6C-139.1,1316.2-139.1,1317.7-138.1,1317.7L-138.1,1317.7z"
				/>
		</g>
	</g>
	<g id="XMLID_159_">
		<g id="XMLID_164_">
			<rect id="XMLID_68_" x="-1121.4" y="2307.6" class="st2" width="683" height="123.9"/>
		</g>
		<g id="XMLID_163_">
		</g>
	</g>
	<g id="XMLID_81_">
		<g id="XMLID_2_">
			<rect id="XMLID_17_" x="-642.6" y="1996.4" class="st3" width="204.1" height="123.6"/>
		</g>
		<g id="XMLID_18_">
		</g>
	</g>
	<rect id="XMLID_310_" x="-308.3" y="1734.6" class="st1" width="742.9" height="546"/>
	<rect id="XMLID_309_" x="-75.4" y="2012.5" class="st31" width="126.1" height="27.9"/>
	<text id="XMLID_308_" transform="matrix(1 0 0 1 -68.5061 2017.2123)"><tspan x="0" y="0" class="st1" style="font-family:'Roboto-Thin'; font-size:6.2407px;">Desplegar items de un JSON con mismas </tspan><tspan x="-0.9" y="10.1" class="st1" style="font-family:'Roboto-Thin'; font-size:6.2407px;">caracteristicas, evitar refrescar la pagina al </tspan><tspan x="-4.8" y="20.2" class="st1" style="font-family:'Roboto-Thin'; font-size:6.2407px;">cambiar, sino solo  cambiando la informacion</tspan></text>
	<polyline id="XMLID_307_" class="st16" points="-236.4,1961.5 -236.4,2015.2 -236,2015 -177.3,2015 -177.4,2014.7 -177.4,2079.5 	
		"/>
	<g id="XMLID_300_">
		<g id="XMLID_298_">
			<rect id="XMLID_305_" x="-248.4" y="2070.2" class="st2" width="683" height="123.9"/>
		</g>
		<g id="XMLID_304_">
		</g>
	</g>
	<g id="XMLID_292_">
		<g id="XMLID_230_">
			<rect id="XMLID_297_" x="230.4" y="1774.4" class="st3" width="204.1" height="123.6"/>
		</g>
		<g id="XMLID_231_">
		</g>
	</g>
	<g id="XMLID_1724_">
		<rect id="XMLID_1769_" x="-3527.3" y="3889.9" class="st13" width="19.4" height="66.6"/>
		<rect id="XMLID_1760_" x="-3504.3" y="3889.9" class="st20" width="19.4" height="66.6"/>
		<rect id="XMLID_1759_" x="-3550.3" y="3889.9" class="st7" width="19.4" height="66.6"/>
		<rect id="XMLID_1738_" x="-3481.3" y="3889.9" class="st25" width="19.4" height="66.6"/>
		<rect id="XMLID_1737_" x="-3458.3" y="3889.9" class="st0" width="19.4" height="66.6"/>
		<rect id="XMLID_1727_" x="-3435.3" y="3889.9" class="st26" width="19.4" height="66.6"/>
		<rect id="XMLID_1725_" x="-3412.3" y="3889.9" class="st1" width="19.4" height="66.6"/>
	</g>
</g>
<g id="vectors">
	<line id="XMLID_109_" class="st11" x1="-1048.9" y1="1956.5" x2="-1048.9" y2="2002.5"/>
	<line id="XMLID_108_" class="st12" x1="-1048.9" y1="1862.5" x2="-1048.9" y2="1956.5"/>
	<line id="XMLID_104_" class="st11" x1="-923.9" y1="1969.5" x2="-774.9" y2="1969.5"/>
	<line id="XMLID_103_" class="st11" x1="-923.9" y1="1986.5" x2="-849.9" y2="1986.5"/>
	<g id="XMLID_98_">
		<rect id="XMLID_100_" x="-1073.9" y="1537.3" class="st17" width="19.2" height="13.7"/>
		<rect id="XMLID_99_" x="-1083.5" y="1544.1" class="st18" width="19.2" height="13.7"/>
	</g>
	<rect id="XMLID_227_" x="-1117.5" y="1095.6" class="st17" width="19.2" height="13.7"/>
	<rect id="XMLID_226_" x="-1121.4" y="1088.8" class="st8" width="19.2" height="13.7"/>
	<rect id="XMLID_91_" x="-1155" y="1925.1" class="st1" width="19.2" height="13.7"/>
	
		<rect id="XMLID_90_" x="-1142.5" y="1962.7" transform="matrix(0.9214 0.3886 -0.3886 0.9214 676.2953 595.0215)" class="st20" width="19.2" height="13.7"/>
	<g id="XMLID_95_">
		<rect id="XMLID_97_" x="-488.3" y="1903.3" class="st17" width="19.2" height="13.7"/>
		<rect id="XMLID_96_" x="-497.9" y="1910.1" class="st0" width="19.2" height="13.7"/>
	</g>
	<g id="XMLID_664_">
		<g id="XMLID_658_">
			<g id="XMLID_663_">
				<rect id="XMLID_636_" x="-2055.3" y="1816.1" class="st6" width="742.9" height="123.9"/>
			</g>
			<g id="XMLID_662_">
			</g>
		</g>
		<line id="XMLID_657_" class="st11" x1="-1922.9" y1="1956.5" x2="-1922.9" y2="2002.5"/>
		<line id="XMLID_656_" class="st12" x1="-1922.9" y1="1862.5" x2="-1922.9" y2="1956.5"/>
		<line id="XMLID_655_" class="st11" x1="-1797.9" y1="1969.5" x2="-1648.9" y2="1969.5"/>
		<line id="XMLID_654_" class="st11" x1="-1797.9" y1="1986.5" x2="-1723.9" y2="1986.5"/>
		<rect id="XMLID_653_" x="-2029" y="1925.1" class="st1" width="19.2" height="13.7"/>
		
			<rect id="XMLID_652_" x="-2016.5" y="1962.7" transform="matrix(0.9214 0.3886 -0.3886 0.9214 607.6074 934.6514)" class="st20" width="19.2" height="13.7"/>
		<g id="XMLID_649_">
			<rect id="XMLID_651_" x="-1362.3" y="1903.3" class="st17" width="19.2" height="13.7"/>
			<rect id="XMLID_650_" x="-1371.9" y="1910.1" class="st0" width="19.2" height="13.7"/>
		</g>
	</g>
	<g id="XMLID_92_">
		
			<rect id="XMLID_94_" x="-750.8" y="2031.2" transform="matrix(-0.7499 -0.6616 0.6616 -0.7499 -2645.3667 3075.9285)" class="st17" width="19.2" height="13.7"/>
		
			<rect id="XMLID_93_" x="-762.5" y="2030" transform="matrix(-0.7499 -0.6616 0.6616 -0.7499 -2665.0481 3066.0361)" class="st19" width="19.2" height="13.7"/>
	</g>
	<g id="XMLID_665_">
		<g id="XMLID_669_">
			<g id="XMLID_674_">
				<rect id="XMLID_566_" x="-1454" y="1996.4" class="st3" width="204.1" height="123.6"/>
			</g>
			<g id="XMLID_673_">
			</g>
		</g>
		<g id="XMLID_666_">
			
				<rect id="XMLID_668_" x="-1562.2" y="2031.2" transform="matrix(-0.7499 -0.6616 0.6616 -0.7499 -4065.3022 2539.0642)" class="st17" width="19.2" height="13.7"/>
			
				<rect id="XMLID_667_" x="-1574" y="2030" transform="matrix(-0.7499 -0.6616 0.6616 -0.7499 -4084.9836 2529.1721)" class="st19" width="19.2" height="13.7"/>
		</g>
	</g>
	<g id="XMLID_151_">
		<g id="XMLID_70_">
			<g id="XMLID_56_">
				<rect id="XMLID_88_" x="-1121.5" y="1396.3" class="st8" width="106.6" height="125.6"/>
			</g>
			<g id="XMLID_87_">
			</g>
		</g>
		<rect id="XMLID_69_" x="-1121.6" y="1507.7" class="st13" width="106.6" height="14.2"/>
	</g>
	<g id="XMLID_1_">
		<g id="XMLID_118_">
			<g id="XMLID_154_">
				<rect x="-658.1" y="973.8" class="st7" width="160.2" height="553.3"/>
			</g>
			<g id="XMLID_153_">
			</g>
		</g>
		<rect id="XMLID_67_" x="-658.1" y="1507.9" class="st13" width="160.2" height="19.1"/>
	</g>
	<g id="XMLID_66_">
		<g id="XMLID_641_">
			<rect id="XMLID_648_" x="-1903.4" y="1537.3" class="st17" width="19.2" height="13.7"/>
			<rect id="XMLID_647_" x="-1913" y="1544.1" class="st18" width="19.2" height="13.7"/>
		</g>
		<g id="XMLID_622_">
			<g id="XMLID_626_">
				<g>
					<rect x="-1951" y="1396.3" class="st8" width="106.6" height="125.6"/>
				</g>
				<g>
				</g>
			</g>
			<rect id="XMLID_623_" x="-1951" y="1507.7" class="st13" width="106.6" height="14.2"/>
		</g>
	</g>
	<rect id="XMLID_453_" x="-1487.6" y="1507.9" class="st13" width="160.2" height="19.1"/>
	<line id="XMLID_629_" class="st12" x1="-175.9" y1="1589.5" x2="-175.9" y2="1734.5"/>
	<g id="XMLID_624_">
		<rect id="XMLID_627_" x="-200.9" y="1227.3" class="st17" width="19.2" height="13.7"/>
		<rect id="XMLID_625_" x="-210.5" y="1234.1" class="st18" width="19.2" height="13.7"/>
	</g>
	<rect id="XMLID_450_" x="-292" y="1710" class="st1" width="19.2" height="13.7"/>
	<g id="XMLID_616_">
		<rect id="XMLID_618_" x="384.7" y="1593.3" class="st17" width="19.2" height="13.7"/>
		<rect id="XMLID_617_" x="375.1" y="1600.1" class="st0" width="19.2" height="13.7"/>
	</g>
	<rect id="XMLID_615_" x="-249.1" y="1187.4" class="st13" width="106.6" height="14.8"/>
	<rect id="XMLID_612_" x="214.3" y="1187.4" class="st13" width="160.2" height="19.1"/>
	<rect id="XMLID_590_" x="-255" y="514.1" class="st17" width="19.2" height="13.7"/>
	<rect id="XMLID_589_" x="-259" y="507.3" class="st8" width="19.2" height="13.7"/>
	<g id="XMLID_260_">
		<g id="XMLID_563_">
			<g id="XMLID_587_">
				<rect id="XMLID_628_" x="-259.1" y="743.2" class="st8" width="106.6" height="183.3"/>
			</g>
			<g id="XMLID_586_">
			</g>
		</g>
	</g>
	<g id="XMLID_234_">
		<g id="XMLID_235_">
			<g id="XMLID_258_">
				<rect id="XMLID_107_" x="204.3" y="392.3" class="st7" width="160.2" height="534.2"/>
			</g>
			<g id="XMLID_257_">
			</g>
		</g>
	</g>
	<g id="XMLID_85_">
		<rect id="XMLID_89_" x="-465.1" y="2458.6" class="st21" width="19.2" height="13.7"/>
		<rect id="XMLID_86_" x="-484.7" y="2473.8" class="st22" width="19.2" height="13.7"/>
	</g>
	<g id="XMLID_682_">
		<g id="XMLID_676_">
			<g id="XMLID_681_">
				<rect id="XMLID_675_" x="-1932.9" y="2307.6" class="st2" width="683" height="123.9"/>
			</g>
			<g id="XMLID_680_">
			</g>
		</g>
		<g id="XMLID_683_">
			<rect id="XMLID_687_" x="-1292.8" y="2458.6" class="st21" width="19.2" height="13.7"/>
			<rect id="XMLID_684_" x="-1312.4" y="2473.8" class="st22" width="19.2" height="13.7"/>
		</g>
	</g>
	<line id="XMLID_173_" class="st4" x1="-748.9" y1="3004.5" x2="-748.9" y2="2754.5"/>
	<line id="XMLID_172_" class="st5" x1="-710.9" y1="3004.5" x2="-710.9" y2="2900.5"/>
	<line id="XMLID_447_" class="st11" x1="-175.9" y1="1734.5" x2="-175.9" y2="1780.5"/>
	<line id="XMLID_340_" class="st11" x1="-50.9" y1="1747.5" x2="98.1" y2="1747.5"/>
	<line id="XMLID_285_" class="st11" x1="-50.9" y1="1764.5" x2="23.1" y2="1764.5"/>
	
		<rect id="XMLID_284_" x="-269.5" y="1740.7" transform="matrix(0.9214 0.3886 -0.3886 0.9214 658.6371 238.3331)" class="st20" width="19.2" height="13.7"/>
	<g id="XMLID_281_">
		
			<rect id="XMLID_283_" x="122.2" y="1809.2" transform="matrix(-0.7499 -0.6616 0.6616 -0.7499 -970.8681 3265.0403)" class="st17" width="19.2" height="13.7"/>
		
			<rect id="XMLID_282_" x="110.5" y="1808" transform="matrix(-0.7499 -0.6616 0.6616 -0.7499 -990.5494 3255.1479)" class="st19" width="19.2" height="13.7"/>
	</g>
	<rect id="XMLID_333_" x="-317.9" y="2368.1" class="st0" width="742.5" height="546.4"/>
	<g id="XMLID_326_">
		<g id="XMLID_331_">
			<rect id="XMLID_325_" x="-317.5" y="2368" class="st9" width="203.7" height="166.1"/>
		</g>
		<g id="XMLID_330_">
		</g>
	</g>
	<g id="XMLID_319_">
		<g id="XMLID_324_">
			<rect id="XMLID_318_" x="-318.3" y="2368" class="st9" width="203.7" height="166.1"/>
		</g>
		<g id="XMLID_323_">
		</g>
	</g>
	<rect id="XMLID_264_" x="378.3" y="2368.8" class="st22" width="19.2" height="13.7"/>
	<rect id="XMLID_266_" x="398.3" y="2355.1" class="st21" width="19.2" height="13.7"/>
	<g id="XMLID_57_">
		<rect id="XMLID_64_" x="-601.7" y="3889.9" class="st13" width="15" height="66.6"/>
		<rect id="XMLID_63_" x="-583.9" y="3889.9" class="st20" width="15" height="66.6"/>
		<rect id="XMLID_62_" x="-619.4" y="3889.9" class="st7" width="15" height="66.6"/>
		<rect id="XMLID_61_" x="-566.1" y="3889.9" class="st25" width="15" height="66.6"/>
		<rect id="XMLID_60_" x="-548.4" y="3889.9" class="st0" width="15" height="66.6"/>
		<rect id="XMLID_59_" x="-530.6" y="3889.9" class="st26" width="15" height="66.6"/>
		<rect id="XMLID_58_" x="-512.9" y="3889.9" class="st1" width="15" height="66.6"/>
	</g>
	<g id="XMLID_696_">
		<rect id="XMLID_703_" x="-1634.4" y="3889.9" class="st13" width="15" height="66.6"/>
		<rect id="XMLID_702_" x="-1616.6" y="3889.9" class="st20" width="15" height="66.6"/>
		<rect id="XMLID_701_" x="-1652.1" y="3889.9" class="st7" width="15" height="66.6"/>
		<rect id="XMLID_700_" x="-1598.9" y="3889.9" class="st25" width="15" height="66.6"/>
		<rect id="XMLID_699_" x="-1581.1" y="3889.9" class="st0" width="15" height="66.6"/>
		<rect id="XMLID_698_" x="-1563.3" y="3889.9" class="st26" width="15" height="66.6"/>
		<rect id="XMLID_697_" x="-1545.6" y="3889.9" class="st1" width="15" height="66.6"/>
	</g>
	<g id="XMLID_241_">
		<rect id="XMLID_240_" x="-318.1" y="3214.3" class="st10" width="742.9" height="271.6"/>
		<rect id="XMLID_339_" x="-258.4" y="3269" class="st27" width="683.1" height="217"/>
		<g id="XMLID_312_">
			<g id="XMLID_317_">
				<rect id="XMLID_232_" x="-318.1" y="2939.5" class="st9" width="742.9" height="274.8"/>
			</g>
			<g id="XMLID_316_">
			</g>
		</g>
		<g id="XMLID_273_">
			<rect id="XMLID_338_" x="261.5" y="3419.4" class="st13" width="15" height="66.6"/>
			<rect id="XMLID_337_" x="279.3" y="3419.4" class="st20" width="15" height="66.6"/>
			<rect id="XMLID_336_" x="243.8" y="3419.4" class="st7" width="15" height="66.6"/>
			<rect id="XMLID_335_" x="297.1" y="3419.4" class="st25" width="15" height="66.6"/>
			<rect id="XMLID_334_" x="314.8" y="3419.4" class="st0" width="15" height="66.6"/>
			<rect id="XMLID_332_" x="332.6" y="3419.4" class="st26" width="15" height="66.6"/>
			<rect id="XMLID_311_" x="350.3" y="3419.4" class="st1" width="15" height="66.6"/>
		</g>
	</g>
	<g id="XMLID_150_">
		<line id="XMLID_194_" class="st28" x1="-497.9" y1="829.8" x2="-497.9" y2="4200.5"/>
		<g id="XMLID_185_">
			<line id="XMLID_193_" class="st29" x1="-497.9" y1="829.8" x2="-497.9" y2="835.8"/>
			<line id="XMLID_192_" class="st30" x1="-497.9" y1="847.9" x2="-497.9" y2="4188.5"/>
			<line id="XMLID_191_" class="st29" x1="-497.9" y1="4194.5" x2="-497.9" y2="4200.5"/>
		</g>
	</g>
	<g id="XMLID_155_">
		<line id="XMLID_209_" class="st28" x1="-1121.6" y1="4023.9" x2="-1121.6" y2="653.2"/>
		<g id="XMLID_205_">
			<line id="XMLID_208_" class="st29" x1="-1121.6" y1="4023.9" x2="-1121.6" y2="4017.9"/>
			<line id="XMLID_207_" class="st30" x1="-1121.6" y1="4005.8" x2="-1121.6" y2="665.2"/>
			<line id="XMLID_206_" class="st29" x1="-1121.6" y1="659.2" x2="-1121.6" y2="653.2"/>
		</g>
	</g>
	<rect id="XMLID_479_" x="-2517.3" y="-364.4" class="st1" width="1025.9" height="713.2"/>
	<rect id="XMLID_460_" x="-2195.7" y="19.3" class="st31" width="174.2" height="38.6"/>
	<text id="XMLID_459_" transform="matrix(1 0 0 1 -2186.1494 25.9072)"><tspan x="0" y="0" class="st1" style="font-family:'Roboto-Thin'; font-size:8.6179px;">Desplegar items de un JSON con mismas </tspan><tspan x="-1.3" y="13.9" class="st1" style="font-family:'Roboto-Thin'; font-size:8.6179px;">caracteristicas, evitar refrescar la pagina al </tspan><tspan x="-6.7" y="27.9" class="st1" style="font-family:'Roboto-Thin'; font-size:8.6179px;">cambiar, sino solo  cambiando la informacion</tspan></text>
	<polyline id="XMLID_458_" class="st16" points="-2418.4,-51.5 -2418.4,23.1 -2417.5,23 -2336.4,23 -2336.4,22.4 -2336.4,111.5 	"/>
	<g id="XMLID_386_">
		<g id="XMLID_406_">
			<rect id="XMLID_414_" x="-2434.6" y="120.3" class="st2" width="943.2" height="171.1"/>
		</g>
		<g id="XMLID_391_">
		</g>
	</g>
	<g id="XMLID_290_">
		<g id="XMLID_384_">
			<rect id="XMLID_385_" x="-1773.3" y="-309.4" class="st3" width="281.9" height="170.7"/>
		</g>
		<g id="XMLID_383_">
		</g>
	</g>
	<line id="XMLID_278_" class="st11" x1="-2334.9" y1="-364.5" x2="-2334.9" y2="-300.5"/>
	<line id="XMLID_277_" class="st11" x1="-2161.9" y1="-346.5" x2="-1955.9" y2="-346.5"/>
	<line id="XMLID_274_" class="st11" x1="-2161.9" y1="-323.5" x2="-2059.9" y2="-323.5"/>
	
		<rect id="XMLID_271_" x="-2463.7" y="-356" transform="matrix(0.9214 0.3886 -0.3886 0.9214 -327.2505 924.9936)" class="st20" width="26.5" height="18.9"/>
	<g id="XMLID_268_">
		
			<rect id="XMLID_270_" x="-1922.8" y="-261.3" transform="matrix(-0.7499 -0.6616 0.6616 -0.7499 -3174.7644 -1704.0917)" class="st17" width="26.5" height="18.9"/>
		
			<rect id="XMLID_269_" x="-1939" y="-263" transform="matrix(-0.7499 -0.6616 0.6616 -0.7499 -3201.9429 -1717.7523)" class="st19" width="26.5" height="18.9"/>
	</g>
	<rect id="XMLID_267_" x="-1528.2" y="328.9" class="st21" width="26.5" height="18.9"/>
	<line id="XMLID_522_" class="st31" x1="-1437.9" y1="-364" x2="-1437.9" y2="356"/>
	<rect id="XMLID_238_" x="495.9" y="2299.6" class="st32" width="742.9" height="546.4"/>
	<rect id="XMLID_280_" x="495.9" y="1659.7" class="st32" width="742.9" height="546.4"/>
	<rect id="XMLID_244_" x="495.9" y="1019.9" class="st32" width="742.9" height="546.4"/>
	<rect id="XMLID_246_" x="495.9" y="380" class="st32" width="742.9" height="546.4"/>
	<rect id="XMLID_237_" x="495.9" y="2939.5" class="st32" width="742.9" height="546.4"/>
	<line id="XMLID_245_" class="st4" x1="114.1" y1="2899.5" x2="114.1" y2="2649.5"/>
	<line id="XMLID_243_" class="st5" x1="152.1" y1="2899.5" x2="152.1" y2="2795.5"/>
	<linearGradient id="XMLID_633_" gradientUnits="userSpaceOnUse" x1="-658.1473" y1="1240.8494" x2="-497.9063" y2="1240.8494">
		<stop  offset="0" style="stop-color:#A01127;stop-opacity:0.5"/>
		<stop  offset="1" style="stop-color:#211915"/>
	</linearGradient>
	<rect id="XMLID_117_" x="-658.1" y="973.8" class="st33" width="160.2" height="534.2"/>
	<rect id="XMLID_276_" x="-1487.6" y="973.8" class="st8" width="160.2" height="534.2"/>
	<g id="XMLID_137_">
		<g id="XMLID_255_">
			<rect id="XMLID_259_" x="47.6" y="141" class="st17" width="19.2" height="13.7"/>
			<rect id="XMLID_256_" x="38.1" y="147.9" class="st18" width="19.2" height="13.7"/>
		</g>
		<g id="XMLID_242_">
			<g id="XMLID_251_">
				<g id="XMLID_507_">
					<rect id="XMLID_498_" x="0" class="st8" width="106.6" height="125.6"/>
				</g>
				<g id="XMLID_506_">
				</g>
			</g>
			<rect id="XMLID_250_" x="0" y="111.4" class="st13" width="106.6" height="14.2"/>
		</g>
	</g>
</g>
<g id="Capa_3">
	<g id="XMLID_216_">
		<line id="XMLID_215_" class="st34" x1="-498.2" y1="962" x2="-498.2" y2="3384.5"/>
		<line id="XMLID_214_" class="st34" x1="-1121.4" y1="962" x2="-1121.4" y2="3384.5"/>
		<line id="XMLID_213_" class="st34" x1="-536.1" y1="962" x2="-536.1" y2="3384.5"/>
		<line id="XMLID_212_" class="st34" x1="-551.7" y1="962" x2="-551.7" y2="3384.5"/>
		<line id="XMLID_211_" class="st34" x1="-589.1" y1="962" x2="-589.1" y2="3384.5"/>
		<line id="XMLID_210_" class="st34" x1="-604.7" y1="962" x2="-604.7" y2="3384.5"/>
		<line id="XMLID_203_" class="st34" x1="-1014.9" y1="962" x2="-1014.9" y2="3384.5"/>
		<line id="XMLID_202_" class="st34" x1="-1030.5" y1="962" x2="-1030.5" y2="3384.5"/>
		<line id="XMLID_201_" class="st34" x1="-1067.9" y1="962" x2="-1067.9" y2="3384.5"/>
		<line id="XMLID_199_" class="st34" x1="-1083.5" y1="962" x2="-1083.5" y2="3384.5"/>
		<line id="XMLID_198_" class="st34" x1="-642.6" y1="962" x2="-642.6" y2="3384.5"/>
		<line id="XMLID_197_" class="st34" x1="-658.1" y1="962" x2="-658.1" y2="3384.5"/>
		<line id="XMLID_196_" class="st34" x1="-695.5" y1="962" x2="-695.5" y2="3384.5"/>
		<line id="XMLID_195_" class="st34" x1="-711.1" y1="962" x2="-711.1" y2="3384.5"/>
		<line id="XMLID_178_" class="st34" x1="-749" y1="962" x2="-749" y2="3384.5"/>
		<line id="XMLID_177_" class="st34" x1="-764.6" y1="962" x2="-764.6" y2="3384.5"/>
		<line id="XMLID_174_" class="st34" x1="-802" y1="962" x2="-802" y2="3384.5"/>
		<line id="XMLID_171_" class="st34" x1="-817.6" y1="962" x2="-817.6" y2="3384.5"/>
		<line id="XMLID_165_" class="st34" x1="-855" y1="962" x2="-855" y2="3384.5"/>
		<line id="XMLID_158_" class="st34" x1="-870.6" y1="962" x2="-870.6" y2="3384.5"/>
		<line id="XMLID_156_" class="st34" x1="-908.5" y1="962" x2="-908.5" y2="3384.5"/>
		<line id="XMLID_140_" class="st34" x1="-924.1" y1="962" x2="-924.1" y2="3384.5"/>
		<line id="XMLID_139_" class="st34" x1="-961.5" y1="962" x2="-961.5" y2="3384.5"/>
		<line id="XMLID_138_" class="st34" x1="-977" y1="962" x2="-977" y2="3384.5"/>
	</g>
	<g id="XMLID_20_">
		<rect id="XMLID_224_" x="-4268.5" y="961.5" class="st35" width="961.5" height="81.6"/>
		<line id="XMLID_223_" class="st34" x1="-3384.1" y1="962" x2="-3384.1" y2="3384.5"/>
		<line id="XMLID_222_" class="st34" x1="-4191.4" y1="962" x2="-4191.4" y2="3384.5"/>
		<line id="XMLID_221_" class="st34" x1="-3433.2" y1="962" x2="-3433.2" y2="3384.5"/>
		<line id="XMLID_220_" class="st34" x1="-3453.4" y1="962" x2="-3453.4" y2="3384.5"/>
		<line id="XMLID_219_" class="st34" x1="-3501.8" y1="962" x2="-3501.8" y2="3384.5"/>
		<line id="XMLID_218_" class="st34" x1="-3522" y1="962" x2="-3522" y2="3384.5"/>
		<line id="XMLID_217_" class="st34" x1="-4053.5" y1="962" x2="-4053.5" y2="3384.5"/>
		<line id="XMLID_136_" class="st34" x1="-4073.6" y1="962" x2="-4073.6" y2="3384.5"/>
		<line id="XMLID_135_" class="st34" x1="-4122.1" y1="962" x2="-4122.1" y2="3384.5"/>
		<line id="XMLID_130_" class="st34" x1="-4142.3" y1="962" x2="-4142.3" y2="3384.5"/>
		<line id="XMLID_129_" class="st34" x1="-3571.1" y1="962" x2="-3571.1" y2="3384.5"/>
		<line id="XMLID_128_" class="st34" x1="-3591.3" y1="962" x2="-3591.3" y2="3384.5"/>
		<line id="XMLID_127_" class="st34" x1="-3639.7" y1="962" x2="-3639.7" y2="3384.5"/>
		<line id="XMLID_106_" class="st34" x1="-3659.9" y1="962" x2="-3659.9" y2="3384.5"/>
		<line id="XMLID_105_" class="st34" x1="-3709" y1="962" x2="-3709" y2="3384.5"/>
		<line id="XMLID_74_" class="st34" x1="-3729.2" y1="962" x2="-3729.2" y2="3384.5"/>
		<line id="XMLID_73_" class="st34" x1="-3777.6" y1="962" x2="-3777.6" y2="3384.5"/>
		<line id="XMLID_72_" class="st34" x1="-3797.8" y1="962" x2="-3797.8" y2="3384.5"/>
		<line id="XMLID_55_" class="st34" x1="-3846.3" y1="962" x2="-3846.3" y2="3384.5"/>
		<line id="XMLID_54_" class="st34" x1="-3866.4" y1="962" x2="-3866.4" y2="3384.5"/>
		<line id="XMLID_53_" class="st34" x1="-3915.5" y1="962" x2="-3915.5" y2="3384.5"/>
		<line id="XMLID_28_" class="st34" x1="-3935.7" y1="962" x2="-3935.7" y2="3384.5"/>
		<line id="XMLID_27_" class="st34" x1="-3984.2" y1="962" x2="-3984.2" y2="3384.5"/>
		<line id="XMLID_25_" class="st34" x1="-4004.3" y1="962" x2="-4004.3" y2="3384.5"/>
	</g>
</g>
</svg>
