<?xml version="1.0" encoding="utf-8"?>
<!-- Generator: Adobe Illustrator 19.0.0, SVG Export Plug-In . SVG Version: 6.00 Build 0)  -->
<svg version="1.1" id="Capa_1" xmlns="http://www.w3.org/2000/svg" xmlns:xlink="http://www.w3.org/1999/xlink" x="0px" y="0px"
	 viewBox="-403.5 -3891 1437.5 1610.4" style="enable-background:new -403.5 -3891 1437.5 1610.4;" xml:space="preserve">
<style type="text/css">
	.st0{clip-path:url(#SVGID_2_);}
	.st1{fill:#C8E7F5;}
	.st2{fill:#FFFFFF;}
	.st3{fill:#D2AAA6;}
	.st4{fill:#E9ECEE;}
	.st5{fill:#F3E6A1;}
	.st6{opacity:0.58;fill:#C8E7F5;enable-background:new    ;}
	.st7{opacity:0.59;fill:#BAD8B4;enable-background:new    ;}
	.st8{fill:#BAD8B4;}
	.st9{fill:#99989D;}
	.st10{fill:#131414;}
	.st11{clip-path:url(#SVGID_4_);}
</style>
<g>
	<g>
		<g>
			<g>
				<defs>
					
						<text id="SVGID_1_" transform="matrix(1.1549 0 0 1 -827.0694 1479.3164)" style="font-family:'Roboto-Black'; font-size:78.0435px; letter-spacing:6.1;">R</text>
				</defs>
				<clipPath id="SVGID_2_">
					<use xlink:href="#SVGID_1_"  style="overflow:visible;"/>
				</clipPath>
				<g id="XMLID_2316_" class="st0">
					<rect id="XMLID_5603_" x="-811.9" y="1461.9" class="st1" width="24.4" height="24.1"/>
					<rect id="XMLID_5495_" x="-787.5" y="1437.9" class="st2" width="24.4" height="24.1"/>
					<rect id="XMLID_5406_" x="-836.3" y="1461.9" class="st3" width="24.4" height="24.1"/>
					<rect id="XMLID_4775_" x="-811.9" y="1437.9" class="st4" width="24.4" height="24.1"/>
					<rect id="XMLID_4772_" x="-787.5" y="1461.9" class="st5" width="24.4" height="24.1"/>
					<rect id="XMLID_2333_" x="-811.9" y="1413.8" class="st6" width="24.4" height="24.1"/>
					<rect id="XMLID_2332_" x="-811.9" y="1413.8" class="st7" width="24.4" height="24.1"/>
					<rect id="XMLID_2331_" x="-787.5" y="1413.8" class="st8" width="24.4" height="24.1"/>
					<rect id="XMLID_2330_" x="-836.3" y="1437.9" class="st9" width="24.4" height="24.1"/>
					<rect id="XMLID_2325_" x="-836.1" y="1413.8" class="st10" width="24.1" height="24.1"/>
				</g>
			</g>
		</g>
	</g>
</g>
<g>
	<g>
		<g>
			<g>
				<defs>
					<path id="SVGID_3_" d="M-822,1431.7c-2.2,2.3-5.4,4.3-9.4,6s-9.3,2.5-15.6,2.5c-8,0-14.4-2.1-19.4-6.3c-5-4.2-7.4-9.7-7.4-16.4
						v-11.6c0-6.7,2.4-12.1,7.2-16.4c4.8-4.2,11-6.4,18.6-6.4c8.2,0,14.4,1.6,18.5,4.7c4.2,3.2,6.2,7.5,6.1,13l-0.1,0.2h-13.9
						c0-2.7-0.8-4.7-2.5-6.1c-1.7-1.3-4.2-2-7.6-2c-3.5,0-6.2,1.2-8.4,3.5c-2.1,2.4-3.2,5.4-3.2,9.2v11.7c0,3.9,1,7,3.1,9.3
						c2.1,2.4,5,3.5,8.8,3.5c2.7,0,4.9-0.2,6.4-0.6c1.6-0.4,2.8-0.9,3.7-1.5v-9.9h-11.4v-8.5h26.2v22.1L-822,1431.7L-822,1431.7z"/>
				</defs>
				<clipPath id="SVGID_4_">
					<use xlink:href="#SVGID_3_"  style="overflow:visible;"/>
				</clipPath>
				<g id="XMLID_586_" class="st11">
					<rect id="XMLID_5384_" x="-861" y="1378.5" class="st1" width="23.1" height="22.8"/>
					<rect id="XMLID_5376_" x="-884.1" y="1401.4" class="st2" width="23.1" height="22.8"/>
					<rect id="XMLID_5383_" x="-837.9" y="1378.5" class="st3" width="23.1" height="22.8"/>
					<rect id="XMLID_5387_" x="-861" y="1401.4" class="st4" width="23.1" height="22.8"/>
					<rect id="XMLID_5391_" x="-884.1" y="1378.5" class="st5" width="23.1" height="22.8"/>
					<rect id="XMLID_5388_" x="-861" y="1424.2" class="st6" width="23.1" height="22.8"/>
					<rect id="XMLID_5380_" x="-861" y="1424.2" class="st7" width="23.1" height="22.8"/>
					<rect id="XMLID_5389_" x="-884.1" y="1424.2" class="st8" width="23.1" height="22.8"/>
					<rect id="XMLID_5379_" x="-837.9" y="1401.4" class="st9" width="23.1" height="22.8"/>
					<rect id="XMLID_5377_" x="-837.8" y="1424.2" class="st10" width="22.8" height="22.8"/>
				</g>
			</g>
		</g>
	</g>
</g>
<path id="XMLID_6237_" class="st2" d="M498.7-2786.9c-38.7,40.8-93.2,75.2-164.1,103.9c-70.2,28.7-161.2,43-271.6,43
	c-138.3,0-250.8-36.5-336.8-110.4c-86-73.1-129.7-168.4-129.7-285.9v-201.4c0-116.1,42.3-211.4,126.1-285.2
	c83.8-73.8,192-110.4,323.9-110.4c142.6,0,250.1,27.2,322.5,82.4c72.4,55.2,107.5,130.4,105.3,225.7l-1.4,4.3H230
	c0-47.3-14.3-82.4-43.7-105.3s-73.1-34.4-131.9-34.4c-60.2,0-108.9,20.8-145.5,61.6c-36.5,40.8-55.2,94.6-55.2,160.5v202.8
	c0,67.4,17.9,121.1,54.5,162c36.5,40.8,87.4,61.6,153.4,61.6c47.3,0,84.6-3.6,112.5-10c27.2-6.4,48.7-15.8,64.5-26.5v-172H40.8
	v-148.3h456.5v381.9H498.7z"/>
<path id="XMLID_6246_" class="st2" d="M653.2-2824.4v213.5H495.5v-556.4h237.7c78.9,0,142,14.7,187.2,45.2
	c46.3,29.5,69.4,70.5,69.4,122c0,28.4-9.5,53.6-27.3,74.7c-18.9,21-46.3,37.9-82,50.5c42.1,9.5,71.5,26.3,90.5,48.4
	c17.9,22.1,27.3,50.5,27.3,84.1v34.7c0,14.7,3.2,31.6,8.4,49.4c5.3,18.9,14.7,31.6,27.3,40v7.4H868.9c-12.6-8.4-21-22.1-24.2-42.1
	c-4.2-20-5.3-38.9-5.3-55.7v-33.7c0-26.3-8.4-46.3-25.2-61c-16.8-13.7-42.1-21-75.7-21H653.2z M653.2-2923.3h79.9
	c31.6,0,55.7-6.3,72.6-17.9c16.8-11.6,25.2-28.4,25.2-51.5c0-23.1-8.4-41-26.3-54.7c-16.8-13.7-42.1-21-73.6-21h-78.9v145.1H653.2z"
	/>
</svg>
