<?xml version="1.0" encoding="utf-8"?>
<!-- Generator: Adobe Illustrator 19.0.0, SVG Export Plug-In . SVG Version: 6.00 Build 0)  -->
<svg version="1.1" id="Capa_1" xmlns="http://www.w3.org/2000/svg" xmlns:xlink="http://www.w3.org/1999/xlink" x="0px" y="0px"
	 viewBox="-145 229.5 304.7 383.4" style="enable-background:new -145 229.5 304.7 383.4;" xml:space="preserve">
<style type="text/css">
	.st0{opacity:0.85;fill:#141414;enable-background:new    ;}
	.st1{opacity:8.000000e-002;fill:#FFFFFF;enable-background:new    ;}
	.st2{opacity:5.000000e-002;}
	.st3{fill:#FFFFFF;}
	.st4{opacity:0.75;fill:#010002;enable-background:new    ;}
	.st5{opacity:0.74;fill:#F3E141;enable-background:new    ;}
	.st6{opacity:0.74;fill:none;stroke:#F3E141;stroke-miterlimit:10;enable-background:new    ;}
</style>
<rect x="-126.4" y="248.9" class="st0" width="270.4" height="338.5"/>
<rect x="-106.6" y="254.7" class="st1" width="212.7" height="252.3"/>
<g id="XMLID_1_" class="st2">
	<rect x="-80" y="340.2" class="st3" width="170.2" height="209.2"/>
</g>
<rect x="-22.9" y="380.9" class="st1" width="145.8" height="93.7"/>
<path id="XMLID_6490_" class="st4" d="M183.3,403.6c0-2.9-0.9-5.2-3.2-6.9c-0.3-0.1-0.6-0.2-0.8-0.4c-1.3-0.5-2.7-0.6-4.2-0.6h-16.6
	c-0.3,0-0.4-0.2-0.5-0.4c-0.3-1-0.6-1.9-0.9-2.9c-0.5-1.4-1.1-2.8-1.6-4.2c-1.2-2.4-2.2-4.8-3.6-7.1c-0.3-0.5,0.1-0.8,0.4-1
	c3.3-3.3,6.6-6.6,10-10c0.5-0.5,1-1,1.5-1.5c2-1.7,3-3.8,3-6.4c-0.1-0.3-0.1-0.7-0.2-1c-0.3-0.7-0.6-1.4-0.9-2.1
	c-3.1-3.6-6.7-6.8-10-10.2c-2.6-2.7-5.3-5.2-7.9-7.9c-1.7-1.7-3.6-2.7-5.9-2.7c-2.1,0.2-3.8,1.1-5.3,2.6c-3.9,4-7.9,7.9-11.9,11.9
	c-0.5,0.5-0.9,0.6-1.6,0.3c-2.1-1.1-4.2-2-6.2-3c-1.7-0.6-3.3-1.2-5-1.9c-0.7-0.2-0.9-0.4-1.6-0.6c-0.6-0.1,0-0.4,0-0.9v-16.6
	c0-0.8-0.5-1.5-0.6-2.3c-0.1-0.1-0.4-0.3-0.4-0.4c-0.1-0.3-0.3-0.6-0.4-0.8c-0.2-0.5-0.5-0.9-0.7-1.4c-1.7-2.4-4-3.4-6.9-3.4
	c-7.7,0.1-15.4,0.1-23.1,0c-2.8,0-5.1,0.9-6.8,3.2c-0.2,0.4-0.4,0.8-0.6,1.2c-0.7,1.2-0.5,2.6-0.5,3.9v16.5c0,0.4,0,0.6-0.4,0.7
	c-1,0.3-1.9,0.5-2.9,0.8c-1.4,0.5-2.8,1-4.2,1.5c-2.3,1-4.7,2-6.9,3.3c-0.6,0.4-0.9-0.1-1.2-0.4c-3.9-3.9-7.8-7.8-11.7-11.7
	c-1.4-1.5-3.1-2.4-5.1-2.6c-2.5,0-4.5,1-6.2,2.8c-5.4,5.5-10.9,11-16.4,16.5c-0.5,0.5-1,1.1-1.4,1.6c-0.2,0.5-0.5,1-0.7,1.4
	c-0.1,0.5-0.2,1-0.3,1.5c-0.2,2.6,0.9,4.6,2.7,6.4c3.8,3.7,7.5,7.5,11.3,11.2c0.5,0.5,0.7,0.9,0.2,1.5c-0.5,0.8-1,1.6-1.5,2.5
	c0,0.2-0.1,0.3-0.2,0.4c-1.5,3.1-2.7,6.3-4,9.5c-0.4,2.1-0.4,2.1-2.5,2.1c-0.6,0-1.2,0-1.9,0H4.5c-1.4,0-2.8,0-4.1,0.6
	c-0.3,0.2-0.2,0.4-0.6,0.5c-1.6,1.1-1.7,2.7-2.7,4.5v27.6c0,0.7,0.1,1.3,0.4,1.9c0.7,1.4,1.7,2.4,3.1,3.2c1.3,0.5,2.5,0.6,3.9,0.6
	H17c1,0,2.2-0.4,3,0s0.6,1.8,1,2.7c0.1,0.2,0.1,0.5,0.2,0.7c1.1,2.8,2.2,5.5,3.3,8.3c0.4,0.7,0.8,1.5,1.1,2.3c0.1,0,0.1,0.1,0.2,0.1
	c1,1.8,1,1.7-0.4,3.2c-3.1,3.1-6.2,6.3-9.4,9.3c-1.7,1.6-3,3.4-3.2,5.8c0,0.2,0,0.4,0,0.6c0.1,0.1,0.1,0.3,0.1,0.4
	c0.1,0.6,0.2,1.1,0.4,1.6s0.5,0.9,0.7,1.4c4.5,4.8,9.1,9.2,13.7,13.8c2,2,3.9,4.1,6.1,5.9c0.8,0.3,1.5,0.6,2.3,0.9
	c0.6,0,1.2,0.1,1.8,0.1c2.2-0.3,3.9-1.3,5.4-2.9c3.3-3.4,6.7-6.7,9.9-10c0.6-0.6,1-0.8,1.7-0.3c0.4,0.3,0.9,0.5,1.3,0.8
	c0.8,0.4,1.6,0.8,2.4,1.1c2.7,1.2,5.5,2.3,8.3,3.4c0.3,0.1,0.5,0.1,0.8,0.2c2.6,0.8,2.5,0.8,2.5,3.6V500c0,1.4,0.1,2.8,0.6,4.1
	c1.7,2.9,4.2,4.1,7.5,4c7.5-0.1,15.1-0.1,22.6,0c3.5,0.1,6.6-1.1,8.2-4.3c0.4-1.2,1.1-2.5,1.1-3.8v-12.5c0-3-0.7-3,2-3.8
	c0.3-0.1,0.3-0.2,0.6-0.2c2.8-1.1,5.5-2.2,8.2-3.5c0.6-0.4,1.2-0.7,1.8-1l0.1-0.1c2.2-1.3,2.1-1.3,3.9,0.5c3.1,3.1,6.3,6.3,9.4,9.5
	c1.5,1.6,3.2,2.5,5.4,2.7c0.4,0,0.8,0,1.2,0c1-0.3,2-0.6,2.9-1.1c1-1,2.1-1.9,3.1-2.9c0.3-0.4,0.6-0.8,1-1c1-1.1,2-2.2,3.1-3.1
	c0.3-0.4,0.6-0.8,1-1c0.6-0.8,1.3-1.4,2.1-2.1c0.1-0.3,0.3-0.5,0.6-0.6l0.4-0.4c0.3-0.4,0.6-0.8,1-1c1-1.1,2-2.1,3.1-3.1
	c0.3-0.4,0.6-0.8,1-1c1-1,2-2.1,2.9-3.1c0.4-0.8,0.7-1.6,1.1-2.5c0-0.3,0.1-0.7,0.1-1c0-2.6-1.2-4.6-3-6.3c-3.6-3.4-7-7-10.6-10.5
	c-0.6-0.5-0.6-1-0.2-1.6c0.4-0.7,0.8-1.4,1.2-2.2c0-0.3,0.2-0.6,0.4-0.9c1.4-3.3,2.6-6.6,3.8-10c0.3-1.8,0.3-1.8,2.1-1.8
	c0.8,0,1.5,0.1,2.3,0.1h12.5c1.4,0,2.8-0.3,4.2-0.8v-0.2h0.1c2.8-1,3.9-4,3.9-7.3C183.2,418.7,183.2,411.2,183.3,403.6z
	 M132.2,421.4c-0.3,1.4-0.5,2.8-0.8,4.1c-0.4,1.4-0.9,2.8-1.3,4.2c-0.3,0.6-0.6,1.3-0.8,2c-1.4,3-3,5.9-4.9,8.6
	c-1.1,1.5-2.4,2.9-3.6,4.4c-0.5,0.5-1,1-1.4,1.4c-2.1,1.9-4.3,3.6-6.6,5.2c-2.7,1.5-5.4,3-8.3,4.1c-1.4,0.4-2.8,0.9-4.2,1.3
	c-1.5,0.1-2.8,0.8-4.3,0.9c-2.7,0.2-5.4,0.4-8.2,0.3c-1.4,0-2.7-0.4-4.1-0.2c-1.4-0.2-2.7-0.8-4.2-0.9c-1.4-0.4-2.8-0.8-4.1-1.2
	c-2.9-1.2-5.7-2.5-8.3-4.1c-2.3-1.6-4.6-3.3-6.7-5.2c-2.6-2.4-4.7-5.2-6.8-8.1c-0.8-1.4-1.6-2.8-2.3-4.1c-0.1-0.5-0.3-0.9-0.6-1.2
	c-0.4-1-0.8-1.9-1.1-2.9c-0.4-1.4-0.9-2.8-1.3-4.2c-0.2-1.4-0.6-2.8-1-4.1c0.1-0.3,0.1-0.5,0.1-0.8c-0.5-3.9-0.4-7.8,0.1-11.7
	c0.3-1.4,0.5-2.8,0.8-4.2c0.4-1.4,0.8-2.8,1.2-4.1c1-3,2.6-5.6,4.1-8.3c2.1-3.1,4.5-6.1,7.2-8.6c1.8-1.7,3.9-3.2,5.9-4.7l0.5-0.3
	l0,0c2.6-1,5.4-2.8,8.2-4c1.4-0.4,2.8-0.8,4.1-1.3c1.4-0.3,2.8-0.5,4.1-0.7c4.2-0.6,8.3-0.5,12.5,0c1.4,0.3,2.8,0.5,4.1,0.8
	c1.4,0.4,2.8,0.9,4.2,1.3c2.9,1.1,5.6,2.5,8.3,4.1c2.9,2,5.7,4.2,8.2,6.8c1.9,2,3.6,4.3,5.2,6.6c1.6,2.7,2.9,5.4,4.1,8.3
	c0.4,1.4,0.9,2.8,1.3,4.1c0.3,1.4,0.5,2.8,0.8,4.1C132.8,413,132.8,417.2,132.2,421.4z"/>
<path id="XMLID_6415_" class="st4" d="M-2.9,531c0-2.1-0.6-3.7-2.3-5c-0.2-0.1-0.4,0.5-0.6,0.4c-1-0.4-2,0.2-3,0.2h-11.9
	c-0.2,0-0.3-0.8-0.3-1c-0.2-0.7-0.4-1.7-0.6-2.4c-0.4-1-0.8-2.2-1.1-3.2c-0.8-1.7-1.6-3.5-2.6-5.2c-0.2-0.4,0.1-0.6,0.3-0.8
	c2.4-2.4,4.8-4.8,7.2-7.2c0.3-0.3,0.7-0.7,1-1.1c1.4-1.2,2.2-2.7,2.1-4.6c0-0.2-0.1-0.5-0.1-0.7c-0.2-0.5-0.4-1-0.6-1.5
	c-2.3-2.6-4.8-4.9-7.2-7.3c-1.9-1.9-3.8-3.8-5.7-5.7c-1.2-1.2-2.6-1.9-4.3-1.9c-1.5,0.1-2.7,0.8-3.8,1.9c-2.8,2.9-5.7,5.7-8.5,8.5
	c-0.4,0.4-0.6,0.4-1.1,0.2c-1.5-0.8-3-1.5-4.5-2.2c-1.2-0.4-2.4-0.9-3.6-1.3c-0.5-0.1-1.6-0.3-2.1-0.4c-0.4-0.1-0.9-0.3-0.9-0.6
	v-11.9c0-0.5,0.6-1.1,0.6-1.6c-0.1-0.1,0.2-0.2,0.2-0.3c-0.1-0.2,0-0.4,0-0.6c-0.1-0.3-0.2-0.7-0.4-1c-1.2-1.7-2.8-2.5-4.9-2.4
	c-5.5,0.1-11,0.1-16.6,0c-2,0-3.7,0.6-4.9,2.3c-0.2,0.3-1.9,0.6-2.1,0.9c-0.5,0.9-2,1.9-2,2.8v11.9c0,0.3,1.6,0.4,1.4,0.5
	c-0.7,0.2-0.6,0.4-1.3,0.6c-1,0.4-1.6,0.7-2.6,1.1c-1.7,0.8-3.2,1.5-4.8,2.3c-0.5,0.3-0.5-0.1-0.8-0.3c-2.8-2.8-5.6-5.6-8.3-8.4
	c-1-1.1-2.2-1.7-3.7-1.9c-1.8,0-3.2,0.7-4.4,2c-3.9,4-7.8,7.9-11.8,11.8c-0.4,0.4-0.7,0.8-1,1.2c-0.2,0.3-0.3,0.7-0.5,1
	c-0.1,0.3-0.1,0.7-0.2,1c-0.1,1.9,0.6,3.3,1.9,4.6c2.7,2.6,5.4,5.4,8.1,8.1c0.4,0.4,0.5,0.6,0.2,1.1c-0.4,0.6-0.7,1.2-1,1.8
	c0,0.1,0,0.2-0.1,0.3c-1,2.2-2,4.5-2.8,6.8c-0.3,1.5-0.3,2.2-1.8,2.2c-0.4,0-0.9,0.7-1.3,0.7h-8.9c-1,0-2-0.7-3-0.3
	c-0.2,0.1-1.1-0.1-1.4,0c-1.2,0.8-0.9,1.6-2.9,2.9v19.8c0,0.5,1,0.9,1.2,1.4c0.5,1,1.7,1.9,2.7,2.5c1,0.4,2.3,0.7,3.3,0.7h8.9
	c0.7,0,1.6-0.5,2.2-0.2s0.4,1.2,0.7,1.8c0.1,0.2,0.1,0.3,0.1,0.4c0.8,2,1.6,3.9,2.3,5.9c0.3,0.5,0.6,1,0.8,1.6l0.1,0.1
	c0.7,1.3,0.7,1.2-0.3,2.3c-2.2,2.2-4.4,4.5-6.7,6.7c-1.2,1.2-2.1,2.4-2.3,4.2c0,0.2,0,0.3,0,0.4c0.1,0.1,0.1,0.2,0,0.3
	c0.1,0.4,0.2,0.8,0.3,1.2c0.2,0.3,0.3,0.7,0.5,1c3.2,3.4,6.6,6.6,9.8,9.9c1.4,1.4,2.8,3,4.4,4.2c0.5,0.2,1.1,0.4,1.6,0.6
	c0.4,0,0.9,0.1,1.3,0.1c1.6-0.2,2.8-1,3.9-2.1c2.3-2.4,4.8-4.8,7.1-7.2c0.4-0.4,0.7-0.6,1.2-0.2c0.3,0.2,0.6,0.4,0.9,0.6
	c0.6,0.3,1.1,0.5,1.7,0.8c2,0.9,4,1.7,6,2.4c0.2,0.1-1.2,0.1-1,0.2c1.9,0.6,0.1,0.6,0.1,2.6v8.9c0,1,1.7,2,2.1,2.9
	c1.2,2.1,3.8,2.9,6.2,2.9c5.4-0.1,11.2-0.1,16.6,0c2.5,0,4-0.8,5.1-3.1c0.3-0.9,0-1.8,0-2.7v-8.9c0-2.1,0.4-2.1,2.4-2.8
	c0.2-0.1,0.7-0.1,0.9-0.2c2-0.8,4.2-1.6,6.1-2.5c0.4-0.3,0.9-0.5,1.4-0.7l0.1-0.1c1.5-0.9,1.6-0.9,2.8,0.3c2.3,2.3,4.5,4.5,6.8,6.8
	c1.1,1.1,2.3,1.8,3.9,2c0.3,0,0.6,0,0.9,0c0.7-0.2,1.4-0.4,2.1-0.8c0.8-0.7,1.5-1.4,2.2-2.1c0.2-0.3,0.4-0.5,0.7-0.7
	c0.7-0.8,1.4-1.5,2.2-2.2c0.2-0.3,0.4-0.5,0.7-0.7c0.4-0.5,1-1,1.5-1.5c0.1-0.2,0.2-0.4,0.4-0.4l0.3-0.3c0.2-0.3,0.4-0.5,0.7-0.7
	c0.7-0.8,1.5-1.5,2.2-2.2c0.2-0.3,0.4-0.5,0.7-0.7c0.7-0.8,1.4-1.5,2.1-2.2c0.3-0.6,0.5-1.2,0.8-1.8c0-0.2,0.1-0.5,0.1-0.8
	c0-1.9-0.9-3.3-2.2-4.5c-2.6-2.5-5.1-5-7.6-7.5c-0.4-0.4-0.4-0.7-0.2-1.1c0.3-0.5,0.6-1,0.9-1.5c0-0.2,0.1-0.4,0.3-0.6
	c1-2.3,1.9-4.7,2.7-7.1c0.2-1.3,0.2-1.1,1.5-1.1c0.5,0,1.1,0.3,1.6,0.3h8.9c1,0,2-0.3,3-0.7V553h0.1c2-1.2,2.8-3,2.8-5.3
	C-3,541.9-3,536.4-2.9,531z M-39.5,543.7c-0.2,1-0.4,2-0.6,3c-0.3,1-0.6,2-0.9,3c-0.2,0.5-0.4,0.9-0.5,1.4c-1,2.1-2.1,4.2-3.5,6.1
	c-0.8,1.1-1.7,2.1-2.6,3.1c-0.3,0.3-0.7,0.7-1,1c-1.5,1.3-3.1,2.6-4.8,3.7c-1.9,1.1-3.9,2.1-5.9,2.9c-1,0.3-2,0.6-3,0.9
	c-1.1,0.1-2,0.6-3.1,0.6c-2,0.2-3.9,0.3-5.9,0.2c-1,0-1.9-0.3-2.9-0.2c-1-0.2-2-0.6-3-0.6c-1-0.3-2-0.6-3-0.9
	c-2.1-0.8-4.1-1.8-6-2.9c-1.7-1.2-3.3-2.4-4.8-3.8c-1.9-1.7-3.4-3.7-4.9-5.8c-0.6-1-1.1-2-1.7-3c-0.1-0.3-0.2-0.6-0.4-0.9
	c-0.3-0.7-0.5-1.4-0.8-2.1c-0.3-1-0.6-2-0.9-3c-0.1-1-0.4-2-0.7-3c0.1-0.2,0.1-0.4,0.1-0.6c-0.4-2.8-0.3-5.6,0-8.4
	c0.2-1,0.4-2,0.6-3c0.3-1,0.6-2,0.9-3c0.7-2.1,1.9-4,2.9-6c1.5-2.2,3.2-4.3,5.2-6.2c1.3-1.2,2.8-2,4.2-3.1h0.4l0,0
	c1.9,0,3.9-2.3,5.9-3.1c1-0.3,2-0.7,3-1c1-0.2,2-0.4,3-0.6c3-0.4,6-0.4,8.9,0c1,0.2,2,0.4,3,0.6c1,0.3,2,0.6,3,0.9
	c2.1,0.8,4,1.8,5.9,2.9c2.1,1.5,4.1,3,5.9,4.9c1.4,1.5,2.6,3.1,3.7,4.7c1.1,1.9,2.1,3.9,2.9,6c0.3,1,0.6,2,0.9,3c0.2,1,0.4,2,0.6,3
	C-39.1,537.7-39.1,540.7-39.5,543.7z"/>
<path id="XMLID_6529_" class="st5" d="M77.1,428.6c0-0.7-0.2-1.3-0.8-1.7c-0.1,0-0.1-0.6-0.2-0.6c-0.3-0.1-0.7-0.7-1-0.7h-4
	c-0.1,0-0.1,0.5-0.1,0.4c-0.1-0.2-0.1-0.2-0.2-0.4c-0.1-0.3-0.3-0.5-0.4-0.9c-0.3-0.6-0.5-1.1-0.9-1.7c-0.1-0.1,0-0.1,0.1-0.2
	c0.8-0.8,1.6-1.6,2.4-2.4c0.1-0.1,0.2-0.2,0.4-0.3c0.5-0.4,0.7-0.9,0.7-1.5c0-0.1,0-0.2,0-0.2c-0.1-0.2-0.1-0.3-0.2-0.5
	c-0.8-0.9-1.6-1.6-2.4-2.5c-0.6-0.6-1.3-1.3-1.9-1.9c-0.4-0.4-0.9-0.7-1.4-0.7s-0.9,0.3-1.3,0.6c-0.9,1-1.9,1.9-2.9,2.9
	c-0.1,0.1-0.2,0.2-0.4,0.1c-0.5-0.3-1-0.5-1.5-0.7c-0.4-0.2-0.8-0.3-1.2-0.4c-0.2,0,0.5-0.1,0.3-0.1c-0.1,0,0.7-0.1,0.7-0.2v-4
	c0-0.2-0.8-0.4-0.8-0.6l-0.4-0.1c0-0.1-0.2-0.1-0.3-0.2c0-0.1-0.2-0.2-0.3-0.3c-0.4-0.6-1-0.8-1.7-0.8c-1.9,0-3.7,0-5.6,0
	c-0.7,0-1.3,0.2-1.7,0.8c-0.1,0.1,0.4,0.2,0.4,0.3c-0.2,0.3,0.4,0.6,0.4,0.9v4c0,0.1-0.5,0.1-0.6,0.2c-0.2,0.1-0.7,0.1-1,0.2
	s-0.8,0.2-1.1,0.4c-0.6,0.3-1.2,0.5-1.7,0.8c-0.2,0.1-0.2,0-0.3-0.1c-0.9-0.9-1.9-1.9-2.8-2.8c-0.3-0.4-0.8-0.6-1.3-0.6
	c-0.6,0-1.1,0.2-1.5,0.7c-1.3,1.3-2.6,2.6-4,4c-0.1,0.1-0.2,0.3-0.3,0.4s-0.1,0.2-0.2,0.3c0,0.1,0,0.2-0.1,0.4
	c0,0.6,0.2,1.1,0.7,1.6c0.9,0.9,1.8,1.8,2.7,2.7c0.1,0.1,0.2,0.2,0.1,0.4c-0.1,0.2-0.2,0.4-0.4,0.6v0.1c-0.4,0.8-0.7,1.5-1,2.3
	c-0.1,0.5-0.1,0-0.6,0c-0.2,0-0.3-0.5-0.4-0.5h-3c-0.3,0-0.7,0.5-1,0.7c-0.1,0,0.8,0.4,0.7,0.4c-0.4,0.3,0.2,0.9,0.2,1.4v6.7
	c0,0.2-0.8,0.3-0.8,0.5c0.2,0.3,0,0.3,0.3,0.5c0.3,0.1,0.2-0.1,0.5-0.1h3c0.3,0,0.5,0.2,0.7,0.3s0.2,0.6,0.2,0.8c0,0.1,0,0.2,0,0.2
	c0.3,0.7,0.5,1.4,0.8,2c0.1,0.2,0.2,0.4,0.3,0.6l0,0c0.2,0.4,0.2,0.4-0.1,0.8c-0.8,0.8-1.5,1.5-2.3,2.3c-0.4,0.4-0.7,0.8-0.8,1.4
	c0,0.1,0,0.1,0,0.1v0.1c0,0.1,0.1,0.3,0.1,0.4c0.1,0.1,0.1,0.2,0.2,0.3c1.1,1.1,2.2,2.2,3.3,3.3c0.5,0.5,0.9,1,1.5,1.4
	c0.2,0.1,0.4,0.1,0.6,0.2c0.1,0,0.3,0,0.4,0c0.5-0.1,0.9-0.3,1.3-0.7c0.8-0.8,1.6-1.6,2.4-2.4c0.1-0.1,0.2-0.2,0.4-0.1
	c0.1,0.1,0.2,0.1,0.3,0.2c0.2,0.1,0.4,0.2,0.6,0.3c0.7,0.3,1.3,0.6,2,0.8c0.1,0,0.7,0,0.7,0.1c0.6,0.2,1.1,0.2,1.1,0.9v3
	c0,0.3-0.5,0.7-0.4,1c0.4,0.7,0.7,1,1.5,1c1.8,0,3.5,0,5.3,0c0.8,0,2.2-0.3,2.6-1c0.1-0.3,0.9-0.6,0.9-0.9v-3c0-0.7-0.9-0.7-0.2-0.9
	c0.1,0-0.3,0-0.2-0.1c0.7-0.3,1.1-0.5,1.8-0.8c0.1-0.1,0.2-0.2,0.4-0.2l0,0c0.5-0.3,0.5-0.3,0.9,0.1c0.8,0.8,1.5,1.5,2.3,2.3
	c0.4,0.4,0.8,0.6,1.3,0.7c0.1,0,0.2,0,0.3,0c0.2-0.1,0.5-0.1,0.7-0.3c0.3-0.2,0.5-0.5,0.8-0.7c0.1-0.1,0.1-0.2,0.2-0.2
	c0.2-0.3,0.5-0.5,0.8-0.8c0.1-0.1,0.1-0.2,0.2-0.2c0.2-0.2,0.3-0.3,0.5-0.5c0-0.1,0.1-0.1,0.2-0.2l0.1-0.1c0.1-0.1,0.1-0.2,0.2-0.2
	c0.2-0.3,0.5-0.5,0.8-0.8c0.1-0.1,0.2-0.2,0.3-0.2c0.2-0.3,0.5-0.5,0.7-0.8c0.1-0.2,0.2-0.4,0.3-0.6c0-0.1,0-0.2,0-0.3
	c0-0.6-0.3-1.1-0.7-1.5c-0.9-0.8-1.7-1.7-2.6-2.5c-0.1-0.1-0.1-0.2-0.1-0.4c0.1-0.2,0.2-0.3,0.3-0.5c0-0.1,0-0.1,0.1-0.2
	c0.3-0.8,0.6-1.6,0.9-2.4c0.1-0.4,0.1-0.7,0.5-0.7c0.2,0,0.4-0.2,0.5-0.2h3c0.3,0,0.7,0.2,1,0.1v0.1v0.1c0.7-0.4,0.9-1,0.9-1.8
	C77.1,432.3,77.1,430.4,77.1,428.6z M64.8,432.9c-0.1,0.3-0.1,0.7-0.2,1s-0.2,0.7-0.3,1c-0.1,0.2-0.1,0.3-0.2,0.5
	c-0.3,0.7-0.7,1.4-1.2,2.1c-0.3,0.4-0.6,0.7-0.9,1.1c-0.1,0.1-0.2,0.2-0.3,0.3c-0.5,0.5-1,0.9-1.6,1.3s-1.3,0.7-2,1
	c-0.3,0.1-0.7,0.2-1,0.3c-0.4,0-0.7,0.2-1,0.2c-0.7,0.1-1.3,0.1-2,0.1c-0.3,0-0.7-0.1-1-0.1c-0.3-0.1-0.7-0.2-1-0.2
	c-0.3-0.1-0.7-0.2-1-0.3c-0.7-0.3-1.4-0.6-2-1s-1.1-0.8-1.6-1.3c-0.6-0.6-1.1-1.3-1.6-2c-0.2-0.3-0.4-0.7-0.6-1
	c0-0.1-0.1-0.2-0.1-0.3c-0.1-0.2-0.2-0.5-0.3-0.7c-0.1-0.3-0.2-0.7-0.3-1c0-0.3-0.1-0.7-0.2-1c0-0.1,0-0.1,0-0.2
	c-0.1-0.9-0.1-1.9,0-2.8c0.1-0.3,0.1-0.7,0.2-1c0.1-0.3,0.2-0.7,0.3-1c0.2-0.7,0.6-1.4,1-2c0.5-0.8,1.1-1.5,1.7-2.1
	c0.4-0.4,0.9-0.8,1.4-1.1l0.1-0.1l0,0c0.6-1,1.3-0.7,2-1c0.3-0.1,0.7-0.2,1-0.3s0.7-0.1,1-0.2c1-0.1,2-0.1,3,0
	c0.3,0.1,0.7,0.1,1,0.2s0.7,0.2,1,0.3c0.7,0.3,1.4,0.6,2,1c0.7,0.5,1.4,1,2,1.6c0.5,0.5,0.9,1,1.3,1.6s0.7,1.3,1,2
	c0.1,0.3,0.2,0.7,0.3,1c0.1,0.3,0.1,0.7,0.2,1C64.9,430.9,64.9,431.9,64.8,432.9z"/>
<circle id="XMLID_6411_" class="st4" cx="-69.8" cy="278.2" r="41.9"/>
<polyline class="st6" points="-51.1,292.2 -70,278.2 -70,254.7 "/>
</svg>
