<?xml version="1.0" encoding="utf-8"?>
<!-- Generator: Adobe Illustrator 19.0.0, SVG Export Plug-In . SVG Version: 6.00 Build 0)  -->
<svg version="1.1" id="Capa_1" xmlns="http://www.w3.org/2000/svg" xmlns:xlink="http://www.w3.org/1999/xlink" x="0px" y="0px"
	 viewBox="0 0 304.7 383.4" style="enable-background:new 0 0 304.7 383.4;" xml:space="preserve">
<style type="text/css">
	.st0{fill:none;stroke:#E8D748;stroke-width:15;stroke-miterlimit:10;}
	.st1{fill:#E8D748;}
	.st2{fill:#878787;}
	.st3{fill:#414748;}
	.st4{fill:#010002;}
	.st5{fill:#3A382D;}
	.st6{fill:#FFFFFF;}
	.st7{fill:#F3E141;}
	.st8{fill:none;stroke:#FFFFFF;stroke-miterlimit:10;}
</style>
<g id="XMLID_9_">
	<g id="XMLID_30_">
		<path id="XMLID_72_" class="st0" d="M115.2,127.4c-44.8,9.2-81,45.8-87.3,93.7C20,281.5,62.5,337,123,345
			c60.4,8,115.9-34.6,123.9-95c4.1-31.4-5.3-61.4-23.8-84.1"/>
		<g id="XMLID_31_">
			<path id="XMLID_71_" class="st1" d="M133.2,125.2c-8.9-2.1-20-6.1-27.2-10.9l6.9,13.5l-3.3,14.8
				C115.4,136.1,125.2,129.4,133.2,125.2z"/>
		</g>
	</g>
</g>
<path id="XMLID_6412_" class="st2" d="M301.1,178.8c0-2.9-0.9-5.2-3.2-6.9c-0.3-0.1-0.6-0.1-0.8-0.3c-1.3-0.5-2.7-0.5-4.2-0.5h-16.6
	c-0.3,0-0.4-0.3-0.5-0.5c-0.3-1-0.6-2-0.9-2.9c-0.5-1.4-1.1-2.8-1.6-4.2c-1.2-2.4-2.2-4.8-3.6-7.1c-0.3-0.5,0.1-0.8,0.4-1
	c3.3-3.3,6.6-6.6,10-10c0.5-0.5,1-1,1.5-1.5c2-1.7,3-3.8,3-6.4c-0.1-0.3-0.1-0.7-0.2-1c-0.3-0.7-0.6-1.4-0.9-2.1
	c-3.1-3.6-6.7-6.8-10-10.2c-2.6-2.7-5.3-5.2-7.9-7.9c-1.7-1.7-3.6-2.7-5.9-2.7c-2.1,0.2-3.8,1.1-5.3,2.6c-3.9,4-7.9,7.9-11.9,11.9
	c-0.5,0.5-0.9,0.6-1.6,0.3c-2.1-1.1-4.2-2-6.2-3c-1.7-0.6-3.3-1.2-5-1.9c-0.7-0.2-0.5-0.4-1.2-0.6c-0.6-0.1,0.4-0.4,0.4-0.9v-16.6
	c0-0.8-0.9-1.5-0.9-2.3c-0.1-0.1-0.6-0.3-0.6-0.4c-0.1-0.3-0.4-0.6-0.5-0.8c-0.2-0.5-0.5-0.9-0.7-1.4c-1.7-2.4-4-3.4-7-3.4
	c-7.7,0.1-15.4,0.1-23.1,0c-2.8,0-5.1,0.9-6.8,3.2c-0.2,0.4,0,0.8-0.3,1.2c-0.7,1.2-0.1,2.6-0.1,3.9v16.6c0,0.4-0.4,0.6-0.8,0.7
	c-1,0.3-2.1,0.5-3.1,0.8c-1.4,0.5-2.9,1-4.3,1.5c-2.3,1-4.7,2-7,3.3c-0.6,0.4-0.9-0.1-1.2-0.4c-3.9-3.9-7.8-7.8-11.7-11.7
	c-1.4-1.5-3.1-2.4-5.2-2.6c-2.5,0-4.5,1-6.2,2.8c-5.4,5.5-10.9,11-16.4,16.5c-0.5,0.5-1,1.1-1.4,1.6c-0.2,0.5-0.5,1-0.7,1.4
	c-0.1,0.5-0.2,1-0.3,1.5c-0.2,2.6,0.9,4.6,2.7,6.4c3.8,3.7,7.5,7.5,11.3,11.2c0.5,0.5,0.7,0.9,0.2,1.5c-0.5,0.8-1,1.6-1.5,2.5
	c0,0.2-0.1,0.3-0.2,0.4c-1.5,3.1-2.7,6.3-4,9.5c-0.4,2.1-0.4,2.2-2.5,2.2c-0.6,0-1.2,0.1-1.9,0.1h-12.5c-1.4,0-2.8-0.1-4.1,0.4
	c-0.3,0.2-0.4,0.3-0.7,0.5c-1.6,1.1-0.8,2.7-2.8,4.5V204c0,0.7,0.2,1.3,0.5,1.9c0.7,1.4,1.8,2,3.1,2.8c1.3,0.5,2.6,0.2,4,0.2h12.5
	c1,0,2.2,0,3,0.4c0.8,0.4,0.6,2,1,2.9c0.1,0.2,0.1,0.6,0.2,0.8c1.1,2.8,2.2,5.6,3.3,8.4c0.4,0.7,0.8,1.5,1.1,2.3
	c0.1,0,0.1,0.1,0.2,0.2c1,1.8,1,1.7-0.4,3.2c-3.1,3.1-6.2,6.3-9.4,9.3c-1.7,1.6-3,3.4-3.2,5.8c0,0.2,0,0.4,0,0.6
	c0.1,0.1,0.1,0.3,0.1,0.4c0.1,0.6,0.2,1.1,0.4,1.6c0.2,0.5,0.5,0.9,0.7,1.4c4.5,4.8,9.1,9.2,13.7,13.8c2,2,3.9,4.1,6.1,5.9
	c0.8,0.3,1.5,0.6,2.3,0.9c0.6,0,1.2,0.1,1.8,0.1c2.2-0.3,3.9-1.3,5.4-2.9c3.3-3.4,6.7-6.7,9.9-10c0.6-0.6,1-0.8,1.7-0.3
	c0.4,0.3,0.9,0.5,1.3,0.8c0.8,0.4,1.6,0.8,2.4,1.1c2.7,1.2,5.5,2.3,8.3,3.4c0.3,0.1,0.9,0.1,1.2,0.2c2.6,0.8,2.8,0.8,2.8,3.6v12.5
	c0,1.4-0.3,2.8,0.3,4.1c1.7,2.9,4,4.1,7.3,4c7.5-0.1,15-0.1,22.5,0c3.5,0.1,7-1.1,8.6-4.3c0.4-1.2,1.4-2.5,1.4-3.8V263
	c0-3-1.1-3,1.6-3.8c0.3-0.1,0.1-0.2,0.4-0.2c2.8-1.1,5.4-2.2,8.1-3.5c0.6-0.4,1.1-0.7,1.8-1c0,0,0-0.1,0.1-0.1
	c2.2-1.3,2.1-1.3,3.9,0.5c3.1,3.1,6.3,6.3,9.4,9.5c1.5,1.6,3.2,2.5,5.4,2.7c0.4,0,0.8,0,1.2,0c1-0.3,2-0.6,2.9-1.1
	c1-1,2.1-1.9,3.1-2.9c0.3-0.4,0.6-0.8,1-1c1-1.1,2-2.2,3.1-3.1c0.3-0.4,0.6-0.8,1-1c0.6-0.8,1.3-1.4,2.1-2.1
	c0.1-0.3,0.3-0.5,0.6-0.6l0.4-0.4c0.3-0.4,0.6-0.8,1-1c1-1.1,2-2.1,3.1-3.1c0.3-0.4,0.6-0.8,1-1c1-1,2-2.1,2.9-3.1
	c0.4-0.8,0.7-1.6,1.1-2.5c0-0.3,0.1-0.7,0.1-1c0-2.6-1.2-4.6-3-6.3c-3.6-3.4-7-7-10.6-10.5c-0.6-0.5-0.6-1-0.2-1.6
	c0.4-0.7,0.8-1.4,1.2-2.2c0-0.3,0.2-0.6,0.4-0.9c1.4-3.3,2.6-6.6,3.8-10c0.3-1.8,0.3-2.2,2.1-2.2c0.8,0,1.5-0.3,2.3-0.3H293
	c1.4,0,2.8,0.2,4.2-0.3l0,0.1l0.1,0.1c2.8-1.7,3.9-4.1,3.9-7.3C301,193.9,301.1,186.4,301.1,178.8z M250.1,196.5
	c-0.3,1.4-0.5,2.8-0.8,4.1c-0.4,1.4-0.9,2.8-1.3,4.2c-0.3,0.6-0.6,1.3-0.8,2c-1.4,3-3,5.9-4.9,8.6c-1.1,1.5-2.4,2.9-3.6,4.4
	c-0.5,0.5-1,1-1.4,1.4c-2.1,1.9-4.3,3.6-6.6,5.2c-2.7,1.5-5.4,3-8.3,4.1c-1.4,0.4-2.8,0.9-4.2,1.3c-1.5,0.1-2.8,0.8-4.3,0.9
	c-2.7,0.2-5.4,0.4-8.2,0.3c-1.4,0-2.7-0.4-4.1-0.2c-1.4-0.2-2.7-0.8-4.2-0.9c-1.4-0.4-2.8-0.8-4.1-1.2c-2.9-1.2-5.7-2.5-8.3-4.1
	c-2.3-1.6-4.6-3.3-6.7-5.2c-2.6-2.4-4.7-5.2-6.8-8.1c-0.8-1.4-1.6-2.8-2.3-4.1c-0.1-0.5-0.3-0.9-0.6-1.2c-0.4-1-0.8-1.9-1.1-2.9
	c-0.4-1.4-0.9-2.8-1.3-4.2c-0.2-1.4-0.6-2.8-1-4.1c0.1-0.3,0.1-0.5,0.1-0.8c-0.5-3.9-0.4-7.8,0.1-11.7c0.3-1.4,0.5-2.8,0.8-4.2
	c0.4-1.4,0.8-2.8,1.2-4.1c1-3,2.6-5.6,4.1-8.3c2.1-3.1,4.5-6.1,7.2-8.6c1.8-1.7,3.9-3.1,5.9-4.6l0.5-0.2h0c2.6-2,5.4-3,8.2-4.1
	c1.4-0.4,2.8-0.9,4.1-1.3c1.4-0.3,2.8-0.5,4.1-0.8c4.2-0.6,8.3-0.5,12.5,0c1.4,0.3,2.8,0.5,4.1,0.8c1.4,0.4,2.8,0.9,4.2,1.3
	c2.9,1.1,5.6,2.5,8.3,4.1c2.9,2,5.7,4.2,8.2,6.8c1.9,2,3.6,4.3,5.2,6.6c1.6,2.7,2.9,5.4,4.1,8.3c0.4,1.4,0.9,2.8,1.3,4.1
	c0.3,1.4,0.5,2.8,0.8,4.1C250.6,188.2,250.6,192.4,250.1,196.5z"/>
<path id="XMLID_6490_" class="st3" d="M302.9,177c0-2.9-0.9-5.2-3.2-6.9c-0.3-0.1-0.6-0.2-0.8-0.4c-1.3-0.5-2.7-0.6-4.2-0.6h-16.6
	c-0.3,0-0.4-0.2-0.5-0.4c-0.3-1-0.6-1.9-0.9-2.9c-0.5-1.4-1.1-2.8-1.6-4.2c-1.2-2.4-2.2-4.8-3.6-7.1c-0.3-0.5,0.1-0.8,0.4-1
	c3.3-3.3,6.6-6.6,10-10c0.5-0.5,1-1,1.5-1.5c2-1.7,3-3.8,3-6.4c-0.1-0.3-0.1-0.7-0.2-1c-0.3-0.7-0.6-1.4-0.9-2.1
	c-3.1-3.6-6.7-6.8-10-10.2c-2.6-2.7-5.3-5.2-7.9-7.9c-1.7-1.7-3.6-2.7-5.9-2.7c-2.1,0.2-3.8,1.1-5.3,2.6c-3.9,4-7.9,7.9-11.9,11.9
	c-0.5,0.5-0.9,0.6-1.6,0.3c-2.1-1.1-4.2-2-6.2-3c-1.7-0.6-3.3-1.2-5-1.9c-0.7-0.2-0.9-0.4-1.6-0.6c-0.6-0.1,0-0.4,0-0.9v-16.6
	c0-0.8-0.5-1.5-0.6-2.3c-0.1-0.1-0.4-0.3-0.4-0.4c-0.1-0.3-0.3-0.6-0.4-0.8c-0.2-0.5-0.5-0.9-0.7-1.4c-1.7-2.4-4-3.4-6.9-3.4
	c-7.7,0.1-15.4,0.1-23.1,0c-2.8,0-5.1,0.9-6.8,3.2c-0.2,0.4-0.4,0.8-0.6,1.2c-0.7,1.2-0.5,2.6-0.5,3.9V120c0,0.4,0,0.6-0.4,0.7
	c-1,0.3-1.9,0.5-2.9,0.8c-1.4,0.5-2.8,1-4.2,1.5c-2.3,1-4.7,2-6.9,3.3c-0.6,0.4-0.9-0.1-1.2-0.4c-3.9-3.9-7.8-7.8-11.7-11.7
	c-1.4-1.5-3.1-2.4-5.1-2.6c-2.5,0-4.5,1-6.2,2.8c-5.4,5.5-10.9,11-16.4,16.5c-0.5,0.5-1,1.1-1.4,1.6c-0.2,0.5-0.5,1-0.7,1.4
	c-0.1,0.5-0.2,1-0.3,1.5c-0.2,2.6,0.9,4.6,2.7,6.4c3.8,3.7,7.5,7.5,11.3,11.2c0.5,0.5,0.7,0.9,0.2,1.5c-0.5,0.8-1,1.6-1.5,2.5
	c0,0.2-0.1,0.3-0.2,0.4c-1.5,3.1-2.7,6.3-4,9.5c-0.4,2.1-0.4,2.1-2.5,2.1c-0.6,0-1.2,0-1.9,0h-12.5c-1.4,0-2.8,0-4.1,0.6
	c-0.3,0.2-0.2,0.4-0.6,0.5c-1.6,1.1-1.7,2.7-2.7,4.5v27.6c0,0.7,0.1,1.3,0.4,1.9c0.7,1.4,1.7,2.4,3.1,3.2c1.3,0.5,2.5,0.6,3.9,0.6
	h12.5c1,0,2.2-0.4,3,0c0.8,0.4,0.6,1.8,1,2.7c0.1,0.2,0.1,0.5,0.2,0.7c1.1,2.8,2.2,5.5,3.3,8.3c0.4,0.7,0.8,1.5,1.1,2.3
	c0.1,0,0.1,0.1,0.2,0.1c1,1.8,1,1.7-0.4,3.2c-3.1,3.1-6.2,6.3-9.4,9.3c-1.7,1.6-3,3.4-3.2,5.8c0,0.2,0,0.4,0,0.6
	c0.1,0.1,0.1,0.3,0.1,0.4c0.1,0.6,0.2,1.1,0.4,1.6c0.2,0.5,0.5,0.9,0.7,1.4c4.5,4.8,9.1,9.2,13.7,13.8c2,2,3.9,4.1,6.1,5.9
	c0.8,0.3,1.5,0.6,2.3,0.9c0.6,0,1.2,0.1,1.8,0.1c2.2-0.3,3.9-1.3,5.4-2.9c3.3-3.4,6.7-6.7,9.9-10c0.6-0.6,1-0.8,1.7-0.3
	c0.4,0.3,0.9,0.5,1.3,0.8c0.8,0.4,1.6,0.8,2.4,1.1c2.7,1.2,5.5,2.3,8.3,3.4c0.3,0.1,0.5,0.1,0.8,0.2c2.6,0.8,2.5,0.8,2.5,3.6v12.5
	c0,1.4,0.1,2.8,0.6,4.1c1.7,2.9,4.2,4.1,7.5,4c7.5-0.1,15.1-0.1,22.6,0c3.5,0.1,6.6-1.1,8.2-4.3c0.4-1.2,1.1-2.5,1.1-3.8v-12.5
	c0-3-0.7-3,2-3.8c0.3-0.1,0.3-0.2,0.6-0.2c2.8-1.1,5.5-2.2,8.2-3.5c0.6-0.4,1.2-0.7,1.8-1c0,0,0.1-0.1,0.1-0.1
	c2.2-1.3,2.1-1.3,3.9,0.5c3.1,3.1,6.3,6.3,9.4,9.5c1.5,1.6,3.2,2.5,5.4,2.7c0.4,0,0.8,0,1.2,0c1-0.3,2-0.6,2.9-1.1
	c1-1,2.1-1.9,3.1-2.9c0.3-0.4,0.6-0.8,1-1c1-1.1,2-2.2,3.1-3.1c0.3-0.4,0.6-0.8,1-1c0.6-0.8,1.3-1.4,2.1-2.1
	c0.1-0.3,0.3-0.5,0.6-0.6l0.4-0.4c0.3-0.4,0.6-0.8,1-1c1-1.1,2-2.1,3.1-3.1c0.3-0.4,0.6-0.8,1-1c1-1,2-2.1,2.9-3.1
	c0.4-0.8,0.7-1.6,1.1-2.5c0-0.3,0.1-0.7,0.1-1c0-2.6-1.2-4.6-3-6.3c-3.6-3.4-7-7-10.6-10.5c-0.6-0.5-0.6-1-0.2-1.6
	c0.4-0.7,0.8-1.4,1.2-2.2c0-0.3,0.2-0.6,0.4-0.9c1.4-3.3,2.6-6.6,3.8-10c0.3-1.8,0.3-1.8,2.1-1.8c0.8,0,1.5,0.1,2.3,0.1h12.5
	c1.4,0,2.8-0.3,4.2-0.8l0-0.2h0.1c2.8-1,3.9-4,3.9-7.3C302.8,192.1,302.8,184.6,302.9,177z M251.8,194.8c-0.3,1.4-0.5,2.8-0.8,4.1
	c-0.4,1.4-0.9,2.8-1.3,4.2c-0.3,0.6-0.6,1.3-0.8,2c-1.4,3-3,5.9-4.9,8.6c-1.1,1.5-2.4,2.9-3.6,4.4c-0.5,0.5-1,1-1.4,1.4
	c-2.1,1.9-4.3,3.6-6.6,5.2c-2.7,1.5-5.4,3-8.3,4.1c-1.4,0.4-2.8,0.9-4.2,1.3c-1.5,0.1-2.8,0.8-4.3,0.9c-2.7,0.2-5.4,0.4-8.2,0.3
	c-1.4,0-2.7-0.4-4.1-0.2c-1.4-0.2-2.7-0.8-4.2-0.9c-1.4-0.4-2.8-0.8-4.1-1.2c-2.9-1.2-5.7-2.5-8.3-4.1c-2.3-1.6-4.6-3.3-6.7-5.2
	c-2.6-2.4-4.7-5.2-6.8-8.1c-0.8-1.4-1.6-2.8-2.3-4.1c-0.1-0.5-0.3-0.9-0.6-1.2c-0.4-1-0.8-1.9-1.1-2.9c-0.4-1.4-0.9-2.8-1.3-4.2
	c-0.2-1.4-0.6-2.8-1-4.1c0.1-0.3,0.1-0.5,0.1-0.8c-0.5-3.9-0.4-7.8,0.1-11.7c0.3-1.4,0.5-2.8,0.8-4.2c0.4-1.4,0.8-2.8,1.2-4.1
	c1-3,2.6-5.6,4.1-8.3c2.1-3.1,4.5-6.1,7.2-8.6c1.8-1.7,3.9-3.2,5.9-4.7l0.5-0.3h0c2.6-1,5.4-2.8,8.2-4c1.4-0.4,2.8-0.8,4.1-1.3
	c1.4-0.3,2.8-0.5,4.1-0.7c4.2-0.6,8.3-0.5,12.5,0c1.4,0.3,2.8,0.5,4.1,0.8c1.4,0.4,2.8,0.9,4.2,1.3c2.9,1.1,5.6,2.5,8.3,4.1
	c2.9,2,5.7,4.2,8.2,6.8c1.9,2,3.6,4.3,5.2,6.6c1.6,2.7,2.9,5.4,4.1,8.3c0.4,1.4,0.9,2.8,1.3,4.1c0.3,1.4,0.5,2.8,0.8,4.1
	C252.4,186.4,252.4,190.6,251.8,194.8z"/>
<path id="XMLID_6474_" class="st2" d="M153.3,306.7c0-2.1-0.6-3.7-2.3-5c-0.2-0.1-0.4-0.6-0.6-0.8c-1-0.4-2-0.9-3-0.9h-11.9
	c-0.2,0-0.3,0.4-0.3,0.2c-0.2-0.7-0.4-1.1-0.6-1.8c-0.4-1-0.8-1.9-1.1-2.9c-0.8-1.7-1.6-3.4-2.6-5c-0.2-0.4,0.1-0.5,0.3-0.7
	c2.4-2.4,4.8-4.7,7.2-7.1c0.3-0.3,0.7-0.7,1-1c1.4-1.2,2.2-2.7,2.1-4.6c0-0.2-0.1-0.5-0.1-0.7c-0.2-0.5-0.4-1-0.6-1.5
	c-2.3-2.6-4.8-4.9-7.2-7.3c-1.9-1.9-3.8-3.8-5.7-5.7c-1.2-1.2-2.6-1.9-4.3-1.9c-1.5,0.1-2.7,0.8-3.8,1.9c-2.8,2.9-5.7,5.7-8.5,8.5
	c-0.4,0.4-0.6,0.4-1.1,0.2c-1.5-0.8-3-1.5-4.5-2.2c-1.2-0.4-2.4-0.9-3.6-1.3c-0.5-0.1-0.2-0.3-0.7-0.4c-0.4-0.1,0.5-0.3,0.5-0.6
	v-11.9c0-0.5-0.9-1.1-0.9-1.6c-0.1-0.1-0.5-0.2-0.5-0.3c-0.1-0.2-0.3-0.4-0.4-0.6c-0.1-0.3-0.4-0.7-0.6-1c-1.2-1.7-2.9-2.5-5-2.4
	c-5.5,0.1-11.1,0.1-16.6,0c-2,0-3.7,0.6-4.9,2.3c-0.2,0.3,0,0.6-0.1,0.9c-0.5,0.9,0,1.9,0,2.8v11.9c0,0.3-0.3,0.4-0.6,0.5
	c-0.7,0.2-1.5,0.4-2.2,0.6c-1,0.4-2.1,0.7-3.1,1.1c-1.7,0.8-3.4,1.5-5,2.3c-0.5,0.3-0.7-0.1-0.9-0.3c-2.8-2.8-5.6-5.6-8.4-8.4
	c-1-1.1-2.2-1.7-3.7-1.9c-1.8,0-3.2,0.7-4.5,2c-3.9,4-7.8,7.9-11.8,11.8c-0.4,0.4-0.7,0.8-1,1.2c-0.2,0.3-0.3,0.7-0.5,1
	c-0.1,0.3-0.1,0.7-0.2,1c-0.1,1.9,0.6,3.3,1.9,4.6c2.7,2.6,5.4,5.4,8.1,8.1c0.4,0.4,0.5,0.6,0.2,1.1c-0.4,0.6-0.7,1.2-1,1.8
	c0,0.1,0,0.2-0.1,0.3c-1,2.2-2,4.5-2.8,6.8c-0.3,1.5-0.3,1-1.8,1c-0.4,0-0.9-0.5-1.3-0.5h-8.9c-1,0-2,0.5-3,0.9
	c-0.2,0.1,0.8,0.5,0.6,0.6c-1.2,0.8-0.9,2.2-0.9,3.5v19.8c0,0.5-0.9,0.9-0.7,1.4c0.5,1,0.7,0.8,1.7,1.3c1,0.4,1.3-0.5,2.3-0.5h8.9
	c0.7,0,1.6,0.7,2.2,1c0.6,0.3,0.4,1.7,0.7,2.4c0.1,0.2,0.1,0.6,0.1,0.7c0.8,2,1.6,4.1,2.3,6.1c0.3,0.5,0.6,1.1,0.8,1.7
	c0,0,0.1,0.1,0.1,0.1c0.7,1.3,0.7,1.3-0.3,2.3c-2.2,2.2-4.4,4.5-6.7,6.7c-1.2,1.2-2.1,2.4-2.3,4.2c0,0.2,0,0.3,0,0.4
	c0.1,0.1,0.1,0.2,0,0.3c0.1,0.4,0.2,0.8,0.3,1.2c0.2,0.3,0.3,0.7,0.5,1c3.2,3.4,6.6,6.6,9.8,9.9c1.4,1.4,2.8,3,4.4,4.2
	c0.5,0.2,1.1,0.4,1.6,0.6c0.4,0,0.9,0.1,1.3,0.1c1.6-0.2,2.8-1,3.9-2.1c2.3-2.4,4.8-4.8,7.1-7.2c0.4-0.4,0.7-0.6,1.2-0.2
	c0.3,0.2,0.6,0.4,0.9,0.6c0.6,0.3,1.1,0.5,1.7,0.8c2,0.9,4,1.7,6,2.4c0.2,0.1,0.7,0.1,0.9,0.2c1.9,0.6,2.1,0.6,2.1,2.6v8.9
	c0,1-0.3,2,0.1,2.9c1.2,2.1,2.8,2.9,5.2,2.9c5.4-0.1,10.7-0.1,16.1,0c2.5,0,5.2-0.8,6.3-3.1c0.3-0.9,1.2-1.8,1.2-2.7v-8.9
	c0-2.1-1-2.1,1-2.8c0.2-0.1,0-0.1,0.2-0.2c2-0.8,3.8-1.6,5.8-2.5c0.4-0.3,0.8-0.5,1.3-0.7c0,0,0-0.1,0-0.1c1.5-0.9,1.5-0.9,2.8,0.3
	c2.3,2.3,4.5,4.5,6.7,6.8c1.1,1.1,2.3,1.8,3.9,2c0.3,0,0.6,0,0.9,0c0.7-0.2,1.4-0.4,2.1-0.8c0.8-0.7,1.5-1.4,2.2-2.1
	c0.2-0.3,0.4-0.5,0.7-0.7c0.7-0.8,1.4-1.5,2.2-2.2c0.2-0.3,0.4-0.5,0.7-0.7c0.4-0.5,1-1,1.5-1.5c0.1-0.2,0.2-0.4,0.4-0.4l0.3-0.3
	c0.2-0.3,0.4-0.5,0.7-0.7c0.7-0.8,1.5-1.5,2.2-2.2c0.2-0.3,0.4-0.5,0.7-0.7c0.7-0.8,1.4-1.5,2.1-2.2c0.3-0.6,0.5-1.2,0.8-1.8
	c0-0.2,0.1-0.5,0.1-0.8c0-1.9-0.9-3.3-2.2-4.5c-2.6-2.5-5.1-5-7.6-7.5c-0.4-0.4-0.4-0.7-0.2-1.1c0.3-0.5,0.6-1,0.9-1.5
	c0-0.2,0.1-0.4,0.3-0.6c1-2.3,1.9-4.7,2.7-7.1c0.2-1.3,0.2-2.3,1.5-2.3c0.5,0,1.1-0.9,1.6-0.9h8.9c1,0,2,0.8,3,0.5l0,0.4l0.1,0.2
	c2-1.2,2.8-2.8,2.8-5.2C153.2,317.5,153.3,312.2,153.3,306.7z M116.7,319.4c-0.2,1-0.4,2-0.6,3c-0.3,1-0.6,2-0.9,3
	c-0.2,0.5-0.4,0.9-0.5,1.4c-1,2.1-2.1,4.2-3.5,6.1c-0.8,1.1-1.7,2.1-2.6,3.1c-0.3,0.3-0.7,0.7-1,1c-1.5,1.3-3.1,2.6-4.8,3.7
	c-1.9,1.1-3.9,2.1-5.9,2.9c-1,0.3-2,0.6-3,0.9c-1.1,0.1-2,0.6-3.1,0.6c-2,0.2-3.9,0.3-5.9,0.2c-1,0-1.9-0.3-2.9-0.2
	c-1-0.2-2-0.6-3-0.6c-1-0.3-2-0.6-3-0.9c-2.1-0.8-4.1-1.8-6-2.9c-1.7-1.2-3.3-2.4-4.8-3.8c-1.9-1.7-3.4-3.7-4.9-5.8
	c-0.6-1-1.1-2-1.7-3c-0.1-0.3-0.2-0.6-0.4-0.9c-0.3-0.7-0.5-1.4-0.8-2.1c-0.3-1-0.6-2-0.9-3c-0.1-1-0.4-2-0.7-3
	c0.1-0.2,0.1-0.4,0.1-0.6c-0.4-2.8-0.3-5.6,0-8.4c0.2-1,0.4-2,0.6-3c0.3-1,0.6-2,0.9-3c0.7-2.1,1.9-4,2.9-6c1.5-2.2,3.2-4.3,5.2-6.2
	c1.3-1.2,2.8-2.7,4.2-3.8l0.4-0.6h0c1.9-1,3.9-1.7,5.9-2.4c1-0.3,2-0.4,3-0.7c1-0.2,2-0.2,3-0.4c3-0.4,6-0.3,8.9,0.1
	c1,0.2,2,0.4,3,0.6c1,0.3,2,0.6,3,0.9c2.1,0.8,4,1.8,5.9,2.9c2.1,1.5,4.1,3,5.9,4.9c1.4,1.5,2.6,3.1,3.7,4.7c1.1,1.9,2.1,3.9,2.9,6
	c0.3,1,0.6,2,0.9,3c0.2,1,0.4,2,0.6,3C117.1,313.5,117.1,316.5,116.7,319.4z"/>
<path id="XMLID_6415_" class="st4" d="M155.2,304.4c0-2.1-0.6-3.7-2.3-5c-0.2-0.1-0.4,0.5-0.6,0.4c-1-0.4-2,0.2-3,0.2h-11.9
	c-0.2,0-0.3-0.8-0.3-1c-0.2-0.7-0.4-1.7-0.6-2.4c-0.4-1-0.8-2.2-1.1-3.2c-0.8-1.7-1.6-3.5-2.6-5.2c-0.2-0.4,0.1-0.6,0.3-0.8
	c2.4-2.4,4.8-4.8,7.2-7.2c0.3-0.3,0.7-0.7,1-1.1c1.4-1.2,2.2-2.7,2.1-4.6c0-0.2-0.1-0.5-0.1-0.7c-0.2-0.5-0.4-1-0.6-1.5
	c-2.3-2.6-4.8-4.9-7.2-7.3c-1.9-1.9-3.8-3.8-5.7-5.7c-1.2-1.2-2.6-1.9-4.3-1.9c-1.5,0.1-2.7,0.8-3.8,1.9c-2.8,2.9-5.7,5.7-8.5,8.5
	c-0.4,0.4-0.6,0.4-1.1,0.2c-1.5-0.8-3-1.5-4.5-2.2c-1.2-0.4-2.4-0.9-3.6-1.3c-0.5-0.1-1.6-0.3-2.1-0.4c-0.4-0.1-0.9-0.3-0.9-0.6
	v-11.9c0-0.5,0.6-1.1,0.6-1.6c-0.1-0.1,0.2-0.2,0.2-0.3c-0.1-0.2,0-0.4,0-0.6c-0.1-0.3-0.2-0.7-0.4-1c-1.2-1.7-2.8-2.5-4.9-2.4
	c-5.5,0.1-11,0.1-16.6,0c-2,0-3.7,0.6-4.9,2.3c-0.2,0.3-1.9,0.6-2.1,0.9c-0.5,0.9-2,1.9-2,2.8v11.9c0,0.3,1.6,0.4,1.4,0.5
	c-0.7,0.2-0.6,0.4-1.3,0.6c-1,0.4-1.6,0.7-2.6,1.1c-1.7,0.8-3.2,1.5-4.8,2.3c-0.5,0.3-0.5-0.1-0.8-0.3c-2.8-2.8-5.6-5.6-8.3-8.4
	c-1-1.1-2.2-1.7-3.7-1.9c-1.8,0-3.2,0.7-4.4,2c-3.9,4-7.8,7.9-11.8,11.8c-0.4,0.4-0.7,0.8-1,1.2c-0.2,0.3-0.3,0.7-0.5,1
	c-0.1,0.3-0.1,0.7-0.2,1c-0.1,1.9,0.6,3.3,1.9,4.6c2.7,2.6,5.4,5.4,8.1,8.1c0.4,0.4,0.5,0.6,0.2,1.1c-0.4,0.6-0.7,1.2-1,1.8
	c0,0.1,0,0.2-0.1,0.3c-1,2.2-2,4.5-2.8,6.8c-0.3,1.5-0.3,2.2-1.8,2.2c-0.4,0-0.9,0.7-1.3,0.7h-8.9c-1,0-2-0.7-3-0.3
	c-0.2,0.1-1.1-0.1-1.4,0c-1.2,0.8-0.9,1.6-2.9,2.9v19.8c0,0.5,1,0.9,1.2,1.4c0.5,1,1.7,1.9,2.7,2.5c1,0.4,2.3,0.7,3.3,0.7h8.9
	c0.7,0,1.6-0.5,2.2-0.2c0.6,0.3,0.4,1.2,0.7,1.8c0.1,0.2,0.1,0.3,0.1,0.4c0.8,2,1.6,3.9,2.3,5.9c0.3,0.5,0.6,1,0.8,1.6
	c0,0,0.1,0.1,0.1,0.1c0.7,1.3,0.7,1.2-0.3,2.3c-2.2,2.2-4.4,4.5-6.7,6.7c-1.2,1.2-2.1,2.4-2.3,4.2c0,0.2,0,0.3,0,0.4
	c0.1,0.1,0.1,0.2,0,0.3c0.1,0.4,0.2,0.8,0.3,1.2c0.2,0.3,0.3,0.7,0.5,1c3.2,3.4,6.6,6.6,9.8,9.9c1.4,1.4,2.8,3,4.4,4.2
	c0.5,0.2,1.1,0.4,1.6,0.6c0.4,0,0.9,0.1,1.3,0.1c1.6-0.2,2.8-1,3.9-2.1c2.3-2.4,4.8-4.8,7.1-7.2c0.4-0.4,0.7-0.6,1.2-0.2
	c0.3,0.2,0.6,0.4,0.9,0.6c0.6,0.3,1.1,0.5,1.7,0.8c2,0.9,4,1.7,6,2.4c0.2,0.1-1.2,0.1-1,0.2c1.9,0.6,0.1,0.6,0.1,2.6v8.9
	c0,1,1.7,2,2.1,2.9c1.2,2.1,3.8,2.9,6.2,2.9c5.4-0.1,11.2-0.1,16.6,0c2.5,0,4-0.8,5.1-3.1c0.3-0.9,0-1.8,0-2.7v-8.9
	c0-2.1,0.4-2.1,2.4-2.8c0.2-0.1,0.7-0.1,0.9-0.2c2-0.8,4.2-1.6,6.1-2.5c0.4-0.3,0.9-0.5,1.4-0.7c0,0,0.1-0.1,0.1-0.1
	c1.5-0.9,1.6-0.9,2.8,0.3c2.3,2.3,4.5,4.5,6.8,6.8c1.1,1.1,2.3,1.8,3.9,2c0.3,0,0.6,0,0.9,0c0.7-0.2,1.4-0.4,2.1-0.8
	c0.8-0.7,1.5-1.4,2.2-2.1c0.2-0.3,0.4-0.5,0.7-0.7c0.7-0.8,1.4-1.5,2.2-2.2c0.2-0.3,0.4-0.5,0.7-0.7c0.4-0.5,1-1,1.5-1.5
	c0.1-0.2,0.2-0.4,0.4-0.4l0.3-0.3c0.2-0.3,0.4-0.5,0.7-0.7c0.7-0.8,1.5-1.5,2.2-2.2c0.2-0.3,0.4-0.5,0.7-0.7
	c0.7-0.8,1.4-1.5,2.1-2.2c0.3-0.6,0.5-1.2,0.8-1.8c0-0.2,0.1-0.5,0.1-0.8c0-1.9-0.9-3.3-2.2-4.5c-2.6-2.5-5.1-5-7.6-7.5
	c-0.4-0.4-0.4-0.7-0.2-1.1c0.3-0.5,0.6-1,0.9-1.5c0-0.2,0.1-0.4,0.3-0.6c1-2.3,1.9-4.7,2.7-7.1c0.2-1.3,0.2-1.1,1.5-1.1
	c0.5,0,1.1,0.3,1.6,0.3h8.9c1,0,2-0.3,3-0.7l0-0.2l0.1,0c2-1.2,2.8-3,2.8-5.3C155.1,315.3,155.1,309.8,155.2,304.4z M118.6,317.1
	c-0.2,1-0.4,2-0.6,3c-0.3,1-0.6,2-0.9,3c-0.2,0.5-0.4,0.9-0.5,1.4c-1,2.1-2.1,4.2-3.5,6.1c-0.8,1.1-1.7,2.1-2.6,3.1
	c-0.3,0.3-0.7,0.7-1,1c-1.5,1.3-3.1,2.6-4.8,3.7c-1.9,1.1-3.9,2.1-5.9,2.9c-1,0.3-2,0.6-3,0.9c-1.1,0.1-2,0.6-3.1,0.6
	c-2,0.2-3.9,0.3-5.9,0.2c-1,0-1.9-0.3-2.9-0.2c-1-0.2-2-0.6-3-0.6c-1-0.3-2-0.6-3-0.9c-2.1-0.8-4.1-1.8-6-2.9
	c-1.7-1.2-3.3-2.4-4.8-3.8c-1.9-1.7-3.4-3.7-4.9-5.8c-0.6-1-1.1-2-1.7-3c-0.1-0.3-0.2-0.6-0.4-0.9c-0.3-0.7-0.5-1.4-0.8-2.1
	c-0.3-1-0.6-2-0.9-3c-0.1-1-0.4-2-0.7-3c0.1-0.2,0.1-0.4,0.1-0.6c-0.4-2.8-0.3-5.6,0-8.4c0.2-1,0.4-2,0.6-3c0.3-1,0.6-2,0.9-3
	c0.7-2.1,1.9-4,2.9-6c1.5-2.2,3.2-4.3,5.2-6.2c1.3-1.2,2.8-2,4.2-3.1l0.4,0h0c1.9,0,3.9-2.3,5.9-3.1c1-0.3,2-0.7,3-1
	c1-0.2,2-0.4,3-0.6c3-0.4,6-0.4,8.9,0c1,0.2,2,0.4,3,0.6c1,0.3,2,0.6,3,0.9c2.1,0.8,4,1.8,5.9,2.9c2.1,1.5,4.1,3,5.9,4.9
	c1.4,1.5,2.6,3.1,3.7,4.7c1.1,1.9,2.1,3.9,2.9,6c0.3,1,0.6,2,0.9,3c0.2,1,0.4,2,0.6,3C119,311.1,119,314.1,118.6,317.1z"/>
<path id="XMLID_6529_" class="st5" d="M235.2,202c0-0.7-0.2-1.3-0.8-1.7c-0.1,0-0.1-0.6-0.2-0.6c-0.3-0.1-0.7-0.7-1-0.7h-4
	c-0.1,0-0.1,0.5-0.1,0.4c-0.1-0.2-0.1-0.2-0.2-0.4c-0.1-0.3-0.3-0.5-0.4-0.9c-0.3-0.6-0.5-1.1-0.9-1.7c-0.1-0.1,0-0.1,0.1-0.2
	c0.8-0.8,1.6-1.6,2.4-2.4c0.1-0.1,0.2-0.2,0.4-0.3c0.5-0.4,0.7-0.9,0.7-1.5c0-0.1,0-0.2,0-0.2c-0.1-0.2-0.1-0.3-0.2-0.5
	c-0.8-0.9-1.6-1.6-2.4-2.5c-0.6-0.6-1.3-1.3-1.9-1.9c-0.4-0.4-0.9-0.7-1.4-0.7c-0.5,0-0.9,0.3-1.3,0.6c-0.9,1-1.9,1.9-2.9,2.9
	c-0.1,0.1-0.2,0.2-0.4,0.1c-0.5-0.3-1-0.5-1.5-0.7c-0.4-0.2-0.8-0.3-1.2-0.4c-0.2,0,0.5-0.1,0.3-0.1c-0.1,0,0.7-0.1,0.7-0.2v-4
	c0-0.2-0.8-0.4-0.8-0.6c0,0-0.4-0.1-0.4-0.1c0-0.1-0.2-0.1-0.3-0.2c0-0.1-0.2-0.2-0.3-0.3c-0.4-0.6-1-0.8-1.7-0.8
	c-1.9,0-3.7,0-5.6,0c-0.7,0-1.3,0.2-1.7,0.8c-0.1,0.1,0.4,0.2,0.4,0.3c-0.2,0.3,0.4,0.6,0.4,0.9v4c0,0.1-0.5,0.1-0.6,0.2
	c-0.2,0.1-0.7,0.1-1,0.2c-0.3,0.1-0.8,0.2-1.1,0.4c-0.6,0.3-1.2,0.5-1.7,0.8c-0.2,0.1-0.2,0-0.3-0.1c-0.9-0.9-1.9-1.9-2.8-2.8
	c-0.3-0.4-0.8-0.6-1.3-0.6c-0.6,0-1.1,0.2-1.5,0.7c-1.3,1.3-2.6,2.6-4,4c-0.1,0.1-0.2,0.3-0.3,0.4c-0.1,0.1-0.1,0.2-0.2,0.3
	c0,0.1,0,0.2-0.1,0.4c0,0.6,0.2,1.1,0.7,1.6c0.9,0.9,1.8,1.8,2.7,2.7c0.1,0.1,0.2,0.2,0.1,0.4c-0.1,0.2-0.2,0.4-0.4,0.6
	c0,0,0,0.1,0,0.1c-0.4,0.8-0.7,1.5-1,2.3c-0.1,0.5-0.1,0-0.6,0c-0.2,0-0.3-0.5-0.4-0.5h-3c-0.3,0-0.7,0.5-1,0.7
	c-0.1,0,0.8,0.4,0.7,0.4c-0.4,0.3,0.2,0.9,0.2,1.4v6.7c0,0.2-0.8,0.3-0.8,0.5c0.2,0.3,0,0.3,0.3,0.5c0.3,0.1,0.2-0.1,0.5-0.1h3
	c0.3,0,0.5,0.2,0.7,0.3c0.2,0.1,0.2,0.6,0.2,0.8c0,0.1,0,0.2,0,0.2c0.3,0.7,0.5,1.4,0.8,2c0.1,0.2,0.2,0.4,0.3,0.6c0,0,0,0,0,0
	c0.2,0.4,0.2,0.4-0.1,0.8c-0.8,0.8-1.5,1.5-2.3,2.3c-0.4,0.4-0.7,0.8-0.8,1.4c0,0.1,0,0.1,0,0.1c0,0,0,0.1,0,0.1
	c0,0.1,0.1,0.3,0.1,0.4c0.1,0.1,0.1,0.2,0.2,0.3c1.1,1.1,2.2,2.2,3.3,3.3c0.5,0.5,0.9,1,1.5,1.4c0.2,0.1,0.4,0.1,0.6,0.2
	c0.1,0,0.3,0,0.4,0c0.5-0.1,0.9-0.3,1.3-0.7c0.8-0.8,1.6-1.6,2.4-2.4c0.1-0.1,0.2-0.2,0.4-0.1c0.1,0.1,0.2,0.1,0.3,0.2
	c0.2,0.1,0.4,0.2,0.6,0.3c0.7,0.3,1.3,0.6,2,0.8c0.1,0,0.7,0,0.7,0.1c0.6,0.2,1.1,0.2,1.1,0.9v3c0,0.3-0.5,0.7-0.4,1
	c0.4,0.7,0.7,1,1.5,1c1.8,0,3.5,0,5.3,0c0.8,0,2.2-0.3,2.6-1c0.1-0.3,0.9-0.6,0.9-0.9v-3c0-0.7-0.9-0.7-0.2-0.9c0.1,0-0.3,0-0.2-0.1
	c0.7-0.3,1.1-0.5,1.8-0.8c0.1-0.1,0.2-0.2,0.4-0.2c0,0,0,0,0,0c0.5-0.3,0.5-0.3,0.9,0.1c0.8,0.8,1.5,1.5,2.3,2.3
	c0.4,0.4,0.8,0.6,1.3,0.7c0.1,0,0.2,0,0.3,0c0.2-0.1,0.5-0.1,0.7-0.3c0.3-0.2,0.5-0.5,0.8-0.7c0.1-0.1,0.1-0.2,0.2-0.2
	c0.2-0.3,0.5-0.5,0.8-0.8c0.1-0.1,0.1-0.2,0.2-0.2c0.2-0.2,0.3-0.3,0.5-0.5c0-0.1,0.1-0.1,0.2-0.2l0.1-0.1c0.1-0.1,0.1-0.2,0.2-0.2
	c0.2-0.3,0.5-0.5,0.8-0.8c0.1-0.1,0.2-0.2,0.3-0.2c0.2-0.3,0.5-0.5,0.7-0.8c0.1-0.2,0.2-0.4,0.3-0.6c0-0.1,0-0.2,0-0.3
	c0-0.6-0.3-1.1-0.7-1.5c-0.9-0.8-1.7-1.7-2.6-2.5c-0.1-0.1-0.1-0.2-0.1-0.4c0.1-0.2,0.2-0.3,0.3-0.5c0-0.1,0-0.1,0.1-0.2
	c0.3-0.8,0.6-1.6,0.9-2.4c0.1-0.4,0.1-0.7,0.5-0.7c0.2,0,0.4-0.2,0.5-0.2h3c0.3,0,0.7,0.2,1,0.1l0,0.1l0,0.1c0.7-0.4,0.9-1,0.9-1.8
	C235.2,205.7,235.2,203.8,235.2,202z M222.9,206.3c-0.1,0.3-0.1,0.7-0.2,1c-0.1,0.3-0.2,0.7-0.3,1c-0.1,0.2-0.1,0.3-0.2,0.5
	c-0.3,0.7-0.7,1.4-1.2,2.1c-0.3,0.4-0.6,0.7-0.9,1.1c-0.1,0.1-0.2,0.2-0.3,0.3c-0.5,0.5-1,0.9-1.6,1.3c-0.6,0.4-1.3,0.7-2,1
	c-0.3,0.1-0.7,0.2-1,0.3c-0.4,0-0.7,0.2-1,0.2c-0.7,0.1-1.3,0.1-2,0.1c-0.3,0-0.7-0.1-1-0.1c-0.3-0.1-0.7-0.2-1-0.2
	c-0.3-0.1-0.7-0.2-1-0.3c-0.7-0.3-1.4-0.6-2-1c-0.6-0.4-1.1-0.8-1.6-1.3c-0.6-0.6-1.1-1.3-1.6-2c-0.2-0.3-0.4-0.7-0.6-1
	c0-0.1-0.1-0.2-0.1-0.3c-0.1-0.2-0.2-0.5-0.3-0.7c-0.1-0.3-0.2-0.7-0.3-1c0-0.3-0.1-0.7-0.2-1c0-0.1,0-0.1,0-0.2
	c-0.1-0.9-0.1-1.9,0-2.8c0.1-0.3,0.1-0.7,0.2-1c0.1-0.3,0.2-0.7,0.3-1c0.2-0.7,0.6-1.4,1-2c0.5-0.8,1.1-1.5,1.7-2.1
	c0.4-0.4,0.9-0.8,1.4-1.1l0.1-0.1h0c0.6-1,1.3-0.7,2-1c0.3-0.1,0.7-0.2,1-0.3c0.3-0.1,0.7-0.1,1-0.2c1-0.1,2-0.1,3,0
	c0.3,0.1,0.7,0.1,1,0.2c0.3,0.1,0.7,0.2,1,0.3c0.7,0.3,1.4,0.6,2,1c0.7,0.5,1.4,1,2,1.6c0.5,0.5,0.9,1,1.3,1.6c0.4,0.6,0.7,1.3,1,2
	c0.1,0.3,0.2,0.7,0.3,1c0.1,0.3,0.1,0.7,0.2,1C223,204.3,223,205.3,222.9,206.3z"/>
<path id="XMLID_6521_" class="st6" d="M235.9,201.2c0-0.7-0.2-1.3-0.8-1.7c-0.1,0-0.1-0.2-0.2-0.3c-0.3-0.1-0.7-0.3-1-0.3h-4
	c-0.1,0-0.1,0.1-0.1,0.1c-0.1-0.2-0.1-0.4-0.2-0.6c-0.1-0.3-0.3-0.6-0.4-1c-0.3-0.6-0.5-1.1-0.9-1.7c-0.1-0.1,0-0.2,0.1-0.2
	c0.8-0.8,1.6-1.6,2.4-2.4c0.1-0.1,0.2-0.2,0.4-0.4c0.5-0.4,0.7-0.9,0.7-1.6c0-0.1,0-0.2,0-0.2c-0.1-0.2-0.1-0.3-0.2-0.5
	c-0.8-0.9-1.6-1.6-2.4-2.5c-0.6-0.6-1.3-1.3-1.9-1.9c-0.4-0.4-0.9-0.7-1.4-0.7c-0.5,0-0.9,0.3-1.3,0.6c-0.9,1-1.9,1.9-2.9,2.9
	c-0.1,0.1-0.2,0.2-0.4,0.1c-0.5-0.3-1-0.5-1.5-0.7c-0.4-0.2-0.8-0.3-1.2-0.4c-0.2,0,0.2-0.1,0-0.1c-0.1,0,0.4-0.1,0.4-0.2v-4
	c0-0.2-0.5-0.4-0.5-0.6c0,0-0.3-0.1-0.3-0.1c0-0.1-0.2-0.1-0.2-0.2c0-0.1-0.2-0.2-0.2-0.3c-0.4-0.6-1-0.8-1.7-0.8
	c-1.9,0-3.7,0-5.6,0c-0.7,0-1.2,0.2-1.7,0.8c-0.1,0.1,0.1,0.2,0.1,0.3c-0.2,0.3,0.1,0.6,0.1,0.9v4c0,0.1-0.2,0.1-0.3,0.2
	c-0.2,0.1-0.6,0.1-0.8,0.2c-0.3,0.1-0.7,0.2-1.1,0.4c-0.6,0.3-1.2,0.5-1.7,0.8c-0.2,0.1-0.2,0-0.3-0.1c-0.9-0.9-1.9-1.9-2.8-2.8
	c-0.3-0.4-0.8-0.6-1.2-0.6c-0.6,0-1.1,0.2-1.5,0.7c-1.3,1.3-2.6,2.6-4,4c-0.1,0.1-0.2,0.3-0.3,0.4c-0.1,0.1-0.1,0.2-0.2,0.3
	c0,0.1,0,0.2-0.1,0.4c0,0.6,0.2,1.1,0.7,1.6c0.9,0.9,1.8,1.8,2.7,2.7c0.1,0.1,0.2,0.2,0.1,0.4c-0.1,0.2-0.2,0.4-0.4,0.6
	c0,0,0,0.1,0,0.1c-0.4,0.8-0.7,1.5-1,2.3c-0.1,0.5-0.1,0.4-0.6,0.4c-0.2,0-0.3-0.1-0.4-0.1h-3c-0.3,0-0.7,0.2-1,0.3
	c-0.1,0,0.5,0.2,0.4,0.2c-0.4,0.3-0.1,0.7-0.1,1.2v6.7c0,0.2-0.5,0.3-0.4,0.5c0.2,0.3,0.1,0.7,0.5,0.9c0.3,0.1,0.3,0.3,0.7,0.3h3
	c0.3,0,0.5-0.2,0.7-0.1c0.2,0.1,0.2,0.4,0.2,0.6c0,0.1,0,0.1,0,0.1c0.3,0.7,0.5,1.3,0.8,2c0.1,0.2,0.2,0.3,0.3,0.5c0,0,0,0,0,0
	c0.2,0.4,0.2,0.4-0.1,0.8c-0.8,0.8-1.5,1.5-2.3,2.3c-0.4,0.4-0.7,0.8-0.8,1.4c0,0.1,0,0.1,0,0.1c0,0,0,0.1,0,0.1
	c0,0.1,0.1,0.3,0.1,0.4c0.1,0.1,0.1,0.2,0.2,0.3c1.1,1.1,2.2,2.2,3.3,3.3c0.5,0.5,0.9,1,1.5,1.4c0.2,0.1,0.4,0.1,0.6,0.2
	c0.1,0,0.3,0,0.4,0c0.5-0.1,0.9-0.3,1.3-0.7c0.8-0.8,1.6-1.6,2.4-2.4c0.1-0.1,0.2-0.2,0.4-0.1c0.1,0.1,0.2,0.1,0.3,0.2
	c0.2,0.1,0.4,0.2,0.6,0.3c0.7,0.3,1.3,0.6,2,0.8c0.1,0,0.3,0,0.4,0.1c0.6,0.2,0.8,0.2,0.8,0.9v3c0,0.3-0.2,0.7-0.1,1
	c0.4,0.7,0.9,1,1.7,1c1.8,0,3.6,0,5.4,0c0.8,0,2-0.3,2.3-1c0.1-0.3,0.6-0.6,0.6-0.9v-3c0-0.7-0.6-0.7,0.1-0.9c0.1,0-0.1,0,0-0.1
	c0.7-0.3,1.2-0.5,1.9-0.8c0.1-0.1,0.2-0.2,0.4-0.2c0,0,0,0,0,0c0.5-0.3,0.5-0.3,0.9,0.1c0.8,0.8,1.5,1.5,2.3,2.3
	c0.4,0.4,0.8,0.6,1.3,0.7c0.1,0,0.2,0,0.3,0c0.2-0.1,0.5-0.1,0.7-0.3c0.3-0.2,0.5-0.5,0.8-0.7c0.1-0.1,0.1-0.2,0.2-0.2
	c0.2-0.3,0.5-0.5,0.8-0.8c0.1-0.1,0.1-0.2,0.2-0.2c0.2-0.2,0.3-0.3,0.5-0.5c0-0.1,0.1-0.1,0.2-0.2l0.1-0.1c0.1-0.1,0.1-0.2,0.2-0.2
	c0.2-0.3,0.5-0.5,0.8-0.8c0.1-0.1,0.2-0.2,0.3-0.2c0.2-0.3,0.5-0.5,0.7-0.8c0.1-0.2,0.2-0.4,0.3-0.6c0-0.1,0-0.2,0-0.3
	c0-0.6-0.3-1.1-0.7-1.5c-0.9-0.8-1.7-1.7-2.6-2.5c-0.1-0.1-0.1-0.2-0.1-0.4c0.1-0.2,0.2-0.3,0.3-0.5c0-0.1,0-0.1,0.1-0.2
	c0.3-0.8,0.6-1.6,0.9-2.4c0.1-0.4,0.1-0.3,0.5-0.3c0.2,0,0.4,0.2,0.5,0.2h3c0.3,0,0.7-0.2,1-0.3l0-0.1l0,0c0.7-0.4,0.9-1,0.9-1.8
	C235.8,204.9,235.8,203.1,235.9,201.2z M223.5,205.5c-0.1,0.3-0.1,0.7-0.2,1c-0.1,0.3-0.2,0.7-0.3,1c-0.1,0.2-0.1,0.3-0.2,0.5
	c-0.3,0.7-0.7,1.4-1.2,2.1c-0.3,0.4-0.6,0.7-0.9,1.1c-0.1,0.1-0.2,0.2-0.3,0.3c-0.5,0.5-1,0.9-1.6,1.3c-0.6,0.4-1.3,0.7-2,1
	c-0.3,0.1-0.7,0.2-1,0.3c-0.4,0-0.7,0.2-1,0.2c-0.7,0.1-1.3,0.1-2,0.1c-0.3,0-0.7-0.1-1-0.1c-0.3-0.1-0.7-0.2-1-0.2
	c-0.3-0.1-0.7-0.2-1-0.3c-0.7-0.3-1.4-0.6-2-1c-0.6-0.4-1.1-0.8-1.6-1.3c-0.6-0.6-1.1-1.3-1.6-2c-0.2-0.3-0.4-0.7-0.6-1
	c0-0.1-0.1-0.2-0.1-0.3c-0.1-0.2-0.2-0.5-0.3-0.7c-0.1-0.3-0.2-0.7-0.3-1c0-0.3-0.1-0.7-0.2-1c0-0.1,0-0.1,0-0.2
	c-0.1-0.9-0.1-1.9,0-2.8c0.1-0.3,0.1-0.7,0.2-1c0.1-0.3,0.2-0.7,0.3-1c0.2-0.7,0.6-1.4,1-2c0.5-0.8,1.1-1.5,1.7-2.1
	c0.4-0.4,0.9-0.9,1.4-1.2l0.1-0.2h0c0.6,0,1.3-0.6,2-0.9c0.3-0.1,0.7-0.2,1-0.3c0.3-0.1,0.7-0.1,1-0.2c1-0.1,2-0.1,3,0
	c0.3,0.1,0.7,0.1,1,0.2c0.3,0.1,0.7,0.2,1,0.3c0.7,0.3,1.4,0.6,2,1c0.7,0.5,1.4,1,2,1.6c0.5,0.5,0.9,1,1.3,1.6c0.4,0.6,0.7,1.3,1,2
	c0.1,0.3,0.2,0.7,0.3,1c0.1,0.3,0.1,0.7,0.2,1C223.7,203.5,223.7,204.5,223.5,205.5z"/>
<circle id="XMLID_6540_" class="st5" cx="86.8" cy="53" r="41.9"/>
<circle id="XMLID_6411_" class="st7" cx="88.3" cy="51.6" r="41.9"/>
<g id="XMLID_6532_">
	<g id="XMLID_66_">
		<path id="XMLID_70_" class="st6" d="M90,51.3c0-7.2,0-14.4,0-21.5c0-2.3-3.5-2.3-3.5,0c0,7.2,0,14.4,0,21.5
			C86.5,53.6,90,53.6,90,51.3L90,51.3z"/>
	</g>
</g>
<g id="XMLID_5830_">
	<g id="XMLID_60_">
		<path id="XMLID_64_" class="st6" d="M87,52.6c5.8,4.5,11.6,9,17.4,13.5c1.8,1.4,4.3-1.1,2.5-2.5c-5.8-4.5-11.6-9-17.4-13.5
			C87.7,48.7,85.2,51.2,87,52.6L87,52.6z"/>
	</g>
</g>
<line id="XMLID_6113_" class="st8" x1="87.5" y1="94" x2="87.5" y2="85"/>
<line id="XMLID_6201_" class="st8" x1="87.5" y1="19" x2="87.5" y2="10"/>
<line id="XMLID_6539_" class="st8" x1="47" y1="53.5" x2="56" y2="53.5"/>
<line id="XMLID_6533_" class="st8" x1="122" y1="53.5" x2="131" y2="53.5"/>
</svg>
