<?xml version="1.0" encoding="utf-8"?>
<!-- Generator: Adobe Illustrator 19.0.0, SVG Export Plug-In . SVG Version: 6.00 Build 0)  -->
<svg version="1.1" xmlns="http://www.w3.org/2000/svg" xmlns:xlink="http://www.w3.org/1999/xlink" x="0px" y="0px"
	 viewBox="0 0 742.5 2995" style="enable-background:new 0 0 742.5 2995;" xml:space="preserve">
<style type="text/css">
	.st0{fill:#E8EAEC;}
	.st1{fill:#232728;}
	.st2{fill:#C5DEE2;}
	.st3{fill:#D2E2E7;}
	.st4{fill:none;stroke:#9DB79B;stroke-width:2;stroke-miterlimit:10;}
	.st5{fill:none;stroke:#515151;stroke-width:2;stroke-miterlimit:10;}
	.st6{fill:#E1DABB;}
	.st7{fill:#CCA5A1;}
	.st8{fill:#AA7D7D;}
	.st9{fill:#8CA387;}
	.st10{fill:#171818;}
	.st11{fill:none;stroke:#E8EAEC;stroke-width:2;stroke-miterlimit:10;}
	.st12{fill:none;stroke:#232728;stroke-width:2;stroke-miterlimit:10;}
	.st13{fill:#EBDF9D;}
	.st14{fill:none;stroke:#FFFFFF;stroke-width:0.5201;stroke-miterlimit:10;}
	.st15{fill:none;stroke:#FFFFFF;stroke-width:0.5917;stroke-miterlimit:10;}
	.st16{fill:none;stroke:#232728;stroke-miterlimit:10;}
	.st17{fill:#6F6E69;}
	.st18{fill:#DCC140;}
	.st19{fill:#85AAB8;}
	.st20{fill:#C3DEEB;}
	.st21{fill:#AED2E2;}
	.st22{fill:#9DB79B;}
	.st23{fill:#EBE2B4;}
	.st24{fill:#010002;}
	.st25{fill:#B4D0AE;}
	.st26{fill:#97969C;}
	.st27{fill:none;}
	.st28{font-family:'Roboto-Thin';}
	.st29{font-size:6.2407px;}
	.st30{fill:none;stroke:#FFFFFF;stroke-width:0.5059;stroke-miterlimit:10;}
	.st31{fill:#FFFFFF;}
	.st32{fill:none;stroke:#211915;stroke-width:2;stroke-miterlimit:10;}
	.st33{fill:none;stroke:#211915;stroke-width:2;stroke-miterlimit:10;stroke-dasharray:12.0382,12.0382;}
	.st34{opacity:0.57;fill:#938080;stroke:#211915;stroke-miterlimit:10;}
	.st35{fill:none;stroke:#5EA9AB;stroke-width:0.75;stroke-miterlimit:10;}
	.st36{fill:#FFFFFF;stroke:#211915;stroke-width:0.5194;stroke-miterlimit:10;}
</style>
<g id="Capa_1">
	<rect id="XMLID_1595_" x="-1992" y="546.4" class="st0" width="742.5" height="448.6"/>
	<rect id="XMLID_7476_" x="-1992.4" y="995.1" class="st1" width="742.9" height="516.5"/>
	<g id="XMLID_7469_">
		<g id="XMLID_7474_">
			<rect id="XMLID_14_" x="-1984.3" y="1346.1" class="st2" width="734.8" height="123.9"/>
		</g>
		<g id="XMLID_7473_">
		</g>
	</g>
	<g id="XMLID_7462_">
		<g id="XMLID_7467_">
			<rect id="XMLID_13_" x="-1448.7" y="1034.9" class="st3" width="199.2" height="123.6"/>
		</g>
		<g id="XMLID_7466_">
		</g>
	</g>
	<line id="XMLID_7461_" class="st4" x1="-1560" y1="2043" x2="-1560" y2="1793"/>
	<line id="XMLID_7460_" class="st5" x1="-1522" y1="2043" x2="-1522" y2="1939"/>
	<rect id="XMLID_7459_" x="-1992" class="st1" width="742.9" height="546.4"/>
	<g id="XMLID_7452_">
		<g id="XMLID_7457_">
			<rect id="XMLID_12_" x="-1992.4" y="854.7" class="st6" width="742.9" height="123.9"/>
		</g>
		<g id="XMLID_7456_">
		</g>
	</g>
	<g id="XMLID_7445_">
		<g id="XMLID_7450_">
			<rect id="XMLID_11_" x="-1468.4" y="12.3" class="st7" width="155.4" height="553.3"/>
		</g>
		<g id="XMLID_7449_">
		</g>
	</g>
	<g id="XMLID_7438_">
		<g id="XMLID_7443_">
			<rect id="XMLID_10_" x="-1942.5" y="435" class="st8" width="125.3" height="125.6"/>
		</g>
		<g id="XMLID_7442_">
		</g>
	</g>
	<g id="XMLID_7363_">
		<g id="XMLID_7368_">
			<rect id="XMLID_8_" x="-1992.6" y="1511.6" class="st9" width="203.7" height="166.1"/>
		</g>
		<g id="XMLID_7367_">
		</g>
	</g>
	<rect id="XMLID_7362_" x="-1992.4" y="2298.6" class="st10" width="742.9" height="696.4"/>
	<rect id="XMLID_200_" x="-1759.5" y="1273" class="st27" width="126.1" height="27.9"/>
	<text id="XMLID_7007_" transform="matrix(1 0 0 1 -1752.5616 1277.7184)"><tspan x="0" y="0" class="st1 st28 st29">Desplegar items de un JSON con mismas </tspan><tspan x="-0.9" y="10.1" class="st1 st28 st29">caracteristicas, evitar refrescar la pagina al </tspan><tspan x="-4.8" y="20.2" class="st1 st28 st29">cambiar, sino solo  cambiando la informacion</tspan></text>
	<line id="XMLID_7001_" class="st11" x1="-1864" y1="995" x2="-1864" y2="1041"/>
	<line id="XMLID_7000_" class="st12" x1="-1864" y1="901" x2="-1864" y2="995"/>
	<rect id="XMLID_6996_" x="-1992" y="0" class="st0" width="743.3" height="81.7"/>
	<rect id="XMLID_6899_" x="-1942.5" y="546.4" class="st13" width="125.3" height="14.2"/>
	<rect id="XMLID_6898_" x="-1468.4" y="546.4" class="st13" width="155.4" height="19.1"/>
	<line id="XMLID_6897_" class="st11" x1="-1729" y1="1008" x2="-1587" y2="1008"/>
	<line id="XMLID_6896_" class="st11" x1="-1729" y1="1025" x2="-1658" y2="1025"/>
	<rect id="XMLID_6382_" x="-1967.5" y="2586.5" class="st14" width="718" height="408.5"/>
	<rect id="XMLID_1774_" x="-3088.3" y="2298.6" class="st10" width="961.8" height="696.4"/>
	<rect id="XMLID_1770_" x="-3056.1" y="2586.5" class="st15" width="929.6" height="408.5"/>
	<polyline id="XMLID_6315_" class="st16" points="-1920.5,1222 -1920.5,1275.7 -1920.1,1275.5 -1861.3,1275.5 -1861.5,1275.2 
		-1861.5,1340 	"/>
	<rect id="XMLID_1830_" x="-3087.5" y="546.4" class="st0" width="961" height="448.6"/>
	<rect id="XMLID_1829_" x="-3087.5" y="1511.6" class="st0" width="961" height="514.8"/>
	<rect id="XMLID_1828_" x="-3088" y="995.1" class="st1" width="961.5" height="516.5"/>
	<g id="XMLID_1821_">
		<g id="XMLID_1826_">
			<rect id="XMLID_7_" x="-3077.6" y="1346.1" class="st2" width="951.1" height="123.9"/>
		</g>
		<g id="XMLID_1825_">
		</g>
	</g>
	<g id="XMLID_1814_">
		<g id="XMLID_1819_">
			<rect id="XMLID_6_" x="-2384.4" y="1034.9" class="st3" width="257.9" height="123.6"/>
		</g>
		<g id="XMLID_1818_">
		</g>
	</g>
	<line id="XMLID_1813_" class="st4" x1="-2528" y1="2043" x2="-2528" y2="1793"/>
	<line id="XMLID_1812_" class="st5" x1="-2480" y1="2043" x2="-2480" y2="1939"/>
	<rect id="XMLID_1811_" x="-3087.5" class="st1" width="961.5" height="546.4"/>
	<g id="XMLID_1804_">
		<g id="XMLID_1809_">
			<rect id="XMLID_5_" x="-3088" y="854.7" class="st6" width="961.5" height="123.9"/>
		</g>
		<g id="XMLID_1808_">
		</g>
	</g>
	<g id="XMLID_1797_">
		<g id="XMLID_1802_">
			<rect id="XMLID_4_" x="-2409.9" y="12.3" class="st7" width="206.8" height="553.3"/>
		</g>
		<g id="XMLID_1801_">
		</g>
	</g>
	<g id="XMLID_1783_">
		<g id="XMLID_1788_">
			<rect id="XMLID_9_" x="-3088" y="2023.8" class="st9" width="961.5" height="274.8"/>
		</g>
		<g id="XMLID_1787_">
		</g>
	</g>
	<g id="XMLID_1776_">
		<g id="XMLID_1781_">
			<rect id="XMLID_15_" x="-3088.3" y="1511.6" class="st9" width="263.7" height="166.1"/>
		</g>
		<g id="XMLID_1780_">
		</g>
	</g>
	<rect id="XMLID_132_" x="-2786.6" y="1273" class="st27" width="163.2" height="27.9"/>
	<text id="XMLID_1772_" transform="matrix(1.2943 0 0 1 -2777.6396 1277.7185)"><tspan x="0" y="0" class="st1 st28 st29">Desplegar items de un JSON con mismas </tspan><tspan x="-0.9" y="10.1" class="st1 st28 st29">caracteristicas, evitar refrescar la pagina al </tspan><tspan x="-4.8" y="20.2" class="st1 st28 st29">cambiar, sino solo  cambiando la informacion</tspan></text>
	<line id="XMLID_1767_" class="st11" x1="-2922" y1="995" x2="-2922" y2="1041"/>
	<line id="XMLID_1766_" class="st12" x1="-2922" y1="901" x2="-2922" y2="995"/>
	<rect id="XMLID_1761_" x="-3087.5" y="0" class="st0" width="962" height="81.7"/>
	<g id="XMLID_3_">
		<g id="XMLID_1790_">
			<g id="XMLID_1795_">
				<rect id="XMLID_225_" x="-3010.4" y="435" class="st8" width="137.9" height="125.6"/>
			</g>
			<g id="XMLID_1794_">
			</g>
		</g>
		<rect id="XMLID_1758_" x="-3010.4" y="546.4" class="st13" width="137.9" height="14.2"/>
	</g>
	<rect id="XMLID_1756_" x="-2409.9" y="546.4" class="st13" width="206.8" height="19.1"/>
	<line id="XMLID_1755_" class="st11" x1="-2747" y1="1008" x2="-2563" y2="1008"/>
	<line id="XMLID_1754_" class="st11" x1="-2747" y1="1025" x2="-2656" y2="1025"/>
	<polyline id="XMLID_1753_" class="st16" points="-2994.5,1222 -2994.5,1275.7 -2994.5,1275.5 -2918.4,1275.5 -2918.5,1275.2 
		-2918.5,1340 	"/>
	<g id="XMLID_2732_">
		<rect id="XMLID_2744_" x="-1889.3" y="565.6" class="st17" width="19.2" height="13.7"/>
		<rect id="XMLID_2733_" x="-1898.8" y="572.4" class="st18" width="19.2" height="13.7"/>
	</g>
	<g id="XMLID_2727_">
		<rect id="XMLID_2731_" x="-1289.5" y="941.8" class="st17" width="19.2" height="13.7"/>
		<rect id="XMLID_2728_" x="-1299.1" y="948.6" class="st0" width="19.2" height="13.7"/>
	</g>
	<g id="XMLID_2689_">
		
			<rect id="XMLID_2705_" x="-1568.5" y="1069.7" transform="matrix(-0.7499 -0.6616 0.6616 -0.7499 -3440.0637 852.4733)" class="st17" width="19.2" height="13.7"/>
		
			<rect id="XMLID_2691_" x="-1580.2" y="1068.5" transform="matrix(-0.7499 -0.6616 0.6616 -0.7499 -3459.7449 842.581)" class="st19" width="19.2" height="13.7"/>
	</g>
	<rect id="XMLID_2684_" x="-1987.9" y="963.6" class="st1" width="19.2" height="13.7"/>
	
		<rect id="XMLID_2682_" x="-1975.4" y="983.8" transform="matrix(0.9214 0.3886 -0.3886 0.9214 230.4708 841.7372)" class="st20" width="19.2" height="13.7"/>
	<g id="XMLID_2662_">
		<rect id="XMLID_2680_" x="-1276.1" y="1497.2" class="st21" width="19.2" height="13.7"/>
		<rect id="XMLID_2665_" x="-1295.7" y="1512.3" class="st22" width="19.2" height="13.7"/>
	</g>
	<g id="XMLID_2661_">
		<g id="XMLID_44_">
			<path id="XMLID_48_" class="st23" d="M-1838.8,698.5c1,0,1-1.6,0-1.6C-1839.8,696.9-1839.8,698.5-1838.8,698.5L-1838.8,698.5z"/>
		</g>
	</g>
	<g id="XMLID_2640_">
		<g id="XMLID_38_">
			<path id="XMLID_42_" class="st23" d="M-1822.2,666.2c1,0,1-1.6,0-1.6C-1823.2,664.7-1823.2,666.2-1822.2,666.2L-1822.2,666.2z"/>
		</g>
	</g>
	<g id="XMLID_1480_">
		<circle id="XMLID_1586_" class="st7" cx="-1271.8" cy="255.7" r="6.2"/>
		<circle id="XMLID_1585_" class="st24" cx="-1271.8" cy="272.9" r="6.2"/>
		<circle id="XMLID_1584_" class="st24" cx="-1271.8" cy="289.5" r="6.2"/>
		<circle id="XMLID_1512_" class="st24" cx="-1271.8" cy="307.2" r="6.2"/>
		<path id="XMLID_1484_" class="st24" d="M-1265.1,323h-0.8v6.8c0,0.6,0,1.2-0.6,1.2h-4.4v-3h-2v3h-4.1c-0.6,0-1.9-0.6-1.9-1.2V323
			h0.5c-0.5,0-0.8-0.3-0.6-0.5l6.7-5.2c0.3-0.2,0.9-0.2,1.2,0l6.7,5.2C-1264.3,322.7-1264.6,323-1265.1,323z"/>
	</g>
	<g id="XMLID_1748_">
		<rect id="XMLID_1750_" x="-2954.6" y="565.6" class="st17" width="24.8" height="13.7"/>
		<rect id="XMLID_1749_" x="-2967" y="572.4" class="st18" width="24.8" height="13.7"/>
	</g>
	<g id="XMLID_1745_">
		<rect id="XMLID_1747_" x="-2178.3" y="941.8" class="st17" width="24.8" height="13.7"/>
		<rect id="XMLID_1746_" x="-2190.8" y="948.6" class="st0" width="24.8" height="13.7"/>
	</g>
	<g id="XMLID_1742_">
		<polygon id="XMLID_1744_" class="st17" points="-2542.1,1075.3 -2523.5,1088 -2511.8,1077.8 -2530.4,1065.1 		"/>
		<polygon id="XMLID_1743_" class="st19" points="-2557.3,1074.1 -2538.7,1086.8 -2527,1076.6 -2545.6,1063.9 		"/>
	</g>
	<rect id="XMLID_1741_" x="-3082.2" y="964.9" class="st1" width="24.8" height="13.7"/>
	<polygon id="XMLID_1740_" class="st20" points="-3045.6,1018 -3068.5,1010.5 -3061.6,998 -3038.7,1005.4 	"/>
	<g id="XMLID_1735_">
		<rect id="XMLID_1739_" x="-2161" y="1497.2" class="st21" width="24.8" height="13.7"/>
		<rect id="XMLID_1736_" x="-2186.4" y="1512.3" class="st22" width="24.8" height="13.7"/>
	</g>
	<g id="XMLID_1476_">
		<g id="XMLID_32_">
			<path id="XMLID_36_" class="st23" d="M-2889.3,698.6c1.1,0,1.1-1.8,0-1.8C-2890.4,696.8-2890.5,698.6-2889.3,698.6L-2889.3,698.6
				z"/>
		</g>
	</g>
	<g id="XMLID_1106_">
		<g id="XMLID_29_">
			<path id="XMLID_52_" class="st23" d="M-2867.8,666.3c1.1,0,1.1-1.8,0-1.8C-2868.9,664.6-2868.9,666.3-2867.8,666.3L-2867.8,666.3
				z"/>
		</g>
	</g>
	<g id="XMLID_5338_">
		<rect id="XMLID_5345_" x="-1419.3" y="2928.4" class="st13" width="15" height="66.6"/>
		<rect id="XMLID_5344_" x="-1401.5" y="2928.4" class="st20" width="15" height="66.6"/>
		<rect id="XMLID_5343_" x="-1437.1" y="2928.4" class="st7" width="15" height="66.6"/>
		<rect id="XMLID_5342_" x="-1383.8" y="2928.4" class="st25" width="15" height="66.6"/>
		<rect id="XMLID_5341_" x="-1366" y="2928.4" class="st0" width="15" height="66.6"/>
		<rect id="XMLID_5340_" x="-1348.3" y="2928.4" class="st26" width="15" height="66.6"/>
		<rect id="XMLID_5339_" x="-1330.5" y="2928.4" class="st1" width="15" height="66.6"/>
	</g>
	<rect id="XMLID_168_" y="546.4" class="st0" width="742.5" height="448.6"/>
	<rect id="XMLID_167_" y="1511.6" class="st0" width="742.5" height="514.8"/>
	<rect id="XMLID_166_" x="-0.4" y="995.1" class="st1" width="742.9" height="516.5"/>
	<rect id="XMLID_149_" class="st1" width="742.9" height="546.4"/>
	<rect id="XMLID_247_" x="862.5" y="-581.5" class="st1" width="742.9" height="546.4"/>
	<g id="XMLID_142_">
		<g id="XMLID_147_">
			<rect id="XMLID_75_" x="-0.4" y="854.7" class="st6" width="742.9" height="123.9"/>
		</g>
		<g id="XMLID_146_">
		</g>
	</g>
	<rect id="XMLID_112_" x="-0.4" y="2298.6" class="st10" width="742.9" height="696.4"/>
	<rect id="XMLID_111_" x="232.5" y="1273" class="st27" width="126.1" height="27.9"/>
	<text id="XMLID_110_" transform="matrix(1 0 0 1 239.4384 1277.7184)"><tspan x="0" y="0" class="st1 st28 st29">Desplegar items de un JSON con mismas </tspan><tspan x="-0.9" y="10.1" class="st1 st28 st29">caracteristicas, evitar refrescar la pagina al </tspan><tspan x="-4.8" y="20.2" class="st1 st28 st29">cambiar, sino solo  cambiando la informacion</tspan></text>
	<rect id="XMLID_102_" x="59.4" y="2586.5" class="st30" width="683.1" height="408.5"/>
	<polyline id="XMLID_101_" class="st16" points="71.5,1222 71.5,1275.7 71.9,1275.5 130.7,1275.5 130.5,1275.2 130.5,1340 	"/>
	<g id="XMLID_113_">
		<g id="XMLID_76_">
			<rect id="XMLID_141_" x="0.4" y="1511.6" class="st9" width="203.7" height="166.1"/>
		</g>
		<g id="XMLID_134_">
		</g>
	</g>
	<g id="XMLID_119_">
		<g id="XMLID_170_">
			<rect id="XMLID_16_" x="-0.4" y="1511.6" class="st9" width="203.7" height="166.1"/>
		</g>
		<g id="XMLID_169_">
		</g>
	</g>
	<g id="XMLID_120_">
		<g id="XMLID_125_">
			<rect id="XMLID_65_" x="-0.2" y="2023.8" class="st9" width="742.9" height="274.8"/>
		</g>
		<g id="XMLID_124_">
		</g>
	</g>
	<g id="XMLID_78_">
		<g id="XMLID_186_">
			<path id="XMLID_190_" class="st23" d="M153.2,698.5c1,0,1-1.6,0-1.6C152.2,696.9,152.2,698.5,153.2,698.5L153.2,698.5z"/>
		</g>
	</g>
	<g id="XMLID_71_">
		<g id="XMLID_180_">
			<path id="XMLID_184_" class="st23" d="M169.8,666.2c1,0,1-1.6,0-1.6C168.8,664.7,168.8,666.2,169.8,666.2L169.8,666.2z"/>
		</g>
	</g>
	<rect id="XMLID_293_" x="862.7" y="58.2" class="st0" width="742.5" height="546.4"/>
	<g id="XMLID_286_">
		<g id="XMLID_228_">
			<rect id="XMLID_229_" x="862.6" y="376.7" class="st6" width="742.9" height="123.9"/>
		</g>
		<g id="XMLID_253_">
		</g>
	</g>
	<g id="XMLID_279_">
		<g id="XMLID_263_">
			<path id="XMLID_446_" class="st23" d="M1016.2,220.5c1,0,1-1.6,0-1.6C1015.2,218.9,1015.2,220.5,1016.2,220.5L1016.2,220.5z"/>
		</g>
	</g>
	<g id="XMLID_272_">
		<g id="XMLID_261_">
			<path id="XMLID_454_" class="st23" d="M1032.8,188.2c1,0,1-1.6,0-1.6C1031.8,186.7,1031.8,188.2,1032.8,188.2L1032.8,188.2z"/>
		</g>
	</g>
	<g id="XMLID_159_">
		<g id="XMLID_164_">
			<rect id="XMLID_68_" x="59.5" y="1346.1" class="st2" width="683" height="123.9"/>
		</g>
		<g id="XMLID_163_">
		</g>
	</g>
	<g id="XMLID_81_">
		<g id="XMLID_2_">
			<rect id="XMLID_17_" x="538.4" y="1034.9" class="st3" width="204.1" height="123.6"/>
		</g>
		<g id="XMLID_18_">
		</g>
	</g>
	<rect id="XMLID_310_" x="872.6" y="773.1" class="st1" width="742.9" height="546"/>
	<rect id="XMLID_309_" x="1105.5" y="1051" class="st27" width="126.1" height="27.9"/>
	<text id="XMLID_308_" transform="matrix(1 0 0 1 1112.4385 1055.7184)"><tspan x="0" y="0" class="st1 st28 st29">Desplegar items de un JSON con mismas </tspan><tspan x="-0.9" y="10.1" class="st1 st28 st29">caracteristicas, evitar refrescar la pagina al </tspan><tspan x="-4.8" y="20.2" class="st1 st28 st29">cambiar, sino solo  cambiando la informacion</tspan></text>
	<polyline id="XMLID_307_" class="st16" points="944.5,1000 944.5,1053.7 944.9,1053.5 1003.7,1053.5 1003.5,1053.2 1003.5,1118 	
		"/>
	<g id="XMLID_300_">
		<g id="XMLID_305_">
			<rect id="XMLID_231_" x="932.5" y="1108.7" class="st2" width="683" height="123.9"/>
		</g>
		<g id="XMLID_304_">
		</g>
	</g>
	<g id="XMLID_292_">
		<g id="XMLID_298_">
			<rect id="XMLID_230_" x="1411.4" y="812.9" class="st3" width="204.1" height="123.6"/>
		</g>
		<g id="XMLID_297_">
		</g>
	</g>
	<g id="XMLID_1724_">
		<rect id="XMLID_1769_" x="-2346.4" y="2928.4" class="st13" width="19.4" height="66.6"/>
		<rect id="XMLID_1760_" x="-2323.4" y="2928.4" class="st20" width="19.4" height="66.6"/>
		<rect id="XMLID_1759_" x="-2369.4" y="2928.4" class="st7" width="19.4" height="66.6"/>
		<rect id="XMLID_1738_" x="-2300.4" y="2928.4" class="st25" width="19.4" height="66.6"/>
		<rect id="XMLID_1737_" x="-2277.4" y="2928.4" class="st0" width="19.4" height="66.6"/>
		<rect id="XMLID_1727_" x="-2254.4" y="2928.4" class="st26" width="19.4" height="66.6"/>
		<rect id="XMLID_1725_" x="-2231.4" y="2928.4" class="st1" width="19.4" height="66.6"/>
	</g>
</g>
<g id="vectors">
	<line id="XMLID_109_" class="st11" x1="132" y1="995" x2="132" y2="1041"/>
	<line id="XMLID_108_" class="st12" x1="132" y1="901" x2="132" y2="995"/>
	<line id="XMLID_104_" class="st11" x1="257" y1="1008" x2="406" y2="1008"/>
	<line id="XMLID_103_" class="st11" x1="257" y1="1025" x2="331" y2="1025"/>
	<g id="XMLID_98_">
		<rect id="XMLID_100_" x="107" y="575.8" class="st17" width="19.2" height="13.7"/>
		<rect id="XMLID_99_" x="97.4" y="582.6" class="st18" width="19.2" height="13.7"/>
	</g>
	<rect id="XMLID_227_" x="63.4" y="134.1" class="st17" width="19.2" height="13.7"/>
	<rect id="XMLID_226_" x="59.5" y="127.3" class="st8" width="19.2" height="13.7"/>
	<rect id="XMLID_91_" x="25.9" y="963.6" class="st1" width="19.2" height="13.7"/>
	
		<rect id="XMLID_90_" x="38.4" y="1001.2" transform="matrix(0.9214 0.3886 -0.3886 0.9214 395.4768 60.5511)" class="st20" width="19.2" height="13.7"/>
	<g id="XMLID_95_">
		<rect id="XMLID_97_" x="692.6" y="941.8" class="st17" width="19.2" height="13.7"/>
		<rect id="XMLID_96_" x="683" y="948.6" class="st0" width="19.2" height="13.7"/>
	</g>
	<g id="XMLID_92_">
		
			<rect id="XMLID_94_" x="430.2" y="1069.7" transform="matrix(-0.7499 -0.6616 0.6616 -0.7499 57.2415 2174.771)" class="st17" width="19.2" height="13.7"/>
		
			<rect id="XMLID_93_" x="418.4" y="1068.5" transform="matrix(-0.7499 -0.6616 0.6616 -0.7499 37.5602 2164.8787)" class="st19" width="19.2" height="13.7"/>
	</g>
	<g id="XMLID_151_">
		<g id="XMLID_70_">
			<g id="XMLID_56_">
				<rect id="XMLID_88_" x="59.4" y="434.8" class="st8" width="106.6" height="125.6"/>
			</g>
			<g id="XMLID_87_">
			</g>
		</g>
		<rect id="XMLID_69_" x="59.4" y="546.2" class="st13" width="106.6" height="14.2"/>
	</g>
	<g id="XMLID_1_">
		<g id="XMLID_118_">
			<g id="XMLID_154_">
				<rect id="XMLID_117_" x="522.8" y="12.3" class="st7" width="160.2" height="553.3"/>
			</g>
			<g id="XMLID_153_">
			</g>
		</g>
		<rect id="XMLID_67_" x="522.8" y="546.4" class="st13" width="160.2" height="19.1"/>
	</g>
	<line id="XMLID_451_" class="st12" x1="1005" y1="704" x2="1005" y2="772"/>
	<g id="XMLID_299_">
		<rect id="XMLID_453_" x="970" y="97.8" class="st17" width="19.2" height="13.7"/>
		<rect id="XMLID_452_" x="960.4" y="104.6" class="st18" width="19.2" height="13.7"/>
	</g>
	<rect id="XMLID_450_" x="888.9" y="748.5" class="st1" width="19.2" height="13.7"/>
	<g id="XMLID_254_">
		<rect id="XMLID_256_" x="1555.6" y="463.8" class="st17" width="19.2" height="13.7"/>
		<rect id="XMLID_255_" x="1546" y="470.6" class="st0" width="19.2" height="13.7"/>
	</g>
	<rect id="XMLID_252_" x="922.4" y="58.5" class="st13" width="106.6" height="14.2"/>
	<rect id="XMLID_249_" x="1385.8" y="58.7" class="st13" width="160.2" height="19.1"/>
	<rect id="XMLID_590_" x="925.9" y="-447.4" class="st17" width="19.2" height="13.7"/>
	<rect id="XMLID_589_" x="922" y="-454.2" class="st8" width="19.2" height="13.7"/>
	<g id="XMLID_260_">
		<g id="XMLID_563_">
			<g id="XMLID_587_">
				<rect id="XMLID_137_" x="921.9" y="-146.8" class="st8" width="106.6" height="111.7"/>
			</g>
			<g id="XMLID_586_">
			</g>
		</g>
	</g>
	<g id="XMLID_234_">
		<g id="XMLID_235_">
			<g id="XMLID_258_">
				<rect id="XMLID_107_" x="1385.3" y="-569.2" class="st7" width="160.2" height="534.2"/>
			</g>
			<g id="XMLID_257_">
			</g>
		</g>
	</g>
	<g id="XMLID_66_">
		<g id="XMLID_85_">
			<rect id="XMLID_89_" x="715.9" y="1497.2" class="st21" width="19.2" height="13.7"/>
			<rect id="XMLID_86_" x="696.3" y="1512.3" class="st22" width="19.2" height="13.7"/>
		</g>
		<line id="XMLID_173_" class="st4" x1="432" y1="2043" x2="432" y2="1793"/>
		<line id="XMLID_172_" class="st5" x1="470" y1="2043" x2="470" y2="1939"/>
	</g>
	<line id="XMLID_447_" class="st11" x1="1005" y1="773" x2="1005" y2="819"/>
	<line id="XMLID_340_" class="st11" x1="1130" y1="786" x2="1279" y2="786"/>
	<line id="XMLID_285_" class="st11" x1="1130" y1="803" x2="1204" y2="803"/>
	
		<rect id="XMLID_284_" x="911.4" y="779.2" transform="matrix(0.9214 0.3886 -0.3886 0.9214 377.8186 -296.1372)" class="st20" width="19.2" height="13.7"/>
	<g id="XMLID_281_">
		
			<rect id="XMLID_283_" x="1303.2" y="847.7" transform="matrix(-0.7499 -0.6616 0.6616 -0.7499 1731.7401 2363.8828)" class="st17" width="19.2" height="13.7"/>
		
			<rect id="XMLID_282_" x="1291.4" y="846.5" transform="matrix(-0.7499 -0.6616 0.6616 -0.7499 1712.0587 2353.9905)" class="st19" width="19.2" height="13.7"/>
	</g>
	<rect id="XMLID_333_" x="863" y="1406.6" class="st0" width="742.5" height="546.4"/>
	<g id="XMLID_326_">
		<g id="XMLID_331_">
			<rect id="XMLID_325_" x="863.4" y="1406.6" class="st9" width="203.7" height="166.1"/>
		</g>
		<g id="XMLID_330_">
		</g>
	</g>
	<g id="XMLID_319_">
		<g id="XMLID_324_">
			<rect id="XMLID_318_" x="862.6" y="1406.6" class="st9" width="203.7" height="166.1"/>
		</g>
		<g id="XMLID_323_">
		</g>
	</g>
	<rect id="XMLID_264_" x="1559.3" y="1407.3" class="st22" width="19.2" height="13.7"/>
	<line id="XMLID_245_" class="st4" x1="1295" y1="1938" x2="1295" y2="1688"/>
	<line id="XMLID_243_" class="st5" x1="1333" y1="1938" x2="1333" y2="1834"/>
	<rect id="XMLID_266_" x="1579.3" y="1393.6" class="st21" width="19.2" height="13.7"/>
	<g id="XMLID_57_">
		<rect id="XMLID_64_" x="579.3" y="2928.4" class="st13" width="15" height="66.6"/>
		<rect id="XMLID_63_" x="597" y="2928.4" class="st20" width="15" height="66.6"/>
		<rect id="XMLID_62_" x="561.5" y="2928.4" class="st7" width="15" height="66.6"/>
		<rect id="XMLID_61_" x="614.8" y="2928.4" class="st25" width="15" height="66.6"/>
		<rect id="XMLID_60_" x="632.6" y="2928.4" class="st0" width="15" height="66.6"/>
		<rect id="XMLID_59_" x="650.3" y="2928.4" class="st26" width="15" height="66.6"/>
		<rect id="XMLID_58_" x="668.1" y="2928.4" class="st1" width="15" height="66.6"/>
	</g>
	<g id="XMLID_241_">
		<rect id="XMLID_240_" x="862.8" y="2252.8" class="st10" width="742.9" height="271.6"/>
		<rect id="XMLID_339_" x="922.6" y="2307.5" class="st30" width="683.1" height="217"/>
		<g id="XMLID_312_">
			<g id="XMLID_317_">
				<rect id="XMLID_232_" x="862.8" y="1978" class="st9" width="742.9" height="274.8"/>
			</g>
			<g id="XMLID_316_">
			</g>
		</g>
		<g id="XMLID_273_">
			<rect id="XMLID_338_" x="1442.5" y="2457.9" class="st13" width="15" height="66.6"/>
			<rect id="XMLID_337_" x="1460.2" y="2457.9" class="st20" width="15" height="66.6"/>
			<rect id="XMLID_336_" x="1424.7" y="2457.9" class="st7" width="15" height="66.6"/>
			<rect id="XMLID_335_" x="1478" y="2457.9" class="st25" width="15" height="66.6"/>
			<rect id="XMLID_334_" x="1495.8" y="2457.9" class="st0" width="15" height="66.6"/>
			<rect id="XMLID_332_" x="1513.5" y="2457.9" class="st26" width="15" height="66.6"/>
			<rect id="XMLID_311_" x="1531.3" y="2457.9" class="st1" width="15" height="66.6"/>
		</g>
	</g>
	<g id="XMLID_150_">
		<line id="XMLID_194_" class="st31" x1="683" y1="-131.7" x2="683" y2="3239"/>
		<g id="XMLID_185_">
			<line id="XMLID_193_" class="st32" x1="683" y1="-131.7" x2="683" y2="-125.7"/>
			<line id="XMLID_192_" class="st33" x1="683" y1="-113.6" x2="683" y2="3227"/>
			<line id="XMLID_191_" class="st32" x1="683" y1="3233" x2="683" y2="3239"/>
		</g>
	</g>
	<g id="XMLID_155_">
		<line id="XMLID_209_" class="st31" x1="59.4" y1="3062.4" x2="59.4" y2="-308.3"/>
		<g id="XMLID_205_">
			<line id="XMLID_208_" class="st32" x1="59.4" y1="3062.4" x2="59.4" y2="3056.4"/>
			<line id="XMLID_207_" class="st33" x1="59.4" y1="3044.3" x2="59.4" y2="-296.3"/>
			<line id="XMLID_206_" class="st32" x1="59.4" y1="-302.3" x2="59.4" y2="-308.3"/>
		</g>
	</g>
	<rect id="XMLID_479_" x="-1336.4" y="-1325.9" class="st1" width="1025.9" height="713.2"/>
	<rect id="XMLID_460_" x="-1014.8" y="-942.2" class="st27" width="174.2" height="38.6"/>
	<text id="XMLID_459_" transform="matrix(1 0 0 1 -1005.205 -935.5867)"><tspan x="0" y="0" class="st1 st28" style="font-size:8.6179px;">Desplegar items de un JSON con mismas </tspan><tspan x="-1.3" y="13.9" class="st1 st28" style="font-size:8.6179px;">caracteristicas, evitar refrescar la pagina al </tspan><tspan x="-6.7" y="27.9" class="st1 st28" style="font-size:8.6179px;">cambiar, sino solo  cambiando la informacion</tspan></text>
	<polyline id="XMLID_458_" class="st16" points="-1237.5,-1013 -1237.5,-938.4 -1236.6,-938.5 -1155.4,-938.5 -1155.5,-939.1 
		-1155.5,-850 	"/>
	<g id="XMLID_386_">
		<g id="XMLID_406_">
			<rect id="XMLID_414_" x="-1253.6" y="-841.2" class="st2" width="943.2" height="171.1"/>
		</g>
		<g id="XMLID_391_">
		</g>
	</g>
	<g id="XMLID_290_">
		<g id="XMLID_384_">
			<rect id="XMLID_385_" x="-592.4" y="-1270.9" class="st3" width="281.9" height="170.7"/>
		</g>
		<g id="XMLID_383_">
		</g>
	</g>
	<line id="XMLID_278_" class="st11" x1="-1154" y1="-1326" x2="-1154" y2="-1262"/>
	<line id="XMLID_277_" class="st11" x1="-981" y1="-1308" x2="-775" y2="-1308"/>
	<line id="XMLID_274_" class="st11" x1="-981" y1="-1285" x2="-879" y2="-1285"/>
	
		<rect id="XMLID_271_" x="-1282.8" y="-1317.5" transform="matrix(0.9214 0.3886 -0.3886 0.9214 -608.0691 390.5232)" class="st20" width="26.5" height="18.9"/>
	<g id="XMLID_268_">
		
			<rect id="XMLID_270_" x="-741.8" y="-1222.8" transform="matrix(-0.7499 -0.6616 0.6616 -0.7499 -472.1562 -2605.2493)" class="st17" width="26.5" height="18.9"/>
		
			<rect id="XMLID_269_" x="-758" y="-1224.5" transform="matrix(-0.7499 -0.6616 0.6616 -0.7499 -499.3347 -2618.9097)" class="st19" width="26.5" height="18.9"/>
	</g>
	<rect id="XMLID_267_" x="-347.3" y="-632.6" class="st21" width="26.5" height="18.9"/>
	<line id="XMLID_522_" class="st27" x1="-257" y1="-1325.5" x2="-257" y2="-605.5"/>
	<rect id="XMLID_562_" class="st34" width="742.9" height="546.4"/>
	<rect id="XMLID_238_" x="1676.8" y="1338.1" class="st34" width="742.9" height="546.4"/>
	<rect id="XMLID_280_" x="1676.8" y="698.3" class="st34" width="742.9" height="546.4"/>
	<rect id="XMLID_244_" x="1676.8" y="58.4" class="st34" width="742.9" height="546.4"/>
	<rect id="XMLID_246_" x="1676.8" y="-581.5" class="st34" width="742.9" height="546.4"/>
	<rect id="XMLID_237_" x="1676.8" y="1978" class="st34" width="742.9" height="546.4"/>
	<rect id="XMLID_564_" x="0.2" y="546.7" class="st34" width="742.9" height="546.4"/>
	<rect id="XMLID_565_" x="0.2" y="995.1" class="st34" width="742.9" height="546.4"/>
	<rect id="XMLID_566_" x="0.2" y="1504" class="st34" width="742.9" height="546.4"/>
</g>
<g id="Capa_3">
	<g id="XMLID_216_">
		<line id="XMLID_215_" class="st35" x1="682.8" y1="0.5" x2="682.8" y2="2423"/>
		<line id="XMLID_214_" class="st35" x1="59.5" y1="0.5" x2="59.5" y2="2423"/>
		<line id="XMLID_213_" class="st35" x1="644.8" y1="0.5" x2="644.8" y2="2423"/>
		<line id="XMLID_212_" class="st35" x1="629.3" y1="0.5" x2="629.3" y2="2423"/>
		<line id="XMLID_211_" class="st35" x1="591.9" y1="0.5" x2="591.9" y2="2423"/>
		<line id="XMLID_210_" class="st35" x1="576.3" y1="0.5" x2="576.3" y2="2423"/>
		<line id="XMLID_203_" class="st35" x1="166" y1="0.5" x2="166" y2="2423"/>
		<line id="XMLID_202_" class="st35" x1="150.4" y1="0.5" x2="150.4" y2="2423"/>
		<line id="XMLID_201_" class="st35" x1="113" y1="0.5" x2="113" y2="2423"/>
		<line id="XMLID_199_" class="st35" x1="97.4" y1="0.5" x2="97.4" y2="2423"/>
		<line id="XMLID_198_" class="st35" x1="538.4" y1="0.5" x2="538.4" y2="2423"/>
		<line id="XMLID_197_" class="st35" x1="522.8" y1="0.5" x2="522.8" y2="2423"/>
		<line id="XMLID_196_" class="st35" x1="485.4" y1="0.5" x2="485.4" y2="2423"/>
		<line id="XMLID_195_" class="st35" x1="469.8" y1="0.5" x2="469.8" y2="2423"/>
		<line id="XMLID_178_" class="st35" x1="431.9" y1="0.5" x2="431.9" y2="2423"/>
		<line id="XMLID_177_" class="st35" x1="416.3" y1="0.5" x2="416.3" y2="2423"/>
		<line id="XMLID_174_" class="st35" x1="378.9" y1="0.5" x2="378.9" y2="2423"/>
		<line id="XMLID_171_" class="st35" x1="363.4" y1="0.5" x2="363.4" y2="2423"/>
		<line id="XMLID_165_" class="st35" x1="326" y1="0.5" x2="326" y2="2423"/>
		<line id="XMLID_158_" class="st35" x1="310.4" y1="0.5" x2="310.4" y2="2423"/>
		<line id="XMLID_156_" class="st35" x1="272.5" y1="0.5" x2="272.5" y2="2423"/>
		<line id="XMLID_140_" class="st35" x1="256.9" y1="0.5" x2="256.9" y2="2423"/>
		<line id="XMLID_139_" class="st35" x1="219.5" y1="0.5" x2="219.5" y2="2423"/>
		<line id="XMLID_138_" class="st35" x1="203.9" y1="0.5" x2="203.9" y2="2423"/>
	</g>
	<g id="XMLID_20_">
		<rect id="XMLID_224_" x="-3087.5" class="st36" width="961.5" height="81.6"/>
		<line id="XMLID_223_" class="st35" x1="-2203.1" y1="0.5" x2="-2203.1" y2="2423"/>
		<line id="XMLID_222_" class="st35" x1="-3010.4" y1="0.5" x2="-3010.4" y2="2423"/>
		<line id="XMLID_221_" class="st35" x1="-2252.2" y1="0.5" x2="-2252.2" y2="2423"/>
		<line id="XMLID_220_" class="st35" x1="-2272.4" y1="0.5" x2="-2272.4" y2="2423"/>
		<line id="XMLID_219_" class="st35" x1="-2320.9" y1="0.5" x2="-2320.9" y2="2423"/>
		<line id="XMLID_218_" class="st35" x1="-2341.1" y1="0.5" x2="-2341.1" y2="2423"/>
		<line id="XMLID_217_" class="st35" x1="-2872.5" y1="0.5" x2="-2872.5" y2="2423"/>
		<line id="XMLID_136_" class="st35" x1="-2892.7" y1="0.5" x2="-2892.7" y2="2423"/>
		<line id="XMLID_135_" class="st35" x1="-2941.1" y1="0.5" x2="-2941.1" y2="2423"/>
		<line id="XMLID_130_" class="st35" x1="-2961.3" y1="0.5" x2="-2961.3" y2="2423"/>
		<line id="XMLID_129_" class="st35" x1="-2390.2" y1="0.5" x2="-2390.2" y2="2423"/>
		<line id="XMLID_128_" class="st35" x1="-2410.3" y1="0.5" x2="-2410.3" y2="2423"/>
		<line id="XMLID_127_" class="st35" x1="-2458.8" y1="0.5" x2="-2458.8" y2="2423"/>
		<line id="XMLID_106_" class="st35" x1="-2479" y1="0.5" x2="-2479" y2="2423"/>
		<line id="XMLID_105_" class="st35" x1="-2528.1" y1="0.5" x2="-2528.1" y2="2423"/>
		<line id="XMLID_74_" class="st35" x1="-2548.3" y1="0.5" x2="-2548.3" y2="2423"/>
		<line id="XMLID_73_" class="st35" x1="-2596.7" y1="0.5" x2="-2596.7" y2="2423"/>
		<line id="XMLID_72_" class="st35" x1="-2616.9" y1="0.5" x2="-2616.9" y2="2423"/>
		<line id="XMLID_55_" class="st35" x1="-2665.3" y1="0.5" x2="-2665.3" y2="2423"/>
		<line id="XMLID_54_" class="st35" x1="-2685.5" y1="0.5" x2="-2685.5" y2="2423"/>
		<line id="XMLID_53_" class="st35" x1="-2734.6" y1="0.5" x2="-2734.6" y2="2423"/>
		<line id="XMLID_28_" class="st35" x1="-2754.8" y1="0.5" x2="-2754.8" y2="2423"/>
		<line id="XMLID_27_" class="st35" x1="-2803.2" y1="0.5" x2="-2803.2" y2="2423"/>
		<line id="XMLID_25_" class="st35" x1="-2823.4" y1="0.5" x2="-2823.4" y2="2423"/>
	</g>
</g>
</svg>
