<?xml version="1.0" encoding="utf-8"?>
<!-- Generator: Adobe Illustrator 19.0.0, SVG Export Plug-In . SVG Version: 6.00 Build 0)  -->
<svg version="1.1" id="Capa_1" xmlns="http://www.w3.org/2000/svg" xmlns:xlink="http://www.w3.org/1999/xlink" x="0px" y="0px"
	 viewBox="124 52.9 1440 736" style="enable-background:new 124 52.9 1440 736;" xml:space="preserve">
<style type="text/css">
	.st0{fill:#E9EBED;}
	.st1{fill:#242829;}
	.st2{fill:#C7DFE3;}
	.st3{fill:#D3E3E8;}
	.st4{fill:none;stroke:#9EB89C;stroke-width:2;stroke-miterlimit:10;}
	.st5{fill:none;stroke:#515151;stroke-width:2;stroke-miterlimit:10;}
	.st6{fill:#E2DBBD;}
	.st7{fill:#CDA7A3;}
	.st8{opacity:0.17;}
	.st9{opacity:4.000000e-002;}
	.st10{opacity:5.000000e-002;}
	.st11{fill:#AC7D7D;}
	.st12{fill:#8DA488;}
	.st13{fill:#181819;}
	.st14{fill:none;}
	.st15{fill:none;stroke:#E9EBED;stroke-width:2;stroke-miterlimit:10;}
	.st16{fill:none;stroke:#242829;stroke-width:2;stroke-miterlimit:10;}
	.st17{fill:#ECE09E;}
	.st18{opacity:0.13;fill:#ECE09E;enable-background:new    ;}
	.st19{opacity:6.000000e-002;fill:#ECE09E;enable-background:new    ;}
	.st20{fill:none;stroke:#FFFFFF;stroke-width:0.5201;stroke-miterlimit:10;}
	.st21{fill:none;stroke:#FFFFFF;stroke-width:0.5917;stroke-miterlimit:10;}
	.st22{fill:none;stroke:#242829;stroke-miterlimit:10;}
	.st23{fill:#706E6A;}
	.st24{fill:#DDC241;}
	.st25{fill:#86ACB9;}
	.st26{fill:#C5E0EC;}
	.st27{fill:#AFD4E3;}
	.st28{fill:#9EB89C;}
	.st29{fill:#ECE3B5;}
	.st30{fill:#030104;}
	.st31{fill:#B5D1B0;}
	.st32{fill:#99989D;}
	.st33{fill:none;stroke:#FFFFFF;stroke-width:0.5059;stroke-miterlimit:10;}
	.st34{fill:none;stroke:#000000;stroke-width:2;stroke-miterlimit:10;}
	.st35{fill:none;stroke:#000000;stroke-width:2;stroke-miterlimit:10;stroke-dasharray:12.0382,12.0382;}
	.st36{fill:#FFFFFF;stroke:#000000;stroke-width:0.5194;stroke-miterlimit:10;}
	.st37{fill:none;stroke:#5FAAAC;stroke-width:0.75;stroke-miterlimit:10;}
	.st38{opacity:2.000000e-002;}
	.st39{fill:#C7A29E;}
	.st40{opacity:9.000000e-002;}
	.st41{opacity:3.000000e-002;}
</style>
<g id="Capa_1_1_">
	<rect id="XMLID_1595_" x="-53.5" y="1951.9" class="st0" width="742.5" height="448.6"/>
	<rect id="XMLID_7476_" x="-53.9" y="2400.6" class="st1" width="742.9" height="516.5"/>
	<g id="XMLID_7469_">
		<g id="XMLID_7474_">
			<rect id="XMLID_14_" x="-45.9" y="2751.6" class="st2" width="734.8" height="123.9"/>
		</g>
		<g id="XMLID_7473_">
		</g>
	</g>
	<g id="XMLID_7462_">
		<g id="XMLID_7467_">
			<rect id="XMLID_13_" x="489.7" y="2440.4" class="st3" width="199.2" height="123.6"/>
		</g>
		<g id="XMLID_7466_">
		</g>
	</g>
	<line id="XMLID_7461_" class="st4" x1="378.5" y1="3448.5" x2="378.5" y2="3198.5"/>
	<line id="XMLID_7460_" class="st5" x1="416.5" y1="3448.5" x2="416.5" y2="3344.5"/>
	<rect id="XMLID_7459_" x="-53.5" y="1405.5" class="st1" width="742.9" height="546.4"/>
	<g id="XMLID_7452_">
		<g id="XMLID_7457_">
			<rect id="XMLID_12_" x="-53.9" y="2260.1" class="st6" width="742.9" height="123.9"/>
		</g>
		<g id="XMLID_7456_">
		</g>
	</g>
	<g id="XMLID_7445_">
		<g id="XMLID_7450_">
			<rect id="XMLID_11_" x="470" y="1417.8" class="st7" width="155.4" height="553.3"/>
		</g>
		<g id="XMLID_7449_">
		</g>
	</g>
	<g id="XMLID_229_" class="st8">
		<g id="XMLID_234_">
			<rect id="XMLID_235_" x="240.2" y="1674.5" class="st7" width="83.3" height="296.5"/>
		</g>
		<g id="XMLID_233_">
		</g>
	</g>
	<g id="XMLID_250_" class="st9">
		<g id="XMLID_255_">
			<rect id="XMLID_228_" x="156.9" y="1828.6" class="st7" width="34.6" height="123.3"/>
		</g>
		<g id="XMLID_254_">
		</g>
	</g>
	<g id="XMLID_236_" class="st10">
		<g id="XMLID_241_">
			<rect id="XMLID_242_" x="415.7" y="1729.6" class="st7" width="67.8" height="241.5"/>
		</g>
		<g id="XMLID_240_">
		</g>
	</g>
	<g id="XMLID_243_" class="st10">
		<g id="XMLID_248_">
			<rect id="XMLID_249_" x="-53.5" y="1587.2" class="st7" width="107.8" height="383.9"/>
		</g>
		<g id="XMLID_247_">
		</g>
	</g>
	<g id="XMLID_7438_">
		<g id="XMLID_7443_">
			<rect id="XMLID_10_" x="-4" y="1840.5" class="st11" width="125.3" height="125.6"/>
		</g>
		<g id="XMLID_7442_">
		</g>
	</g>
	<g id="XMLID_7363_">
		<g id="XMLID_7368_">
			<rect id="XMLID_8_" x="-54.1" y="2917.1" class="st12" width="203.7" height="166.1"/>
		</g>
		<g id="XMLID_7367_">
		</g>
	</g>
	<rect id="XMLID_7362_" x="-53.9" y="3704.1" class="st13" width="742.9" height="696.4"/>
	<rect id="XMLID_200_" x="179" y="2678.5" class="st14" width="126.1" height="27.9"/>
	<text transform="matrix(1 0 0 1 185.9001 2683.2026)" class="st1" style="font-family:'Roboto-Thin'; font-size:6.2407px;">Desplegar items de un JSON con mismas </text>
	<text transform="matrix(1 0 0 1 185.0001 2693.3027)" class="st1" style="font-family:'Roboto-Thin'; font-size:6.2407px;">caracteristicas, evitar refrescar la pagina al </text>
	<text transform="matrix(1 0 0 1 181.1001 2703.4026)" class="st1" style="font-family:'Roboto-Thin'; font-size:6.2407px;">cambiar, sino solo  cambiando la informacion</text>
	<line id="XMLID_7001_" class="st15" x1="74.5" y1="2400.5" x2="74.5" y2="2446.5"/>
	<line id="XMLID_7000_" class="st16" x1="74.5" y1="2306.5" x2="74.5" y2="2400.5"/>
	<rect id="XMLID_6996_" x="-53.5" y="1405.5" class="st0" width="743.3" height="81.7"/>
	<rect id="XMLID_6899_" x="-4" y="1951.9" class="st17" width="125.3" height="14.2"/>
	<rect id="XMLID_6898_" x="470" y="1951.9" class="st17" width="155.4" height="19.1"/>
	<rect id="XMLID_257_" x="240.2" y="1951.9" class="st18" width="83.3" height="227.9"/>
	<rect id="XMLID_258_" x="-55.2" y="2096.5" class="st18" width="227.9" height="83.3"/>
	<rect id="XMLID_259_" x="605.5" y="2070.9" class="st19" width="83.9" height="108.9"/>
	<line id="XMLID_6897_" class="st15" x1="209.5" y1="2413.5" x2="351.5" y2="2413.5"/>
	<line id="XMLID_6896_" class="st15" x1="209.5" y1="2430.5" x2="280.5" y2="2430.5"/>
	<rect id="XMLID_6382_" x="-29" y="3992" class="st20" width="718" height="408.5"/>
	<rect id="XMLID_1774_" x="-1149.8" y="3704.1" class="st13" width="961.8" height="696.4"/>
	<rect id="XMLID_1770_" x="-1117.6" y="3992" class="st21" width="929.6" height="408.5"/>
	<polyline id="XMLID_6315_" class="st22" points="18,2627.5 18,2681.2 18.4,2681 77.1,2681 77,2680.7 77,2745.5 	"/>
	<rect id="XMLID_1830_" x="-1149.1" y="1951.9" class="st0" width="961" height="448.6"/>
	<rect id="XMLID_1829_" x="-1149.1" y="2917.1" class="st0" width="961" height="514.8"/>
	<rect id="XMLID_1828_" x="-1149.6" y="2400.6" class="st1" width="961.5" height="516.5"/>
	<g id="XMLID_1821_">
		<g id="XMLID_1826_">
			<rect id="XMLID_7_" x="-1139.1" y="2751.6" class="st2" width="951.1" height="123.9"/>
		</g>
		<g id="XMLID_1825_">
		</g>
	</g>
	<g id="XMLID_1814_">
		<g id="XMLID_1819_">
			<rect id="XMLID_6_" x="-445.9" y="2440.4" class="st3" width="257.9" height="123.6"/>
		</g>
		<g id="XMLID_1818_">
		</g>
	</g>
	<line id="XMLID_1813_" class="st4" x1="-589.5" y1="3448.5" x2="-589.5" y2="3198.5"/>
	<line id="XMLID_1812_" class="st5" x1="-541.5" y1="3448.5" x2="-541.5" y2="3344.5"/>
	<rect id="XMLID_1811_" x="-1149.1" y="1405.5" class="st1" width="961.5" height="546.4"/>
	<g id="XMLID_1804_">
		<g id="XMLID_1809_">
			<rect id="XMLID_5_" x="-1149.6" y="2260.1" class="st6" width="961.5" height="123.9"/>
		</g>
		<g id="XMLID_1808_">
		</g>
	</g>
	<g id="XMLID_1797_">
		<g id="XMLID_1802_">
			<rect id="XMLID_4_" x="-471.4" y="1417.8" class="st7" width="206.8" height="553.3"/>
		</g>
		<g id="XMLID_1801_">
		</g>
	</g>
	<g id="XMLID_1783_">
		<g id="XMLID_1788_">
			<rect id="XMLID_9_" x="-1149.6" y="3429.3" class="st12" width="961.5" height="274.8"/>
		</g>
		<g id="XMLID_1787_">
		</g>
	</g>
	<g id="XMLID_1776_">
		<g id="XMLID_1781_">
			<rect id="XMLID_15_" x="-1149.8" y="2917.1" class="st12" width="263.7" height="166.1"/>
		</g>
		<g id="XMLID_1780_">
		</g>
	</g>
	<rect id="XMLID_132_" x="-848.1" y="2678.5" class="st14" width="163.2" height="27.9"/>
	<text transform="matrix(1.2943 0 0 1 -839.1778 2683.2029)" class="st1" style="font-family:'Roboto-Thin'; font-size:6.2407px;">Desplegar items de un JSON con mismas </text>
	<text transform="matrix(1.2943 0 0 1 -840.3419 2693.3035)" class="st1" style="font-family:'Roboto-Thin'; font-size:6.2407px;">caracteristicas, evitar refrescar la pagina al </text>
	<text transform="matrix(1.2943 0 0 1 -845.3901 2703.4031)" class="st1" style="font-family:'Roboto-Thin'; font-size:6.2407px;">cambiar, sino solo  cambiando la informacion</text>
	<line id="XMLID_1767_" class="st15" x1="-983.5" y1="2400.5" x2="-983.5" y2="2446.5"/>
	<line id="XMLID_1766_" class="st16" x1="-983.5" y1="2306.5" x2="-983.5" y2="2400.5"/>
	<rect id="XMLID_1761_" x="-1149.1" y="1405.5" class="st0" width="962" height="81.7"/>
	<g id="XMLID_3_">
		<g id="XMLID_1790_">
			<g id="XMLID_1795_">
				<rect id="XMLID_225_" x="-1072" y="1840.5" class="st11" width="137.9" height="125.6"/>
			</g>
			<g id="XMLID_1794_">
			</g>
		</g>
		<rect id="XMLID_1758_" x="-1072" y="1951.9" class="st17" width="137.9" height="14.2"/>
	</g>
	<rect id="XMLID_1756_" x="-471.4" y="1951.9" class="st17" width="206.8" height="19.1"/>
	<line id="XMLID_1755_" class="st15" x1="-808.5" y1="2413.5" x2="-624.5" y2="2413.5"/>
	<line id="XMLID_1754_" class="st15" x1="-808.5" y1="2430.5" x2="-717.5" y2="2430.5"/>
	<polyline id="XMLID_1753_" class="st22" points="-1056,2627.5 -1056,2681.2 -1056,2681 -980,2681 -980,2680.7 -980,2745.5 	"/>
	<g id="XMLID_2732_">
		<rect id="XMLID_2744_" x="49.2" y="1971" class="st23" width="19.2" height="13.7"/>
		<rect id="XMLID_2733_" x="39.6" y="1977.9" class="st24" width="19.2" height="13.7"/>
	</g>
	<g id="XMLID_2727_">
		<rect id="XMLID_2731_" x="648.9" y="2347.3" class="st23" width="19.2" height="13.7"/>
		<rect id="XMLID_2728_" x="639.4" y="2354.1" class="st0" width="19.2" height="13.7"/>
	</g>
	<g id="XMLID_2689_">
		
			<rect id="XMLID_2705_" x="369.9" y="2475.1" transform="matrix(0.7499 0.6616 -0.6616 0.7499 1736.9302 369.6898)" class="st23" width="19.2" height="13.7"/>
		
			<rect id="XMLID_2691_" x="358.2" y="2473.8" transform="matrix(0.7499 0.6616 -0.6616 0.7499 1733.1752 377.118)" class="st25" width="19.2" height="13.7"/>
	</g>
	<rect id="XMLID_2684_" x="-49.4" y="2369.1" class="st1" width="19.2" height="13.7"/>
	
		<rect id="XMLID_2682_" x="-36.9" y="2389.3" transform="matrix(-0.9214 -0.3886 0.3886 -0.9214 -983.6229 4593.2974)" class="st26" width="19.2" height="13.7"/>
	<g id="XMLID_2662_">
		<rect id="XMLID_2680_" x="662.3" y="2902.6" class="st27" width="19.2" height="13.7"/>
		<rect id="XMLID_2665_" x="642.7" y="2917.8" class="st28" width="19.2" height="13.7"/>
	</g>
	<g id="XMLID_2661_">
		<g id="XMLID_44_">
			<path id="XMLID_48_" class="st29" d="M99.6,2104c1,0,1-1.6,0-1.6S98.6,2104,99.6,2104L99.6,2104z"/>
		</g>
	</g>
	<g id="XMLID_2640_">
		<g id="XMLID_38_">
			<path id="XMLID_42_" class="st29" d="M116.3,2071.7c1,0,1-1.6,0-1.6C115.3,2070.2,115.3,2071.7,116.3,2071.7L116.3,2071.7z"/>
		</g>
	</g>
	<g id="XMLID_1480_">
		<circle id="XMLID_1586_" class="st7" cx="666.6" cy="1661.2" r="6.2"/>
		<circle id="XMLID_1585_" class="st30" cx="666.6" cy="1678.4" r="6.2"/>
		<circle id="XMLID_1584_" class="st30" cx="666.6" cy="1695" r="6.2"/>
		<circle id="XMLID_1512_" class="st30" cx="666.6" cy="1712.7" r="6.2"/>
		<path id="XMLID_1484_" class="st30" d="M673.3,1728.5h-0.8v6.8c0,0.6,0,1.2-0.6,1.2h-4.4v-3h-2v3h-4.1c-0.6,0-1.9-0.6-1.9-1.2
			v-6.8h0.5c-0.5,0-0.8-0.3-0.6-0.5l6.7-5.2c0.3-0.2,0.9-0.2,1.2,0l6.7,5.2C674.2,1728.2,673.9,1728.5,673.3,1728.5z"/>
	</g>
	<g id="XMLID_1748_">
		<rect id="XMLID_1750_" x="-1016.1" y="1971" class="st23" width="24.8" height="13.7"/>
		<rect id="XMLID_1749_" x="-1028.5" y="1977.9" class="st24" width="24.8" height="13.7"/>
	</g>
	<g id="XMLID_1745_">
		<rect id="XMLID_1747_" x="-239.9" y="2347.3" class="st23" width="24.8" height="13.7"/>
		<rect id="XMLID_1746_" x="-252.3" y="2354.1" class="st0" width="24.8" height="13.7"/>
	</g>
	<g id="XMLID_1742_">
		<polygon id="XMLID_1744_" class="st23" points="-603.7,2480.8 -585,2493.5 -573.3,2483.3 -592,2470.6 		"/>
		<polygon id="XMLID_1743_" class="st25" points="-618.8,2479.6 -600.2,2492.3 -588.5,2482.1 -607.1,2469.4 		"/>
	</g>
	<rect id="XMLID_1741_" x="-1143.8" y="2370.4" class="st1" width="24.8" height="13.7"/>
	<polygon id="XMLID_1740_" class="st26" points="-1107.1,2423.5 -1130,2416 -1123.1,2403.5 -1100.2,2410.9 	"/>
	<g id="XMLID_1735_">
		<rect id="XMLID_1739_" x="-222.6" y="2902.6" class="st27" width="24.8" height="13.7"/>
		<rect id="XMLID_1736_" x="-247.9" y="2917.8" class="st28" width="24.8" height="13.7"/>
	</g>
	<g id="XMLID_1476_">
		<g id="XMLID_32_">
			<path id="XMLID_36_" class="st29" d="M-950.8,2104.1c1.1,0,1.1-1.8,0-1.8C-952,2102.3-952,2104.1-950.8,2104.1L-950.8,2104.1z"/>
		</g>
	</g>
	<g id="XMLID_1106_">
		<g id="XMLID_29_">
			<path id="XMLID_52_" class="st29" d="M-929.3,2071.8c1.1,0,1.1-1.8,0-1.8C-930.4,2070.1-930.5,2071.8-929.3,2071.8L-929.3,2071.8
				z"/>
		</g>
	</g>
	<g id="XMLID_5338_">
		<rect id="XMLID_5345_" x="519.2" y="4333.9" class="st17" width="15" height="66.6"/>
		<rect id="XMLID_5344_" x="536.9" y="4333.9" class="st26" width="15" height="66.6"/>
		<rect id="XMLID_5343_" x="501.4" y="4333.9" class="st7" width="15" height="66.6"/>
		<rect id="XMLID_5342_" x="554.7" y="4333.9" class="st31" width="15" height="66.6"/>
		<rect id="XMLID_5341_" x="572.4" y="4333.9" class="st0" width="15" height="66.6"/>
		<rect id="XMLID_5340_" x="590.2" y="4333.9" class="st32" width="15" height="66.6"/>
		<rect id="XMLID_5339_" x="608" y="4333.9" class="st1" width="15" height="66.6"/>
	</g>
	<rect id="XMLID_168_" x="1938.5" y="1951.9" class="st0" width="742.5" height="448.6"/>
	<rect id="XMLID_167_" x="1938.5" y="2917.1" class="st0" width="742.5" height="514.8"/>
	<rect id="XMLID_166_" x="1938.1" y="2400.6" class="st1" width="742.9" height="516.5"/>
	<rect id="XMLID_149_" x="1938.5" y="1405.5" class="st1" width="742.9" height="546.4"/>
	<g id="XMLID_142_">
		<g id="XMLID_147_">
			<rect id="XMLID_75_" x="1938.1" y="2260.1" class="st6" width="742.9" height="123.9"/>
		</g>
		<g id="XMLID_146_">
		</g>
	</g>
	<rect id="XMLID_112_" x="1938.1" y="3704.1" class="st13" width="742.9" height="696.4"/>
	<rect id="XMLID_111_" x="2171" y="2678.5" class="st14" width="126.1" height="27.9"/>
	<text transform="matrix(1 0 0 1 2177.9001 2683.2026)" class="st1" style="font-family:'Roboto-Thin'; font-size:6.2407px;">Desplegar items de un JSON con mismas </text>
	<text transform="matrix(1 0 0 1 2177.0002 2693.3027)" class="st1" style="font-family:'Roboto-Thin'; font-size:6.2407px;">caracteristicas, evitar refrescar la pagina al </text>
	<text transform="matrix(1 0 0 1 2173.1001 2703.4026)" class="st1" style="font-family:'Roboto-Thin'; font-size:6.2407px;">cambiar, sino solo  cambiando la informacion</text>
	<rect id="XMLID_107_" x="1938.5" y="1405.5" class="st0" width="743.3" height="81.7"/>
	<rect id="XMLID_102_" x="1997.9" y="3992" class="st33" width="683.1" height="408.5"/>
	<polyline id="XMLID_101_" class="st22" points="2010,2627.5 2010,2681.2 2010.4,2681 2069.1,2681 2069,2680.7 2069,2745.5 	"/>
	<g id="XMLID_113_">
		<g id="XMLID_76_">
			<rect id="XMLID_141_" x="1938.9" y="2917.1" class="st12" width="203.7" height="166.1"/>
		</g>
		<g id="XMLID_134_">
		</g>
	</g>
	<g id="XMLID_119_">
		<g id="XMLID_170_">
			<rect id="XMLID_16_" x="1938.1" y="2917.1" class="st12" width="203.7" height="166.1"/>
		</g>
		<g id="XMLID_169_">
		</g>
	</g>
	<g id="XMLID_120_">
		<g id="XMLID_125_">
			<rect id="XMLID_65_" x="1938.3" y="3429.3" class="st12" width="742.9" height="274.8"/>
		</g>
		<g id="XMLID_124_">
		</g>
	</g>
	<g id="XMLID_78_">
		<g id="XMLID_186_">
			<path id="XMLID_190_" class="st29" d="M2091.6,2104c1,0,1-1.6,0-1.6S2090.6,2104,2091.6,2104L2091.6,2104z"/>
		</g>
	</g>
	<g id="XMLID_71_">
		<g id="XMLID_180_">
			<path id="XMLID_184_" class="st29" d="M2108.3,2071.7c1,0,1-1.6,0-1.6C2107.3,2070.2,2107.3,2071.7,2108.3,2071.7L2108.3,2071.7z
				"/>
		</g>
	</g>
	<g id="XMLID_159_">
		<g id="XMLID_164_">
			<rect id="XMLID_68_" x="1998" y="2751.6" class="st2" width="683" height="123.9"/>
		</g>
		<g id="XMLID_163_">
		</g>
	</g>
	<g id="XMLID_81_">
		<g id="XMLID_2_">
			<rect id="XMLID_17_" x="2476.8" y="2440.4" class="st3" width="204.1" height="123.6"/>
		</g>
		<g id="XMLID_18_">
		</g>
	</g>
	<g id="XMLID_1724_">
		<rect id="XMLID_1769_" x="-407.9" y="4333.9" class="st17" width="19.4" height="66.6"/>
		<rect id="XMLID_1760_" x="-384.9" y="4333.9" class="st26" width="19.4" height="66.6"/>
		<rect id="XMLID_1759_" x="-430.9" y="4333.9" class="st7" width="19.4" height="66.6"/>
		<rect id="XMLID_1738_" x="-361.9" y="4333.9" class="st31" width="19.4" height="66.6"/>
		<rect id="XMLID_1737_" x="-338.9" y="4333.9" class="st0" width="19.4" height="66.6"/>
		<rect id="XMLID_1727_" x="-315.9" y="4333.9" class="st32" width="19.4" height="66.6"/>
		<rect id="XMLID_1725_" x="-292.9" y="4333.9" class="st1" width="19.4" height="66.6"/>
	</g>
</g>
<g id="vectors">
	<line id="XMLID_109_" class="st15" x1="2070.5" y1="2400.5" x2="2070.5" y2="2446.5"/>
	<line id="XMLID_108_" class="st16" x1="2070.5" y1="2306.5" x2="2070.5" y2="2400.5"/>
	<line id="XMLID_104_" class="st15" x1="2195.5" y1="2413.5" x2="2344.5" y2="2413.5"/>
	<line id="XMLID_103_" class="st15" x1="2195.5" y1="2430.5" x2="2269.5" y2="2430.5"/>
	<g id="XMLID_98_">
		<rect id="XMLID_100_" x="2045.5" y="1981.3" class="st23" width="19.2" height="13.7"/>
		<rect id="XMLID_99_" x="2035.9" y="1988.1" class="st24" width="19.2" height="13.7"/>
	</g>
	<rect id="XMLID_227_" x="2001.9" y="1539.6" class="st23" width="19.2" height="13.7"/>
	<rect id="XMLID_226_" x="1998" y="1532.8" class="st11" width="19.2" height="13.7"/>
	<rect id="XMLID_91_" x="1964.4" y="2369.1" class="st1" width="19.2" height="13.7"/>
	
		<rect id="XMLID_90_" x="1976.8" y="2406.7" transform="matrix(-0.9214 -0.3886 0.3886 -0.9214 2878.8608 5409.2988)" class="st26" width="19.2" height="13.7"/>
	<g id="XMLID_95_">
		<rect id="XMLID_97_" x="2631.1" y="2347.3" class="st23" width="19.2" height="13.7"/>
		<rect id="XMLID_96_" x="2621.5" y="2354.1" class="st0" width="19.2" height="13.7"/>
	</g>
	<g id="XMLID_92_">
		
			<rect id="XMLID_94_" x="2368.5" y="2475.1" transform="matrix(0.7499 0.6616 -0.6616 0.7499 2236.8328 -952.5055)" class="st23" width="19.2" height="13.7"/>
		
			<rect id="XMLID_93_" x="2356.8" y="2473.9" transform="matrix(0.7499 0.6616 -0.6616 0.7499 2233.0781 -945.0773)" class="st25" width="19.2" height="13.7"/>
	</g>
	<g id="XMLID_151_">
		<g id="XMLID_70_">
			<g id="XMLID_56_">
				<rect id="XMLID_88_" x="1997.9" y="1840.3" class="st11" width="106.6" height="125.6"/>
			</g>
			<g id="XMLID_87_">
			</g>
		</g>
		<rect id="XMLID_69_" x="1997.9" y="1951.7" class="st17" width="106.6" height="14.2"/>
	</g>
	<g id="XMLID_1_">
		<g id="XMLID_118_">
			<g id="XMLID_154_">
				<rect id="XMLID_117_" x="2461.3" y="1417.8" class="st7" width="160.2" height="553.3"/>
			</g>
			<g id="XMLID_153_">
			</g>
		</g>
		<rect id="XMLID_67_" x="2461.3" y="1951.9" class="st17" width="160.2" height="19.1"/>
	</g>
	<g id="XMLID_66_">
		<g id="XMLID_85_">
			<rect id="XMLID_89_" x="2654.3" y="2902.6" class="st27" width="19.2" height="13.7"/>
			<rect id="XMLID_86_" x="2634.7" y="2917.8" class="st28" width="19.2" height="13.7"/>
		</g>
		<line id="XMLID_173_" class="st4" x1="2370.5" y1="3448.5" x2="2370.5" y2="3198.5"/>
		<line id="XMLID_172_" class="st5" x1="2408.5" y1="3448.5" x2="2408.5" y2="3344.5"/>
	</g>
	<g id="XMLID_57_">
		<rect id="XMLID_64_" x="2517.7" y="4333.9" class="st17" width="15" height="66.6"/>
		<rect id="XMLID_63_" x="2535.5" y="4333.9" class="st26" width="15" height="66.6"/>
		<rect id="XMLID_62_" x="2500" y="4333.9" class="st7" width="15" height="66.6"/>
		<rect id="XMLID_61_" x="2553.3" y="4333.9" class="st31" width="15" height="66.6"/>
		<rect id="XMLID_60_" x="2571" y="4333.9" class="st0" width="15" height="66.6"/>
		<rect id="XMLID_59_" x="2588.8" y="4333.9" class="st32" width="15" height="66.6"/>
		<rect id="XMLID_58_" x="2606.5" y="4333.9" class="st1" width="15" height="66.6"/>
	</g>
	<g id="XMLID_150_">
		<line id="XMLID_194_" class="st14" x1="2621.5" y1="1273.8" x2="2621.5" y2="4644.5"/>
		<g id="XMLID_185_">
			<line id="XMLID_193_" class="st34" x1="2621.5" y1="1273.8" x2="2621.5" y2="1279.8"/>
			<line id="XMLID_192_" class="st35" x1="2621.5" y1="1291.9" x2="2621.5" y2="4632.5"/>
			<line id="XMLID_191_" class="st34" x1="2621.5" y1="4638.5" x2="2621.5" y2="4644.5"/>
		</g>
	</g>
	<g id="XMLID_155_">
		<line id="XMLID_209_" class="st14" x1="1997.9" y1="4467.9" x2="1997.9" y2="1097.2"/>
		<g id="XMLID_205_">
			<line id="XMLID_208_" class="st34" x1="1997.9" y1="4467.9" x2="1997.9" y2="4461.9"/>
			<line id="XMLID_207_" class="st35" x1="1997.9" y1="4449.8" x2="1997.9" y2="1109.2"/>
			<line id="XMLID_206_" class="st34" x1="1997.9" y1="1103.2" x2="1997.9" y2="1097.2"/>
		</g>
	</g>
</g>
<g id="Capa_3">
	<g id="XMLID_216_">
		<rect id="XMLID_137_" x="1938.5" y="1405.5" class="st36" width="742.3" height="81.6"/>
		<line id="XMLID_215_" class="st37" x1="2621.2" y1="1406" x2="2621.2" y2="3828.5"/>
		<line id="XMLID_214_" class="st37" x1="1998" y1="1406" x2="1998" y2="3828.5"/>
		<line id="XMLID_213_" class="st37" x1="2583.3" y1="1406" x2="2583.3" y2="3828.5"/>
		<line id="XMLID_212_" class="st37" x1="2567.7" y1="1406" x2="2567.7" y2="3828.5"/>
		<line id="XMLID_211_" class="st37" x1="2530.3" y1="1406" x2="2530.3" y2="3828.5"/>
		<line id="XMLID_210_" class="st37" x1="2514.8" y1="1406" x2="2514.8" y2="3828.5"/>
		<line id="XMLID_203_" class="st37" x1="2104.5" y1="1406" x2="2104.5" y2="3828.5"/>
		<line id="XMLID_202_" class="st37" x1="2088.9" y1="1406" x2="2088.9" y2="3828.5"/>
		<line id="XMLID_201_" class="st37" x1="2051.5" y1="1406" x2="2051.5" y2="3828.5"/>
		<line id="XMLID_199_" class="st37" x1="2035.9" y1="1406" x2="2035.9" y2="3828.5"/>
		<line id="XMLID_198_" class="st37" x1="2476.8" y1="1406" x2="2476.8" y2="3828.5"/>
		<line id="XMLID_197_" class="st37" x1="2461.3" y1="1406" x2="2461.3" y2="3828.5"/>
		<line id="XMLID_196_" class="st37" x1="2423.9" y1="1406" x2="2423.9" y2="3828.5"/>
		<line id="XMLID_195_" class="st37" x1="2408.3" y1="1406" x2="2408.3" y2="3828.5"/>
		<line id="XMLID_178_" class="st37" x1="2370.4" y1="1406" x2="2370.4" y2="3828.5"/>
		<line id="XMLID_177_" class="st37" x1="2354.8" y1="1406" x2="2354.8" y2="3828.5"/>
		<line id="XMLID_174_" class="st37" x1="2317.4" y1="1406" x2="2317.4" y2="3828.5"/>
		<line id="XMLID_171_" class="st37" x1="2301.8" y1="1406" x2="2301.8" y2="3828.5"/>
		<line id="XMLID_165_" class="st37" x1="2264.4" y1="1406" x2="2264.4" y2="3828.5"/>
		<line id="XMLID_158_" class="st37" x1="2248.8" y1="1406" x2="2248.8" y2="3828.5"/>
		<line id="XMLID_156_" class="st37" x1="2210.9" y1="1406" x2="2210.9" y2="3828.5"/>
		<line id="XMLID_140_" class="st37" x1="2195.3" y1="1406" x2="2195.3" y2="3828.5"/>
		<line id="XMLID_139_" class="st37" x1="2158" y1="1406" x2="2158" y2="3828.5"/>
		<line id="XMLID_138_" class="st37" x1="2142.4" y1="1406" x2="2142.4" y2="3828.5"/>
	</g>
	<g id="XMLID_20_">
		<rect id="XMLID_224_" x="-1149.1" y="1405.5" class="st36" width="961.5" height="81.6"/>
		<line id="XMLID_223_" class="st37" x1="-264.7" y1="1406" x2="-264.7" y2="3828.5"/>
		<line id="XMLID_222_" class="st37" x1="-1072" y1="1406" x2="-1072" y2="3828.5"/>
		<line id="XMLID_221_" class="st37" x1="-313.8" y1="1406" x2="-313.8" y2="3828.5"/>
		<line id="XMLID_220_" class="st37" x1="-334" y1="1406" x2="-334" y2="3828.5"/>
		<line id="XMLID_219_" class="st37" x1="-382.4" y1="1406" x2="-382.4" y2="3828.5"/>
		<line id="XMLID_218_" class="st37" x1="-402.6" y1="1406" x2="-402.6" y2="3828.5"/>
		<line id="XMLID_217_" class="st37" x1="-934" y1="1406" x2="-934" y2="3828.5"/>
		<line id="XMLID_136_" class="st37" x1="-954.2" y1="1406" x2="-954.2" y2="3828.5"/>
		<line id="XMLID_135_" class="st37" x1="-1002.7" y1="1406" x2="-1002.7" y2="3828.5"/>
		<line id="XMLID_130_" class="st37" x1="-1022.8" y1="1406" x2="-1022.8" y2="3828.5"/>
		<line id="XMLID_129_" class="st37" x1="-451.7" y1="1406" x2="-451.7" y2="3828.5"/>
		<line id="XMLID_128_" class="st37" x1="-471.9" y1="1406" x2="-471.9" y2="3828.5"/>
		<line id="XMLID_127_" class="st37" x1="-520.3" y1="1406" x2="-520.3" y2="3828.5"/>
		<line id="XMLID_106_" class="st37" x1="-540.5" y1="1406" x2="-540.5" y2="3828.5"/>
		<line id="XMLID_105_" class="st37" x1="-589.6" y1="1406" x2="-589.6" y2="3828.5"/>
		<line id="XMLID_74_" class="st37" x1="-609.8" y1="1406" x2="-609.8" y2="3828.5"/>
		<line id="XMLID_73_" class="st37" x1="-658.2" y1="1406" x2="-658.2" y2="3828.5"/>
		<line id="XMLID_72_" class="st37" x1="-678.4" y1="1406" x2="-678.4" y2="3828.5"/>
		<line id="XMLID_55_" class="st37" x1="-726.8" y1="1406" x2="-726.8" y2="3828.5"/>
		<line id="XMLID_54_" class="st37" x1="-747" y1="1406" x2="-747" y2="3828.5"/>
		<line id="XMLID_53_" class="st37" x1="-796.1" y1="1406" x2="-796.1" y2="3828.5"/>
		<line id="XMLID_28_" class="st37" x1="-816.3" y1="1406" x2="-816.3" y2="3828.5"/>
		<line id="XMLID_27_" class="st37" x1="-864.8" y1="1406" x2="-864.8" y2="3828.5"/>
		<line id="XMLID_25_" class="st37" x1="-884.9" y1="1406" x2="-884.9" y2="3828.5"/>
	</g>
	<g id="XMLID_3478_" class="st38">
		<g id="XMLID_319_">
			<rect id="XMLID_321_" x="327.7" y="632" class="st39" width="83.1" height="156.9"/>
		</g>
		<g id="XMLID_320_">
		</g>
	</g>
	<g id="XMLID_3499_" class="st10">
		<g id="XMLID_316_">
			<rect id="XMLID_318_" x="159" y="105.9" class="st7" width="168.7" height="683"/>
		</g>
		<g id="XMLID_317_">
		</g>
	</g>
	<g id="XMLID_3215_" class="st8">
		<g id="XMLID_313_">
			<rect id="XMLID_315_" x="687.2" y="220.4" class="st39" width="159.7" height="568.5"/>
		</g>
		<g id="XMLID_314_">
		</g>
	</g>
	<g id="XMLID_3483_" class="st8">
		<g id="XMLID_310_">
			<rect id="XMLID_312_" x="1484.1" y="475.2" class="st39" width="79.8" height="313.7"/>
		</g>
		<g id="XMLID_311_">
		</g>
	</g>
	<g id="XMLID_3490_" class="st8">
		<g id="XMLID_307_">
			<rect id="XMLID_309_" x="1278.7" y="564.5" class="st39" width="89.8" height="224.4"/>
		</g>
		<g id="XMLID_308_">
		</g>
	</g>
	<g id="XMLID_3241_" class="st40">
		<g id="XMLID_265_">
			<rect id="XMLID_306_" x="1368.5" y="605.7" class="st39" width="63" height="183.3"/>
		</g>
		<g id="XMLID_266_">
		</g>
	</g>
	<g id="XMLID_3201_" class="st10">
		<g id="XMLID_262_">
			<rect id="XMLID_264_" x="1023.6" y="326" class="st39" width="130" height="463"/>
		</g>
		<g id="XMLID_263_">
		</g>
	</g>
	<g id="XMLID_3197_" class="st41">
		<g id="XMLID_256_">
			<rect id="XMLID_261_" x="615.5" y="533.7" class="st39" width="71.7" height="255.3"/>
		</g>
		<g id="XMLID_260_">
		</g>
	</g>
</g>
</svg>
