<?xml version="1.0" encoding="utf-8"?>
<!-- Generator: Adobe Illustrator 19.0.0, SVG Export Plug-In . SVG Version: 6.00 Build 0)  -->
<svg version="1.1" id="Capa_1" xmlns="http://www.w3.org/2000/svg" xmlns:xlink="http://www.w3.org/1999/xlink" x="0px" y="0px"
	 viewBox="0 0 1439.9 736" style="enable-background:new 0 0 1439.9 736;" xml:space="preserve">
<style type="text/css">
	.st0{fill:#ECE09E;}
	.st1{opacity:0.16;fill:#ECE09E;}
	.st2{opacity:0.17;fill:#ECE09E;}
	.st3{opacity:0.14;fill:#ECE09E;}
	.st4{opacity:3.000000e-002;fill:#786A30;}
	.st5{opacity:5.000000e-002;fill:#CDAE2F;}
	.st6{opacity:6.000000e-002;fill:#CDAE2F;}
	.st7{opacity:2.000000e-002;fill:#B7A868;}
	.st8{fill:#706E6A;}
	.st9{fill:#E9EBED;}
	.st10{opacity:0.25;fill:#ECE09E;}
	.st11{opacity:0.58;fill:#ECE09E;}
	.st12{opacity:0.17;fill:#786A30;}
	.st13{opacity:0.13;fill:#ECE09E;}
	.st14{opacity:6.000000e-002;fill:#A38C2B;}
	.st15{opacity:0.15;fill:#CDAE2F;}
	.st16{opacity:8.000000e-002;fill:#CDAE2F;}
	.st17{opacity:7.000000e-002;fill:#B7A868;}
	.st18{fill:#DDC241;}
	.st19{fill:url(#XMLID_55_);}
</style>
<rect id="XMLID_3220_" x="217.7" y="289.5" transform="matrix(0.9977 6.782605e-002 -6.782605e-002 0.9977 26.4873 -25.0824)" class="st0" width="329.9" height="176"/>
<rect id="XMLID_3219_" x="1114.7" y="294.3" transform="matrix(0.9607 -0.2777 0.2777 0.9607 -53.0496 362.713)" class="st1" width="278.7" height="148.7"/>
<rect id="XMLID_28_" x="724.8" y="665.7" transform="matrix(0.9374 0.3482 -0.3482 0.9374 302.8935 -243.3112)" class="st2" width="206.9" height="110.4"/>
<rect id="XMLID_29_" x="1187.7" y="46.1" transform="matrix(0.9697 -0.2441 0.2441 0.9697 19.0499 308.4727)" class="st3" width="132.7" height="62.6"/>
<rect id="XMLID_30_" x="1122.8" y="132.9" transform="matrix(0.9376 0.3476 -0.3476 0.9376 125.5299 -392.6235)" class="st4" width="68.3" height="41.2"/>
<rect id="XMLID_3215_" x="641.8" y="145.9" transform="matrix(0.9863 0.1649 -0.1649 0.9863 40.1766 -113.5055)" class="st1" width="124.1" height="78.7"/>
<rect id="XMLID_3214_" x="32.4" y="163.8" transform="matrix(0.9992 3.996392e-002 -3.996392e-002 0.9992 7.6988 -2.8641)" class="st5" width="86.2" height="54.7"/>
<rect id="XMLID_3212_" x="36.3" y="542.9" transform="matrix(0.9562 -0.2926 0.2926 0.9562 -161.2203 43.3532)" class="st6" width="56" height="35.5"/>
<rect id="XMLID_3211_" x="111.4" y="579.5" transform="matrix(0.996 -8.925811e-002 8.925811e-002 0.996 -53.428 15.9935)" class="st6" width="81.4" height="51.7"/>
<rect id="XMLID_3210_" x="579.9" y="169.9" transform="matrix(0.7864 -0.6177 0.6177 0.7864 13.6026 409.8821)" class="st7" width="39.1" height="30.7"/>
<g id="XMLID_3201_">
	<rect id="XMLID_3203_" x="1365" y="827.6" class="st8" width="36.9" height="26.3"/>
	<rect id="XMLID_3202_" x="1346.6" y="840.7" class="st9" width="36.9" height="26.3"/>
</g>
<rect id="XMLID_42_" x="114.5" y="1243.9" transform="matrix(0.9977 6.782605e-002 -6.782605e-002 0.9977 93.0276 -19.4292)" class="st0" width="436.3" height="232.7"/>
<rect id="XMLID_41_" x="1119.7" y="1252.4" transform="matrix(0.9607 -0.2777 0.2777 0.9607 -318.8726 401.7731)" class="st10" width="278.7" height="148.7"/>
<rect id="XMLID_48_" x="1646.4" y="1044.8" transform="matrix(0.9986 5.293800e-002 -5.293800e-002 0.9986 61.75 -92.966)" class="st10" width="278.7" height="148.7"/>
<rect id="XMLID_40_" x="729.8" y="1623.8" transform="matrix(0.9374 0.3482 -0.3482 0.9374 636.8307 -185.0843)" class="st11" width="206.9" height="110.4"/>
<rect id="XMLID_39_" x="1192.7" y="1004.2" transform="matrix(0.9697 -0.2441 0.2441 0.9697 -214.6678 338.675)" class="st10" width="132.7" height="62.6"/>
<rect id="XMLID_38_" x="1127.8" y="1091" transform="matrix(0.9376 0.3476 -0.3476 0.9376 458.9032 -334.6024)" class="st12" width="68.3" height="41.2"/>
<rect id="XMLID_51_" x="1621.2" y="1407.4" transform="matrix(0.9376 0.3476 -0.3476 0.9376 599.7076 -486.4166)" class="st12" width="68.3" height="41.2"/>
<rect id="XMLID_47_" x="-212.5" y="1391.5" transform="matrix(-0.9697 -0.2441 0.2441 -0.9697 -635.2054 2766.7568)" class="st13" width="132.7" height="62.6"/>
<rect id="XMLID_46_" x="-122.3" y="1592.3" transform="matrix(-0.9376 0.3476 -0.3476 -0.9376 389.8394 3155.7905)" class="st14" width="68.3" height="41.2"/>
<rect id="XMLID_37_" x="646.8" y="1103.9" transform="matrix(0.9863 0.1649 -0.1649 0.9863 198.1953 -101.2189)" class="st10" width="124.1" height="78.7"/>
<rect id="XMLID_36_" x="37.4" y="1121.8" transform="matrix(0.9992 3.996392e-002 -3.996392e-002 0.9992 45.9902 -2.2983)" class="st15" width="86.2" height="54.7"/>
<rect id="XMLID_49_" x="-300.3" y="1066.9" transform="matrix(0.9256 0.3784 -0.3784 0.9256 398.5672 174.85)" class="st16" width="109.3" height="69.4"/>
<rect id="XMLID_50_" x="1358.6" y="1528.7" transform="matrix(0.9256 0.3784 -0.3784 0.9256 698.7906 -429.1872)" class="st16" width="165.7" height="69.4"/>
<rect id="XMLID_35_" x="41.3" y="1501" transform="matrix(0.9562 -0.2926 0.2926 0.9562 -441.289 86.7318)" class="st6" width="56" height="35.5"/>
<rect id="XMLID_34_" x="116.4" y="1537.6" transform="matrix(0.996 -8.925811e-002 8.925811e-002 0.996 -138.9218 20.2633)" class="st6" width="81.4" height="51.7"/>
<rect id="XMLID_33_" x="584.9" y="1128" transform="matrix(0.7864 -0.6177 0.6177 0.7864 -577.1107 617.5878)" class="st17" width="39.1" height="30.7"/>
<rect id="XMLID_44_" x="824.5" y="1396.6" transform="matrix(0.7864 -0.6177 0.6177 0.7864 -691.8604 822.9414)" class="st17" width="39.1" height="30.7"/>
<rect id="XMLID_45_" x="865.4" y="1349.2" transform="matrix(0.953 -0.3031 0.3031 0.953 -374.8488 337.0007)" class="st17" width="65.9" height="54"/>
<rect id="XMLID_53_" x="804.7" y="458.3" transform="matrix(0.7864 -0.6177 0.6177 0.7864 -116.527 610.3206)" class="st17" width="39.1" height="30.7"/>
<rect id="XMLID_52_" x="845.6" y="410.9" transform="matrix(0.953 -0.3031 0.3031 0.953 -91.4088 286.8706)" class="st17" width="65.9" height="54"/>
<g id="XMLID_27_">
	<rect id="XMLID_32_" x="216.8" y="1062.2" class="st8" width="36.9" height="26.3"/>
	<rect id="XMLID_31_" x="198.4" y="1075.3" class="st18" width="36.9" height="26.3"/>
</g>
<linearGradient id="XMLID_55_" gradientUnits="userSpaceOnUse" x1="-351.5297" y1="320.125" x2="-717.5297" y2="713.125">
	<stop  offset="0" style="stop-color:#F7EC45;stop-opacity:0.5"/>
	<stop  offset="1" style="stop-color:#201813"/>
</linearGradient>
<polygon id="XMLID_43_" class="st19" points="-281.8,514.5 -610.9,492.1 -599,316.6 -269.8,338.9 "/>
</svg>
