<?xml version="1.0" encoding="utf-8"?>
<!-- Generator: Adobe Illustrator 19.0.0, SVG Export Plug-In . SVG Version: 6.00 Build 0)  -->
<svg version="1.1" xmlns="http://www.w3.org/2000/svg" xmlns:xlink="http://www.w3.org/1999/xlink" x="0px" y="0px"
	 viewBox="0 0 160.2 553.3" style="enable-background:new 0 0 160.2 553.3;" xml:space="preserve">
<style type="text/css">
	.st0{fill:#E8EAEC;}
	.st1{fill:#232728;}
	.st2{fill:#C5DEE2;}
	.st3{fill:#D2E2E7;}
	.st4{fill:none;stroke:#9DB79B;stroke-width:2;stroke-miterlimit:10;}
	.st5{fill:none;stroke:#515151;stroke-width:2;stroke-miterlimit:10;}
	.st6{fill:#E1DABB;}
	.st7{fill:#CCA5A1;}
	.st8{fill:#AA7D7D;}
	.st9{fill:#8CA387;}
	.st10{fill:#171818;}
	.st11{fill:none;stroke:#E8EAEC;stroke-width:2;stroke-miterlimit:10;}
	.st12{fill:none;stroke:#232728;stroke-width:2;stroke-miterlimit:10;}
	.st13{fill:#EBDF9D;}
	.st14{fill:none;stroke:#FFFFFF;stroke-width:0.5201;stroke-miterlimit:10;}
	.st15{fill:none;stroke:#FFFFFF;stroke-width:0.5917;stroke-miterlimit:10;}
	.st16{fill:none;stroke:#232728;stroke-miterlimit:10;}
	.st17{fill:#6F6E69;}
	.st18{fill:#DCC140;}
	.st19{fill:#85AAB8;}
	.st20{fill:#C3DEEB;}
	.st21{fill:#AED2E2;}
	.st22{fill:#9DB79B;}
	.st23{fill:#EBE2B4;}
	.st24{fill:#010002;}
	.st25{fill:#B4D0AE;}
	.st26{fill:#97969C;}
	.st27{fill:none;stroke:#FFFFFF;stroke-width:0.5059;stroke-miterlimit:10;}
	.st28{fill:#FFFFFF;}
	.st29{fill:none;stroke:#211915;stroke-width:2;stroke-miterlimit:10;}
	.st30{fill:none;stroke:#211915;stroke-width:2;stroke-miterlimit:10;stroke-dasharray:12.0382,12.0382;}
	.st31{fill:none;}
	.st32{opacity:0.57;fill:#938080;stroke:#211915;stroke-miterlimit:10;}
	.st33{opacity:0.52;fill:url(#XMLID_499_);}
	.st34{opacity:0.52;fill:url(#XMLID_500_);}
	.st35{fill:none;stroke:#5EA9AB;stroke-width:0.75;stroke-miterlimit:10;}
	.st36{fill:#FFFFFF;stroke:#211915;stroke-width:0.5194;stroke-miterlimit:10;}
</style>
<g id="Capa_1">
	<rect id="XMLID_1595_" x="-3169.3" y="1868.3" class="st0" width="742.5" height="448.6"/>
	<rect id="XMLID_7476_" x="-3169.7" y="2316.9" class="st1" width="742.9" height="516.5"/>
	<g id="XMLID_7469_">
		<g id="XMLID_7474_">
			<rect id="XMLID_14_" x="-3161.6" y="2667.9" class="st2" width="734.8" height="123.9"/>
		</g>
		<g id="XMLID_7473_">
		</g>
	</g>
	<g id="XMLID_7462_">
		<g id="XMLID_7467_">
			<rect id="XMLID_13_" x="-2626" y="2356.8" class="st3" width="199.2" height="123.6"/>
		</g>
		<g id="XMLID_7466_">
		</g>
	</g>
	<line id="XMLID_7461_" class="st4" x1="-2737.3" y1="3364.8" x2="-2737.3" y2="3114.8"/>
	<line id="XMLID_7460_" class="st5" x1="-2699.3" y1="3364.8" x2="-2699.3" y2="3260.8"/>
	<rect id="XMLID_7459_" x="-3169.3" y="1321.8" class="st1" width="742.9" height="546.4"/>
	<g id="XMLID_7452_">
		<g id="XMLID_7457_">
			<rect id="XMLID_12_" x="-3169.7" y="2176.5" class="st6" width="742.9" height="123.9"/>
		</g>
		<g id="XMLID_7456_">
		</g>
	</g>
	<g id="XMLID_7445_">
		<g id="XMLID_7450_">
			<rect id="XMLID_11_" x="-2645.7" y="1334.1" class="st7" width="155.4" height="553.3"/>
		</g>
		<g id="XMLID_7449_">
		</g>
	</g>
	<g id="XMLID_7438_">
		<g id="XMLID_7443_">
			<rect id="XMLID_10_" x="-3119.8" y="1756.9" class="st8" width="125.3" height="125.6"/>
		</g>
		<g id="XMLID_7442_">
		</g>
	</g>
	<g id="XMLID_7363_">
		<g id="XMLID_7368_">
			<rect id="XMLID_8_" x="-3169.9" y="2833.4" class="st9" width="203.7" height="166.1"/>
		</g>
		<g id="XMLID_7367_">
		</g>
	</g>
	<rect id="XMLID_7362_" x="-3169.7" y="3620.4" class="st10" width="742.9" height="696.4"/>
	<rect id="XMLID_200_" x="-2936.8" y="2594.8" class="st31" width="126.1" height="27.9"/>
	<text id="XMLID_7007_" transform="matrix(1 0 0 1 -2929.8665 2599.5662)"><tspan x="0" y="0" class="st1" style="font-family:'Roboto-Thin'; font-size:6.2407px;">Desplegar items de un JSON con mismas </tspan><tspan x="-0.9" y="10.1" class="st1" style="font-family:'Roboto-Thin'; font-size:6.2407px;">caracteristicas, evitar refrescar la pagina al </tspan><tspan x="-4.8" y="20.2" class="st1" style="font-family:'Roboto-Thin'; font-size:6.2407px;">cambiar, sino solo  cambiando la informacion</tspan></text>
	<line id="XMLID_7001_" class="st11" x1="-3041.3" y1="2316.8" x2="-3041.3" y2="2362.8"/>
	<line id="XMLID_7000_" class="st12" x1="-3041.3" y1="2222.8" x2="-3041.3" y2="2316.8"/>
	<rect id="XMLID_6996_" x="-3169.3" y="1321.8" class="st0" width="743.3" height="81.7"/>
	<rect id="XMLID_6899_" x="-3119.8" y="1868.3" class="st13" width="125.3" height="14.2"/>
	<rect id="XMLID_6898_" x="-2645.7" y="1868.3" class="st13" width="155.4" height="19.1"/>
	<line id="XMLID_6897_" class="st11" x1="-2906.3" y1="2329.8" x2="-2764.3" y2="2329.8"/>
	<line id="XMLID_6896_" class="st11" x1="-2906.3" y1="2346.8" x2="-2835.3" y2="2346.8"/>
	<rect id="XMLID_6382_" x="-3144.8" y="3908.3" class="st14" width="718" height="408.5"/>
	<rect id="XMLID_1774_" x="-4265.6" y="3620.4" class="st10" width="961.8" height="696.4"/>
	<rect id="XMLID_1770_" x="-4233.4" y="3908.3" class="st15" width="929.6" height="408.5"/>
	<polyline id="XMLID_6315_" class="st16" points="-3097.8,2543.8 -3097.8,2597.5 -3097.4,2597.3 -3038.6,2597.3 -3038.8,2597 
		-3038.8,2661.8 	"/>
	<rect id="XMLID_1830_" x="-4264.8" y="1868.3" class="st0" width="961" height="448.6"/>
	<rect id="XMLID_1829_" x="-4264.8" y="2833.4" class="st0" width="961" height="514.8"/>
	<rect id="XMLID_1828_" x="-4265.3" y="2316.9" class="st1" width="961.5" height="516.5"/>
	<g id="XMLID_1821_">
		<g id="XMLID_1826_">
			<rect id="XMLID_7_" x="-4254.9" y="2667.9" class="st2" width="951.1" height="123.9"/>
		</g>
		<g id="XMLID_1825_">
		</g>
	</g>
	<g id="XMLID_1814_">
		<g id="XMLID_1819_">
			<rect id="XMLID_6_" x="-3561.7" y="2356.8" class="st3" width="257.9" height="123.6"/>
		</g>
		<g id="XMLID_1818_">
		</g>
	</g>
	<line id="XMLID_1813_" class="st4" x1="-3705.3" y1="3364.8" x2="-3705.3" y2="3114.8"/>
	<line id="XMLID_1812_" class="st5" x1="-3657.3" y1="3364.8" x2="-3657.3" y2="3260.8"/>
	<rect id="XMLID_1811_" x="-4264.8" y="1321.8" class="st1" width="961.5" height="546.4"/>
	<g id="XMLID_1804_">
		<g id="XMLID_1809_">
			<rect id="XMLID_5_" x="-4265.3" y="2176.5" class="st6" width="961.5" height="123.9"/>
		</g>
		<g id="XMLID_1808_">
		</g>
	</g>
	<g id="XMLID_1797_">
		<g id="XMLID_1802_">
			<rect id="XMLID_4_" x="-3587.2" y="1334.1" class="st7" width="206.8" height="553.3"/>
		</g>
		<g id="XMLID_1801_">
		</g>
	</g>
	<g id="XMLID_1783_">
		<g id="XMLID_1788_">
			<rect id="XMLID_9_" x="-4265.3" y="3345.6" class="st9" width="961.5" height="274.8"/>
		</g>
		<g id="XMLID_1787_">
		</g>
	</g>
	<g id="XMLID_1776_">
		<g id="XMLID_1781_">
			<rect id="XMLID_15_" x="-4265.6" y="2833.4" class="st9" width="263.7" height="166.1"/>
		</g>
		<g id="XMLID_1780_">
		</g>
	</g>
	<rect id="XMLID_132_" x="-3963.9" y="2594.8" class="st31" width="163.2" height="27.9"/>
	<text id="XMLID_1772_" transform="matrix(1.2943 0 0 1 -3954.9443 2599.5664)"><tspan x="0" y="0" class="st1" style="font-family:'Roboto-Thin'; font-size:6.2407px;">Desplegar items de un JSON con mismas </tspan><tspan x="-0.9" y="10.1" class="st1" style="font-family:'Roboto-Thin'; font-size:6.2407px;">caracteristicas, evitar refrescar la pagina al </tspan><tspan x="-4.8" y="20.2" class="st1" style="font-family:'Roboto-Thin'; font-size:6.2407px;">cambiar, sino solo  cambiando la informacion</tspan></text>
	<line id="XMLID_1767_" class="st11" x1="-4099.3" y1="2316.8" x2="-4099.3" y2="2362.8"/>
	<line id="XMLID_1766_" class="st12" x1="-4099.3" y1="2222.8" x2="-4099.3" y2="2316.8"/>
	<rect id="XMLID_1761_" x="-4264.8" y="1321.8" class="st0" width="962" height="81.7"/>
	<g id="XMLID_3_">
		<g id="XMLID_1790_">
			<g id="XMLID_1795_">
				<rect id="XMLID_225_" x="-4187.7" y="1756.9" class="st8" width="137.9" height="125.6"/>
			</g>
			<g id="XMLID_1794_">
			</g>
		</g>
		<rect id="XMLID_1758_" x="-4187.7" y="1868.3" class="st13" width="137.9" height="14.2"/>
	</g>
	<rect id="XMLID_1756_" x="-3587.2" y="1868.3" class="st13" width="206.8" height="19.1"/>
	<line id="XMLID_1755_" class="st11" x1="-3924.3" y1="2329.8" x2="-3740.3" y2="2329.8"/>
	<line id="XMLID_1754_" class="st11" x1="-3924.3" y1="2346.8" x2="-3833.3" y2="2346.8"/>
	<polyline id="XMLID_1753_" class="st16" points="-4171.8,2543.8 -4171.8,2597.5 -4171.8,2597.3 -4095.7,2597.3 -4095.8,2597 
		-4095.8,2661.8 	"/>
	<g id="XMLID_2732_">
		<rect id="XMLID_2744_" x="-3066.6" y="1887.4" class="st17" width="19.2" height="13.7"/>
		<rect id="XMLID_2733_" x="-3076.2" y="1894.2" class="st18" width="19.2" height="13.7"/>
	</g>
	<g id="XMLID_2727_">
		<rect id="XMLID_2731_" x="-2466.8" y="2263.6" class="st17" width="19.2" height="13.7"/>
		<rect id="XMLID_2728_" x="-2476.4" y="2270.5" class="st0" width="19.2" height="13.7"/>
	</g>
	<g id="XMLID_2689_">
		
			<rect id="XMLID_2705_" x="-2745.8" y="2391.6" transform="matrix(-0.7499 -0.6616 0.6616 -0.7499 -6374.7139 2386.6057)" class="st17" width="19.2" height="13.7"/>
		
			<rect id="XMLID_2691_" x="-2757.5" y="2390.4" transform="matrix(-0.7499 -0.6616 0.6616 -0.7499 -6394.3955 2376.7134)" class="st19" width="19.2" height="13.7"/>
	</g>
	<rect id="XMLID_2684_" x="-3165.2" y="2285.5" class="st1" width="19.2" height="13.7"/>
	
		<rect id="XMLID_2682_" x="-3152.7" y="2305.7" transform="matrix(0.9214 0.3886 -0.3886 0.9214 651.6063 1403.1136)" class="st20" width="19.2" height="13.7"/>
	<g id="XMLID_2662_">
		<rect id="XMLID_2680_" x="-2453.4" y="2819" class="st21" width="19.2" height="13.7"/>
		<rect id="XMLID_2665_" x="-2473" y="2834.2" class="st22" width="19.2" height="13.7"/>
	</g>
	<g id="XMLID_2661_">
		<g id="XMLID_44_">
			<path id="XMLID_48_" class="st23" d="M-3016.1,2020.3c1,0,1-1.6,0-1.6C-3017.1,2018.8-3017.2,2020.3-3016.1,2020.3
				L-3016.1,2020.3z"/>
		</g>
	</g>
	<g id="XMLID_2640_">
		<g id="XMLID_38_">
			<path id="XMLID_42_" class="st23" d="M-2999.5,1988.1c1,0,1-1.6,0-1.6C-3000.5,1986.5-3000.5,1988.1-2999.5,1988.1
				L-2999.5,1988.1z"/>
		</g>
	</g>
	<g id="XMLID_1480_">
		<circle id="XMLID_1586_" class="st7" cx="-2449.1" cy="1577.6" r="6.2"/>
		<circle id="XMLID_1585_" class="st24" cx="-2449.1" cy="1594.7" r="6.2"/>
		<circle id="XMLID_1584_" class="st24" cx="-2449.1" cy="1611.4" r="6.2"/>
		<circle id="XMLID_1512_" class="st24" cx="-2449.1" cy="1629" r="6.2"/>
		<path id="XMLID_1484_" class="st24" d="M-2442.4,1644.8h-0.8v6.8c0,0.6,0,1.2-0.6,1.2h-4.4v-3h-2v3h-4.1c-0.6,0-1.9-0.6-1.9-1.2
			v-6.8h0.5c-0.5,0-0.8-0.3-0.6-0.5l6.7-5.2c0.3-0.2,0.9-0.2,1.2,0l6.7,5.2C-2441.6,1644.5-2441.9,1644.8-2442.4,1644.8z"/>
	</g>
	<g id="XMLID_1748_">
		<rect id="XMLID_1750_" x="-4131.9" y="1887.4" class="st17" width="24.8" height="13.7"/>
		<rect id="XMLID_1749_" x="-4144.3" y="1894.2" class="st18" width="24.8" height="13.7"/>
	</g>
	<g id="XMLID_1745_">
		<rect id="XMLID_1747_" x="-3355.6" y="2263.6" class="st17" width="24.8" height="13.7"/>
		<rect id="XMLID_1746_" x="-3368.1" y="2270.5" class="st0" width="24.8" height="13.7"/>
	</g>
	<g id="XMLID_1742_">
		<polygon id="XMLID_1744_" class="st17" points="-3719.4,2397.2 -3700.8,2409.9 -3689.1,2399.6 -3707.7,2386.9 		"/>
		<polygon id="XMLID_1743_" class="st19" points="-3734.6,2396 -3716,2408.7 -3704.3,2398.4 -3722.9,2385.7 		"/>
	</g>
	<rect id="XMLID_1741_" x="-4259.5" y="2286.7" class="st1" width="24.8" height="13.7"/>
	<polygon id="XMLID_1740_" class="st20" points="-4222.9,2339.8 -4245.8,2332.4 -4238.9,2319.8 -4216,2327.3 	"/>
	<g id="XMLID_1735_">
		<rect id="XMLID_1739_" x="-3338.3" y="2819" class="st21" width="24.8" height="13.7"/>
		<rect id="XMLID_1736_" x="-3363.7" y="2834.2" class="st22" width="24.8" height="13.7"/>
	</g>
	<g id="XMLID_1476_">
		<g id="XMLID_32_">
			<path id="XMLID_36_" class="st23" d="M-4066.6,2020.4c1.1,0,1.1-1.8,0-1.8C-4067.8,2018.6-4067.8,2020.4-4066.6,2020.4
				L-4066.6,2020.4z"/>
		</g>
	</g>
	<g id="XMLID_1106_">
		<g id="XMLID_29_">
			<path id="XMLID_52_" class="st23" d="M-4045.1,1988.2c1.1,0,1.1-1.8,0-1.8C-4046.2,1986.4-4046.2,1988.2-4045.1,1988.2
				L-4045.1,1988.2z"/>
		</g>
	</g>
	<g id="XMLID_5338_">
		<rect id="XMLID_5345_" x="-2596.6" y="4250.3" class="st13" width="15" height="66.6"/>
		<rect id="XMLID_5344_" x="-2578.8" y="4250.3" class="st20" width="15" height="66.6"/>
		<rect id="XMLID_5343_" x="-2614.4" y="4250.3" class="st7" width="15" height="66.6"/>
		<rect id="XMLID_5342_" x="-2561.1" y="4250.3" class="st25" width="15" height="66.6"/>
		<rect id="XMLID_5341_" x="-2543.3" y="4250.3" class="st0" width="15" height="66.6"/>
		<rect id="XMLID_5340_" x="-2525.6" y="4250.3" class="st26" width="15" height="66.6"/>
		<rect id="XMLID_5339_" x="-2507.8" y="4250.3" class="st1" width="15" height="66.6"/>
	</g>
	<rect id="XMLID_168_" x="-1177.3" y="1868.3" class="st0" width="742.5" height="448.6"/>
	<rect id="XMLID_167_" x="-1177.3" y="2833.4" class="st0" width="742.5" height="514.8"/>
	<rect id="XMLID_166_" x="-1177.7" y="2316.9" class="st1" width="742.9" height="516.5"/>
	<rect id="XMLID_149_" x="-1177.3" y="1321.8" class="st1" width="742.9" height="546.4"/>
	<rect id="XMLID_247_" x="-314.8" y="740.3" class="st1" width="742.9" height="546.4"/>
	<g id="XMLID_142_">
		<g id="XMLID_147_">
			<rect id="XMLID_75_" x="-1177.7" y="2176.5" class="st6" width="742.9" height="123.9"/>
		</g>
		<g id="XMLID_146_">
		</g>
	</g>
	<rect id="XMLID_112_" x="-1177.7" y="3620.4" class="st10" width="742.9" height="696.4"/>
	<rect id="XMLID_111_" x="-944.8" y="2594.8" class="st31" width="126.1" height="27.9"/>
	<text id="XMLID_110_" transform="matrix(1 0 0 1 -937.8663 2599.5662)"><tspan x="0" y="0" class="st1" style="font-family:'Roboto-Thin'; font-size:6.2407px;">Desplegar items de un JSON con mismas </tspan><tspan x="-0.9" y="10.1" class="st1" style="font-family:'Roboto-Thin'; font-size:6.2407px;">caracteristicas, evitar refrescar la pagina al </tspan><tspan x="-4.8" y="20.2" class="st1" style="font-family:'Roboto-Thin'; font-size:6.2407px;">cambiar, sino solo  cambiando la informacion</tspan></text>
	<rect id="XMLID_102_" x="-1117.9" y="3908.3" class="st27" width="683.1" height="408.5"/>
	<polyline id="XMLID_101_" class="st16" points="-1105.8,2543.8 -1105.8,2597.5 -1105.4,2597.3 -1046.6,2597.3 -1046.8,2597 
		-1046.8,2661.8 	"/>
	<g id="XMLID_113_">
		<g id="XMLID_76_">
			<rect id="XMLID_141_" x="-1176.9" y="2833.4" class="st9" width="203.7" height="166.1"/>
		</g>
		<g id="XMLID_134_">
		</g>
	</g>
	<g id="XMLID_119_">
		<g id="XMLID_170_">
			<rect id="XMLID_16_" x="-1177.7" y="2833.4" class="st9" width="203.7" height="166.1"/>
		</g>
		<g id="XMLID_169_">
		</g>
	</g>
	<g id="XMLID_689_">
		<g id="XMLID_694_">
			<rect id="XMLID_688_" x="-1929.2" y="2833.4" class="st9" width="203.7" height="166.1"/>
		</g>
		<g id="XMLID_693_">
		</g>
	</g>
	<g id="XMLID_120_">
		<g id="XMLID_125_">
			<rect id="XMLID_65_" x="-1177.5" y="3345.6" class="st9" width="742.9" height="274.8"/>
		</g>
		<g id="XMLID_124_">
		</g>
	</g>
	<g id="XMLID_78_">
		<g id="XMLID_186_">
			<path id="XMLID_190_" class="st23" d="M-1024.1,2020.3c1,0,1-1.6,0-1.6C-1025.1,2018.8-1025.2,2020.3-1024.1,2020.3
				L-1024.1,2020.3z"/>
		</g>
	</g>
	<g id="XMLID_71_">
		<g id="XMLID_180_">
			<path id="XMLID_184_" class="st23" d="M-1007.5,1988.1c1,0,1-1.6,0-1.6C-1008.5,1986.5-1008.5,1988.1-1007.5,1988.1
				L-1007.5,1988.1z"/>
		</g>
	</g>
	<rect id="XMLID_293_" x="-304.7" y="1548" class="st0" width="742.5" height="546.4"/>
	<g id="XMLID_286_">
		<g id="XMLID_228_">
			<rect id="XMLID_249_" x="-304.7" y="1866.5" class="st6" width="742.9" height="123.9"/>
		</g>
		<g id="XMLID_229_">
		</g>
	</g>
	<g id="XMLID_279_">
		<g id="XMLID_642_">
			<path id="XMLID_646_" class="st23" d="M-151.1,1710.3c1,0,1-1.6,0-1.6C-152.1,1708.8-152.2,1710.3-151.1,1710.3L-151.1,1710.3z"
				/>
		</g>
	</g>
	<g id="XMLID_272_">
		<g id="XMLID_634_">
			<path id="XMLID_640_" class="st23" d="M-134.5,1678.1c1,0,1-1.6,0-1.6C-135.5,1676.5-135.5,1678.1-134.5,1678.1L-134.5,1678.1z"
				/>
		</g>
	</g>
	<g id="XMLID_159_">
		<g id="XMLID_164_">
			<rect id="XMLID_68_" x="-1117.8" y="2667.9" class="st2" width="683" height="123.9"/>
		</g>
		<g id="XMLID_163_">
		</g>
	</g>
	<g id="XMLID_81_">
		<g id="XMLID_2_">
			<rect id="XMLID_17_" x="-638.9" y="2356.8" class="st3" width="204.1" height="123.6"/>
		</g>
		<g id="XMLID_18_">
		</g>
	</g>
	<rect id="XMLID_310_" x="-304.7" y="2094.9" class="st1" width="742.9" height="546"/>
	<rect id="XMLID_309_" x="-71.8" y="2372.8" class="st31" width="126.1" height="27.9"/>
	<text id="XMLID_308_" transform="matrix(1 0 0 1 -64.8664 2377.5662)"><tspan x="0" y="0" class="st1" style="font-family:'Roboto-Thin'; font-size:6.2407px;">Desplegar items de un JSON con mismas </tspan><tspan x="-0.9" y="10.1" class="st1" style="font-family:'Roboto-Thin'; font-size:6.2407px;">caracteristicas, evitar refrescar la pagina al </tspan><tspan x="-4.8" y="20.2" class="st1" style="font-family:'Roboto-Thin'; font-size:6.2407px;">cambiar, sino solo  cambiando la informacion</tspan></text>
	<polyline id="XMLID_307_" class="st16" points="-232.8,2321.8 -232.8,2375.5 -232.4,2375.3 -173.6,2375.3 -173.8,2375 
		-173.8,2439.8 	"/>
	<g id="XMLID_300_">
		<g id="XMLID_298_">
			<rect id="XMLID_305_" x="-244.8" y="2430.6" class="st2" width="683" height="123.9"/>
		</g>
		<g id="XMLID_304_">
		</g>
	</g>
	<g id="XMLID_292_">
		<g id="XMLID_230_">
			<rect id="XMLID_297_" x="234.1" y="2134.8" class="st3" width="204.1" height="123.6"/>
		</g>
		<g id="XMLID_231_">
		</g>
	</g>
	<g id="XMLID_1724_">
		<rect id="XMLID_1769_" x="-3523.7" y="4250.3" class="st13" width="19.4" height="66.6"/>
		<rect id="XMLID_1760_" x="-3500.7" y="4250.3" class="st20" width="19.4" height="66.6"/>
		<rect id="XMLID_1759_" x="-3546.7" y="4250.3" class="st7" width="19.4" height="66.6"/>
		<rect id="XMLID_1738_" x="-3477.7" y="4250.3" class="st25" width="19.4" height="66.6"/>
		<rect id="XMLID_1737_" x="-3454.7" y="4250.3" class="st0" width="19.4" height="66.6"/>
		<rect id="XMLID_1727_" x="-3431.7" y="4250.3" class="st26" width="19.4" height="66.6"/>
		<rect id="XMLID_1725_" x="-3408.7" y="4250.3" class="st1" width="19.4" height="66.6"/>
	</g>
</g>
<g id="vectors">
	<line id="XMLID_109_" class="st11" x1="-1045.3" y1="2316.8" x2="-1045.3" y2="2362.8"/>
	<line id="XMLID_108_" class="st12" x1="-1045.3" y1="2222.8" x2="-1045.3" y2="2316.8"/>
	<line id="XMLID_104_" class="st11" x1="-920.3" y1="2329.8" x2="-771.3" y2="2329.8"/>
	<line id="XMLID_103_" class="st11" x1="-920.3" y1="2346.8" x2="-846.3" y2="2346.8"/>
	<g id="XMLID_98_">
		<rect id="XMLID_100_" x="-1070.3" y="1897.6" class="st17" width="19.2" height="13.7"/>
		<rect id="XMLID_99_" x="-1079.9" y="1904.5" class="st18" width="19.2" height="13.7"/>
	</g>
	<rect id="XMLID_227_" x="-1113.9" y="1456" class="st17" width="19.2" height="13.7"/>
	<rect id="XMLID_226_" x="-1117.8" y="1449.1" class="st8" width="19.2" height="13.7"/>
	<rect id="XMLID_91_" x="-1151.4" y="2285.5" class="st1" width="19.2" height="13.7"/>
	
		<rect id="XMLID_90_" x="-1138.9" y="2323" transform="matrix(0.9214 0.3886 -0.3886 0.9214 816.6123 621.9274)" class="st20" width="19.2" height="13.7"/>
	<g id="XMLID_95_">
		<rect id="XMLID_97_" x="-484.7" y="2263.6" class="st17" width="19.2" height="13.7"/>
		<rect id="XMLID_96_" x="-494.3" y="2270.5" class="st0" width="19.2" height="13.7"/>
	</g>
	<g id="XMLID_664_">
		<g id="XMLID_658_">
			<g id="XMLID_663_">
				<rect id="XMLID_636_" x="-2051.7" y="2176.5" class="st6" width="742.9" height="123.9"/>
			</g>
			<g id="XMLID_662_">
			</g>
		</g>
		<line id="XMLID_657_" class="st11" x1="-1919.3" y1="2316.8" x2="-1919.3" y2="2362.8"/>
		<line id="XMLID_656_" class="st12" x1="-1919.3" y1="2222.8" x2="-1919.3" y2="2316.8"/>
		<line id="XMLID_655_" class="st11" x1="-1794.3" y1="2329.8" x2="-1645.3" y2="2329.8"/>
		<line id="XMLID_654_" class="st11" x1="-1794.3" y1="2346.8" x2="-1720.3" y2="2346.8"/>
		<rect id="XMLID_653_" x="-2025.4" y="2285.5" class="st1" width="19.2" height="13.7"/>
		
			<rect id="XMLID_652_" x="-2012.9" y="2323" transform="matrix(0.9214 0.3886 -0.3886 0.9214 747.9243 961.5574)" class="st20" width="19.2" height="13.7"/>
		<g id="XMLID_649_">
			<rect id="XMLID_651_" x="-1358.7" y="2263.6" class="st17" width="19.2" height="13.7"/>
			<rect id="XMLID_650_" x="-1368.3" y="2270.5" class="st0" width="19.2" height="13.7"/>
		</g>
	</g>
	<g id="XMLID_92_">
		
			<rect id="XMLID_94_" x="-747.1" y="2391.6" transform="matrix(-0.7499 -0.6616 0.6616 -0.7499 -2877.4089 3708.9033)" class="st17" width="19.2" height="13.7"/>
		
			<rect id="XMLID_93_" x="-758.9" y="2390.4" transform="matrix(-0.7499 -0.6616 0.6616 -0.7499 -2897.0903 3699.011)" class="st19" width="19.2" height="13.7"/>
	</g>
	<g id="XMLID_665_">
		<g id="XMLID_669_">
			<g id="XMLID_674_">
				<rect id="XMLID_566_" x="-1450.4" y="2356.8" class="st3" width="204.1" height="123.6"/>
			</g>
			<g id="XMLID_673_">
			</g>
		</g>
		<g id="XMLID_666_">
			
				<rect id="XMLID_668_" x="-1558.6" y="2391.6" transform="matrix(-0.7499 -0.6616 0.6616 -0.7499 -4297.3447 3172.0393)" class="st17" width="19.2" height="13.7"/>
			
				<rect id="XMLID_667_" x="-1570.3" y="2390.4" transform="matrix(-0.7499 -0.6616 0.6616 -0.7499 -4317.0259 3162.147)" class="st19" width="19.2" height="13.7"/>
		</g>
	</g>
	<g id="XMLID_151_">
		<g id="XMLID_70_">
			<g id="XMLID_56_">
				<rect id="XMLID_88_" x="-1117.9" y="1756.6" class="st8" width="106.6" height="125.6"/>
			</g>
			<g id="XMLID_87_">
			</g>
		</g>
		<rect id="XMLID_69_" x="-1117.9" y="1868" class="st13" width="106.6" height="14.2"/>
	</g>
	<g id="XMLID_1_">
		<g id="XMLID_118_">
			<g id="XMLID_154_">
				<rect x="-654.5" y="1334.1" class="st7" width="160.2" height="553.3"/>
			</g>
			<g id="XMLID_153_">
			</g>
		</g>
		<rect id="XMLID_67_" x="-654.5" y="1868.3" class="st13" width="160.2" height="19.1"/>
	</g>
	<g id="XMLID_66_">
		<g id="XMLID_641_">
			<rect id="XMLID_648_" x="-1899.7" y="1897.6" class="st17" width="19.2" height="13.7"/>
			<rect id="XMLID_647_" x="-1909.3" y="1904.5" class="st18" width="19.2" height="13.7"/>
		</g>
		<g id="XMLID_622_">
			<g id="XMLID_626_">
				<g>
					<rect x="-1947.4" y="1756.6" class="st8" width="106.6" height="125.6"/>
				</g>
				<g>
				</g>
			</g>
			<rect id="XMLID_623_" x="-1947.4" y="1868" class="st13" width="106.6" height="14.2"/>
		</g>
	</g>
	<rect id="XMLID_453_" x="-1484" y="1868.3" class="st13" width="160.2" height="19.1"/>
	<line id="XMLID_629_" class="st12" x1="-172.3" y1="1949.8" x2="-172.3" y2="2094.8"/>
	<g id="XMLID_624_">
		<rect id="XMLID_627_" x="-197.3" y="1587.6" class="st17" width="19.2" height="13.7"/>
		<rect id="XMLID_625_" x="-206.9" y="1594.5" class="st18" width="19.2" height="13.7"/>
	</g>
	<rect id="XMLID_450_" x="-288.4" y="2070.3" class="st1" width="19.2" height="13.7"/>
	<g id="XMLID_616_">
		<rect id="XMLID_618_" x="388.3" y="1953.6" class="st17" width="19.2" height="13.7"/>
		<rect id="XMLID_617_" x="378.7" y="1960.5" class="st0" width="19.2" height="13.7"/>
	</g>
	<rect id="XMLID_615_" x="-245.5" y="1547.8" class="st13" width="106.6" height="14.8"/>
	<rect id="XMLID_612_" x="218" y="1547.8" class="st13" width="160.2" height="19.1"/>
	<rect id="XMLID_590_" x="-251.4" y="874.5" class="st17" width="19.2" height="13.7"/>
	<rect id="XMLID_589_" x="-255.3" y="867.6" class="st8" width="19.2" height="13.7"/>
	<g id="XMLID_260_">
		<g id="XMLID_563_">
			<g id="XMLID_587_">
				<rect id="XMLID_628_" x="-255.5" y="1103.5" class="st8" width="106.6" height="183.3"/>
			</g>
			<g id="XMLID_586_">
			</g>
		</g>
	</g>
	<g id="XMLID_234_">
		<g id="XMLID_235_">
			<g id="XMLID_258_">
				<rect id="XMLID_107_" x="208" y="752.6" class="st7" width="160.2" height="534.2"/>
			</g>
			<g id="XMLID_257_">
			</g>
		</g>
	</g>
	<g id="XMLID_85_">
		<rect id="XMLID_89_" x="-461.4" y="2819" class="st21" width="19.2" height="13.7"/>
		<rect id="XMLID_86_" x="-481" y="2834.2" class="st22" width="19.2" height="13.7"/>
	</g>
	<g id="XMLID_682_">
		<g id="XMLID_676_">
			<g id="XMLID_681_">
				<rect id="XMLID_675_" x="-1929.2" y="2667.9" class="st2" width="683" height="123.9"/>
			</g>
			<g id="XMLID_680_">
			</g>
		</g>
		<g id="XMLID_683_">
			<rect id="XMLID_687_" x="-1289.2" y="2819" class="st21" width="19.2" height="13.7"/>
			<rect id="XMLID_684_" x="-1308.8" y="2834.2" class="st22" width="19.2" height="13.7"/>
		</g>
	</g>
	<line id="XMLID_173_" class="st4" x1="-745.3" y1="3364.8" x2="-745.3" y2="3114.8"/>
	<line id="XMLID_172_" class="st5" x1="-707.3" y1="3364.8" x2="-707.3" y2="3260.8"/>
	<line id="XMLID_447_" class="st11" x1="-172.3" y1="2094.8" x2="-172.3" y2="2140.8"/>
	<line id="XMLID_340_" class="st11" x1="-47.3" y1="2107.8" x2="101.7" y2="2107.8"/>
	<line id="XMLID_285_" class="st11" x1="-47.3" y1="2124.8" x2="26.7" y2="2124.8"/>
	
		<rect id="XMLID_284_" x="-265.9" y="2101" transform="matrix(0.9214 0.3886 -0.3886 0.9214 798.954 265.2391)" class="st20" width="19.2" height="13.7"/>
	<g id="XMLID_281_">
		
			<rect id="XMLID_283_" x="125.9" y="2169.6" transform="matrix(-0.7499 -0.6616 0.6616 -0.7499 -1202.9103 3898.0151)" class="st17" width="19.2" height="13.7"/>
		
			<rect id="XMLID_282_" x="114.1" y="2168.4" transform="matrix(-0.7499 -0.6616 0.6616 -0.7499 -1222.5917 3888.123)" class="st19" width="19.2" height="13.7"/>
	</g>
	<rect id="XMLID_333_" x="-314.3" y="2728.4" class="st0" width="742.5" height="546.4"/>
	<g id="XMLID_326_">
		<g id="XMLID_331_">
			<rect id="XMLID_325_" x="-313.9" y="2728.4" class="st9" width="203.7" height="166.1"/>
		</g>
		<g id="XMLID_330_">
		</g>
	</g>
	<g id="XMLID_319_">
		<g id="XMLID_324_">
			<rect id="XMLID_318_" x="-314.7" y="2728.4" class="st9" width="203.7" height="166.1"/>
		</g>
		<g id="XMLID_323_">
		</g>
	</g>
	<rect id="XMLID_264_" x="382" y="2729.2" class="st22" width="19.2" height="13.7"/>
	<rect id="XMLID_266_" x="402" y="2715.5" class="st21" width="19.2" height="13.7"/>
	<g id="XMLID_57_">
		<rect id="XMLID_64_" x="-598" y="4250.3" class="st13" width="15" height="66.6"/>
		<rect id="XMLID_63_" x="-580.3" y="4250.3" class="st20" width="15" height="66.6"/>
		<rect id="XMLID_62_" x="-615.8" y="4250.3" class="st7" width="15" height="66.6"/>
		<rect id="XMLID_61_" x="-562.5" y="4250.3" class="st25" width="15" height="66.6"/>
		<rect id="XMLID_60_" x="-544.7" y="4250.3" class="st0" width="15" height="66.6"/>
		<rect id="XMLID_59_" x="-527" y="4250.3" class="st26" width="15" height="66.6"/>
		<rect id="XMLID_58_" x="-509.2" y="4250.3" class="st1" width="15" height="66.6"/>
	</g>
	<g id="XMLID_696_">
		<rect id="XMLID_703_" x="-1630.7" y="4250.3" class="st13" width="15" height="66.6"/>
		<rect id="XMLID_702_" x="-1613" y="4250.3" class="st20" width="15" height="66.6"/>
		<rect id="XMLID_701_" x="-1648.5" y="4250.3" class="st7" width="15" height="66.6"/>
		<rect id="XMLID_700_" x="-1595.2" y="4250.3" class="st25" width="15" height="66.6"/>
		<rect id="XMLID_699_" x="-1577.5" y="4250.3" class="st0" width="15" height="66.6"/>
		<rect id="XMLID_698_" x="-1559.7" y="4250.3" class="st26" width="15" height="66.6"/>
		<rect id="XMLID_697_" x="-1541.9" y="4250.3" class="st1" width="15" height="66.6"/>
	</g>
	<g id="XMLID_241_">
		<rect id="XMLID_240_" x="-314.5" y="3574.7" class="st10" width="742.9" height="271.6"/>
		<rect id="XMLID_339_" x="-254.7" y="3629.3" class="st27" width="683.1" height="217"/>
		<g id="XMLID_312_">
			<g id="XMLID_317_">
				<rect id="XMLID_232_" x="-314.5" y="3299.9" class="st9" width="742.9" height="274.8"/>
			</g>
			<g id="XMLID_316_">
			</g>
		</g>
		<g id="XMLID_273_">
			<rect id="XMLID_338_" x="265.2" y="3779.7" class="st13" width="15" height="66.6"/>
			<rect id="XMLID_337_" x="282.9" y="3779.7" class="st20" width="15" height="66.6"/>
			<rect id="XMLID_336_" x="247.4" y="3779.7" class="st7" width="15" height="66.6"/>
			<rect id="XMLID_335_" x="300.7" y="3779.7" class="st25" width="15" height="66.6"/>
			<rect id="XMLID_334_" x="318.5" y="3779.7" class="st0" width="15" height="66.6"/>
			<rect id="XMLID_332_" x="336.2" y="3779.7" class="st26" width="15" height="66.6"/>
			<rect id="XMLID_311_" x="354" y="3779.7" class="st1" width="15" height="66.6"/>
		</g>
	</g>
	<g id="XMLID_150_">
		<line id="XMLID_194_" class="st28" x1="-494.3" y1="1190.2" x2="-494.3" y2="4560.8"/>
		<g id="XMLID_185_">
			<line id="XMLID_193_" class="st29" x1="-494.3" y1="1190.2" x2="-494.3" y2="1196.2"/>
			<line id="XMLID_192_" class="st30" x1="-494.3" y1="1208.2" x2="-494.3" y2="4548.8"/>
			<line id="XMLID_191_" class="st29" x1="-494.3" y1="4554.8" x2="-494.3" y2="4560.8"/>
		</g>
	</g>
	<g id="XMLID_155_">
		<line id="XMLID_209_" class="st28" x1="-1117.9" y1="4384.2" x2="-1117.9" y2="1013.5"/>
		<g id="XMLID_205_">
			<line id="XMLID_208_" class="st29" x1="-1117.9" y1="4384.2" x2="-1117.9" y2="4378.2"/>
			<line id="XMLID_207_" class="st30" x1="-1117.9" y1="4366.2" x2="-1117.9" y2="1025.6"/>
			<line id="XMLID_206_" class="st29" x1="-1117.9" y1="1019.5" x2="-1117.9" y2="1013.5"/>
		</g>
	</g>
	<rect id="XMLID_479_" x="-2513.7" y="-4" class="st1" width="1025.9" height="713.2"/>
	<rect id="XMLID_460_" x="-2192.1" y="379.7" class="st31" width="174.2" height="38.6"/>
	<text id="XMLID_459_" transform="matrix(1 0 0 1 -2182.5098 386.2612)"><tspan x="0" y="0" class="st1" style="font-family:'Roboto-Thin'; font-size:8.6179px;">Desplegar items de un JSON con mismas </tspan><tspan x="-1.3" y="13.9" class="st1" style="font-family:'Roboto-Thin'; font-size:8.6179px;">caracteristicas, evitar refrescar la pagina al </tspan><tspan x="-6.7" y="27.9" class="st1" style="font-family:'Roboto-Thin'; font-size:8.6179px;">cambiar, sino solo  cambiando la informacion</tspan></text>
	<polyline id="XMLID_458_" class="st16" points="-2414.8,308.8 -2414.8,383.5 -2413.9,383.3 -2332.7,383.3 -2332.8,382.8 
		-2332.8,471.8 	"/>
	<g id="XMLID_386_">
		<g id="XMLID_406_">
			<rect id="XMLID_414_" x="-2431" y="480.6" class="st2" width="943.2" height="171.1"/>
		</g>
		<g id="XMLID_391_">
		</g>
	</g>
	<g id="XMLID_290_">
		<g id="XMLID_384_">
			<rect id="XMLID_385_" x="-1769.7" y="51" class="st3" width="281.9" height="170.7"/>
		</g>
		<g id="XMLID_383_">
		</g>
	</g>
	<line id="XMLID_278_" class="st11" x1="-2331.3" y1="-4.2" x2="-2331.3" y2="59.8"/>
	<line id="XMLID_277_" class="st11" x1="-2158.3" y1="13.8" x2="-1952.3" y2="13.8"/>
	<line id="XMLID_274_" class="st11" x1="-2158.3" y1="36.8" x2="-2056.3" y2="36.8"/>
	
		<rect id="XMLID_271_" x="-2460.1" y="4.4" transform="matrix(0.9214 0.3886 -0.3886 0.9214 -186.9336 951.8995)" class="st20" width="26.5" height="18.9"/>
	<g id="XMLID_268_">
		
			<rect id="XMLID_270_" x="-1919.1" y="99.1" transform="matrix(-0.7499 -0.6616 0.6616 -0.7499 -3406.8066 -1071.1167)" class="st17" width="26.5" height="18.9"/>
		
			<rect id="XMLID_269_" x="-1935.3" y="97.4" transform="matrix(-0.7499 -0.6616 0.6616 -0.7499 -3433.9851 -1084.7773)" class="st19" width="26.5" height="18.9"/>
	</g>
	<rect id="XMLID_267_" x="-1524.6" y="689.3" class="st21" width="26.5" height="18.9"/>
	<line id="XMLID_522_" class="st31" x1="-1434.3" y1="-3.7" x2="-1434.3" y2="716.3"/>
	<rect id="XMLID_238_" x="499.5" y="2660" class="st32" width="742.9" height="546.4"/>
	<rect id="XMLID_280_" x="499.5" y="2020.1" class="st32" width="742.9" height="546.4"/>
	<rect id="XMLID_244_" x="499.5" y="1380.2" class="st32" width="742.9" height="546.4"/>
	<rect id="XMLID_246_" x="499.5" y="740.3" class="st32" width="742.9" height="546.4"/>
	<rect id="XMLID_237_" x="499.5" y="3299.9" class="st32" width="742.9" height="546.4"/>
	<line id="XMLID_245_" class="st4" x1="117.7" y1="3259.8" x2="117.7" y2="3009.8"/>
	<line id="XMLID_243_" class="st5" x1="155.7" y1="3259.8" x2="155.7" y2="3155.8"/>
	<linearGradient id="XMLID_499_" gradientUnits="userSpaceOnUse" x1="-654.5076" y1="1601.2034" x2="-494.2665" y2="1601.2034">
		<stop  offset="0" style="stop-color:#A01127;stop-opacity:0.5"/>
		<stop  offset="1" style="stop-color:#211915"/>
	</linearGradient>
	<rect id="XMLID_117_" x="-654.5" y="1334.1" class="st33" width="160.2" height="534.2"/>
	<rect id="XMLID_276_" x="-1484" y="1334.1" class="st8" width="160.2" height="534.2"/>
	<g id="XMLID_242_">
		<g id="XMLID_251_">
			<g id="XMLID_256_">
				<rect id="XMLID_259_" x="0" y="0" class="st7" width="160.2" height="553.3"/>
			</g>
			<g id="XMLID_255_">
			</g>
		</g>
		<rect id="XMLID_250_" y="534.2" class="st13" width="160.2" height="19.1"/>
	</g>
	<linearGradient id="XMLID_500_" gradientUnits="userSpaceOnUse" x1="0" y1="267.0804" x2="160.2411" y2="267.0804">
		<stop  offset="0" style="stop-color:#A01127;stop-opacity:0.5"/>
		<stop  offset="1" style="stop-color:#211915"/>
	</linearGradient>
	<rect id="XMLID_137_" class="st34" width="160.2" height="534.2"/>
</g>
<g id="Capa_3">
	<g id="XMLID_216_">
		<line id="XMLID_215_" class="st35" x1="-494.5" y1="1322.4" x2="-494.5" y2="3744.9"/>
		<line id="XMLID_214_" class="st35" x1="-1117.8" y1="1322.4" x2="-1117.8" y2="3744.9"/>
		<line id="XMLID_213_" class="st35" x1="-532.5" y1="1322.4" x2="-532.5" y2="3744.9"/>
		<line id="XMLID_212_" class="st35" x1="-548" y1="1322.4" x2="-548" y2="3744.9"/>
		<line id="XMLID_211_" class="st35" x1="-585.4" y1="1322.4" x2="-585.4" y2="3744.9"/>
		<line id="XMLID_210_" class="st35" x1="-601" y1="1322.4" x2="-601" y2="3744.9"/>
		<line id="XMLID_203_" class="st35" x1="-1011.3" y1="1322.4" x2="-1011.3" y2="3744.9"/>
		<line id="XMLID_202_" class="st35" x1="-1026.9" y1="1322.4" x2="-1026.9" y2="3744.9"/>
		<line id="XMLID_201_" class="st35" x1="-1064.3" y1="1322.4" x2="-1064.3" y2="3744.9"/>
		<line id="XMLID_199_" class="st35" x1="-1079.9" y1="1322.4" x2="-1079.9" y2="3744.9"/>
		<line id="XMLID_198_" class="st35" x1="-638.9" y1="1322.4" x2="-638.9" y2="3744.9"/>
		<line id="XMLID_197_" class="st35" x1="-654.5" y1="1322.4" x2="-654.5" y2="3744.9"/>
		<line id="XMLID_196_" class="st35" x1="-691.9" y1="1322.4" x2="-691.9" y2="3744.9"/>
		<line id="XMLID_195_" class="st35" x1="-707.5" y1="1322.4" x2="-707.5" y2="3744.9"/>
		<line id="XMLID_178_" class="st35" x1="-745.4" y1="1322.4" x2="-745.4" y2="3744.9"/>
		<line id="XMLID_177_" class="st35" x1="-761" y1="1322.4" x2="-761" y2="3744.9"/>
		<line id="XMLID_174_" class="st35" x1="-798.4" y1="1322.4" x2="-798.4" y2="3744.9"/>
		<line id="XMLID_171_" class="st35" x1="-813.9" y1="1322.4" x2="-813.9" y2="3744.9"/>
		<line id="XMLID_165_" class="st35" x1="-851.3" y1="1322.4" x2="-851.3" y2="3744.9"/>
		<line id="XMLID_158_" class="st35" x1="-866.9" y1="1322.4" x2="-866.9" y2="3744.9"/>
		<line id="XMLID_156_" class="st35" x1="-904.8" y1="1322.4" x2="-904.8" y2="3744.9"/>
		<line id="XMLID_140_" class="st35" x1="-920.4" y1="1322.4" x2="-920.4" y2="3744.9"/>
		<line id="XMLID_139_" class="st35" x1="-957.8" y1="1322.4" x2="-957.8" y2="3744.9"/>
		<line id="XMLID_138_" class="st35" x1="-973.4" y1="1322.4" x2="-973.4" y2="3744.9"/>
	</g>
	<g id="XMLID_20_">
		<rect id="XMLID_224_" x="-4264.8" y="1321.8" class="st36" width="961.5" height="81.6"/>
		<line id="XMLID_223_" class="st35" x1="-3380.4" y1="1322.4" x2="-3380.4" y2="3744.9"/>
		<line id="XMLID_222_" class="st35" x1="-4187.7" y1="1322.4" x2="-4187.7" y2="3744.9"/>
		<line id="XMLID_221_" class="st35" x1="-3429.6" y1="1322.4" x2="-3429.6" y2="3744.9"/>
		<line id="XMLID_220_" class="st35" x1="-3449.7" y1="1322.4" x2="-3449.7" y2="3744.9"/>
		<line id="XMLID_219_" class="st35" x1="-3498.2" y1="1322.4" x2="-3498.2" y2="3744.9"/>
		<line id="XMLID_218_" class="st35" x1="-3518.4" y1="1322.4" x2="-3518.4" y2="3744.9"/>
		<line id="XMLID_217_" class="st35" x1="-4049.8" y1="1322.4" x2="-4049.8" y2="3744.9"/>
		<line id="XMLID_136_" class="st35" x1="-4070" y1="1322.4" x2="-4070" y2="3744.9"/>
		<line id="XMLID_135_" class="st35" x1="-4118.4" y1="1322.4" x2="-4118.4" y2="3744.9"/>
		<line id="XMLID_130_" class="st35" x1="-4138.6" y1="1322.4" x2="-4138.6" y2="3744.9"/>
		<line id="XMLID_129_" class="st35" x1="-3567.5" y1="1322.4" x2="-3567.5" y2="3744.9"/>
		<line id="XMLID_128_" class="st35" x1="-3587.6" y1="1322.4" x2="-3587.6" y2="3744.9"/>
		<line id="XMLID_127_" class="st35" x1="-3636.1" y1="1322.4" x2="-3636.1" y2="3744.9"/>
		<line id="XMLID_106_" class="st35" x1="-3656.3" y1="1322.4" x2="-3656.3" y2="3744.9"/>
		<line id="XMLID_105_" class="st35" x1="-3705.4" y1="1322.4" x2="-3705.4" y2="3744.9"/>
		<line id="XMLID_74_" class="st35" x1="-3725.6" y1="1322.4" x2="-3725.6" y2="3744.9"/>
		<line id="XMLID_73_" class="st35" x1="-3774" y1="1322.4" x2="-3774" y2="3744.9"/>
		<line id="XMLID_72_" class="st35" x1="-3794.2" y1="1322.4" x2="-3794.2" y2="3744.9"/>
		<line id="XMLID_55_" class="st35" x1="-3842.6" y1="1322.4" x2="-3842.6" y2="3744.9"/>
		<line id="XMLID_54_" class="st35" x1="-3862.8" y1="1322.4" x2="-3862.8" y2="3744.9"/>
		<line id="XMLID_53_" class="st35" x1="-3911.9" y1="1322.4" x2="-3911.9" y2="3744.9"/>
		<line id="XMLID_28_" class="st35" x1="-3932.1" y1="1322.4" x2="-3932.1" y2="3744.9"/>
		<line id="XMLID_27_" class="st35" x1="-3980.5" y1="1322.4" x2="-3980.5" y2="3744.9"/>
		<line id="XMLID_25_" class="st35" x1="-4000.7" y1="1322.4" x2="-4000.7" y2="3744.9"/>
	</g>
</g>
</svg>
