<?xml version="1.0" encoding="utf-8"?>
<!-- Generator: Adobe Illustrator 19.0.0, SVG Export Plug-In . SVG Version: 6.00 Build 0)  -->
<svg version="1.1" id="Capa_1" xmlns="http://www.w3.org/2000/svg" xmlns:xlink="http://www.w3.org/1999/xlink" x="0px" y="0px"
	 viewBox="-145 229.5 304.7 383.4" style="enable-background:new -145 229.5 304.7 383.4;" xml:space="preserve">
<style type="text/css">
	.st0{opacity:0.85;fill:#141414;enable-background:new    ;}
	.st1{opacity:8.000000e-002;fill:#FFFFFF;enable-background:new    ;}
	.st2{opacity:5.000000e-002;}
	.st3{fill:#FFFFFF;}
	.st4{opacity:8.000000e-002;fill:#FFFFFF;}
	.st5{opacity:0.8;fill:#FFFFFF;enable-background:new    ;}
	.st6{fill:none;}
	.st7{opacity:0.85;enable-background:new    ;}
	.st8{fill:#141414;}
	.st9{fill:#66B1D1;}
	.st10{fill:none;stroke:#66B1D1;stroke-width:0.2281;stroke-miterlimit:10;}
	.st11{opacity:0.71;}
	.st12{fill:#CCCDCE;}
	.st13{fill:#838384;}
	.st14{enable-background:new    ;}
	.st15{opacity:0.74;fill:#F3E141;enable-background:new    ;}
	.st16{fill:#030104;}
</style>
<rect x="-137" y="263.9" class="st0" width="270.4" height="338.5"/>
<rect x="-109" y="305.3" class="st1" width="212.7" height="252.3"/>
<g id="XMLID_6453_" class="st2">
	<rect x="-94.4" y="311.7" class="st3" width="170.2" height="209.2"/>
</g>
<rect x="-81.5" y="381.6" class="st4" width="145.8" height="93.7"/>
<g id="XMLID_6441_">
	<circle id="XMLID_6444_" class="st5" cx="81.2" cy="535.9" r="22.6"/>
	<rect id="XMLID_120_" x="63.6" y="532.4" class="st6" width="35.3" height="6.9"/>
	<g class="st7">
		<path class="st8" d="M67.9,536.5c0-0.7,0.2-1.3,0.5-1.8c0.3-0.4,0.8-0.7,1.4-0.7c0.2,0,0.4,0,0.6,0.1c0.2,0.1,0.3,0.2,0.5,0.4
			v-2.6h1.5v6.8H71l-0.1-0.6c-0.1,0.2-0.3,0.4-0.5,0.5c-0.2,0.1-0.4,0.2-0.7,0.2c-0.6,0-1-0.2-1.3-0.6
			C68.1,537.9,67.9,537.3,67.9,536.5L67.9,536.5z M69.4,536.6c0,0.4,0.1,0.7,0.2,0.9c0.1,0.2,0.3,0.3,0.6,0.3c0.2,0,0.3,0,0.4-0.1
			s0.2-0.1,0.3-0.3v-1.9c-0.1-0.1-0.2-0.2-0.3-0.3s-0.2-0.1-0.4-0.1c-0.3,0-0.4,0.1-0.6,0.4C69.5,535.8,69.4,536.1,69.4,536.6
			L69.4,536.6z"/>
		<path class="st8" d="M74.7,534.1v4.8c0,0.6-0.2,1-0.5,1.4c-0.3,0.3-0.8,0.5-1.3,0.5c-0.1,0-0.2,0-0.4,0c-0.1,0-0.2,0-0.3-0.1
			l0.1-1.1c0.1,0,0.2,0,0.2,0c0.1,0,0.1,0,0.2,0c0.2,0,0.3-0.1,0.4-0.2s0.1-0.3,0.1-0.5v-4.8H74.7z M74.7,533h-1.5v-1h1.5V533z"/>
		<path class="st8" d="M78.3,538.8c-0.1-0.1-0.1-0.2-0.1-0.3c0-0.1-0.1-0.3-0.1-0.4c-0.1,0.3-0.3,0.4-0.5,0.6
			c-0.2,0.1-0.4,0.2-0.7,0.2c-0.5,0-0.9-0.1-1.2-0.4s-0.4-0.6-0.4-1c0-0.5,0.2-0.8,0.5-1.1c0.4-0.3,0.9-0.4,1.6-0.4H78v-0.3
			c0-0.2,0-0.4-0.1-0.5s-0.2-0.2-0.4-0.2c-0.2,0-0.3,0-0.4,0.1c-0.1,0.1-0.1,0.2-0.1,0.4l-1.4,0l0,0c0-0.4,0.2-0.8,0.5-1.1
			c0.4-0.3,0.9-0.4,1.5-0.4c0.6,0,1.1,0.1,1.4,0.4c0.4,0.3,0.5,0.7,0.5,1.2v1.8c0,0.3,0,0.5,0.1,0.7c0,0.2,0.1,0.4,0.2,0.6
			L78.3,538.8z M77.2,537.9c0.2,0,0.3,0,0.5-0.1c0.1-0.1,0.2-0.2,0.3-0.3v-0.6h-0.6c-0.2,0-0.4,0.1-0.5,0.2s-0.2,0.3-0.2,0.4
			c0,0.1,0,0.2,0.1,0.3C77,537.8,77.1,537.9,77.2,537.9z"/>
		<path class="st8" d="M81.6,534.1l0.1,0.7c0.2-0.2,0.3-0.4,0.6-0.6c0.2-0.1,0.5-0.2,0.8-0.2c0.5,0,0.8,0.2,1.1,0.5s0.4,0.8,0.4,1.5
			v2.8H83V536c0-0.3,0-0.5-0.1-0.6c-0.1-0.1-0.2-0.2-0.4-0.2c-0.2,0-0.3,0-0.4,0.1c-0.1,0.1-0.2,0.1-0.3,0.2v3.3h-1.5v-4.7H81.6z"/>
		<path class="st8" d="M85.1,536.5c0-0.7,0.2-1.3,0.5-1.8c0.3-0.4,0.8-0.7,1.4-0.7c0.2,0,0.5,0.1,0.7,0.2s0.4,0.3,0.5,0.5l0.1-0.6
			h1.3v4.7c0,0.6-0.2,1.1-0.6,1.4c-0.4,0.3-1,0.5-1.8,0.5c-0.2,0-0.5,0-0.8-0.1c-0.3-0.1-0.5-0.2-0.8-0.3l0.3-1.1
			c0.2,0.1,0.4,0.2,0.6,0.2c0.2,0,0.4,0.1,0.7,0.1c0.3,0,0.5-0.1,0.7-0.2c0.2-0.1,0.2-0.3,0.2-0.6v-0.4c-0.1,0.2-0.3,0.3-0.5,0.4
			s-0.4,0.1-0.6,0.1c-0.6,0-1-0.2-1.3-0.6S85.1,537.3,85.1,536.5L85.1,536.5z M86.5,536.6c0,0.4,0.1,0.7,0.2,0.9
			c0.1,0.2,0.3,0.3,0.6,0.3c0.2,0,0.3,0,0.4-0.1c0.1,0,0.2-0.1,0.3-0.2v-2c-0.1-0.1-0.2-0.2-0.3-0.3s-0.2-0.1-0.4-0.1
			c-0.3,0-0.5,0.1-0.6,0.4C86.6,535.8,86.5,536.1,86.5,536.6L86.5,536.6z"/>
		<path class="st8" d="M90.1,536.4c0-0.7,0.2-1.3,0.6-1.7s1-0.7,1.7-0.7c0.7,0,1.3,0.2,1.7,0.7c0.4,0.4,0.6,1,0.6,1.7v0.1
			c0,0.7-0.2,1.3-0.6,1.7c-0.4,0.4-1,0.7-1.7,0.7c-0.7,0-1.3-0.2-1.7-0.7C90.3,537.8,90.1,537.2,90.1,536.4L90.1,536.4z M91.6,536.5
			c0,0.4,0.1,0.7,0.2,0.9c0.1,0.2,0.3,0.3,0.6,0.3c0.3,0,0.5-0.1,0.6-0.3s0.2-0.5,0.2-0.9v-0.1c0-0.4-0.1-0.7-0.2-0.9
			s-0.3-0.3-0.6-0.3c-0.3,0-0.5,0.1-0.6,0.3S91.6,536.1,91.6,536.5L91.6,536.5z"/>
	</g>
</g>
<g id="XMLID_6361_">
	<g id="XMLID_6374_">
		<g id="XMLID_6418_">
			<g id="XMLID_6362_">
				<path id="XMLID_29_" class="st9" d="M67.2,424.3c0,13.6-27,24.6-60.2,24.6s-60.2-11-60.2-24.6s27-24.6,60.2-24.6
					S67.2,410.7,67.2,424.3z M7,443.8c30.4,0,55.1-8.7,55.1-19.5S37.4,404.8,7,404.8s-55.1,8.7-55.1,19.5
					C-48.1,435.1-23.4,443.8,7,443.8z"/>
			</g>
			<g id="XMLID_6380_">
				<ellipse id="XMLID_33_" class="st10" cx="7" cy="424.3" rx="60.2" ry="24.6"/>
				<ellipse id="XMLID_32_" class="st10" cx="7" cy="424.3" rx="55.1" ry="19.5"/>
			</g>
		</g>
		<circle id="XMLID_6417_" class="st9" cx="7.3" cy="424.3" r="11"/>
		<g id="XMLID_6405_">
			<g id="XMLID_6314_">
				<path id="XMLID_17_" class="st9" d="M37.7,476.1c-11.7,6.9-35-10.6-52-39.2s-21.3-57.4-9.6-64.4c11.7-6.9,35,10.6,52,39.2
					C45.1,440.3,49.4,469.1,37.7,476.1z M-9.8,434.3c15.5,26.1,35.6,42.9,44.9,37.4s4.2-31.2-11.4-57.3
					C8.2,388.3-11.9,371.5-21.2,377C-30.4,382.5-25.3,408.1-9.8,434.3z"/>
			</g>
			<g id="XMLID_6316_">
				
					<ellipse id="XMLID_28_" transform="matrix(-0.8597 0.5107 -0.5107 -0.8597 229.5583 785.4585)" class="st10" cx="6.9" cy="424.3" rx="24.6" ry="60.2"/>
				
					<ellipse id="XMLID_25_" transform="matrix(-0.8597 0.5107 -0.5107 -0.8597 229.5591 785.4584)" class="st10" cx="6.9" cy="424.3" rx="19.5" ry="55.1"/>
			</g>
		</g>
		<g id="XMLID_6375_">
			<g id="XMLID_6296_">
				<path id="XMLID_4_" class="st9" d="M28.2,436.6c-17,28.6-40.3,46.2-52,39.2s-7.4-35.8,9.6-64.4s40.3-46.2,52-39.2
					C49.4,379.2,45.1,408,28.2,436.6z M-21.1,471.3c9.3,5.5,29.4-11.2,44.9-37.4c15.5-26.1,20.6-51.8,11.4-57.3
					c-9.3-5.5-29.4,11.2-44.9,37.4C-25.3,440.2-30.4,465.8-21.1,471.3z"/>
			</g>
			<g id="XMLID_6299_">
				
					<ellipse id="XMLID_8_" transform="matrix(-0.8597 -0.5107 0.5107 -0.8597 -203.63 792.0184)" class="st10" cx="6.9" cy="424" rx="24.6" ry="60.2"/>
				
					<ellipse id="XMLID_7_" transform="matrix(-0.8597 -0.5107 0.5107 -0.8597 -203.6297 792.0179)" class="st10" cx="6.9" cy="424" rx="19.5" ry="55.1"/>
			</g>
		</g>
	</g>
</g>
<g id="XMLID_6363_" class="st11">
	<circle id="XMLID_6373_" class="st3" cx="98" cy="309.8" r="19.4"/>
	<path id="XMLID_6369_" class="st0" d="M98,311.8c-0.3,0.5-0.7,1-1,1.5c-0.8,1-1.8,1.9-3.1,2.4c-1,0.4-2,0.5-3.1,0.4
		c-2.1-0.2-3.7-1.1-4.9-2.8c-2-2.9-1.1-6.7,1.8-8.6c2.6-1.6,6-1.3,8.3,0.7c0.7,0.6,1.3,1.3,1.8,2.1c0.1,0.1,0.1,0.2,0.2,0.3
		c0.4-0.5,0.8-1.1,1.2-1.5c1-1.1,2.3-2,3.8-2.4c2.7-0.7,5.6,0.3,7.1,2.6c2,2.9,1.2,6.8-1.8,8.7c-1.3,0.8-2.7,1.1-4.3,1
		c-2.1-0.1-3.6-1.2-4.9-2.7c-0.3-0.4-0.6-0.8-0.9-1.3C98.1,312,98.1,311.9,98,311.8z M91.4,313.8c1.3,0.1,2.3-0.4,3.2-1.3
		c0.8-0.8,1.4-1.8,2-2.7c0-0.1,0-0.1,0-0.2c-0.6-0.9-1.1-1.7-1.9-2.4c-1.4-1.3-3.1-1.7-4.9-1.1c-1.5,0.5-2.5,1.5-2.7,3.1
		c-0.3,1.5,0.2,2.8,1.4,3.8C89.3,313.6,90.3,313.9,91.4,313.8z M104.6,313.8c0.5,0,1,0,1.5-0.2c1.6-0.6,2.7-1.7,2.9-3.4
		c0.2-1.6-0.5-2.9-1.8-3.7c-1.6-1.1-3.8-1-5.4,0.2c-1.1,0.8-1.8,1.8-2.5,2.9c0,0.1,0,0.1,0,0.2c0.6,0.9,1.1,1.8,1.9,2.6
		C102.1,313.4,103.2,313.9,104.6,313.8z"/>
	<path id="XMLID_6368_" class="st0" d="M91.4,309c0.6,0,1.2,0,1.8,0c0.2,0,0.2,0,0.2,0.2c0,0.3,0,0.6,0,0.9c0,0.1,0,0.2-0.2,0.2
		c-1.2,0-2.4,0-3.6,0c-0.1,0-0.2,0-0.1-0.1c0-0.3,0-0.6,0-0.9c0-0.1,0-0.2,0.2-0.2C90.2,309,90.8,309,91.4,309z"/>
	<path id="XMLID_6367_" class="st0" d="M104.4,311.5c-0.2,0-0.3,0-0.5,0c-0.1,0-0.2,0-0.1-0.1c0-0.3,0-0.6,0-0.9
		c0-0.1,0-0.2-0.2-0.2c-0.3,0-0.6,0-0.9,0c-0.1,0-0.2,0-0.2-0.1c0-0.3,0-0.6,0-1c0-0.1,0-0.1,0.1-0.1c0.3,0,0.6,0,0.8,0
		s0.2-0.1,0.2-0.2c0-0.3,0-0.5,0-0.8c0-0.1,0-0.2,0.1-0.2c0.3,0,0.6,0,0.9,0c0.1,0,0.2,0,0.2,0.2c0,0.3,0,0.6,0,0.8s0.1,0.2,0.2,0.2
		c0.3,0,0.5,0,0.8,0c0.1,0,0.2,0,0.2,0.2c0,0.3,0,0.6,0,0.9c0,0.1-0.1,0.2-0.2,0.2c-0.3,0-0.6,0-0.8,0c-0.1,0-0.2,0-0.2,0.2
		c0,0.3,0,0.6,0,0.9c0,0.1,0,0.2-0.2,0.2C104.7,311.4,104.6,311.5,104.4,311.5z"/>
</g>
<g id="XMLID_6330_" class="st11">
	<g id="XMLID_6350_">
		<g id="XMLID_6288_">
			<path id="XMLID_3_" class="st12" d="M113.7,340.2c0,1.9-0.5,3.6-1.3,5.1l-9-5.2l8.9-5.1C113.1,336.6,113.7,338.3,113.7,340.2z"/>
			<path id="XMLID_2_" class="st13" d="M103.4,340.1l9,5.2c-1.8,3.1-5.1,5.2-9,5.2c-3.8,0-7.2-2.1-9-5.2L103.4,340.1z"/>
			<path id="XMLID_1_" class="st3" d="M103.4,340.1l-9,5.2c-0.9-1.5-1.4-3.3-1.4-5.1c0-5.7,4.6-10.3,10.3-10.3
				c3.8,0,7.2,2.1,8.9,5.2L103.4,340.1z"/>
		</g>
		<g id="XMLID_6291_">
		</g>
	</g>
	<path id="XMLID_6349_" class="st0" d="M109,336.8c-0.9,0.5-1.8,1.1-2.8,1.6c-0.1-0.1-0.1-0.2-0.2-0.2c-0.9-1.1-2-1.6-3.5-1.3
		c-2.1,0.5-3.2,3-2,4.7c0.5,1,1.4,1.6,2.6,1.7c1.3,0.1,2.3-0.4,3-1.6c1,0.5,2,1,2.9,1.7c-0.1,0.1-0.1,0.2-0.2,0.3
		c-1.6,2.2-3.6,3.2-6.3,2.9c-2.1-0.3-3.7-1.4-4.8-3.2c-1.3-2.5-1.2-5,0.5-7.3c2.7-3.6,8.2-3.3,10.6,0.5
		C108.9,336.6,108.9,336.7,109,336.8z"/>
	<path id="XMLID_6347_" class="st3" d="M100.5,341.6c-1.1-1.7,0-4.3,2-4.7c1.4-0.3,2.6,0.1,3.5,1.3c0.1,0.1,0.1,0.2,0.2,0.2
		c-1,0.6-1.9,1.1-2.9,1.7c-0.3,0.2-0.6,0.3-0.8,0.5C101.8,340.9,101.2,341.4,100.5,341.6z"/>
	<path id="XMLID_6343_" class="st13" d="M100.5,341.6c0.7-0.3,1.3-0.7,2-1.1c0.3-0.1,0.6-0.3,0.8-0.5c1,0.5,1.9,1,2.8,1.6
		c-0.7,1.1-1.7,1.7-3,1.6C102,343.2,101.1,342.7,100.5,341.6z"/>
	<path id="XMLID_6336_" class="st0" d="M109.1,339.7h0.7v0.6h-0.7v0.9h-0.7v-0.9h-0.7v-0.6h0.7v-0.8h0.7V339.7z"/>
	<path id="XMLID_6334_" class="st0" d="M111.9,339.7h0.7v0.6h-0.7v0.9h-0.7v-0.9h-0.7v-0.6h0.7v-0.8h0.7V339.7z"/>
</g>
<circle id="XMLID_6326_" class="st1" cx="-111.4" cy="583.2" r="18.6"/>
<rect id="XMLID_46_" x="-124.2" y="578.7" class="st6" width="28.4" height="9.1"/>
<g class="st14">
	<path class="st3" d="M-117.5,586.2h-1.6v-7.1h1.6V586.2z"/>
	<path class="st3" d="M-110.4,583.3c0,0.9-0.3,1.6-0.8,2.2c-0.6,0.6-1.3,0.8-2.2,0.8c-0.9,0-1.6-0.3-2.2-0.8
		c-0.6-0.6-0.8-1.3-0.8-2.2V582c0-0.9,0.3-1.6,0.8-2.2s1.3-0.8,2.2-0.8c0.9,0,1.6,0.3,2.2,0.8s0.8,1.3,0.8,2.2V583.3z M-112.1,582
		c0-0.5-0.1-0.9-0.4-1.2c-0.2-0.3-0.6-0.5-1-0.5c-0.4,0-0.8,0.2-1,0.5c-0.2,0.3-0.4,0.7-0.4,1.2v1.3c0,0.5,0.1,0.9,0.4,1.3
		c0.2,0.3,0.6,0.5,1,0.5c0.4,0,0.8-0.2,1-0.5c0.2-0.3,0.4-0.7,0.4-1.3V582z"/>
	<path class="st3" d="M-104.6,580.4h-1.9v5.8h-1.6v-5.8h-1.8v-1.3h5.3V580.4z"/>
</g>
<path id="XMLID_6315_" class="st0" d="M-99.3,572l-1.1,1.1c-2.8-2.8-6.7-4.5-11-4.5s-8.2,1.7-11,4.5l-1.1-1.1c3.1-3.1,7.3-5,12.1-5
	S-102.4,568.9-99.3,572z"/>
<path id="XMLID_6307_" class="st0" d="M-123.4,594.4l1.1-1.1c2.8,2.8,6.7,4.5,11,4.5s8.2-1.7,11-4.5l1.1,1.1c-3.1,3.1-7.3,5-12.1,5
	S-120.4,597.5-123.4,594.4z"/>
<g id="XMLID_6302_" class="st7">
	<g id="XMLID_62_">
		<path id="XMLID_63_" class="st8" d="M-105.9,578.6c-1.4-1.4-3.3-2.3-5.5-2.3c-2.1,0-4.1,0.9-5.5,2.3l-0.9-0.9
			c1.6-1.6,3.9-2.7,6.4-2.7s4.8,1,6.4,2.7L-105.9,578.6z"/>
	</g>
</g>
<path id="XMLID_6298_" class="st0" d="M-102.1,574.8l-1,1c-2.1-2.1-5-3.4-8.2-3.4s-6.1,1.3-8.2,3.4l-1-1c2.4-2.4,5.6-3.8,9.3-3.8
	S-104.5,572.4-102.1,574.8z"/>
<g id="XMLID_6293_" class="st7">
	<g id="XMLID_64_">
		<path id="XMLID_65_" class="st8" d="M-116.9,587.8c1.4,1.4,3.3,2.3,5.5,2.3c2.1,0,4.1-0.9,5.5-2.3l0.9,0.9
			c-1.6,1.6-3.9,2.7-6.4,2.7s-4.8-1-6.4-2.7L-116.9,587.8z"/>
	</g>
</g>
<path id="XMLID_6290_" class="st0" d="M-120.6,591.6l1-1c2.1,2.1,5,3.4,8.2,3.4s6.1-1.3,8.2-3.4l1,1c-2.4,2.4-5.6,3.8-9.3,3.8
	C-115.2,595.4-118.3,594-120.6,591.6z"/>
<g id="XMLID_6430_">
	<circle id="XMLID_6433_" class="st15" cx="-64.3" cy="338.4" r="29.1"/>
	<g class="st14">
		<path class="st16" d="M-69.2,332.2h2.9v8.4c0,1.3-0.4,2.3-1.2,3s-1.8,1.1-3,1.1c-1.4,0-2.5-0.3-3.3-1c-0.8-0.7-1.2-1.6-1.2-2.9
			l0-0.1h2.8c0,0.6,0.2,1.1,0.5,1.3c0.3,0.3,0.7,0.4,1.2,0.4c0.4,0,0.7-0.2,0.9-0.5c0.2-0.3,0.4-0.8,0.4-1.4V332.2z"/>
		<path class="st16" d="M-58,341.3c0-0.4-0.1-0.8-0.4-1c-0.3-0.2-0.8-0.5-1.6-0.8c-1.5-0.5-2.7-1-3.4-1.6c-0.7-0.6-1.1-1.4-1.1-2.4
			c0-1,0.4-1.9,1.3-2.5c0.9-0.6,2-1,3.3-1c1.4,0,2.6,0.3,3.4,1c0.9,0.7,1.3,1.6,1.3,2.8l0,0.1h-2.8c0-0.6-0.2-1-0.5-1.3
			c-0.3-0.3-0.8-0.4-1.4-0.4c-0.5,0-0.9,0.1-1.2,0.4c-0.3,0.3-0.5,0.6-0.5,0.9c0,0.4,0.2,0.7,0.5,0.9c0.3,0.2,0.9,0.5,1.7,0.8
			c1.4,0.4,2.5,0.9,3.3,1.6c0.7,0.6,1.1,1.5,1.1,2.5c0,1.1-0.4,1.9-1.3,2.6c-0.9,0.6-2,0.9-3.4,0.9c-1.4,0-2.6-0.3-3.6-1
			c-1-0.7-1.4-1.7-1.4-3.1l0-0.1h2.8c0,0.7,0.2,1.2,0.5,1.5c0.4,0.3,0.9,0.5,1.6,0.5c0.6,0,1.1-0.1,1.3-0.4
			C-58.1,342-58,341.7-58,341.3z"/>
	</g>
</g>
</svg>
