<?xml version="1.0" encoding="utf-8"?>
<!-- Generator: Adobe Illustrator 19.0.0, SVG Export Plug-In . SVG Version: 6.00 Build 0)  -->
<svg version="1.1" id="Capa_1" xmlns="http://www.w3.org/2000/svg" xmlns:xlink="http://www.w3.org/1999/xlink" x="0px" y="0px"
	 viewBox="0 0 304.7 383.4" style="enable-background:new 0 0 304.7 383.4;" xml:space="preserve">
<style type="text/css">
	.st0{fill:none;stroke:#9C9454;stroke-width:1.094;stroke-miterlimit:10;stroke-dasharray:6.5225,6.5225;}
	.st1{fill:none;stroke:#9C9454;stroke-width:1.9145;stroke-miterlimit:10;stroke-dasharray:2.8717,6.9495;}
	.st2{fill:none;stroke:#9C9454;stroke-width:1.6798;stroke-miterlimit:10;stroke-dasharray:6.7193;}
	.st3{opacity:5.000000e-002;fill:#FFFFFF;}
	.st4{opacity:0.11;fill:#FFFFFF;}
	.st5{fill:#1A391D;}
	.st6{fill:none;}
	.st7{fill:#FFFFFF;}
	.st8{font-family:'Roboto-Black';}
	.st9{font-size:8.1748px;}
	.st10{opacity:0.15;fill:#FFFFFF;}
	.st11{opacity:0.24;fill:#FFFFFF;}
	.st12{fill:#66B1D1;}
	.st13{fill:none;stroke:#66B1D1;stroke-width:0.2281;stroke-miterlimit:10;}
	.st14{fill:#1C8E92;}
	.st15{fill:#0C5591;}
	.st16{fill:#09427B;}
	.st17{fill:#6291C2;}
	.st18{fill:#FDFEFE;}
	.st19{fill:#0F2039;}
	.st20{font-size:9.9437px;}
	.st21{letter-spacing:1;}
	.st22{opacity:0.24;}
	.st23{opacity:0.29;fill:#FFFFFF;}
	.st24{opacity:0.27;fill:#FFFFFF;}
	.st25{opacity:0.9;fill:#F3E141;}
	.st26{fill:#030104;}
	.st27{font-size:16.2806px;}
</style>
<g id="XMLID_6453_">
	<circle id="XMLID_18_" class="st0" cx="141.1" cy="180.4" r="108"/>
</g>
<circle id="XMLID_6452_" class="st1" cx="146.9" cy="197.4" r="137.7"/>
<ellipse id="XMLID_6451_" class="st2" cx="152.9" cy="191.4" rx="151" ry="175.9"/>
<g id="XMLID_6441_">
	<circle id="XMLID_6446_" class="st3" cx="242.2" cy="288" r="36.7"/>
	<circle id="XMLID_6445_" class="st4" cx="242.2" cy="288" r="28.4"/>
	<circle id="XMLID_6444_" class="st5" cx="242.2" cy="288" r="22.6"/>
	<rect id="XMLID_120_" x="224.6" y="284.5" class="st6" width="35.3" height="6.9"/>
	<text id="XMLID_6442_" transform="matrix(1 0 0 1 229.7997 290.7459)" class="st7 st8 st9">django</text>
</g>
<g id="XMLID_6361_">
	<circle id="XMLID_6448_" class="st10" cx="152.5" cy="191.4" r="82.3"/>
	<circle id="XMLID_6447_" class="st11" cx="152.5" cy="191.5" r="67.6"/>
	<g id="XMLID_6374_">
		<g id="XMLID_6418_">
			<g id="XMLID_6362_">
				<path id="XMLID_29_" class="st12" d="M212.7,191.4c0,13.6-27,24.6-60.2,24.6s-60.2-11-60.2-24.6c0-13.6,27-24.6,60.2-24.6
					S212.7,177.8,212.7,191.4z M152.5,210.9c30.4,0,55.1-8.7,55.1-19.5c0-10.8-24.7-19.5-55.1-19.5s-55.1,8.7-55.1,19.5
					C97.4,202.2,122.1,210.9,152.5,210.9z"/>
			</g>
			<g id="XMLID_6380_">
				<ellipse id="XMLID_33_" class="st13" cx="152.5" cy="191.4" rx="60.2" ry="24.6"/>
				<ellipse id="XMLID_32_" class="st13" cx="152.5" cy="191.4" rx="55.1" ry="19.5"/>
			</g>
		</g>
		<circle id="XMLID_6417_" class="st12" cx="152.8" cy="191.4" r="11"/>
		<g id="XMLID_6405_">
			<g id="XMLID_6314_">
				<path id="XMLID_17_" class="st12" d="M183.2,243.2c-11.7,6.9-35-10.6-52-39.2c-17-28.6-21.3-57.4-9.6-64.4
					c11.7-6.9,35,10.6,52,39.2C190.6,207.4,194.9,236.2,183.2,243.2z M135.7,201.4c15.5,26.1,35.6,42.9,44.9,37.4
					c9.3-5.5,4.2-31.2-11.4-57.3c-15.5-26.1-35.6-42.9-44.9-37.4C115.1,149.6,120.2,175.2,135.7,201.4z"/>
			</g>
			<g id="XMLID_6316_">
				
					<ellipse id="XMLID_28_" transform="matrix(0.8597 -0.5107 0.5107 0.8597 -76.3691 104.7209)" class="st13" cx="152.5" cy="191.4" rx="24.6" ry="60.2"/>
				
					<ellipse id="XMLID_25_" transform="matrix(0.8597 -0.5107 0.5107 0.8597 -76.3689 104.7208)" class="st13" cx="152.5" cy="191.4" rx="19.5" ry="55.1"/>
			</g>
		</g>
		<g id="XMLID_6375_">
			<g id="XMLID_6296_">
				<path id="XMLID_4_" class="st12" d="M173.7,203.7c-17,28.6-40.3,46.2-52,39.2c-11.7-7-7.4-35.8,9.6-64.4
					c17-28.6,40.3-46.2,52-39.2C194.9,146.3,190.6,175.1,173.7,203.7z M124.4,238.4c9.3,5.5,29.4-11.2,44.9-37.4
					c15.5-26.1,20.6-51.8,11.4-57.3c-9.3-5.5-29.4,11.2-44.9,37.4C120.2,207.3,115.1,232.9,124.4,238.4z"/>
			</g>
			<g id="XMLID_6299_">
				
					<ellipse id="XMLID_8_" transform="matrix(0.8597 0.5107 -0.5107 0.8597 118.9851 -51.0707)" class="st13" cx="152.5" cy="191.1" rx="24.6" ry="60.2"/>
				
					<ellipse id="XMLID_7_" transform="matrix(0.8597 0.5107 -0.5107 0.8597 118.9849 -51.0709)" class="st13" cx="152.5" cy="191.1" rx="19.5" ry="55.1"/>
			</g>
		</g>
	</g>
</g>
<g id="XMLID_6363_">
	<circle id="XMLID_6373_" class="st14" cx="244.7" cy="42.7" r="19.4"/>
	<path id="XMLID_6369_" class="st7" d="M244.7,44.7c-0.3,0.5-0.7,1-1,1.5c-0.8,1-1.8,1.9-3.1,2.4c-1,0.4-2,0.5-3.1,0.4
		c-2.1-0.2-3.7-1.1-4.9-2.8c-2-2.9-1.1-6.7,1.8-8.6c2.6-1.6,6-1.3,8.3,0.7c0.7,0.6,1.3,1.3,1.8,2.1c0.1,0.1,0.1,0.2,0.2,0.3
		c0.4-0.5,0.8-1.1,1.2-1.5c1-1.1,2.3-2,3.8-2.4c2.7-0.7,5.6,0.3,7.1,2.6c2,2.9,1.2,6.8-1.8,8.7c-1.3,0.8-2.7,1.1-4.3,1
		c-2.1-0.1-3.6-1.2-4.9-2.7c-0.3-0.4-0.6-0.8-0.9-1.3C244.8,44.9,244.8,44.8,244.7,44.7z M238.1,46.7c1.3,0.1,2.3-0.4,3.2-1.3
		c0.8-0.8,1.4-1.8,2-2.7c0-0.1,0-0.1,0-0.2c-0.6-0.9-1.1-1.7-1.9-2.4c-1.4-1.3-3.1-1.7-4.9-1.1c-1.5,0.5-2.5,1.5-2.7,3.1
		c-0.3,1.5,0.2,2.8,1.4,3.8C236,46.5,237,46.8,238.1,46.7z M251.3,46.7c0.5,0,1,0,1.5-0.2c1.6-0.6,2.7-1.7,2.9-3.4
		c0.2-1.6-0.5-2.9-1.8-3.7c-1.6-1.1-3.8-1-5.4,0.2c-1.1,0.8-1.8,1.8-2.5,2.9c0,0.1,0,0.1,0,0.2c0.6,0.9,1.1,1.8,1.9,2.6
		C248.8,46.3,249.9,46.8,251.3,46.7z"/>
	<path id="XMLID_6368_" class="st7" d="M238.1,41.9c0.6,0,1.2,0,1.8,0c0.2,0,0.2,0,0.2,0.2c0,0.3,0,0.6,0,0.9c0,0.1,0,0.2-0.2,0.2
		c-1.2,0-2.4,0-3.6,0c-0.1,0-0.2,0-0.1-0.1c0-0.3,0-0.6,0-0.9c0-0.1,0-0.2,0.2-0.2C236.9,41.9,237.5,41.9,238.1,41.9z"/>
	<path id="XMLID_6367_" class="st7" d="M251.1,44.4c-0.2,0-0.3,0-0.5,0c-0.1,0-0.2,0-0.1-0.1c0-0.3,0-0.6,0-0.9c0-0.1,0-0.2-0.2-0.2
		c-0.3,0-0.6,0-0.9,0c-0.1,0-0.2,0-0.2-0.1c0-0.3,0-0.6,0-1c0-0.1,0-0.1,0.1-0.1c0.3,0,0.6,0,0.8,0c0.2,0,0.2-0.1,0.2-0.2
		c0-0.3,0-0.5,0-0.8c0-0.1,0-0.2,0.1-0.2c0.3,0,0.6,0,0.9,0c0.1,0,0.2,0,0.2,0.2c0,0.3,0,0.6,0,0.8c0,0.2,0.1,0.2,0.2,0.2
		c0.3,0,0.5,0,0.8,0c0.1,0,0.2,0,0.2,0.2c0,0.3,0,0.6,0,0.9c0,0.1-0.1,0.2-0.2,0.2c-0.3,0-0.6,0-0.8,0c-0.1,0-0.2,0-0.2,0.2
		c0,0.3,0,0.6,0,0.9c0,0.1,0,0.2-0.2,0.2C251.4,44.3,251.3,44.4,251.1,44.4z"/>
</g>
<g id="XMLID_6330_">
	<g id="XMLID_6350_">
		<g id="XMLID_6288_">
			<path id="XMLID_3_" class="st15" d="M260.4,73c0,1.9-0.5,3.6-1.3,5.1l-9-5.2l8.9-5.1C259.8,69.4,260.4,71.1,260.4,73z"/>
			<path id="XMLID_2_" class="st16" d="M250.1,73l9,5.2c-1.8,3.1-5.1,5.2-9,5.2c-3.8,0-7.2-2.1-9-5.2L250.1,73z"/>
			<path id="XMLID_1_" class="st17" d="M250.1,73l-9,5.2c-0.9-1.5-1.4-3.3-1.4-5.1c0-5.7,4.6-10.3,10.3-10.3c3.8,0,7.2,2.1,8.9,5.2
				L250.1,73z"/>
		</g>
		<g id="XMLID_6291_">
		</g>
	</g>
	<path id="XMLID_6349_" class="st18" d="M255.7,69.7c-0.9,0.5-1.8,1.1-2.8,1.6c-0.1-0.1-0.1-0.2-0.2-0.2c-0.9-1.1-2-1.6-3.5-1.3
		c-2.1,0.5-3.2,3-2,4.7c0.5,1,1.4,1.6,2.6,1.7c1.3,0.1,2.3-0.4,3-1.6c1,0.5,2,1,2.9,1.7c-0.1,0.1-0.1,0.2-0.2,0.3
		c-1.6,2.2-3.6,3.2-6.3,2.9c-2.1-0.3-3.7-1.4-4.8-3.2c-1.3-2.5-1.2-5,0.5-7.3c2.7-3.6,8.2-3.3,10.6,0.5
		C255.6,69.5,255.6,69.6,255.7,69.7z"/>
	<path id="XMLID_6347_" class="st17" d="M247.2,74.5c-1.1-1.7,0-4.3,2-4.7c1.4-0.3,2.6,0.1,3.5,1.3c0.1,0.1,0.1,0.2,0.2,0.2
		c-1,0.6-1.9,1.1-2.9,1.7c-0.3,0.2-0.6,0.3-0.8,0.5C248.5,73.8,247.9,74.3,247.2,74.5z"/>
	<path id="XMLID_6343_" class="st16" d="M247.2,74.5c0.7-0.3,1.3-0.7,2-1.1c0.3-0.1,0.6-0.3,0.8-0.5c1,0.5,1.9,1,2.8,1.6
		c-0.7,1.1-1.7,1.7-3,1.6C248.7,76.1,247.8,75.6,247.2,74.5z"/>
	<path id="XMLID_6336_" class="st7" d="M255.8,72.6h0.7v0.6h-0.7v0.9h-0.7v-0.9h-0.7v-0.6h0.7v-0.8h0.7V72.6z"/>
	<path id="XMLID_6334_" class="st7" d="M258.6,72.6h0.7v0.6h-0.7v0.9h-0.7v-0.9h-0.7v-0.6h0.7v-0.8h0.7V72.6z"/>
</g>
<g id="XMLID_6289_">
	<circle id="XMLID_6326_" class="st19" cx="63.9" cy="340.2" r="18.6"/>
	<rect id="XMLID_46_" x="51.1" y="335.7" class="st6" width="28.4" height="9.1"/>
	<text id="XMLID_6320_" transform="matrix(1 0 0 1 55.5293 343.2391)" class="st7 st8 st20 st21">IOT</text>
	<path id="XMLID_6315_" class="st11" d="M76,329l-1.1,1.1c-2.8-2.8-6.7-4.5-11-4.5c-4.3,0-8.2,1.7-11,4.5l-1.1-1.1
		c3.1-3.1,7.3-5,12.1-5S72.9,325.9,76,329z"/>
	<path id="XMLID_6307_" class="st11" d="M51.9,351.4l1.1-1.1c2.8,2.8,6.7,4.5,11,4.5c4.3,0,8.2-1.7,11-4.5l1.1,1.1
		c-3.1,3.1-7.3,5-12.1,5S54.9,354.5,51.9,351.4z"/>
	<g id="XMLID_6302_" class="st22">
		<g id="XMLID_62_">
			<path id="XMLID_63_" class="st7" d="M69.4,335.6c-1.4-1.4-3.3-2.3-5.5-2.3c-2.1,0-4.1,0.9-5.5,2.3l-0.9-0.9
				c1.6-1.6,3.9-2.7,6.4-2.7c2.5,0,4.8,1,6.4,2.7L69.4,335.6z"/>
		</g>
	</g>
	<path id="XMLID_6298_" class="st11" d="M73.2,331.8l-1,1c-2.1-2.1-5-3.4-8.2-3.4c-3.2,0-6.1,1.3-8.2,3.4l-1-1
		c2.4-2.4,5.6-3.8,9.3-3.8S70.8,329.4,73.2,331.8z"/>
	<g id="XMLID_6293_" class="st22">
		<g id="XMLID_64_">
			<path id="XMLID_65_" class="st7" d="M58.4,344.8c1.4,1.4,3.3,2.3,5.5,2.3c2.1,0,4.1-0.9,5.5-2.3l0.9,0.9
				c-1.6,1.6-3.9,2.7-6.4,2.7c-2.5,0-4.8-1-6.4-2.7L58.4,344.8z"/>
		</g>
	</g>
	<path id="XMLID_6290_" class="st11" d="M54.7,348.6l1-1c2.1,2.1,5,3.4,8.2,3.4c3.2,0,6.1-1.3,8.2-3.4l1,1c-2.4,2.4-5.6,3.8-9.3,3.8
		S57,351,54.7,348.6z"/>
</g>
<g id="XMLID_6430_">
	<circle id="XMLID_6435_" class="st23" cx="91.3" cy="90.5" r="44.6"/>
	<circle id="XMLID_6434_" class="st24" cx="91.3" cy="90.6" r="36.6"/>
	<circle id="XMLID_6433_" class="st25" cx="91.3" cy="90.6" r="29.1"/>
	<rect id="XMLID_16_" x="54.8" y="83.4" class="st6" width="73.2" height="14.3"/>
	<text id="XMLID_6431_" transform="matrix(1 0 0 1 81.7673 95.764)" class="st26 st8 st27">JS</text>
</g>
</svg>
