<?xml version="1.0" encoding="utf-8"?>
<!-- Generator: Adobe Illustrator 19.0.0, SVG Export Plug-In . SVG Version: 6.00 Build 0)  -->
<svg version="1.1" id="Capa_1" xmlns="http://www.w3.org/2000/svg" xmlns:xlink="http://www.w3.org/1999/xlink" x="0px" y="0px"
	 viewBox="0 0 46.5 46.6" style="enable-background:new 0 0 46.5 46.6;" xml:space="preserve">
<style type="text/css">
	.st0{fill:#FFFFFF;}
</style>
<g id="XMLID_7166_">
	<circle id="XMLID_7172_" cx="77.9" cy="-9.5" r="23.3"/>
	<path id="XMLID_7171_" d="M66.3-16.2c0,5.7,0,11.3,0,16.9c7.7,0,15.4,0,23.1,0c0-5.7,0-11.4,0-17.2c-0.1,0.1-0.2,0.1-0.2,0.2
		c-3.3,2.7-6.7,5.3-10,8c-0.8,0.6-1.7,0.6-2.4,0c-2.1-1.6-4.2-3.2-6.3-4.8C69.1-14.1,67.7-15.1,66.3-16.2z"/>
	<path id="XMLID_7170_" d="M88.4-19.7c-7.1,0-14,0-21,0c0.2,0.2,0.4,0.3,0.5,0.4c3.3,2.5,6.5,5,9.8,7.5c0.3,0.2,0.5,0.2,0.8,0
		c1.7-1.3,3.4-2.7,5-4C85.1-17,86.7-18.3,88.4-19.7z"/>
	<g id="XMLID_7167_">
		<path id="XMLID_7169_" class="st0" d="M66.3-16.2c1.4,1.1,2.8,2.1,4.2,3.2c2.1,1.6,4.2,3.2,6.3,4.8c0.8,0.6,1.6,0.6,2.4,0
			c3.3-2.7,6.7-5.3,10-8c0.1,0,0.1-0.1,0.2-0.2c0,5.7,0,11.5,0,17.2c-7.7,0-15.4,0-23.1,0C66.3-4.9,66.3-10.5,66.3-16.2z"/>
		<path id="XMLID_7168_" class="st0" d="M88.4-19.7c-1.7,1.4-3.3,2.6-4.9,3.9c-1.7,1.3-3.4,2.6-5,4c-0.3,0.2-0.5,0.2-0.8,0
			c-3.2-2.5-6.5-5-9.8-7.5c-0.2-0.1-0.3-0.3-0.5-0.4C74.4-19.7,81.4-19.7,88.4-19.7z"/>
	</g>
</g>
<g id="XMLID_7155_">
	<path id="XMLID_7161_" d="M74.4,62.6c0-12.7,0-25.3,0-38c0.1-0.1,0.1-0.2,0.2-0.4c0.2-0.9,0.7-1.5,1.4-2.1c0.5-0.4,1.2-0.6,1.8-0.8
		c12.6,0,25.2,0,37.8,0c0.4,0.1,0.7,0.2,1.1,0.4c1.6,0.8,2.3,2.1,2.3,3.8c0,2,0,4,0,6c0,10,0,20,0,30c0,1-0.2,1.9-0.8,2.7
		c-0.9,1.1-2.1,1.6-3.5,1.6c-8.3,0-16.6,0-24.9,0c-3.7,0-7.5,0-11.2,0c-1.7,0-3-0.8-3.8-2.3C74.6,63.3,74.6,62.9,74.4,62.6z
		 M98.8,40.5c0-0.6,0-1.1,0-1.6c0-0.8-0.4-1.3-1.3-1.3c-1.6,0-3.2,0-4.7,0c-0.9,0-1.3,0.4-1.3,1.3c0,6.9,0,13.8,0,20.6
		c0,0.9,0.4,1.3,1.3,1.3c1.5,0,3.1,0,4.6,0c1,0,1.4-0.4,1.4-1.4c0-3.5,0-7,0-10.5c0-1.2,0.3-2.3,0.8-3.4c0.8-1.5,2.1-2.1,3.8-1.9
		c1.5,0.2,2.4,1,2.9,2.3c0.3,0.9,0.4,1.8,0.4,2.7c0,3.7,0,7.3,0,11c0,0.9,0.4,1.3,1.3,1.3c1.6,0,3.3,0,4.9,0c0.9,0,1.3-0.4,1.3-1.3
		c0-3.9,0-7.7,0-11.6c0-2-0.2-4.1-1-6c-0.9-2.4-2.6-3.9-5.1-4.5c-1.5-0.3-2.9-0.3-4.4-0.1c-1.7,0.3-3.2,1-4.4,2.4
		C99.2,40,99.1,40.2,98.8,40.5z M88.2,49.3c0-3.4,0-6.8,0-10.3c0-0.9-0.4-1.4-1.4-1.4c-1.5,0-3,0-4.5,0c-1,0-1.4,0.4-1.4,1.4
		c0,6.8,0,13.6,0,20.4c0,1,0.4,1.5,1.5,1.5c1.5,0,2.9,0,4.4,0c1.2,0,1.5-0.4,1.5-1.5C88.2,56.1,88.2,52.7,88.2,49.3z M84.5,35.7
		c2.6,0,4.8-2.1,4.8-4.7c0-2.6-2.1-4.7-4.7-4.7c-2.6,0-4.7,2.1-4.8,4.7C79.7,33.6,81.8,35.7,84.5,35.7z"/>
	<path id="XMLID_7158_" class="st0" d="M98.8,40.5c0.2-0.3,0.4-0.5,0.6-0.7c1.1-1.4,2.6-2.1,4.4-2.4c1.5-0.2,2.9-0.2,4.4,0.1
		c2.5,0.6,4.2,2.1,5.1,4.5c0.8,1.9,0.9,4,1,6c0,3.9,0,7.7,0,11.6c0,0.9-0.4,1.3-1.3,1.3c-1.6,0-3.3,0-4.9,0c-0.9,0-1.3-0.4-1.3-1.3
		c0-3.7,0-7.3,0-11c0-0.9-0.1-1.8-0.4-2.7c-0.5-1.4-1.4-2.2-2.9-2.3c-1.7-0.2-3,0.4-3.8,1.9c-0.6,1.1-0.8,2.2-0.8,3.4
		c0,3.5,0,7,0,10.5c0,1-0.4,1.4-1.4,1.4c-1.5,0-3.1,0-4.6,0c-0.9,0-1.3-0.4-1.3-1.3c0-6.9,0-13.8,0-20.6c0-0.9,0.4-1.3,1.3-1.3
		c1.6,0,3.2,0,4.7,0c0.8,0,1.3,0.4,1.3,1.3C98.8,39.5,98.8,39.9,98.8,40.5z"/>
	<path id="XMLID_7157_" class="st0" d="M88.2,49.3c0,3.4,0,6.7,0,10.1c0,1.2-0.4,1.5-1.5,1.5c-1.5,0-2.9,0-4.4,0
		c-1,0-1.5-0.4-1.5-1.5c0-6.8,0-13.6,0-20.4c0-1,0.4-1.4,1.4-1.4c1.5,0,3,0,4.5,0c0.9,0,1.4,0.4,1.4,1.4
		C88.2,42.5,88.2,45.9,88.2,49.3z"/>
	<path id="XMLID_7156_" class="st0" d="M84.5,35.7c-2.6,0-4.7-2.1-4.7-4.8c0-2.6,2.2-4.7,4.8-4.7c2.6,0,4.7,2.1,4.7,4.7
		C89.2,33.6,87.1,35.7,84.5,35.7z"/>
</g>
<g id="XMLID_7150_">
	<path id="XMLID_7154_" class="st0" d="M-36.2,37.6c-5,0-9.9,0-14.9,0"/>
	<path id="XMLID_7153_" class="st0" d="M-51.1,37c1,0.4,1.8-0.2,1.8-1.3c0-1.2,0-2.5,0-3.7c0-0.1,0-0.3,0-0.3c-1.1,0-2.2,0.1-3.3,0
		c-1.3-0.1-2.4-0.4-3.4-1.3c-0.6-0.6-0.9-1.3-1.2-2.1c-0.5-1.2-1.2-2.3-2.4-3c-0.3-0.2-0.5-0.4-0.7-0.7c-0.2-0.3-0.1-0.5,0.2-0.5
		c0.5,0,1-0.1,1.4,0.1c1.3,0.4,2.2,1.2,2.9,2.4c0.4,0.7,0.9,1.3,1.7,1.7c1.4,0.9,2.9,0.6,4.3,0.2c0.4-0.1,0.7-0.3,0.7-0.8
		c0-0.2,0.1-0.5,0.2-0.7c0.3-0.6,0.7-1.2,1-1.9c-0.2,0-0.4,0-0.6-0.1c-1.2-0.3-2.5-0.5-3.6-0.9c-1.6-0.6-3.1-1.5-4.1-2.9
		c-1.9-2.8-2.3-5.9-1.9-9.1c0.2-1.6,0.9-3,2-4.2c0.1-0.1,0.2-0.4,0.1-0.5c-0.6-1.7-0.5-3.3,0-5c0.3-0.9,0.5-1.1,1.5-0.9
		c0,0,0.1,0,0.1,0c1.7,0.4,3.2,1.1,4.6,2.1C-49.5,4-49.3,4-48.9,4c0.8-0.2,1.6-0.4,2.4-0.5c2.8-0.4,5.5-0.2,8.2,0.5
		c0.2,0.1,0.5,0,0.7-0.1c1.1-0.6,2.3-1.2,3.4-1.7c0.7-0.3,1.4-0.5,2.2-0.4c0.1,0,0.4,0.1,0.4,0.2c0.7,1.8,0.9,3.6,0.3,5.5
		c-0.1,0.3,0,0.5,0.2,0.7c1,1.2,1.6,2.5,1.9,4c0.2,1.3,0.2,2.6,0.1,3.8c-0.2,1.9-0.7,3.7-1.8,5.2c-1.4,2.1-3.6,3.1-5.9,3.7
		c-0.9,0.2-1.7,0.3-2.7,0.5c1.3,1.3,1.5,2.8,1.5,4.5c0,2,0,3.9,0,5.9c0,1.1,0.7,1.6,1.7,1.2"/>
	<path id="XMLID_7152_" d="M-20.6,16.7c-0.1,0.9-0.2,1.7-0.4,2.6c-1,5.7-3.9,10.3-8.4,14c-2,1.7-4.3,2.8-6.8,3.7
		c-1,0.4-1.7-0.1-1.7-1.2c0-2,0-3.9,0-5.9c0-1.6-0.2-3.2-1.5-4.5c0.9-0.2,1.8-0.3,2.7-0.5c2.4-0.6,4.5-1.6,5.9-3.7
		c1.1-1.6,1.6-3.3,1.8-5.2c0.1-1.3,0.2-2.6-0.1-3.8c-0.3-1.5-0.9-2.8-1.9-4c-0.2-0.2-0.3-0.4-0.2-0.7c0.7-1.9,0.4-3.7-0.3-5.5
		c0-0.1-0.3-0.2-0.4-0.2c-0.8-0.1-1.5,0.1-2.2,0.4c-1.2,0.6-2.3,1.2-3.4,1.7C-37.8,4-38.1,4-38.3,4c-2.7-0.7-5.5-0.8-8.2-0.5
		c-0.8,0.1-1.6,0.3-2.4,0.5c-0.4,0.1-0.6,0-0.9-0.2c-1.4-0.9-3-1.7-4.6-2.1c0,0-0.1,0-0.1,0c-1-0.2-1.2,0-1.5,0.9
		c-0.5,1.7-0.6,3.3,0,5c0,0.1,0,0.4-0.1,0.5c-1,1.2-1.8,2.6-2,4.2c-0.4,3.3,0,6.4,1.9,9.1c1,1.5,2.5,2.4,4.1,2.9
		c1.2,0.4,2.4,0.6,3.6,0.9c0.2,0.1,0.4,0.1,0.6,0.1c-0.3,0.6-0.7,1.2-1,1.9c-0.1,0.2-0.2,0.5-0.2,0.7c0,0.5-0.3,0.7-0.7,0.8
		c-1.5,0.4-2.9,0.7-4.3-0.2c-0.7-0.4-1.2-1-1.7-1.7c-0.7-1.2-1.6-2-2.9-2.4c-0.5-0.1-1-0.1-1.4-0.1c-0.3,0-0.4,0.3-0.2,0.5
		c0.2,0.2,0.4,0.5,0.7,0.7c1.2,0.7,1.9,1.8,2.4,3c0.3,0.7,0.6,1.5,1.2,2.1c1,0.9,2.2,1.2,3.4,1.3c1.1,0,2.1,0,3.3,0c0,0,0,0.2,0,0.3
		c0,1.2,0,2.5,0,3.7c0,1.1-0.7,1.6-1.8,1.3c-4.8-1.7-8.6-4.6-11.5-8.8c-2-2.9-3.3-6.2-3.8-9.7c-0.1-0.6-0.1-1.1-0.2-1.7
		c0-1.1,0-2.2,0-3.2c0-0.1,0.1-0.2,0.1-0.3c0.2-1,0.2-2.1,0.5-3.1c1.1-4.9,3.6-9,7.3-12.3c3.6-3.1,7.8-5,12.6-5.5
		c2.9-0.3,5.8-0.1,8.6,0.7c4.7,1.3,8.7,3.9,11.8,7.7c2.6,3.2,4.3,6.9,4.9,11c0.1,0.6,0.2,1.3,0.3,1.9
		C-20.6,14.6-20.6,15.6-20.6,16.7z"/>
	<path id="XMLID_7151_" class="st0" d="M-36.2,37"/>
</g>
<g id="XMLID_5337_">
	<circle id="XMLID_7149_" cx="23.3" cy="23.3" r="23.3"/>
	<path id="XMLID_7148_" class="st0" d="M9.9,36.7l1.9-6.9c-1.2-2-1.8-4.3-1.8-6.6c0-7.3,6-13.3,13.3-13.3c3.6,0,6.9,1.4,9.4,3.9
		c2.5,2.5,3.9,5.8,3.9,9.4c0,7.3-6,13.3-13.3,13.3c0,0,0,0,0,0h0c-2.2,0-4.4-0.6-6.3-1.6L9.9,36.7L9.9,36.7z"/>
	<path id="XMLID_7147_" d="M19.9,17.4c-0.3-0.6-0.5-0.6-0.8-0.6c-0.2,0-0.4,0-0.7,0c-0.2,0-0.6,0.1-0.9,0.4
		c-0.3,0.3-1.2,1.2-1.2,2.9c0,1.7,1.2,3.3,1.4,3.6c0.2,0.2,2.4,3.8,5.9,5.2c2.9,1.1,3.5,0.9,4.1,0.9s2-0.8,2.3-1.6
		c0.3-0.8,0.3-1.5,0.2-1.6c-0.1-0.1-0.3-0.2-0.7-0.4c-0.3-0.2-2-1-2.3-1.1c-0.3-0.1-0.5-0.2-0.8,0.2c-0.2,0.3-0.9,1.1-1.1,1.3
		c-0.2,0.2-0.4,0.3-0.7,0.1c-0.3-0.2-1.5-0.5-2.8-1.7c-1-0.9-1.7-2-1.9-2.4c-0.2-0.3,0-0.5,0.2-0.7c0.2-0.2,0.3-0.4,0.5-0.6
		c0.2-0.2,0.2-0.3,0.3-0.6c0.1-0.2,0.1-0.4,0-0.6S20.2,18.1,19.9,17.4L19.9,17.4z"/>
</g>
</svg>
