<?xml version="1.0" encoding="utf-8"?>
<!-- Generator: Adobe Illustrator 19.0.0, SVG Export Plug-In . SVG Version: 6.00 Build 0)  -->
<svg version="1.1" xmlns="http://www.w3.org/2000/svg" xmlns:xlink="http://www.w3.org/1999/xlink" x="0px" y="0px"
	 viewBox="0 0 742.6 304" style="enable-background:new 0 0 742.6 304;" xml:space="preserve">
<style type="text/css">
	.st0{fill:#E8EAEC;}
	.st1{fill:#232728;}
	.st2{fill:#C5DEE2;}
	.st3{fill:#D2E2E7;}
	.st4{fill:none;stroke:#9DB79B;stroke-width:2;stroke-miterlimit:10;}
	.st5{fill:none;stroke:#515151;stroke-width:2;stroke-miterlimit:10;}
	.st6{fill:#E1DABB;}
	.st7{fill:#CCA5A1;}
	.st8{fill:#AA7D7D;}
	.st9{fill:#8CA387;}
	.st10{fill:#171818;}
	.st11{fill:none;stroke:#E8EAEC;stroke-width:2;stroke-miterlimit:10;}
	.st12{fill:none;stroke:#232728;stroke-width:2;stroke-miterlimit:10;}
	.st13{fill:#EBDF9D;}
	.st14{fill:none;stroke:#FFFFFF;stroke-width:0.5201;stroke-miterlimit:10;}
	.st15{fill:none;stroke:#FFFFFF;stroke-width:0.5917;stroke-miterlimit:10;}
	.st16{fill:none;stroke:#232728;stroke-miterlimit:10;}
	.st17{fill:#6F6E69;}
	.st18{fill:#DCC140;}
	.st19{fill:#85AAB8;}
	.st20{fill:#C3DEEB;}
	.st21{fill:#AED2E2;}
	.st22{fill:#9DB79B;}
	.st23{fill:#EBE2B4;}
	.st24{fill:#010002;}
	.st25{fill:#B4D0AE;}
	.st26{fill:#97969C;}
	.st27{fill:none;stroke:#FFFFFF;stroke-width:0.5059;stroke-miterlimit:10;}
	.st28{fill:#FFFFFF;}
	.st29{fill:none;stroke:#211915;stroke-width:2;stroke-miterlimit:10;}
	.st30{fill:none;stroke:#211915;stroke-width:2;stroke-miterlimit:10;stroke-dasharray:12.0382,12.0382;}
	.st31{fill:none;}
	.st32{opacity:0.57;fill:#938080;stroke:#211915;stroke-miterlimit:10;}
	.st33{opacity:0.52;fill:url(#XMLID_745_);}
	.st34{fill:none;stroke:#5EA9AB;stroke-width:0.75;stroke-miterlimit:10;}
	.st35{fill:#FFFFFF;stroke:#211915;stroke-width:0.5194;stroke-miterlimit:10;}
</style>
<g id="Capa_1">
	<rect id="XMLID_1595_" x="-2403" y="1883.8" class="st0" width="742.5" height="448.6"/>
	<rect id="XMLID_7476_" x="-2403.4" y="2332.4" class="st1" width="742.9" height="516.5"/>
	<g id="XMLID_7469_">
		<g id="XMLID_7474_">
			<rect id="XMLID_14_" x="-2395.3" y="2683.4" class="st2" width="734.8" height="123.9"/>
		</g>
		<g id="XMLID_7473_">
		</g>
	</g>
	<g id="XMLID_7462_">
		<g id="XMLID_7467_">
			<rect id="XMLID_13_" x="-1859.7" y="2372.3" class="st3" width="199.2" height="123.6"/>
		</g>
		<g id="XMLID_7466_">
		</g>
	</g>
	<line id="XMLID_7461_" class="st4" x1="-1970.9" y1="3380.3" x2="-1970.9" y2="3130.3"/>
	<line id="XMLID_7460_" class="st5" x1="-1932.9" y1="3380.3" x2="-1932.9" y2="3276.3"/>
	<rect id="XMLID_7459_" x="-2403" y="1337.3" class="st1" width="742.9" height="546.4"/>
	<g id="XMLID_7452_">
		<g id="XMLID_7457_">
			<rect id="XMLID_12_" x="-2403.4" y="2192" class="st6" width="742.9" height="123.9"/>
		</g>
		<g id="XMLID_7456_">
		</g>
	</g>
	<g id="XMLID_7445_">
		<g id="XMLID_7450_">
			<rect id="XMLID_11_" x="-1879.4" y="1349.6" class="st7" width="155.4" height="553.3"/>
		</g>
		<g id="XMLID_7449_">
		</g>
	</g>
	<g id="XMLID_7438_">
		<g id="XMLID_7443_">
			<rect id="XMLID_10_" x="-2353.4" y="1772.3" class="st8" width="125.3" height="125.6"/>
		</g>
		<g id="XMLID_7442_">
		</g>
	</g>
	<g id="XMLID_7363_">
		<g id="XMLID_7368_">
			<rect id="XMLID_8_" x="-2403.6" y="2848.9" class="st9" width="203.7" height="166.1"/>
		</g>
		<g id="XMLID_7367_">
		</g>
	</g>
	<rect id="XMLID_7362_" x="-2403.4" y="3635.9" class="st10" width="742.9" height="696.4"/>
	<rect id="XMLID_200_" x="-2170.5" y="2610.3" class="st31" width="126.1" height="27.9"/>
	<text id="XMLID_7007_" transform="matrix(1 0 0 1 -2163.5303 2615.04)"><tspan x="0" y="0" class="st1" style="font-family:'Roboto-Thin'; font-size:6.2407px;">Desplegar items de un JSON con mismas </tspan><tspan x="-0.9" y="10.1" class="st1" style="font-family:'Roboto-Thin'; font-size:6.2407px;">caracteristicas, evitar refrescar la pagina al </tspan><tspan x="-4.8" y="20.2" class="st1" style="font-family:'Roboto-Thin'; font-size:6.2407px;">cambiar, sino solo  cambiando la informacion</tspan></text>
	<line id="XMLID_7001_" class="st11" x1="-2274.9" y1="2332.3" x2="-2274.9" y2="2378.3"/>
	<line id="XMLID_7000_" class="st12" x1="-2274.9" y1="2238.3" x2="-2274.9" y2="2332.3"/>
	<rect id="XMLID_6996_" x="-2403" y="1337.3" class="st0" width="743.3" height="81.7"/>
	<rect id="XMLID_6899_" x="-2353.4" y="1883.8" class="st13" width="125.3" height="14.2"/>
	<rect id="XMLID_6898_" x="-1879.4" y="1883.8" class="st13" width="155.4" height="19.1"/>
	<line id="XMLID_6897_" class="st11" x1="-2139.9" y1="2345.3" x2="-1997.9" y2="2345.3"/>
	<line id="XMLID_6896_" class="st11" x1="-2139.9" y1="2362.3" x2="-2068.9" y2="2362.3"/>
	<rect id="XMLID_6382_" x="-2378.5" y="3923.8" class="st14" width="718" height="408.5"/>
	<rect id="XMLID_1774_" x="-3499.3" y="3635.9" class="st10" width="961.8" height="696.4"/>
	<rect id="XMLID_1770_" x="-3467.1" y="3923.8" class="st15" width="929.6" height="408.5"/>
	<polyline id="XMLID_6315_" class="st16" points="-2331.4,2559.3 -2331.4,2613 -2331.1,2612.8 -2272.3,2612.8 -2272.4,2612.5 
		-2272.4,2677.3 	"/>
	<rect id="XMLID_1830_" x="-3498.5" y="1883.8" class="st0" width="961" height="448.6"/>
	<rect id="XMLID_1829_" x="-3498.5" y="2848.9" class="st0" width="961" height="514.8"/>
	<rect id="XMLID_1828_" x="-3499" y="2332.4" class="st1" width="961.5" height="516.5"/>
	<g id="XMLID_1821_">
		<g id="XMLID_1826_">
			<rect id="XMLID_7_" x="-3488.6" y="2683.4" class="st2" width="951.1" height="123.9"/>
		</g>
		<g id="XMLID_1825_">
		</g>
	</g>
	<g id="XMLID_1814_">
		<g id="XMLID_1819_">
			<rect id="XMLID_6_" x="-2795.4" y="2372.3" class="st3" width="257.9" height="123.6"/>
		</g>
		<g id="XMLID_1818_">
		</g>
	</g>
	<line id="XMLID_1813_" class="st4" x1="-2938.9" y1="3380.3" x2="-2938.9" y2="3130.3"/>
	<line id="XMLID_1812_" class="st5" x1="-2890.9" y1="3380.3" x2="-2890.9" y2="3276.3"/>
	<rect id="XMLID_1811_" x="-3498.5" y="1337.3" class="st1" width="961.5" height="546.4"/>
	<g id="XMLID_1804_">
		<g id="XMLID_1809_">
			<rect id="XMLID_5_" x="-3499" y="2192" class="st6" width="961.5" height="123.9"/>
		</g>
		<g id="XMLID_1808_">
		</g>
	</g>
	<g id="XMLID_1797_">
		<g id="XMLID_1802_">
			<rect id="XMLID_4_" x="-2820.9" y="1349.6" class="st7" width="206.8" height="553.3"/>
		</g>
		<g id="XMLID_1801_">
		</g>
	</g>
	<g id="XMLID_1783_">
		<g id="XMLID_1788_">
			<rect id="XMLID_9_" x="-3499" y="3361.1" class="st9" width="961.5" height="274.8"/>
		</g>
		<g id="XMLID_1787_">
		</g>
	</g>
	<g id="XMLID_1776_">
		<g id="XMLID_1781_">
			<rect id="XMLID_15_" x="-3499.3" y="2848.9" class="st9" width="263.7" height="166.1"/>
		</g>
		<g id="XMLID_1780_">
		</g>
	</g>
	<rect id="XMLID_132_" x="-3197.6" y="2610.3" class="st31" width="163.2" height="27.9"/>
	<text id="XMLID_1772_" transform="matrix(1.2943 0 0 1 -3188.6084 2615.04)"><tspan x="0" y="0" class="st1" style="font-family:'Roboto-Thin'; font-size:6.2407px;">Desplegar items de un JSON con mismas </tspan><tspan x="-0.9" y="10.1" class="st1" style="font-family:'Roboto-Thin'; font-size:6.2407px;">caracteristicas, evitar refrescar la pagina al </tspan><tspan x="-4.8" y="20.2" class="st1" style="font-family:'Roboto-Thin'; font-size:6.2407px;">cambiar, sino solo  cambiando la informacion</tspan></text>
	<line id="XMLID_1767_" class="st11" x1="-3332.9" y1="2332.3" x2="-3332.9" y2="2378.3"/>
	<line id="XMLID_1766_" class="st12" x1="-3332.9" y1="2238.3" x2="-3332.9" y2="2332.3"/>
	<rect id="XMLID_1761_" x="-3498.5" y="1337.3" class="st0" width="962" height="81.7"/>
	<g id="XMLID_3_">
		<g id="XMLID_1790_">
			<g id="XMLID_1795_">
				<rect id="XMLID_225_" x="-3421.4" y="1772.3" class="st8" width="137.9" height="125.6"/>
			</g>
			<g id="XMLID_1794_">
			</g>
		</g>
		<rect id="XMLID_1758_" x="-3421.4" y="1883.8" class="st13" width="137.9" height="14.2"/>
	</g>
	<rect id="XMLID_1756_" x="-2820.9" y="1883.8" class="st13" width="206.8" height="19.1"/>
	<line id="XMLID_1755_" class="st11" x1="-3157.9" y1="2345.3" x2="-2973.9" y2="2345.3"/>
	<line id="XMLID_1754_" class="st11" x1="-3157.9" y1="2362.3" x2="-3066.9" y2="2362.3"/>
	<polyline id="XMLID_1753_" class="st16" points="-3405.4,2559.3 -3405.4,2613 -3405.4,2612.8 -3329.4,2612.8 -3329.4,2612.5 
		-3329.4,2677.3 	"/>
	<g id="XMLID_2732_">
		<rect id="XMLID_2744_" x="-2300.2" y="1902.9" class="st17" width="19.2" height="13.7"/>
		<rect id="XMLID_2733_" x="-2309.8" y="1909.7" class="st18" width="19.2" height="13.7"/>
	</g>
	<g id="XMLID_2727_">
		<rect id="XMLID_2731_" x="-1700.5" y="2279.1" class="st17" width="19.2" height="13.7"/>
		<rect id="XMLID_2728_" x="-1710.1" y="2285.9" class="st0" width="19.2" height="13.7"/>
	</g>
	<g id="XMLID_2689_">
		
			<rect id="XMLID_2705_" x="-1979.4" y="2407.1" transform="matrix(-0.7499 -0.6616 0.6616 -0.7499 -5043.9751 2920.6929)" class="st17" width="19.2" height="13.7"/>
		
			<rect id="XMLID_2691_" x="-1991.1" y="2405.8" transform="matrix(-0.7499 -0.6616 0.6616 -0.7499 -5063.6563 2910.8005)" class="st19" width="19.2" height="13.7"/>
	</g>
	<rect id="XMLID_2684_" x="-2398.9" y="2301" class="st1" width="19.2" height="13.7"/>
	
		<rect id="XMLID_2682_" x="-2386.3" y="2321.1" transform="matrix(0.9214 0.3886 -0.3886 0.9214 717.8459 1106.5371)" class="st20" width="19.2" height="13.7"/>
	<g id="XMLID_2662_">
		<rect id="XMLID_2680_" x="-1687.1" y="2834.5" class="st21" width="19.2" height="13.7"/>
		<rect id="XMLID_2665_" x="-1706.7" y="2849.6" class="st22" width="19.2" height="13.7"/>
	</g>
	<g id="XMLID_2661_">
		<g id="XMLID_44_">
			<path id="XMLID_48_" class="st23" d="M-2249.8,2035.8c1,0,1-1.6,0-1.6C-2250.8,2034.2-2250.8,2035.8-2249.8,2035.8
				L-2249.8,2035.8z"/>
		</g>
	</g>
	<g id="XMLID_2640_">
		<g id="XMLID_38_">
			<path id="XMLID_42_" class="st23" d="M-2233.2,2003.5c1,0,1-1.6,0-1.6C-2234.2,2002-2234.2,2003.5-2233.2,2003.5L-2233.2,2003.5z
				"/>
		</g>
	</g>
	<g id="XMLID_1480_">
		<circle id="XMLID_1586_" class="st7" cx="-1682.8" cy="1593" r="6.2"/>
		<circle id="XMLID_1585_" class="st24" cx="-1682.8" cy="1610.2" r="6.2"/>
		<circle id="XMLID_1584_" class="st24" cx="-1682.8" cy="1626.8" r="6.2"/>
		<circle id="XMLID_1512_" class="st24" cx="-1682.8" cy="1644.5" r="6.2"/>
		<path id="XMLID_1484_" class="st24" d="M-1676.1,1660.3h-0.8v6.8c0,0.6,0,1.2-0.6,1.2h-4.4v-3h-2v3h-4.1c-0.6,0-1.9-0.6-1.9-1.2
			v-6.8h0.5c-0.5,0-0.8-0.3-0.6-0.5l6.7-5.2c0.3-0.2,0.9-0.2,1.2,0l6.7,5.2C-1675.2,1660-1675.6,1660.3-1676.1,1660.3z"/>
	</g>
	<g id="XMLID_1748_">
		<rect id="XMLID_1750_" x="-3365.5" y="1902.9" class="st17" width="24.8" height="13.7"/>
		<rect id="XMLID_1749_" x="-3377.9" y="1909.7" class="st18" width="24.8" height="13.7"/>
	</g>
	<g id="XMLID_1745_">
		<rect id="XMLID_1747_" x="-2589.3" y="2279.1" class="st17" width="24.8" height="13.7"/>
		<rect id="XMLID_1746_" x="-2601.7" y="2285.9" class="st0" width="24.8" height="13.7"/>
	</g>
	<g id="XMLID_1742_">
		<polygon id="XMLID_1744_" class="st17" points="-2953.1,2412.7 -2934.5,2425.4 -2922.8,2415.1 -2941.4,2402.4 		"/>
		<polygon id="XMLID_1743_" class="st19" points="-2968.2,2411.4 -2949.6,2424.1 -2937.9,2413.9 -2956.5,2401.2 		"/>
	</g>
	<rect id="XMLID_1741_" x="-3493.2" y="2302.2" class="st1" width="24.8" height="13.7"/>
	<polygon id="XMLID_1740_" class="st20" points="-3456.5,2355.3 -3479.4,2347.9 -3472.6,2335.3 -3449.7,2342.7 	"/>
	<g id="XMLID_1735_">
		<rect id="XMLID_1739_" x="-2572" y="2834.5" class="st21" width="24.8" height="13.7"/>
		<rect id="XMLID_1736_" x="-2597.3" y="2849.6" class="st22" width="24.8" height="13.7"/>
	</g>
	<g id="XMLID_1476_">
		<g id="XMLID_32_">
			<path id="XMLID_36_" class="st23" d="M-3300.3,2035.9c1.1,0,1.1-1.8,0-1.8C-3301.4,2034.1-3301.4,2035.9-3300.3,2035.9
				L-3300.3,2035.9z"/>
		</g>
	</g>
	<g id="XMLID_1106_">
		<g id="XMLID_29_">
			<path id="XMLID_52_" class="st23" d="M-3278.7,2003.7c1.1,0,1.1-1.8,0-1.8C-3279.9,2001.9-3279.9,2003.7-3278.7,2003.7
				L-3278.7,2003.7z"/>
		</g>
	</g>
	<g id="XMLID_5338_">
		<rect id="XMLID_5345_" x="-1830.3" y="4265.8" class="st13" width="15" height="66.6"/>
		<rect id="XMLID_5344_" x="-1812.5" y="4265.8" class="st20" width="15" height="66.6"/>
		<rect id="XMLID_5343_" x="-1848" y="4265.8" class="st7" width="15" height="66.6"/>
		<rect id="XMLID_5342_" x="-1794.7" y="4265.8" class="st25" width="15" height="66.6"/>
		<rect id="XMLID_5341_" x="-1777" y="4265.8" class="st0" width="15" height="66.6"/>
		<rect id="XMLID_5340_" x="-1759.2" y="4265.8" class="st26" width="15" height="66.6"/>
		<rect id="XMLID_5339_" x="-1741.5" y="4265.8" class="st1" width="15" height="66.6"/>
	</g>
	<rect id="XMLID_168_" x="-411" y="1883.8" class="st0" width="742.5" height="448.6"/>
	<rect id="XMLID_167_" x="-411" y="2848.9" class="st0" width="742.5" height="514.8"/>
	<rect id="XMLID_166_" x="-411.4" y="2332.4" class="st1" width="742.9" height="516.5"/>
	<rect id="XMLID_149_" x="-411" y="1337.3" class="st1" width="742.9" height="546.4"/>
	<rect id="XMLID_247_" x="451.5" y="755.8" class="st1" width="742.9" height="546.4"/>
	<g id="XMLID_142_">
		<g id="XMLID_147_">
			<rect id="XMLID_75_" x="-411.4" y="2192" class="st6" width="742.9" height="123.9"/>
		</g>
		<g id="XMLID_146_">
		</g>
	</g>
	<rect id="XMLID_112_" x="-411.4" y="3635.9" class="st10" width="742.9" height="696.4"/>
	<rect id="XMLID_111_" x="-178.5" y="2610.3" class="st31" width="126.1" height="27.9"/>
	<text id="XMLID_110_" transform="matrix(1 0 0 1 -171.5303 2615.04)"><tspan x="0" y="0" class="st1" style="font-family:'Roboto-Thin'; font-size:6.2407px;">Desplegar items de un JSON con mismas </tspan><tspan x="-0.9" y="10.1" class="st1" style="font-family:'Roboto-Thin'; font-size:6.2407px;">caracteristicas, evitar refrescar la pagina al </tspan><tspan x="-4.8" y="20.2" class="st1" style="font-family:'Roboto-Thin'; font-size:6.2407px;">cambiar, sino solo  cambiando la informacion</tspan></text>
	<rect id="XMLID_102_" x="-351.6" y="3923.8" class="st27" width="683.1" height="408.5"/>
	<polyline id="XMLID_101_" class="st16" points="-339.4,2559.3 -339.4,2613 -339.1,2612.8 -280.3,2612.8 -280.4,2612.5 
		-280.4,2677.3 	"/>
	<g id="XMLID_113_">
		<g id="XMLID_76_">
			<rect id="XMLID_141_" x="-410.6" y="2848.9" class="st9" width="203.7" height="166.1"/>
		</g>
		<g id="XMLID_134_">
		</g>
	</g>
	<g id="XMLID_119_">
		<g id="XMLID_170_">
			<rect id="XMLID_16_" x="-411.4" y="2848.9" class="st9" width="203.7" height="166.1"/>
		</g>
		<g id="XMLID_169_">
		</g>
	</g>
	<g id="XMLID_689_">
		<g id="XMLID_694_">
			<rect id="XMLID_688_" x="-1162.9" y="2848.9" class="st9" width="203.7" height="166.1"/>
		</g>
		<g id="XMLID_693_">
		</g>
	</g>
	<g id="XMLID_120_">
		<g id="XMLID_125_">
			<rect id="XMLID_65_" x="-411.2" y="3361.1" class="st9" width="742.9" height="274.8"/>
		</g>
		<g id="XMLID_124_">
		</g>
	</g>
	<g id="XMLID_78_">
		<g id="XMLID_186_">
			<path id="XMLID_190_" class="st23" d="M-257.8,2035.8c1,0,1-1.6,0-1.6C-258.8,2034.2-258.8,2035.8-257.8,2035.8L-257.8,2035.8z"
				/>
		</g>
	</g>
	<g id="XMLID_71_">
		<g id="XMLID_180_">
			<path id="XMLID_184_" class="st23" d="M-241.2,2003.5c1,0,1-1.6,0-1.6C-242.2,2002-242.2,2003.5-241.2,2003.5L-241.2,2003.5z"/>
		</g>
	</g>
	<rect id="XMLID_293_" x="461.7" y="1563.5" class="st0" width="742.5" height="546.4"/>
	<g id="XMLID_286_">
		<g id="XMLID_228_">
			<rect id="XMLID_249_" x="461.6" y="1882" class="st6" width="742.9" height="123.9"/>
		</g>
		<g id="XMLID_229_">
		</g>
	</g>
	<g id="XMLID_279_">
		<g id="XMLID_642_">
			<path id="XMLID_646_" class="st23" d="M615.2,1725.8c1,0,1-1.6,0-1.6C614.2,1724.2,614.2,1725.8,615.2,1725.8L615.2,1725.8z"/>
		</g>
	</g>
	<g id="XMLID_272_">
		<g id="XMLID_634_">
			<path id="XMLID_640_" class="st23" d="M631.8,1693.5c1,0,1-1.6,0-1.6C630.8,1692,630.8,1693.5,631.8,1693.5L631.8,1693.5z"/>
		</g>
	</g>
	<g id="XMLID_159_">
		<g id="XMLID_164_">
			<rect id="XMLID_68_" x="-351.4" y="2683.4" class="st2" width="683" height="123.9"/>
		</g>
		<g id="XMLID_163_">
		</g>
	</g>
	<g id="XMLID_81_">
		<g id="XMLID_2_">
			<rect id="XMLID_17_" x="127.4" y="2372.3" class="st3" width="204.1" height="123.6"/>
		</g>
		<g id="XMLID_18_">
		</g>
	</g>
	<rect id="XMLID_310_" x="461.6" y="2110.4" class="st1" width="742.9" height="546"/>
	<rect id="XMLID_309_" x="694.5" y="2388.3" class="st31" width="126.1" height="27.9"/>
	<text id="XMLID_308_" transform="matrix(1 0 0 1 701.4697 2393.04)"><tspan x="0" y="0" class="st1" style="font-family:'Roboto-Thin'; font-size:6.2407px;">Desplegar items de un JSON con mismas </tspan><tspan x="-0.9" y="10.1" class="st1" style="font-family:'Roboto-Thin'; font-size:6.2407px;">caracteristicas, evitar refrescar la pagina al </tspan><tspan x="-4.8" y="20.2" class="st1" style="font-family:'Roboto-Thin'; font-size:6.2407px;">cambiar, sino solo  cambiando la informacion</tspan></text>
	<polyline id="XMLID_307_" class="st16" points="533.6,2337.3 533.6,2391 533.9,2390.8 592.7,2390.8 592.6,2390.5 592.6,2455.3 	"/>
	<g id="XMLID_300_">
		<g id="XMLID_298_">
			<rect id="XMLID_305_" x="521.6" y="2446" class="st2" width="683" height="123.9"/>
		</g>
		<g id="XMLID_304_">
		</g>
	</g>
	<g id="XMLID_292_">
		<g id="XMLID_230_">
			<rect id="XMLID_297_" x="1000.4" y="2150.3" class="st3" width="204.1" height="123.6"/>
		</g>
		<g id="XMLID_231_">
		</g>
	</g>
	<g id="XMLID_1724_">
		<rect id="XMLID_1769_" x="-2757.3" y="4265.8" class="st13" width="19.4" height="66.6"/>
		<rect id="XMLID_1760_" x="-2734.3" y="4265.8" class="st20" width="19.4" height="66.6"/>
		<rect id="XMLID_1759_" x="-2780.3" y="4265.8" class="st7" width="19.4" height="66.6"/>
		<rect id="XMLID_1738_" x="-2711.3" y="4265.8" class="st25" width="19.4" height="66.6"/>
		<rect id="XMLID_1737_" x="-2688.4" y="4265.8" class="st0" width="19.4" height="66.6"/>
		<rect id="XMLID_1727_" x="-2665.4" y="4265.8" class="st26" width="19.4" height="66.6"/>
		<rect id="XMLID_1725_" x="-2642.4" y="4265.8" class="st1" width="19.4" height="66.6"/>
	</g>
</g>
<g id="vectors">
	<line id="XMLID_109_" class="st11" x1="-278.9" y1="2332.3" x2="-278.9" y2="2378.3"/>
	<line id="XMLID_108_" class="st12" x1="-278.9" y1="2238.3" x2="-278.9" y2="2332.3"/>
	<line id="XMLID_104_" class="st11" x1="-153.9" y1="2345.3" x2="-4.9" y2="2345.3"/>
	<line id="XMLID_103_" class="st11" x1="-153.9" y1="2362.3" x2="-79.9" y2="2362.3"/>
	<g id="XMLID_98_">
		<rect id="XMLID_100_" x="-303.9" y="1913.1" class="st17" width="19.2" height="13.7"/>
		<rect id="XMLID_99_" x="-313.5" y="1919.9" class="st18" width="19.2" height="13.7"/>
	</g>
	<rect id="XMLID_227_" x="-347.5" y="1471.4" class="st17" width="19.2" height="13.7"/>
	<rect id="XMLID_226_" x="-351.4" y="1464.6" class="st8" width="19.2" height="13.7"/>
	<rect id="XMLID_91_" x="-385.1" y="2301" class="st1" width="19.2" height="13.7"/>
	
		<rect id="XMLID_90_" x="-372.5" y="2338.5" transform="matrix(0.9214 0.3886 -0.3886 0.9214 882.8519 325.351)" class="st20" width="19.2" height="13.7"/>
	<g id="XMLID_95_">
		<rect id="XMLID_97_" x="281.7" y="2279.1" class="st17" width="19.2" height="13.7"/>
		<rect id="XMLID_96_" x="272.1" y="2285.9" class="st0" width="19.2" height="13.7"/>
	</g>
	<g id="XMLID_664_">
		<g id="XMLID_658_">
			<g id="XMLID_663_">
				<rect id="XMLID_636_" x="-1285.4" y="2192" class="st6" width="742.9" height="123.9"/>
			</g>
			<g id="XMLID_662_">
			</g>
		</g>
		<line id="XMLID_657_" class="st11" x1="-1152.9" y1="2332.3" x2="-1152.9" y2="2378.3"/>
		<line id="XMLID_656_" class="st12" x1="-1152.9" y1="2238.3" x2="-1152.9" y2="2332.3"/>
		<line id="XMLID_655_" class="st11" x1="-1027.9" y1="2345.3" x2="-878.9" y2="2345.3"/>
		<line id="XMLID_654_" class="st11" x1="-1027.9" y1="2362.3" x2="-953.9" y2="2362.3"/>
		<rect id="XMLID_653_" x="-1259.1" y="2301" class="st1" width="19.2" height="13.7"/>
		
			<rect id="XMLID_652_" x="-1246.5" y="2338.5" transform="matrix(0.9214 0.3886 -0.3886 0.9214 814.1639 664.981)" class="st20" width="19.2" height="13.7"/>
		<g id="XMLID_649_">
			<rect id="XMLID_651_" x="-592.3" y="2279.1" class="st17" width="19.2" height="13.7"/>
			<rect id="XMLID_650_" x="-601.9" y="2285.9" class="st0" width="19.2" height="13.7"/>
		</g>
	</g>
	<g id="XMLID_92_">
		
			<rect id="XMLID_94_" x="19.2" y="2407.1" transform="matrix(-0.7499 -0.6616 0.6616 -0.7499 -1546.6699 4242.9907)" class="st17" width="19.2" height="13.7"/>
		
			<rect id="XMLID_93_" x="7.5" y="2405.8" transform="matrix(-0.7499 -0.6616 0.6616 -0.7499 -1566.3513 4233.0981)" class="st19" width="19.2" height="13.7"/>
	</g>
	<g id="XMLID_665_">
		<g id="XMLID_669_">
			<g id="XMLID_674_">
				<rect id="XMLID_566_" x="-746.6" y="2372.3" class="st3" width="204.1" height="123.6"/>
			</g>
			<g id="XMLID_673_">
			</g>
		</g>
		<g id="XMLID_666_">
			
				<rect id="XMLID_668_" x="-854.8" y="2407.1" transform="matrix(-0.7499 -0.6616 0.6616 -0.7499 -3076.04 3664.7502)" class="st17" width="19.2" height="13.7"/>
			
				<rect id="XMLID_667_" x="-866.5" y="2405.8" transform="matrix(-0.7499 -0.6616 0.6616 -0.7499 -3095.7214 3654.8579)" class="st19" width="19.2" height="13.7"/>
		</g>
	</g>
	<g id="XMLID_151_">
		<g id="XMLID_70_">
			<g id="XMLID_56_">
				<rect id="XMLID_88_" x="-351.6" y="1772.1" class="st8" width="106.6" height="125.6"/>
			</g>
			<g id="XMLID_87_">
			</g>
		</g>
		<rect id="XMLID_69_" x="-351.6" y="1883.5" class="st13" width="106.6" height="14.2"/>
	</g>
	<g id="XMLID_1_">
		<g id="XMLID_118_">
			<g id="XMLID_154_">
				<rect x="111.8" y="1349.6" class="st7" width="160.2" height="553.3"/>
			</g>
			<g id="XMLID_153_">
			</g>
		</g>
		<rect id="XMLID_67_" x="111.8" y="1883.8" class="st13" width="160.2" height="19.1"/>
	</g>
	<g id="XMLID_66_">
		<g id="XMLID_641_">
			<rect id="XMLID_648_" x="-1133.4" y="1913.1" class="st17" width="19.2" height="13.7"/>
			<rect id="XMLID_647_" x="-1143" y="1919.9" class="st18" width="19.2" height="13.7"/>
		</g>
		<g id="XMLID_622_">
			<g id="XMLID_626_">
				<g>
					<rect x="-1181" y="1772.1" class="st8" width="106.6" height="125.6"/>
				</g>
				<g>
				</g>
			</g>
			<rect id="XMLID_623_" x="-1181" y="1883.5" class="st13" width="106.6" height="14.2"/>
		</g>
	</g>
	<rect id="XMLID_453_" x="-717.6" y="1883.8" class="st13" width="160.2" height="19.1"/>
	<line id="XMLID_629_" class="st12" x1="594.1" y1="1965.3" x2="594.1" y2="2110.3"/>
	<g id="XMLID_624_">
		<rect id="XMLID_627_" x="569.1" y="1603.1" class="st17" width="19.2" height="13.7"/>
		<rect id="XMLID_625_" x="559.5" y="1609.9" class="st18" width="19.2" height="13.7"/>
	</g>
	<rect id="XMLID_450_" x="477.9" y="2085.8" class="st1" width="19.2" height="13.7"/>
	<g id="XMLID_616_">
		<rect id="XMLID_618_" x="1154.7" y="1969.1" class="st17" width="19.2" height="13.7"/>
		<rect id="XMLID_617_" x="1145.1" y="1975.9" class="st0" width="19.2" height="13.7"/>
	</g>
	<rect id="XMLID_615_" x="520.9" y="1563.2" class="st13" width="106.6" height="14.8"/>
	<rect id="XMLID_612_" x="984.3" y="1563.2" class="st13" width="160.2" height="19.1"/>
	<rect id="XMLID_590_" x="514.9" y="889.9" class="st17" width="19.2" height="13.7"/>
	<rect id="XMLID_589_" x="511" y="883.1" class="st8" width="19.2" height="13.7"/>
	<g id="XMLID_260_">
		<g id="XMLID_563_">
			<g id="XMLID_587_">
				<rect id="XMLID_628_" x="510.9" y="1119" class="st8" width="106.6" height="183.3"/>
			</g>
			<g id="XMLID_586_">
			</g>
		</g>
	</g>
	<g id="XMLID_234_">
		<g id="XMLID_235_">
			<g id="XMLID_258_">
				<rect id="XMLID_107_" x="974.3" y="768.1" class="st7" width="160.2" height="534.2"/>
			</g>
			<g id="XMLID_257_">
			</g>
		</g>
	</g>
	<g id="XMLID_85_">
		<rect id="XMLID_89_" x="304.9" y="2834.5" class="st21" width="19.2" height="13.7"/>
		<rect id="XMLID_86_" x="285.3" y="2849.6" class="st22" width="19.2" height="13.7"/>
	</g>
	<g id="XMLID_682_">
		<g id="XMLID_676_">
			<g id="XMLID_681_">
				<rect id="XMLID_675_" x="-1162.9" y="2683.4" class="st2" width="683" height="123.9"/>
			</g>
			<g id="XMLID_680_">
			</g>
		</g>
		<g id="XMLID_683_">
			<rect id="XMLID_687_" x="-522.9" y="2834.5" class="st21" width="19.2" height="13.7"/>
			<rect id="XMLID_684_" x="-542.5" y="2849.6" class="st22" width="19.2" height="13.7"/>
		</g>
	</g>
	<line id="XMLID_173_" class="st4" x1="21.1" y1="3380.3" x2="21.1" y2="3130.3"/>
	<line id="XMLID_172_" class="st5" x1="59.1" y1="3380.3" x2="59.1" y2="3276.3"/>
	<line id="XMLID_447_" class="st11" x1="594.1" y1="2110.3" x2="594.1" y2="2156.3"/>
	<line id="XMLID_340_" class="st11" x1="719.1" y1="2123.3" x2="868.1" y2="2123.3"/>
	<line id="XMLID_285_" class="st11" x1="719.1" y1="2140.3" x2="793.1" y2="2140.3"/>
	
		<rect id="XMLID_284_" x="500.5" y="2116.5" transform="matrix(0.9214 0.3886 -0.3886 0.9214 865.1937 -31.3373)" class="st20" width="19.2" height="13.7"/>
	<g id="XMLID_281_">
		
			<rect id="XMLID_283_" x="892.2" y="2185.1" transform="matrix(-0.7499 -0.6616 0.6616 -0.7499 127.8286 4432.1025)" class="st17" width="19.2" height="13.7"/>
		
			<rect id="XMLID_282_" x="880.5" y="2183.8" transform="matrix(-0.7499 -0.6616 0.6616 -0.7499 108.1473 4422.21)" class="st19" width="19.2" height="13.7"/>
	</g>
	<rect id="XMLID_333_" x="452" y="2743.9" class="st0" width="742.5" height="546.4"/>
	<g id="XMLID_326_">
		<g id="XMLID_331_">
			<rect id="XMLID_325_" x="452.4" y="2743.9" class="st9" width="203.7" height="166.1"/>
		</g>
		<g id="XMLID_330_">
		</g>
	</g>
	<g id="XMLID_319_">
		<g id="XMLID_324_">
			<rect id="XMLID_318_" x="451.6" y="2743.9" class="st9" width="203.7" height="166.1"/>
		</g>
		<g id="XMLID_323_">
		</g>
	</g>
	<rect id="XMLID_264_" x="1148.3" y="2744.6" class="st22" width="19.2" height="13.7"/>
	<rect id="XMLID_266_" x="1168.3" y="2731" class="st21" width="19.2" height="13.7"/>
	<g id="XMLID_57_">
		<rect id="XMLID_64_" x="168.3" y="4265.8" class="st13" width="15" height="66.6"/>
		<rect id="XMLID_63_" x="186.1" y="4265.8" class="st20" width="15" height="66.6"/>
		<rect id="XMLID_62_" x="150.5" y="4265.8" class="st7" width="15" height="66.6"/>
		<rect id="XMLID_61_" x="203.8" y="4265.8" class="st25" width="15" height="66.6"/>
		<rect id="XMLID_60_" x="221.6" y="4265.8" class="st0" width="15" height="66.6"/>
		<rect id="XMLID_59_" x="239.4" y="4265.8" class="st26" width="15" height="66.6"/>
		<rect id="XMLID_58_" x="257.1" y="4265.8" class="st1" width="15" height="66.6"/>
	</g>
	<g id="XMLID_696_">
		<rect id="XMLID_703_" x="-864.4" y="4265.8" class="st13" width="15" height="66.6"/>
		<rect id="XMLID_702_" x="-846.6" y="4265.8" class="st20" width="15" height="66.6"/>
		<rect id="XMLID_701_" x="-882.2" y="4265.8" class="st7" width="15" height="66.6"/>
		<rect id="XMLID_700_" x="-828.9" y="4265.8" class="st25" width="15" height="66.6"/>
		<rect id="XMLID_699_" x="-811.1" y="4265.8" class="st0" width="15" height="66.6"/>
		<rect id="XMLID_698_" x="-793.4" y="4265.8" class="st26" width="15" height="66.6"/>
		<rect id="XMLID_697_" x="-775.6" y="4265.8" class="st1" width="15" height="66.6"/>
	</g>
	<g id="XMLID_241_">
		<rect id="XMLID_240_" x="451.8" y="3590.2" class="st10" width="742.9" height="271.6"/>
		<rect id="XMLID_339_" x="511.6" y="3644.8" class="st27" width="683.1" height="217"/>
		<g id="XMLID_312_">
			<g id="XMLID_317_">
				<rect id="XMLID_232_" x="451.8" y="3315.3" class="st9" width="742.9" height="274.8"/>
			</g>
			<g id="XMLID_316_">
			</g>
		</g>
		<g id="XMLID_273_">
			<rect id="XMLID_338_" x="1031.5" y="3795.2" class="st13" width="15" height="66.6"/>
			<rect id="XMLID_337_" x="1049.3" y="3795.2" class="st20" width="15" height="66.6"/>
			<rect id="XMLID_336_" x="1013.7" y="3795.2" class="st7" width="15" height="66.6"/>
			<rect id="XMLID_335_" x="1067" y="3795.2" class="st25" width="15" height="66.6"/>
			<rect id="XMLID_334_" x="1084.8" y="3795.2" class="st0" width="15" height="66.6"/>
			<rect id="XMLID_332_" x="1102.6" y="3795.2" class="st26" width="15" height="66.6"/>
			<rect id="XMLID_311_" x="1120.3" y="3795.2" class="st1" width="15" height="66.6"/>
		</g>
	</g>
	<g id="XMLID_150_">
		<line id="XMLID_194_" class="st28" x1="272.1" y1="1205.7" x2="272.1" y2="4576.3"/>
		<g id="XMLID_185_">
			<line id="XMLID_193_" class="st29" x1="272.1" y1="1205.7" x2="272.1" y2="1211.7"/>
			<line id="XMLID_192_" class="st30" x1="272.1" y1="1223.7" x2="272.1" y2="4564.3"/>
			<line id="XMLID_191_" class="st29" x1="272.1" y1="4570.3" x2="272.1" y2="4576.3"/>
		</g>
	</g>
	<g id="XMLID_155_">
		<line id="XMLID_209_" class="st28" x1="-351.6" y1="4399.7" x2="-351.6" y2="1029"/>
		<g id="XMLID_205_">
			<line id="XMLID_208_" class="st29" x1="-351.6" y1="4399.7" x2="-351.6" y2="4393.7"/>
			<line id="XMLID_207_" class="st30" x1="-351.6" y1="4381.7" x2="-351.6" y2="1041"/>
			<line id="XMLID_206_" class="st29" x1="-351.6" y1="1035" x2="-351.6" y2="1029"/>
		</g>
	</g>
	<rect id="XMLID_479_" x="-1747.4" y="11.4" class="st1" width="1025.9" height="713.2"/>
	<rect id="XMLID_460_" x="-1425.7" y="395.2" class="st31" width="174.2" height="38.6"/>
	<text id="XMLID_459_" transform="matrix(1 0 0 1 -1416.1736 401.7349)"><tspan x="0" y="0" class="st1" style="font-family:'Roboto-Thin'; font-size:8.6179px;">Desplegar items de un JSON con mismas </tspan><tspan x="-1.3" y="13.9" class="st1" style="font-family:'Roboto-Thin'; font-size:8.6179px;">caracteristicas, evitar refrescar la pagina al </tspan><tspan x="-6.7" y="27.9" class="st1" style="font-family:'Roboto-Thin'; font-size:8.6179px;">cambiar, sino solo  cambiando la informacion</tspan></text>
	<polyline id="XMLID_458_" class="st16" points="-1648.4,324.3 -1648.4,398.9 -1647.5,398.8 -1566.4,398.8 -1566.4,398.2 
		-1566.4,487.3 	"/>
	<g id="XMLID_386_">
		<g id="XMLID_406_">
			<rect id="XMLID_414_" x="-1664.6" y="496.1" class="st2" width="943.2" height="171.1"/>
		</g>
		<g id="XMLID_391_">
		</g>
	</g>
	<g id="XMLID_290_">
		<g id="XMLID_384_">
			<rect id="XMLID_385_" x="-1003.4" y="66.5" class="st3" width="281.9" height="170.7"/>
		</g>
		<g id="XMLID_383_">
		</g>
	</g>
	<line id="XMLID_278_" class="st11" x1="-1564.9" y1="11.3" x2="-1564.9" y2="75.3"/>
	<line id="XMLID_277_" class="st11" x1="-1391.9" y1="29.3" x2="-1185.9" y2="29.3"/>
	<line id="XMLID_274_" class="st11" x1="-1391.9" y1="52.3" x2="-1289.9" y2="52.3"/>
	
		<rect id="XMLID_271_" x="-1693.7" y="19.8" transform="matrix(0.9214 0.3886 -0.3886 0.9214 -120.694 655.3231)" class="st20" width="26.5" height="18.9"/>
	<g id="XMLID_268_">
		
			<rect id="XMLID_270_" x="-1152.8" y="114.5" transform="matrix(-0.7499 -0.6616 0.6616 -0.7499 -2076.0676 -537.0296)" class="st17" width="26.5" height="18.9"/>
		
			<rect id="XMLID_269_" x="-1169" y="112.8" transform="matrix(-0.7499 -0.6616 0.6616 -0.7499 -2103.2461 -550.6901)" class="st19" width="26.5" height="18.9"/>
	</g>
	<rect id="XMLID_267_" x="-758.3" y="704.8" class="st21" width="26.5" height="18.9"/>
	<line id="XMLID_522_" class="st31" x1="-667.9" y1="11.8" x2="-667.9" y2="731.8"/>
	<rect id="XMLID_238_" x="1265.9" y="2675.5" class="st32" width="742.9" height="546.4"/>
	<rect id="XMLID_280_" x="1265.9" y="2035.6" class="st32" width="742.9" height="546.4"/>
	<rect id="XMLID_244_" x="1265.9" y="1395.7" class="st32" width="742.9" height="546.4"/>
	<rect id="XMLID_246_" x="1265.9" y="755.8" class="st32" width="742.9" height="546.4"/>
	<rect id="XMLID_237_" x="1265.9" y="3315.3" class="st32" width="742.9" height="546.4"/>
	<line id="XMLID_245_" class="st4" x1="884.1" y1="3275.3" x2="884.1" y2="3025.3"/>
	<line id="XMLID_243_" class="st5" x1="922.1" y1="3275.3" x2="922.1" y2="3171.3"/>
	<linearGradient id="XMLID_745_" gradientUnits="userSpaceOnUse" x1="111.8285" y1="1616.6771" x2="272.0696" y2="1616.6771">
		<stop  offset="0" style="stop-color:#A01127;stop-opacity:0.5"/>
		<stop  offset="1" style="stop-color:#211915"/>
	</linearGradient>
	<rect id="XMLID_117_" x="111.8" y="1349.6" class="st33" width="160.2" height="534.2"/>
	<rect id="XMLID_276_" x="-717.6" y="1349.6" class="st8" width="160.2" height="534.2"/>
	<g id="XMLID_506_">
		<g id="XMLID_721_">
			<g id="XMLID_726_">
				<rect id="XMLID_727_" x="-0.3" y="0.1" class="st6" width="742.9" height="123.9"/>
			</g>
			<g id="XMLID_725_">
			</g>
		</g>
		<line id="XMLID_720_" class="st11" x1="132.1" y1="140.3" x2="132.1" y2="186.3"/>
		<line id="XMLID_719_" class="st12" x1="132.1" y1="46.3" x2="132.1" y2="140.3"/>
		<line id="XMLID_718_" class="st11" x1="257.1" y1="153.3" x2="406.1" y2="153.3"/>
		<line id="XMLID_717_" class="st11" x1="257.1" y1="170.3" x2="331.1" y2="170.3"/>
		<rect id="XMLID_716_" x="26" y="109.1" class="st1" width="19.2" height="13.7"/>
		
			<rect id="XMLID_715_" x="38.5" y="146.7" transform="matrix(0.9214 0.3886 -0.3886 0.9214 63.4264 -6.6263)" class="st20" width="19.2" height="13.7"/>
		<g id="XMLID_507_">
			<rect id="XMLID_714_" x="692.7" y="87.3" class="st17" width="19.2" height="13.7"/>
			<rect id="XMLID_713_" x="683.1" y="94.1" class="st0" width="19.2" height="13.7"/>
		</g>
	</g>
	<g id="XMLID_137_">
		<g id="XMLID_252_">
			<g id="XMLID_259_">
				<rect id="XMLID_498_" x="538.4" y="180.4" class="st3" width="204.1" height="123.6"/>
			</g>
			<g id="XMLID_256_">
			</g>
		</g>
		<g id="XMLID_242_">
			
				<rect id="XMLID_251_" x="430.2" y="215.2" transform="matrix(-0.7499 -0.6616 0.6616 -0.7499 622.6849 679.5473)" class="st17" width="19.2" height="13.7"/>
			
				<rect id="XMLID_250_" x="418.5" y="214" transform="matrix(-0.7499 -0.6616 0.6616 -0.7499 603.0036 669.655)" class="st19" width="19.2" height="13.7"/>
		</g>
	</g>
	<line id="XMLID_741_" class="st31" x1="580.1" y1="304" x2="580.1" y2="0.1"/>
	<line id="XMLID_742_" class="st31" x1="580.1" y1="-21.7" x2="580.1" y2="-22.7"/>
	<line id="XMLID_743_" class="st31" x1="482.1" y1="304" x2="482.1" y2="0.1"/>
</g>
<g id="Capa_3">
	<g id="XMLID_216_">
		<line id="XMLID_215_" class="st34" x1="271.8" y1="1337.8" x2="271.8" y2="3760.3"/>
		<line id="XMLID_214_" class="st34" x1="-351.4" y1="1337.8" x2="-351.4" y2="3760.3"/>
		<line id="XMLID_213_" class="st34" x1="233.9" y1="1337.8" x2="233.9" y2="3760.3"/>
		<line id="XMLID_212_" class="st34" x1="218.3" y1="1337.8" x2="218.3" y2="3760.3"/>
		<line id="XMLID_211_" class="st34" x1="180.9" y1="1337.8" x2="180.9" y2="3760.3"/>
		<line id="XMLID_210_" class="st34" x1="165.3" y1="1337.8" x2="165.3" y2="3760.3"/>
		<line id="XMLID_203_" class="st34" x1="-245" y1="1337.8" x2="-245" y2="3760.3"/>
		<line id="XMLID_202_" class="st34" x1="-260.5" y1="1337.8" x2="-260.5" y2="3760.3"/>
		<line id="XMLID_201_" class="st34" x1="-297.9" y1="1337.8" x2="-297.9" y2="3760.3"/>
		<line id="XMLID_199_" class="st34" x1="-313.5" y1="1337.8" x2="-313.5" y2="3760.3"/>
		<line id="XMLID_198_" class="st34" x1="127.4" y1="1337.8" x2="127.4" y2="3760.3"/>
		<line id="XMLID_197_" class="st34" x1="111.8" y1="1337.8" x2="111.8" y2="3760.3"/>
		<line id="XMLID_196_" class="st34" x1="74.4" y1="1337.8" x2="74.4" y2="3760.3"/>
		<line id="XMLID_195_" class="st34" x1="58.9" y1="1337.8" x2="58.9" y2="3760.3"/>
		<line id="XMLID_178_" class="st34" x1="20.9" y1="1337.8" x2="20.9" y2="3760.3"/>
		<line id="XMLID_177_" class="st34" x1="5.4" y1="1337.8" x2="5.4" y2="3760.3"/>
		<line id="XMLID_174_" class="st34" x1="-32" y1="1337.8" x2="-32" y2="3760.3"/>
		<line id="XMLID_171_" class="st34" x1="-47.6" y1="1337.8" x2="-47.6" y2="3760.3"/>
		<line id="XMLID_165_" class="st34" x1="-85" y1="1337.8" x2="-85" y2="3760.3"/>
		<line id="XMLID_158_" class="st34" x1="-100.6" y1="1337.8" x2="-100.6" y2="3760.3"/>
		<line id="XMLID_156_" class="st34" x1="-138.5" y1="1337.8" x2="-138.5" y2="3760.3"/>
		<line id="XMLID_140_" class="st34" x1="-154.1" y1="1337.8" x2="-154.1" y2="3760.3"/>
		<line id="XMLID_139_" class="st34" x1="-191.5" y1="1337.8" x2="-191.5" y2="3760.3"/>
		<line id="XMLID_138_" class="st34" x1="-207.1" y1="1337.8" x2="-207.1" y2="3760.3"/>
	</g>
	<g id="XMLID_20_">
		<rect id="XMLID_224_" x="-3498.5" y="1337.3" class="st35" width="961.5" height="81.6"/>
		<line id="XMLID_223_" class="st34" x1="-2614.1" y1="1337.8" x2="-2614.1" y2="3760.3"/>
		<line id="XMLID_222_" class="st34" x1="-3421.4" y1="1337.8" x2="-3421.4" y2="3760.3"/>
		<line id="XMLID_221_" class="st34" x1="-2663.2" y1="1337.8" x2="-2663.2" y2="3760.3"/>
		<line id="XMLID_220_" class="st34" x1="-2683.4" y1="1337.8" x2="-2683.4" y2="3760.3"/>
		<line id="XMLID_219_" class="st34" x1="-2731.8" y1="1337.8" x2="-2731.8" y2="3760.3"/>
		<line id="XMLID_218_" class="st34" x1="-2752" y1="1337.8" x2="-2752" y2="3760.3"/>
		<line id="XMLID_217_" class="st34" x1="-3283.5" y1="1337.8" x2="-3283.5" y2="3760.3"/>
		<line id="XMLID_136_" class="st34" x1="-3303.7" y1="1337.8" x2="-3303.7" y2="3760.3"/>
		<line id="XMLID_135_" class="st34" x1="-3352.1" y1="1337.8" x2="-3352.1" y2="3760.3"/>
		<line id="XMLID_130_" class="st34" x1="-3372.3" y1="1337.8" x2="-3372.3" y2="3760.3"/>
		<line id="XMLID_129_" class="st34" x1="-2801.1" y1="1337.8" x2="-2801.1" y2="3760.3"/>
		<line id="XMLID_128_" class="st34" x1="-2821.3" y1="1337.8" x2="-2821.3" y2="3760.3"/>
		<line id="XMLID_127_" class="st34" x1="-2869.7" y1="1337.8" x2="-2869.7" y2="3760.3"/>
		<line id="XMLID_106_" class="st34" x1="-2889.9" y1="1337.8" x2="-2889.9" y2="3760.3"/>
		<line id="XMLID_105_" class="st34" x1="-2939" y1="1337.8" x2="-2939" y2="3760.3"/>
		<line id="XMLID_74_" class="st34" x1="-2959.2" y1="1337.8" x2="-2959.2" y2="3760.3"/>
		<line id="XMLID_73_" class="st34" x1="-3007.7" y1="1337.8" x2="-3007.7" y2="3760.3"/>
		<line id="XMLID_72_" class="st34" x1="-3027.8" y1="1337.8" x2="-3027.8" y2="3760.3"/>
		<line id="XMLID_55_" class="st34" x1="-3076.3" y1="1337.8" x2="-3076.3" y2="3760.3"/>
		<line id="XMLID_54_" class="st34" x1="-3096.5" y1="1337.8" x2="-3096.5" y2="3760.3"/>
		<line id="XMLID_53_" class="st34" x1="-3145.6" y1="1337.8" x2="-3145.6" y2="3760.3"/>
		<line id="XMLID_28_" class="st34" x1="-3165.8" y1="1337.8" x2="-3165.8" y2="3760.3"/>
		<line id="XMLID_27_" class="st34" x1="-3214.2" y1="1337.8" x2="-3214.2" y2="3760.3"/>
		<line id="XMLID_25_" class="st34" x1="-3234.4" y1="1337.8" x2="-3234.4" y2="3760.3"/>
	</g>
</g>
</svg>
