<?xml version="1.0" encoding="utf-8"?>
<!-- Generator: Adobe Illustrator 19.0.0, SVG Export Plug-In . SVG Version: 6.00 Build 0)  -->
<svg version="1.1" id="Capa_1" xmlns="http://www.w3.org/2000/svg" xmlns:xlink="http://www.w3.org/1999/xlink" x="0px" y="0px"
	 viewBox="0 0 46.5 46.6" style="enable-background:new 0 0 46.5 46.6;" xml:space="preserve">
<style type="text/css">
	.st0{fill:#FFFFFF;}
</style>
<g id="XMLID_7166_">
	<circle id="XMLID_7172_" cx="77.9" cy="-9.5" r="23.3"/>
	<path id="XMLID_7171_" d="M66.3-16.2c0,5.7,0,11.3,0,16.9c7.7,0,15.4,0,23.1,0c0-5.7,0-11.4,0-17.2c-0.1,0.1-0.2,0.1-0.2,0.2
		c-3.3,2.7-6.7,5.3-10,8c-0.8,0.6-1.7,0.6-2.4,0c-2.1-1.6-4.2-3.2-6.3-4.8C69.1-14.1,67.7-15.1,66.3-16.2z"/>
	<path id="XMLID_7170_" d="M88.4-19.7c-7.1,0-14,0-21,0c0.2,0.2,0.4,0.3,0.5,0.4c3.3,2.5,6.5,5,9.8,7.5c0.3,0.2,0.5,0.2,0.8,0
		c1.7-1.3,3.4-2.7,5-4C85.1-17,86.7-18.3,88.4-19.7z"/>
	<g id="XMLID_7167_">
		<path id="XMLID_7169_" class="st0" d="M66.3-16.2c1.4,1.1,2.8,2.1,4.2,3.2c2.1,1.6,4.2,3.2,6.3,4.8c0.8,0.6,1.6,0.6,2.4,0
			c3.3-2.7,6.7-5.3,10-8c0.1,0,0.1-0.1,0.2-0.2c0,5.7,0,11.5,0,17.2c-7.7,0-15.4,0-23.1,0C66.3-4.9,66.3-10.5,66.3-16.2z"/>
		<path id="XMLID_7168_" class="st0" d="M88.4-19.7c-1.7,1.4-3.3,2.6-4.9,3.9c-1.7,1.3-3.4,2.6-5,4c-0.3,0.2-0.5,0.2-0.8,0
			c-3.2-2.5-6.5-5-9.8-7.5c-0.2-0.1-0.3-0.3-0.5-0.4C74.4-19.7,81.4-19.7,88.4-19.7z"/>
	</g>
</g>
<g id="XMLID_7155_">
	<path id="XMLID_7161_" d="M0,43.1C0,29.9,0,16.7,0,3.5c0.1-0.1,0.1-0.3,0.2-0.4c0.3-0.9,0.8-1.6,1.5-2.2C2.2,0.4,2.9,0.3,3.5,0
		C16.7,0,29.8,0,43,0c0.4,0.1,0.8,0.2,1.1,0.4c1.6,0.8,2.4,2.2,2.4,3.9c0,2.1,0,4.2,0,6.3c0,10.4,0,20.9,0,31.3c0,1-0.2,2-0.9,2.9
		c-0.9,1.2-2.2,1.7-3.6,1.7c-8.6,0-17.3,0-25.9,0c-3.9,0-7.8,0-11.7,0c-1.8,0-3.2-0.8-4-2.4C0.2,43.8,0.2,43.4,0,43.1z M25.5,20.1
		c0-0.6,0-1.1,0-1.6c0-0.9-0.5-1.3-1.3-1.3c-1.7,0-3.3,0-5,0c-0.9,0-1.4,0.5-1.4,1.4c0,7.2,0,14.4,0,21.5c0,0.9,0.4,1.4,1.4,1.4
		c1.6,0,3.2,0,4.8,0c1.1,0,1.5-0.4,1.5-1.5c0-3.7,0-7.3,0-11c0-1.3,0.3-2.4,0.9-3.5c0.8-1.6,2.2-2.2,4-2c1.5,0.2,2.5,1,3,2.4
		c0.3,0.9,0.4,1.9,0.4,2.8c0,3.8,0,7.6,0,11.4c0,0.9,0.4,1.3,1.3,1.3c1.7,0,3.4,0,5.1,0c0.9,0,1.4-0.4,1.4-1.4c0-4,0-8.1,0-12.1
		c0-2.1-0.2-4.3-1-6.3c-1-2.5-2.7-4.1-5.4-4.7c-1.5-0.3-3.1-0.3-4.6-0.1c-1.8,0.3-3.4,1-4.6,2.5C25.9,19.6,25.8,19.8,25.5,20.1z
		 M14.4,29.3c0-3.6,0-7.1,0-10.7c0-1-0.5-1.4-1.4-1.4c-1.6,0-3.1,0-4.7,0c-1,0-1.5,0.5-1.5,1.5c0,7.1,0,14.2,0,21.3
		c0,1.1,0.4,1.5,1.5,1.5c1.5,0,3,0,4.5,0c1.2,0,1.6-0.4,1.6-1.6C14.4,36.3,14.4,32.8,14.4,29.3z M10.5,15c2.7,0,5-2.2,5-4.9
		c0-2.7-2.2-4.9-4.9-4.9c-2.7,0-4.9,2.2-5,4.9C5.6,12.8,7.8,15,10.5,15z"/>
	<path id="XMLID_7158_" class="st0" d="M25.5,20.1c0.2-0.3,0.4-0.5,0.6-0.7c1.2-1.4,2.7-2.2,4.6-2.5c1.5-0.2,3.1-0.2,4.6,0.1
		c2.6,0.6,4.4,2.2,5.4,4.7c0.8,2,1,4.1,1,6.3c0,4,0,8.1,0,12.1c0,0.9-0.4,1.4-1.4,1.4c-1.7,0-3.4,0-5.1,0c-0.9,0-1.3-0.4-1.3-1.3
		c0-3.8,0-7.6,0-11.4c0-1-0.1-1.9-0.4-2.8c-0.5-1.4-1.5-2.3-3-2.4c-1.8-0.2-3.1,0.4-4,2c-0.6,1.1-0.9,2.3-0.9,3.5c0,3.7,0,7.3,0,11
		c0,1.1-0.4,1.5-1.5,1.5c-1.6,0-3.2,0-4.8,0c-0.9,0-1.4-0.4-1.4-1.4c0-7.2,0-14.4,0-21.5c0-0.9,0.5-1.4,1.4-1.4c1.7,0,3.3,0,5,0
		c0.9,0,1.3,0.5,1.3,1.3C25.5,18.9,25.5,19.4,25.5,20.1z"/>
	<path id="XMLID_7157_" class="st0" d="M14.4,29.3c0,3.5,0,7,0,10.5c0,1.2-0.4,1.6-1.6,1.6c-1.5,0-3,0-4.5,0c-1.1,0-1.5-0.4-1.5-1.5
		c0-7.1,0-14.2,0-21.3c0-1,0.5-1.5,1.5-1.5c1.6,0,3.1,0,4.7,0c1,0,1.4,0.5,1.4,1.4C14.4,22.1,14.4,25.7,14.4,29.3z"/>
	<path id="XMLID_7156_" class="st0" d="M10.5,15c-2.8,0-4.9-2.2-4.9-5c0-2.7,2.3-4.9,5-4.9c2.7,0,4.9,2.2,4.9,4.9
		C15.5,12.8,13.3,15,10.5,15z"/>
</g>
<g id="XMLID_7150_">
	<path id="XMLID_7154_" class="st0" d="M17.4,96.8c-5,0-9.9,0-14.9,0"/>
	<path id="XMLID_7153_" class="st0" d="M2.5,96.1c1,0.4,1.8-0.2,1.8-1.3c0-1.2,0-2.5,0-3.7c0-0.1,0-0.3,0-0.3c-1.1,0-2.2,0.1-3.3,0
		c-1.3-0.1-2.4-0.4-3.4-1.3c-0.6-0.6-0.9-1.3-1.2-2.1c-0.5-1.2-1.2-2.3-2.4-3c-0.3-0.2-0.5-0.4-0.7-0.7c-0.2-0.3-0.1-0.5,0.2-0.5
		c0.5,0,1-0.1,1.4,0.1c1.3,0.4,2.2,1.2,2.9,2.4c0.4,0.7,0.9,1.3,1.7,1.7c1.4,0.9,2.9,0.6,4.3,0.2c0.4-0.1,0.7-0.3,0.7-0.8
		c0-0.2,0.1-0.5,0.2-0.7c0.3-0.6,0.7-1.2,1-1.9c-0.2,0-0.4,0-0.6-0.1c-1.2-0.3-2.5-0.5-3.6-0.9c-1.6-0.6-3.1-1.5-4.1-2.9
		c-1.9-2.8-2.3-5.9-1.9-9.1c0.2-1.6,0.9-3,2-4.2c0.1-0.1,0.2-0.4,0.1-0.5c-0.6-1.7-0.5-3.3,0-5c0.3-0.9,0.5-1.1,1.5-0.9
		c0,0,0.1,0,0.1,0C0.8,61.3,2.3,62,3.7,63c0.3,0.2,0.6,0.2,0.9,0.2c0.8-0.2,1.6-0.4,2.4-0.5c2.8-0.4,5.5-0.2,8.2,0.5
		c0.2,0.1,0.5,0,0.7-0.1c1.1-0.6,2.3-1.2,3.4-1.7c0.7-0.3,1.4-0.5,2.2-0.4c0.1,0,0.4,0.1,0.4,0.2c0.7,1.8,0.9,3.6,0.3,5.5
		c-0.1,0.3,0,0.5,0.2,0.7c1,1.2,1.6,2.5,1.9,4c0.2,1.3,0.2,2.6,0.1,3.8c-0.2,1.9-0.7,3.7-1.8,5.2c-1.4,2.1-3.6,3.1-5.9,3.7
		c-0.9,0.2-1.7,0.3-2.7,0.5c1.3,1.3,1.5,2.8,1.5,4.5c0,2,0,3.9,0,5.9c0,1.1,0.7,1.6,1.7,1.2"/>
	<path id="XMLID_7152_" d="M32.9,75.8c-0.1,0.9-0.2,1.7-0.4,2.6c-1,5.7-3.9,10.3-8.4,14c-2,1.7-4.3,2.8-6.8,3.7
		c-1,0.4-1.7-0.1-1.7-1.2c0-2,0-3.9,0-5.9c0-1.6-0.2-3.2-1.5-4.5c0.9-0.2,1.8-0.3,2.7-0.5c2.4-0.6,4.5-1.6,5.9-3.7
		c1.1-1.6,1.6-3.3,1.8-5.2c0.1-1.3,0.2-2.6-0.1-3.8c-0.3-1.5-0.9-2.8-1.9-4c-0.2-0.2-0.3-0.4-0.2-0.7c0.7-1.9,0.4-3.7-0.3-5.5
		c0-0.1-0.3-0.2-0.4-0.2c-0.8-0.1-1.5,0.1-2.2,0.4c-1.2,0.6-2.3,1.2-3.4,1.7c-0.2,0.1-0.5,0.2-0.7,0.1c-2.7-0.7-5.5-0.8-8.2-0.5
		c-0.8,0.1-1.6,0.3-2.4,0.5c-0.4,0.1-0.6,0-0.9-0.2c-1.4-0.9-3-1.7-4.6-2.1c0,0-0.1,0-0.1,0c-1-0.2-1.2,0-1.5,0.9
		c-0.5,1.7-0.6,3.3,0,5c0,0.1,0,0.4-0.1,0.5c-1,1.2-1.8,2.6-2,4.2c-0.4,3.3,0,6.4,1.9,9.1c1,1.5,2.5,2.4,4.1,2.9
		c1.2,0.4,2.4,0.6,3.6,0.9c0.2,0.1,0.4,0.1,0.6,0.1c-0.3,0.6-0.7,1.2-1,1.9c-0.1,0.2-0.2,0.5-0.2,0.7c0,0.5-0.3,0.7-0.7,0.8
		c-1.5,0.4-2.9,0.7-4.3-0.2c-0.7-0.4-1.2-1-1.7-1.7c-0.7-1.2-1.6-2-2.9-2.4c-0.5-0.1-1-0.1-1.4-0.1c-0.3,0-0.4,0.3-0.2,0.5
		c0.2,0.2,0.4,0.5,0.7,0.7c1.2,0.7,1.9,1.8,2.4,3c0.3,0.7,0.6,1.5,1.2,2.1c1,0.9,2.2,1.2,3.4,1.3c1.1,0,2.1,0,3.3,0c0,0,0,0.2,0,0.3
		c0,1.2,0,2.5,0,3.7c0,1.1-0.7,1.6-1.8,1.3c-4.8-1.7-8.6-4.6-11.5-8.8c-2-2.9-3.3-6.2-3.8-9.7c-0.1-0.6-0.1-1.1-0.2-1.7
		c0-1.1,0-2.2,0-3.2c0-0.1,0.1-0.2,0.1-0.3c0.2-1,0.2-2.1,0.5-3.1c1.1-4.9,3.6-9,7.3-12.3c3.6-3.1,7.8-5,12.6-5.5
		c2.9-0.3,5.8-0.1,8.6,0.7c4.7,1.3,8.7,3.9,11.8,7.7c2.6,3.2,4.3,6.9,4.9,11c0.1,0.6,0.2,1.3,0.3,1.9C32.9,73.7,32.9,74.8,32.9,75.8
		z"/>
	<path id="XMLID_7151_" class="st0" d="M17.4,96.1"/>
</g>
<g id="XMLID_5337_">
	<circle id="XMLID_7149_" cx="-34.2" cy="13.8" r="23.3"/>
	<path id="XMLID_7148_" class="st0" d="M-47.6,27.2l1.9-6.9c-1.2-2-1.8-4.3-1.8-6.6c0-7.3,6-13.3,13.3-13.3c3.6,0,6.9,1.4,9.4,3.9
		c2.5,2.5,3.9,5.8,3.9,9.4c0,7.3-6,13.3-13.3,13.3c0,0,0,0,0,0h0c-2.2,0-4.4-0.6-6.3-1.6L-47.6,27.2L-47.6,27.2z"/>
	<path id="XMLID_7147_" d="M-37.6,8c-0.3-0.6-0.5-0.6-0.8-0.6c-0.2,0-0.4,0-0.7,0c-0.2,0-0.6,0.1-0.9,0.4c-0.3,0.3-1.2,1.2-1.2,2.9
		c0,1.7,1.2,3.3,1.4,3.6c0.2,0.2,2.4,3.8,5.9,5.2c2.9,1.1,3.5,0.9,4.1,0.9c0.6-0.1,2-0.8,2.3-1.6c0.3-0.8,0.3-1.5,0.2-1.6
		c-0.1-0.1-0.3-0.2-0.7-0.4c-0.3-0.2-2-1-2.3-1.1c-0.3-0.1-0.5-0.2-0.8,0.2c-0.2,0.3-0.9,1.1-1.1,1.3c-0.2,0.2-0.4,0.3-0.7,0.1
		c-0.3-0.2-1.5-0.5-2.8-1.7c-1-0.9-1.7-2-1.9-2.4c-0.2-0.3,0-0.5,0.2-0.7c0.2-0.2,0.3-0.4,0.5-0.6c0.2-0.2,0.2-0.3,0.3-0.6
		c0.1-0.2,0.1-0.4,0-0.6C-36.6,10.3-37.3,8.6-37.6,8L-37.6,8z"/>
</g>
</svg>
