<?xml version="1.0" encoding="utf-8"?>
<!-- Generator: Adobe Illustrator 19.0.0, SVG Export Plug-In . SVG Version: 6.00 Build 0)  -->
<svg version="1.1" id="Capa_1" xmlns="http://www.w3.org/2000/svg" xmlns:xlink="http://www.w3.org/1999/xlink" x="0px" y="0px"
	 viewBox="124 52.9 1439.9 736" style="enable-background:new 124 52.9 1439.9 736;" xml:space="preserve">
<style type="text/css">
	.st0{fill:#ECE09E;}
	.st1{opacity:0.17;fill:#ECE09E;enable-background:new    ;}
	.st2{opacity:0.16;fill:#ECE09E;enable-background:new    ;}
	.st3{opacity:5.000000e-002;fill:#CDAE2F;enable-background:new    ;}
	.st4{opacity:6.000000e-002;fill:#CDAE2F;enable-background:new    ;}
	.st5{opacity:2.000000e-002;fill:#B7A868;enable-background:new    ;}
	.st6{fill:#706E6A;}
	.st7{fill:#E9EBED;}
	.st8{opacity:0.25;fill:#ECE09E;enable-background:new    ;}
	.st9{opacity:0.58;fill:#ECE09E;enable-background:new    ;}
	.st10{opacity:0.17;fill:#786A30;enable-background:new    ;}
	.st11{opacity:0.13;fill:#ECE09E;enable-background:new    ;}
	.st12{opacity:6.000000e-002;fill:#A38C2B;enable-background:new    ;}
	.st13{opacity:0.15;fill:#CDAE2F;enable-background:new    ;}
	.st14{opacity:8.000000e-002;fill:#CDAE2F;enable-background:new    ;}
	.st15{opacity:7.000000e-002;fill:#B7A868;enable-background:new    ;}
	.st16{fill:#DDC241;}
	.st17{fill:url(#XMLID_2_);}
</style>
<rect id="XMLID_3220_" x="372.6" y="315.4" transform="matrix(-0.9977 -6.782585e-002 6.782585e-002 -0.9977 985.8975 807.2635)" class="st0" width="268.2" height="143.1"/>
<rect id="XMLID_28_" x="380.8" y="661.4" transform="matrix(-0.9374 -0.3482 0.3482 -0.9374 688.5707 1556.9995)" class="st1" width="206.9" height="110.4"/>
<rect id="XMLID_3215_" x="636.5" y="162.8" transform="matrix(-0.9863 -0.1649 0.1649 -0.9863 1354.2657 516.7564)" class="st2" width="124.1" height="78.7"/>
<rect id="XMLID_3214_" x="156.4" y="216.7" transform="matrix(-0.9992 -3.996396e-002 3.996396e-002 -0.9992 389.0864 495.8583)" class="st3" width="86.2" height="54.7"/>
<rect id="XMLID_3212_" x="160.3" y="595.8" transform="matrix(-0.9562 0.2926 -0.2926 -0.9562 547.8998 1145.0912)" class="st4" width="56" height="35.5"/>
<rect id="XMLID_3211_" x="235.4" y="632.4" transform="matrix(-0.996 8.925887e-002 -8.925887e-002 -0.996 609.8433 1289.2004)" class="st4" width="81.4" height="51.7"/>
<rect id="XMLID_3210_" x="703.9" y="222.8" transform="matrix(-0.7864 0.6177 -0.6177 -0.7864 1439.4784 -21.3998)" class="st5" width="39.1" height="30.7"/>
<g id="XMLID_3201_">
	<rect id="XMLID_3203_" x="1489" y="880.5" class="st6" width="36.9" height="26.3"/>
	<rect id="XMLID_3202_" x="1470.6" y="893.6" class="st7" width="36.9" height="26.3"/>
</g>
<rect id="XMLID_42_" x="238.5" y="1296.8" transform="matrix(-0.9977 -6.782585e-002 6.782585e-002 -0.9977 816.4049 2854.0076)" class="st0" width="436.3" height="232.7"/>
<rect id="XMLID_41_" x="1243.8" y="1305.3" transform="matrix(-0.9607 0.2777 -0.2777 -0.9607 3094.9844 2320.9219)" class="st8" width="278.7" height="148.7"/>
<rect id="XMLID_48_" x="1770.4" y="1097.7" transform="matrix(-0.9986 -5.293788e-002 5.293788e-002 -0.9986 3754.7856 2443.5374)" class="st8" width="278.7" height="148.7"/>
<rect id="XMLID_40_" x="853.8" y="1676.6" transform="matrix(-0.9374 -0.3482 0.3482 -0.9374 1251.636 3688.6289)" class="st9" width="206.9" height="110.4"/>
<rect id="XMLID_39_" x="1316.7" y="1057.1" transform="matrix(-0.9697 0.2441 -0.2441 -0.9697 2989.8376 1806.1782)" class="st8" width="132.7" height="62.6"/>
<rect id="XMLID_51_" x="1745.2" y="1460.2" transform="matrix(-0.9376 -0.3476 0.3476 -0.9376 2933.0801 3487.729)" class="st10" width="68.3" height="41.2"/>
<rect id="XMLID_47_" x="292.9" y="702.9" transform="matrix(0.9697 0.2441 -0.2441 0.9697 190.0862 -65.4866)" class="st11" width="132.7" height="62.6"/>
<rect id="XMLID_46_" x="1.7" y="1645.2" transform="matrix(0.9376 -0.3476 0.3476 0.9376 -576.8146 116.3422)" class="st12" width="68.3" height="41.2"/>
<rect id="XMLID_37_" x="74.8" y="525.1" transform="matrix(-0.9863 -0.1649 0.1649 -0.9863 178.6684 1143.7922)" class="st8" width="124.1" height="78.7"/>
<rect id="XMLID_36_" x="161.4" y="1174.7" transform="matrix(-0.9992 -3.996396e-002 3.996396e-002 -0.9992 360.8009 2411.2913)" class="st13" width="86.2" height="54.7"/>
<rect id="XMLID_49_" x="257.7" y="529.8" transform="matrix(-0.9256 -0.3784 0.3784 -0.9256 387.9118 1205.1895)" class="st14" width="109.3" height="69.4"/>
<rect id="XMLID_50_" x="1482.6" y="1581.5" transform="matrix(-0.9256 -0.3784 0.3784 -0.9256 2402.7971 3704.6445)" class="st14" width="165.7" height="69.4"/>
<rect id="XMLID_35_" x="165.4" y="1553.8" transform="matrix(-0.9562 0.2926 -0.2926 -0.9562 838.1185 3017.7825)" class="st4" width="56" height="35.5"/>
<rect id="XMLID_34_" x="240.4" y="1590.5" transform="matrix(-0.996 8.925887e-002 -8.925887e-002 -0.996 705.3503 3201.1116)" class="st4" width="81.4" height="51.7"/>
<rect id="XMLID_33_" x="708.9" y="1180.9" transform="matrix(-0.7864 0.6177 -0.6177 -0.7864 2040.281 1686.988)" class="st15" width="39.1" height="30.7"/>
<rect id="XMLID_44_" x="948.5" y="1449.5" transform="matrix(-0.7864 0.6177 -0.6177 -0.7864 2634.1829 2018.7872)" class="st15" width="39.1" height="30.7"/>
<rect id="XMLID_45_" x="989.5" y="1402.1" transform="matrix(-0.953 0.3031 -0.3031 -0.953 2429.8677 2481.1379)" class="st15" width="65.9" height="54"/>
<g id="XMLID_27_">
	<rect id="XMLID_32_" x="340.8" y="1115.1" class="st6" width="36.9" height="26.3"/>
	<rect id="XMLID_31_" x="322.4" y="1128.2" class="st16" width="36.9" height="26.3"/>
</g>
<linearGradient id="XMLID_2_" gradientUnits="userSpaceOnUse" x1="-227.5303" y1="468.6556" x2="-593.5304" y2="75.6557" gradientTransform="matrix(1 0 0 -1 0 841.67)">
	<stop  offset="0" style="stop-color:#F7EC45;stop-opacity:0.5"/>
	<stop  offset="1" style="stop-color:#201813"/>
</linearGradient>
<polygon id="XMLID_43_" class="st17" points="-157.8,567.4 -486.9,545 -475,369.5 -145.8,391.8 "/>
</svg>
